<svg width="303" height="37" viewBox="0 0 303 37" fill="none" xmlns="http://www.w3.org/2000/svg">
<path d="M7.64193 2.11377V15.9321H8.59716L18.6462 2.11377H25.7914L13.9465 16.6872C18.7226 17.5179 20.6713 20.6515 22.2379 24.6913C23.4224 28.0515 24.454 31.3362 25.906 34.3944H19.525C18.3405 32.2046 17.6528 29.524 16.8122 27.0699C15.5513 23.1056 13.7554 20.3117 9.05567 20.3117H7.64193V34.3566H1.75769V2.11377H7.64193Z" fill="#393A3E"/>
<path d="M37.1777 2.11424L42.7181 14.6867C43.5587 16.801 44.3229 18.7265 45.0106 20.5765H45.1635C45.6602 19.0663 46.1951 17.103 47.0357 14.4979L51.2006 2.03873H57.5051L51.0095 18.3112C49.1373 23.0306 47.0739 27.901 44.705 30.8836C42.5652 33.4887 40.0052 34.9989 36.6046 34.9989C35.1526 34.9989 34.312 34.8479 33.5478 34.5836L34.0064 29.8265C34.5031 29.9775 35.1908 29.9775 36.0697 29.9775C38.7825 29.9775 40.5019 27.7122 41.3426 25.8622C41.61 25.2581 41.4954 24.7673 41.2661 24.1632L30.3383 2.00098H37.1777V2.11424Z" fill="#393A3E"/>
<path d="M84.2517 2.11424V34.3571H78.291V6.90914H69.35V15.4795C69.35 23.1438 68.5858 30.2418 63.8861 33.1867C62.4341 34.0173 60.3708 34.6969 58.0783 34.6969L57.3141 29.9775C58.8425 29.8265 60.1416 29.0336 60.9058 28.2785C63.1983 26.0132 63.5422 20.8785 63.5422 15.8949V2.00098H84.2517V2.11424Z" fill="#393A3E"/>
<path d="M98.3127 2.11377V13.7423C99.3443 13.5913 101.026 13.4781 102.325 13.4781C109.164 13.4781 115.125 16.6872 115.125 23.7474C115.125 26.7679 114.093 29.1464 112.565 30.7321C109.584 33.7525 104.541 34.6964 99.6882 34.6964C96.364 34.6964 93.8804 34.4321 92.3521 34.2811V2.11377H98.3127ZM98.3127 29.977C99.1533 30.1281 100.185 30.1281 101.369 30.1281C105.458 30.1281 108.858 28.2025 108.858 23.8985C108.858 19.5944 105.458 17.9332 101.369 17.9332C100.261 17.9332 99.2297 18.0087 98.3127 18.0842V29.977Z" fill="#393A3E"/>
<path d="M123.836 6.98465H114.552V2.00098H139.197V6.98465H129.797V34.3571H123.836V6.98465Z" fill="#393A3E"/>
<path d="M148.214 2.11408L153.754 14.6865C154.595 16.8008 155.359 18.7263 156.047 20.5763H156.2C156.697 19.0661 157.308 17.1029 158.072 14.4978L162.237 2.03857H168.541L162.046 18.311C160.174 23.0304 158.11 27.9008 155.741 30.8835C153.602 33.4886 151.042 34.9988 147.641 34.9988C146.189 34.9988 145.348 34.8478 144.584 34.5835L145.005 29.8641C145.501 30.0151 146.189 30.0151 147.068 30.0151C149.781 30.0151 151.5 27.7498 152.341 25.8998C152.608 25.2957 152.494 24.8049 152.264 24.2008L141.489 2.11408H148.214Z" fill="#393A3E"/>
<path d="M173.012 2.52969C175.228 2.11438 178.132 1.8501 182.144 1.8501C186.5 1.8501 189.633 2.79398 191.773 4.4552C193.721 6.04091 195.021 8.57051 195.021 11.6287C195.021 14.6868 194.104 17.1787 192.308 18.8776C189.939 21.2185 186.156 22.3511 181.991 22.3511C180.883 22.3511 179.928 22.2756 179.087 22.0868V34.3572H173.05V2.52969H173.012ZM178.896 17.5185C179.66 17.7828 180.616 17.7828 181.8 17.7828C186.232 17.7828 188.945 15.593 188.945 11.893C188.945 8.26847 186.385 6.41847 182.297 6.41847C180.692 6.41847 179.469 6.56949 178.896 6.68275V17.5185Z" fill="#393A3E"/>
<path d="M204.42 25.1821L201.592 34.3566H195.441L205.948 2.11377H213.552L224.098 34.3566H217.602L214.622 25.1821H204.42ZM213.781 20.727L211.221 12.7985C210.61 10.873 210.037 8.68316 209.616 6.71989H209.54C209.043 8.56989 208.508 10.8352 208.012 12.7985L205.452 20.727H213.781Z" fill="#393A3E"/>
<path d="M228.874 31.0724C228.874 28.8826 230.402 27.2969 232.542 27.2969C234.758 27.2969 236.21 28.8071 236.21 31.0724C236.21 33.2622 234.758 34.8479 232.466 34.8479C230.441 34.8856 228.874 33.1867 228.874 31.0724Z" fill="#333333"/>
<path d="M242.553 2.52969C244.769 2.11438 247.673 1.8501 251.685 1.8501C256.041 1.8501 259.174 2.79398 261.314 4.4552C263.262 6.04091 264.485 8.57051 264.485 11.6287C264.485 14.6868 263.53 17.1787 261.734 18.8776C259.365 21.2185 255.582 22.3511 251.417 22.3511C250.309 22.3511 249.354 22.2756 248.514 22.0868V34.3572H242.629V2.52969H242.553ZM248.437 17.5185C249.201 17.7828 250.157 17.7828 251.341 17.7828C255.773 17.7828 258.486 15.593 258.486 11.893C258.486 8.26847 255.926 6.41847 251.838 6.41847C250.233 6.41847 249.01 6.56949 248.437 6.68275V17.5185Z" fill="#EC2727"/>
<path d="M288.328 0.754883V3.62427C295.244 4.03958 302.236 8.07937 302.236 18.1222C302.236 28.1651 295.396 32.0916 288.251 32.6957V35.6406H282.635V32.6957C275.642 32.2049 268.726 28.3916 268.726 18.3865C268.726 8.00386 276.406 4.07733 282.711 3.62427V0.754883H288.328ZM282.711 7.66407C279.196 8.00386 274.878 10.609 274.878 18.1977C274.878 25.1069 278.966 28.1273 282.711 28.5804V7.66407ZM288.251 28.5426C291.919 28.2028 296.084 25.5222 296.084 18.0845C296.084 10.5712 292.072 7.96611 288.251 7.62631V28.5426Z" fill="#EC2727"/>
</svg>
