<svg width="220" height="79" viewBox="0 0 220 79" fill="none" xmlns="http://www.w3.org/2000/svg">
<g clip-path="url(#clip0_785_14059)">
<path d="M31.3 46.9001C27.4 46.9001 26.2 45.8001 26.2 39.3001C26.2 32.3001 27.5 31.7001 31.3 31.7001C35.1 31.7001 36.5 32.3001 36.5 39.3001C36.5 45.9001 35.2 46.9001 31.3 46.9001ZM31.3 26.2001C22.8 26.2001 19.5 29.8001 19.5 39.2001C19.5 48.7001 22.8 52.4001 31.3 52.4001C39.8 52.4001 43.2 48.7001 43.2 39.2001C43.2 29.9001 39.8 26.2001 31.3 26.2001ZM66.6 45.9001C66.6 45.8001 66.5 45.7001 66.4 45.7001H66.1C64.7 46.2001 62 46.7001 60.1 46.7001C56 46.7001 54.1 45.6001 54.1 39.3001C54.1 34.3001 54.7 31.9001 60.1 31.9001C61.6 31.9001 63.1 32.1001 64.9 32.7001C65 32.7001 65.2 32.7001 65.3 32.5001C66 31.2001 66.8 29.7001 67.7 27.7001V27.4001C67.7 27.3001 67.6 27.2001 67.5 27.2001C65.2 26.5001 62.3 26.1001 59.8 26.1001C51.2 26.1001 47.4 30.1001 47.4 39.2001C47.4 48.4001 51.2 52.5001 59.8 52.5001C61.9 52.5001 66.2 52.0001 68.2 51.2001C68.4 51.1001 68.4 51.0001 68.4 50.8001L66.6 45.9001ZM17.7 26.9001H0.3C0.1 26.9001 0 27.1001 0 27.3001V51.4001C0 51.6001 0.1 51.7001 0.3 51.7001H6.2C6.4 51.7001 6.5 51.6001 6.5 51.4001V32.7001H15.6C15.7 32.7001 15.8 32.6001 15.9 32.5001C16.6 30.9001 17.3 29.1001 18 27.4001V27.1001C17.9 27.0001 17.8 26.9001 17.7 26.9001Z" fill="#0065B1"/>
<path d="M143.175 27.0001H125.175C124.975 27.0001 124.875 27.1001 124.875 27.3001C124.375 35.4001 122.875 44.2001 120.675 51.3001V51.6001C120.775 51.7001 120.875 51.7001 120.975 51.7001H127.175C127.275 51.7001 127.475 51.6001 127.475 51.5001C129.175 46.0001 130.575 38.8001 131.075 32.7001H136.975V51.4001C136.975 51.6001 137.075 51.7001 137.275 51.7001H143.175C143.375 51.7001 143.475 51.6001 143.475 51.4001V27.4001C143.475 27.2001 143.375 27.0001 143.175 27.0001ZM219.275 27.0001H213.375C213.175 27.0001 213.075 27.1001 213.075 27.3001V45.9001C211.775 46.3001 210.475 46.4001 209.075 46.4001C205.175 46.4001 204.275 45.2001 204.275 40.0001V27.4001C204.275 27.2001 204.175 27.1001 203.975 27.1001H198.075C197.875 27.1001 197.775 27.2001 197.775 27.4001V40.8001C197.775 49.2001 200.575 52.5001 207.875 52.5001C211.975 52.5001 216.675 51.4001 219.375 50.4001C219.475 50.4001 219.575 50.2001 219.575 50.1001V27.4001C219.575 27.2001 219.475 27.0001 219.275 27.0001ZM94.775 27.1001H88.775C88.575 27.1001 88.475 27.2001 88.475 27.3001C87.575 31.0001 85.675 37.2001 83.075 43.7001L77.075 27.2001C77.075 27.1001 76.875 27.0001 76.775 27.0001H70.775C70.675 27.0001 70.575 27.1001 70.475 27.1001C70.375 27.2001 70.375 27.3001 70.475 27.4001L79.475 52.0001C78.575 53.9001 77.675 55.5001 76.875 57.0001C76.275 58.1001 75.675 59.2001 75.075 60.4001C74.975 60.5001 75.075 60.6001 75.075 60.7001C75.175 60.8001 75.275 60.9001 75.375 60.9001H81.875C81.975 60.9001 82.075 60.8001 82.175 60.7001C83.275 58.6001 84.675 55.6001 85.975 52.6001C89.775 43.6001 92.875 35.2001 95.175 27.5001C95.175 27.4001 95.175 27.3001 95.075 27.2001C94.975 27.1001 94.875 27.1001 94.775 27.1001ZM116.175 46.0001C116.175 45.9001 116.075 45.8001 115.975 45.8001H115.675C114.275 46.3001 111.575 46.8001 109.675 46.8001C105.575 46.8001 103.675 45.7001 103.675 39.4001C103.675 34.4001 104.275 32.0001 109.675 32.0001C111.175 32.0001 112.675 32.2001 114.475 32.8001C114.675 32.8001 114.775 32.8001 114.875 32.6001C115.575 31.3001 116.375 29.8001 117.275 27.8001V27.5001C117.275 27.4001 117.175 27.3001 117.075 27.3001C114.675 26.5001 111.775 26.1001 109.275 26.1001C100.675 26.1001 96.875 30.1001 96.875 39.2001C96.875 48.4001 100.675 52.5001 109.275 52.5001C111.375 52.5001 115.675 52.0001 117.675 51.2001C117.875 51.1001 117.875 51.0001 117.875 50.8001L116.175 46.0001ZM172.075 27.1001H166.075C165.975 27.1001 165.775 27.2001 165.775 27.3001C164.875 31.0001 162.975 37.2001 160.375 43.7001L154.375 27.2001C154.375 27.1001 154.175 27.0001 154.075 27.0001H148.075C147.975 27.0001 147.875 27.1001 147.775 27.1001C147.675 27.2001 147.675 27.3001 147.775 27.4001L156.775 52.0001C155.875 53.9001 154.975 55.4001 154.175 57.0001C153.575 58.1001 152.975 59.2001 152.375 60.4001C152.275 60.5001 152.375 60.6001 152.375 60.7001C152.475 60.8001 152.575 60.9001 152.675 60.9001H159.175C159.275 60.9001 159.375 60.8001 159.475 60.7001C160.575 58.6001 161.975 55.6001 163.275 52.6001C167.075 43.6001 170.175 35.2001 172.375 27.5001C172.375 27.4001 172.375 27.3001 172.275 27.2001C172.275 27.1001 172.175 27.1001 172.075 27.1001ZM194.075 27.0001H176.675C176.475 27.0001 176.375 27.1001 176.375 27.3001V51.4001C176.375 51.6001 176.475 51.7001 176.675 51.7001H182.575C182.775 51.7001 182.875 51.6001 182.875 51.4001V32.8001H191.975C192.075 32.8001 192.275 32.7001 192.275 32.6001C192.975 31.0001 193.675 29.2001 194.375 27.5001V27.2001C194.275 27.1001 194.175 27.0001 194.075 27.0001Z" fill="#EE3F58"/>
</g>
<defs>
<clipPath id="clip0_785_14059">
<rect width="219.575" height="78.8" fill="white" transform="translate(0 0.100098)"/>
</clipPath>
</defs>
</svg>
