<svg width="206" height="126" viewBox="0 0 206 126" fill="none" xmlns="http://www.w3.org/2000/svg">
<path d="M36.7508 125.986C36.6128 126.006 36.4725 126.006 36.3344 125.986C36.0959 125.929 35.8718 125.823 35.6765 125.674C35.4812 125.526 35.3189 125.339 35.2 125.124L14.7237 87.388C10.4124 79.0872 5.61772 71.0466 0.364453 63.3075C0.220339 63.1195 0.115507 62.9044 0.0562156 62.675C-0.00307534 62.4457 -0.0156213 62.2068 0.0193184 61.9725C0.0542581 61.7382 0.135984 61.5133 0.259611 61.3112C0.383237 61.1092 0.54625 60.934 0.738947 60.7963C0.931644 60.6585 1.15008 60.5609 1.38127 60.5092C1.61247 60.4576 1.85169 60.453 2.08469 60.4958C2.31769 60.5385 2.53971 60.6276 2.73756 60.7579C2.9354 60.8882 3.10502 61.0569 3.23631 61.2541C8.5724 69.096 13.4391 77.2472 17.8109 85.6649L37.3683 121.649C50.6746 112.962 65.7209 107.291 81.4512 105.035C95.351 103.097 106.508 104.82 114.607 110.19C116.336 111.35 118.345 112.025 120.423 112.144C122.502 112.262 124.575 111.821 126.424 110.865C127.694 110.126 128.895 109.275 130.014 108.324C130.761 107.735 131.45 107.132 132.312 106.572C137.223 103.126 143.21 101.69 148.423 100.613C164.977 97.3157 181.802 95.5564 198.68 95.3574C192.11 90.5553 185.784 85.4275 179.726 79.9929C179.554 79.8383 179.415 79.6514 179.316 79.4429C179.216 79.2344 179.159 79.0083 179.147 78.7776C179.135 78.547 179.168 78.3162 179.246 78.0985C179.323 77.8808 179.442 77.6804 179.597 77.5088C179.751 77.3372 179.938 77.1977 180.147 77.0984C180.355 76.999 180.581 76.9417 180.812 76.9297C181.043 76.9177 181.274 76.9512 181.491 77.0284C181.709 77.1056 181.909 77.2249 182.081 77.3796C189.364 83.9116 197.037 89.9967 205.056 95.6015C205.363 95.8182 205.594 96.1266 205.715 96.4826C205.836 96.8386 205.842 97.2238 205.731 97.583C205.621 97.9394 205.4 98.2513 205.1 98.4734C204.801 98.6955 204.438 98.8162 204.065 98.8179C185.63 98.7677 167.235 100.557 149.155 104.16C144.273 105.165 138.716 106.486 134.351 109.544C133.647 110.047 132.915 110.593 132.24 111.167C130.953 112.25 129.569 113.212 128.104 114.039C125.689 115.292 122.981 115.874 120.263 115.725C117.546 115.576 114.918 114.701 112.654 113.192C105.316 108.324 94.9777 106.787 81.9538 108.611C66.0965 110.875 50.9625 116.718 37.6985 125.698C37.4179 125.886 37.0882 125.986 36.7508 125.986Z" fill="white"/>
<path d="M1.80091 63.6653C1.37102 63.6685 0.955713 63.5095 0.637813 63.2201C0.286811 62.9128 0.0716775 62.479 0.0393931 62.0136C0.00710873 61.5481 0.160303 61.0888 0.465509 60.736C1.00207 60.0485 1.7174 59.5219 2.53322 59.2139C3.96915 58.5821 5.40509 58.0221 6.94153 57.5195C7.38522 57.3741 7.86844 57.4103 8.28552 57.6201C8.7026 57.83 9.01962 58.1965 9.16722 58.6395C9.24151 58.8582 9.27181 59.0894 9.2564 59.3199C9.24098 59.5504 9.18013 59.7755 9.07736 59.9824C8.9746 60.1892 8.83196 60.3737 8.65763 60.5252C8.48329 60.6767 8.28071 60.7923 8.06155 60.8652C6.62562 61.339 5.29022 61.8703 3.94045 62.4447C3.60551 62.5518 3.31689 62.7695 3.12196 63.0622C2.9565 63.2499 2.75333 63.4006 2.52571 63.5045C2.29809 63.6084 2.05112 63.6632 1.80091 63.6653Z" fill="white"/>
<path d="M121.168 109.572C121.082 109.572 120.997 109.546 120.925 109.498C120.853 109.449 120.798 109.38 120.766 109.299C118.196 103.053 118.339 95.3563 121.168 87.6166C124.963 77.8461 131.432 69.3416 139.835 63.0766C147.954 57.003 156.983 52.2535 166.587 49.0046C162.207 45.0701 133.216 18.6491 123.021 0.987184C102.114 9.04273 85.5573 30.4811 81.7952 54.4898C81.7803 54.561 81.7493 54.6278 81.7044 54.6851C81.6596 54.7424 81.6022 54.7885 81.5367 54.8201C81.4729 54.8553 81.4013 54.8737 81.3285 54.8737C81.2557 54.8737 81.184 54.8553 81.1203 54.8201C70.5499 47.8558 58.5887 43.279 46.0693 41.4085C34.1032 39.5829 21.8648 41.4356 10.9753 46.7214C12.5261 50.0528 14.0817 53.3698 15.642 56.6724C22.5632 71.4337 29.7285 86.6976 36.2619 101.875C52.8612 93.1737 73.3806 91.3213 97.2744 96.3327C107.915 98.5728 115.252 102.694 119.718 108.926C119.764 108.972 119.8 109.027 119.822 109.088C119.844 109.149 119.853 109.215 119.847 109.28C119.842 109.344 119.822 109.407 119.79 109.464C119.757 109.52 119.712 109.569 119.659 109.606C119.606 109.643 119.545 109.668 119.481 109.68C119.417 109.691 119.351 109.688 119.288 109.671C119.225 109.654 119.167 109.624 119.117 109.582C119.067 109.54 119.027 109.487 119 109.428C114.692 103.383 107.513 99.3769 97.1021 97.1943C73.2083 92.1829 52.732 94.0927 36.2619 102.938C36.1461 102.981 36.0188 102.981 35.903 102.938C35.7884 102.893 35.6957 102.806 35.6445 102.694C29.0823 87.3151 21.9027 71.9076 14.8379 57.0027C13.2297 53.5708 11.6071 50.1246 9.99885 46.6784C9.95126 46.5746 9.94401 46.4568 9.97852 46.3479C10.013 46.2391 10.0868 46.147 10.1855 46.0896C21.2978 40.5973 33.828 38.6476 46.0837 40.5039C58.5004 42.3551 70.375 46.8503 80.9049 53.6857C85.0834 29.4903 101.841 7.95142 123.006 0.0251107C123.106 -0.00944288 123.215 -0.00830448 123.315 0.0283316C123.414 0.0649676 123.498 0.134848 123.552 0.22614C134.278 19.1086 167.348 48.5451 167.678 48.8466C167.738 48.8957 167.784 48.9607 167.809 49.0343C167.835 49.1079 167.839 49.1871 167.822 49.263C167.806 49.3381 167.772 49.408 167.721 49.4659C167.671 49.5238 167.607 49.5676 167.534 49.5933C157.759 52.8248 148.57 57.6156 140.324 63.7802C132.073 69.9518 125.72 78.3148 121.987 87.9182C119.244 95.4568 119.115 102.924 121.585 108.969C121.627 109.077 121.626 109.199 121.58 109.306C121.534 109.413 121.448 109.499 121.341 109.543C121.286 109.567 121.227 109.577 121.168 109.572Z" fill="white"/>
<path d="M122.923 109.63C122.806 109.623 122.697 109.571 122.616 109.486C122.536 109.4 122.492 109.287 122.492 109.17C123.721 97.7883 128.838 87.1783 136.981 79.1309C144.52 71.8231 153.589 66.281 163.531 62.9049C169.212 60.989 175.005 59.4209 180.877 58.2094C164.607 42.8104 149.92 25.8199 137.038 7.49249C134.29 7.13491 131.5 7.68985 129.097 9.07201C129.047 9.11147 128.99 9.13975 128.928 9.15495C128.866 9.17014 128.802 9.17189 128.739 9.16008C128.676 9.14827 128.617 9.12318 128.565 9.08649C128.513 9.0498 128.469 9.00238 128.437 8.94741C128.405 8.89245 128.385 8.83123 128.379 8.76788C128.372 8.70454 128.379 8.64055 128.4 8.58022C128.42 8.51989 128.453 8.46464 128.497 8.41819C128.54 8.37174 128.593 8.33518 128.652 8.31097C131.26 6.7435 134.324 6.11047 137.34 6.51606C137.459 6.53184 137.567 6.59369 137.641 6.68837C150.694 25.2654 165.609 42.4612 182.155 58.0084C182.21 58.0662 182.249 58.1374 182.268 58.2149C182.287 58.2923 182.286 58.3735 182.264 58.4503C182.243 58.5271 182.201 58.597 182.144 58.6529C182.087 58.7089 182.017 58.749 181.94 58.7694C175.822 60.0297 169.789 61.6698 163.876 63.6803C154.032 67.0185 145.055 72.5074 137.598 79.7483C129.602 87.6315 124.575 98.0354 123.368 109.199C123.361 109.314 123.311 109.421 123.229 109.501C123.147 109.581 123.038 109.627 122.923 109.63Z" fill="white"/>
<path d="M125.034 109.572C124.94 109.572 124.85 109.542 124.775 109.486C124.683 109.415 124.622 109.31 124.606 109.195C124.59 109.079 124.62 108.962 124.689 108.868C125.034 108.423 133.175 98.027 137.282 94.3654C149.688 83.3088 172.175 73.5732 192.68 77.9241C188.445 71.0437 182.967 65.0108 176.526 60.1329C176.433 60.0606 176.372 59.9541 176.357 59.837C176.342 59.7198 176.375 59.6016 176.447 59.5083C176.519 59.415 176.626 59.3543 176.743 59.3395C176.86 59.3246 176.978 59.357 177.071 59.4293C183.866 64.5834 189.608 70.9935 193.987 78.3118C194.033 78.3849 194.057 78.4695 194.057 78.5559C194.057 78.6422 194.033 78.7268 193.987 78.8C193.937 78.8721 193.866 78.9272 193.784 78.958C193.702 78.9888 193.612 78.9938 193.527 78.9723C173.065 74.1332 150.349 83.8832 137.899 94.9829C133.85 98.587 125.507 109.256 125.421 109.342C125.381 109.41 125.324 109.466 125.256 109.506C125.189 109.546 125.112 109.569 125.034 109.572Z" fill="white"/>
<path d="M120.461 109.6C120.385 109.601 120.31 109.582 120.244 109.544C120.178 109.506 120.124 109.451 120.088 109.384C115.585 101.869 110.652 94.6193 105.312 87.6732L80.7719 54.4171C80.7183 54.3217 80.7017 54.2099 80.7253 54.103C80.7489 53.9962 80.8111 53.9017 80.8999 53.8378C80.9887 53.7738 81.098 53.7449 81.2068 53.7564C81.3157 53.7679 81.4164 53.8191 81.4899 53.9002L106.059 87.1563C111.41 94.1287 116.357 101.402 120.877 108.939C120.932 109.041 120.946 109.16 120.916 109.272C120.887 109.383 120.817 109.48 120.719 109.542C120.642 109.589 120.551 109.609 120.461 109.6Z" fill="white"/>
<path d="M112.969 79.749H112.84C112.727 79.7128 112.634 79.6334 112.58 79.5284C112.526 79.4234 112.516 79.3013 112.553 79.189C115.186 71.5669 119.45 64.6107 125.048 58.8052C130.645 52.9997 137.441 48.4844 144.962 45.5739C145.016 45.5532 145.074 45.5434 145.133 45.5451C145.191 45.5469 145.249 45.5601 145.302 45.5841C145.356 45.6081 145.404 45.6424 145.444 45.685C145.484 45.7276 145.515 45.7777 145.536 45.8324C145.556 45.8861 145.566 45.9433 145.564 46.0008C145.562 46.0582 145.549 46.1147 145.525 46.1669C145.501 46.2191 145.466 46.2659 145.424 46.3046C145.381 46.3434 145.332 46.3732 145.277 46.3924C137.884 49.2514 131.202 53.687 125.697 59.3905C120.192 65.0941 115.995 71.9287 113.4 79.4187C113.372 79.5124 113.316 79.5949 113.238 79.6543C113.161 79.7136 113.067 79.7468 112.969 79.749Z" fill="white"/>
<path d="M106.752 70.7757H106.58C106.476 70.723 106.395 70.6338 106.353 70.5252C106.31 70.4166 106.309 70.2962 106.35 70.187C106.709 69.3541 107.068 68.5213 107.413 67.6884C111.218 58.7139 114.506 50.9743 122.662 45.1157C122.758 45.0621 122.87 45.0455 122.977 45.0691C123.083 45.0927 123.178 45.1548 123.242 45.2436C123.306 45.3325 123.335 45.4417 123.323 45.5506C123.312 45.6594 123.261 45.7602 123.179 45.8336C115.224 51.5774 111.979 59.1878 108.231 68.0331C107.887 68.8659 107.528 69.6987 107.169 70.5316C107.13 70.608 107.07 70.6717 106.997 70.715C106.923 70.7583 106.838 70.7794 106.752 70.7757Z" fill="white"/>
<path d="M129.47 40.6922C129.405 40.6919 129.34 40.6777 129.281 40.6505C129.221 40.6232 129.168 40.5836 129.125 40.5343C129.054 40.44 129.021 40.3217 129.034 40.204C129.048 40.0862 129.106 39.9782 129.197 39.9025C131.296 38.3592 133.559 37.0541 135.946 36.0111H136.09C136.141 35.9844 136.198 35.9684 136.256 35.9641C136.314 35.9598 136.372 35.9672 136.427 35.986C136.482 36.0048 136.533 36.0345 136.576 36.0734C136.619 36.1122 136.654 36.1594 136.678 36.2122C136.705 36.2646 136.72 36.322 136.723 36.3806C136.727 36.4392 136.718 36.4979 136.698 36.553C136.678 36.6081 136.646 36.6586 136.606 36.7012C136.566 36.7438 136.517 36.7777 136.463 36.8009L136.334 36.8727C133.999 37.8799 131.788 39.1519 129.743 40.6635C129.657 40.6998 129.562 40.7098 129.47 40.6922Z" fill="white"/>
<path d="M98.6245 62.7178C98.5729 62.7326 98.5182 62.7326 98.4666 62.7178C98.4124 62.6986 98.3626 62.6688 98.3202 62.6301C98.2777 62.5913 98.2434 62.5445 98.2193 62.4923C98.1952 62.4401 98.1819 62.3836 98.1799 62.3262C98.178 62.2687 98.1876 62.2115 98.2081 62.1578C104.612 44.9267 114.003 34.4301 128.88 28.2269C128.986 28.1906 129.103 28.196 129.205 28.2422C129.308 28.2883 129.39 28.3717 129.433 28.4755C129.477 28.5793 129.48 28.6959 129.441 28.8016C129.402 28.9074 129.325 28.9945 129.224 29.0454C114.649 35.1337 105.345 45.4436 99.0697 62.4594C99.0352 62.5461 98.9726 62.6187 98.8918 62.6656C98.8111 62.7125 98.717 62.7309 98.6245 62.7178Z" fill="white"/>
<path d="M91.4587 56.3299H91.3295C91.2178 56.2965 91.1236 56.2207 91.0672 56.1187C91.0108 56.0166 90.9968 55.8966 91.028 55.7842C91.3295 54.7647 91.6023 53.7596 91.8752 52.7688C93.3111 47.6138 94.6034 42.7173 98.2794 38.5675C98.3574 38.478 98.4679 38.4232 98.5863 38.4151C98.7048 38.407 98.8217 38.4463 98.9112 38.5244C99.0007 38.6025 99.0555 38.7129 99.0636 38.8314C99.0716 38.9499 99.0323 39.0667 98.9543 39.1562C95.3932 43.1768 94.1008 47.9441 92.7223 52.9986C92.4495 53.9893 92.1767 55.0089 91.8752 56.0284C91.8474 56.1167 91.7918 56.1937 91.7168 56.2481C91.6418 56.3024 91.5513 56.3311 91.4587 56.3299Z" fill="white"/>
<path d="M102.95 34.1994C102.85 34.1985 102.754 34.163 102.677 34.0989C102.636 34.0587 102.603 34.0107 102.581 33.9577C102.558 33.9047 102.547 33.8477 102.547 33.7901C102.547 33.7326 102.558 33.6756 102.581 33.6226C102.603 33.5696 102.636 33.5215 102.677 33.4814C104.792 30.5526 107.407 28.02 110.403 26.0002C110.502 25.9594 110.613 25.9558 110.714 25.9902C110.816 26.0246 110.902 26.0945 110.956 26.1872C111.01 26.2799 111.029 26.389 111.009 26.4945C110.989 26.6 110.932 26.6947 110.848 26.7613C107.948 28.7374 105.412 31.2004 103.352 34.0414C103.303 34.0987 103.241 34.143 103.171 34.1706C103.101 34.1981 103.025 34.208 102.95 34.1994Z" fill="white"/>
<path d="M114.548 24.1056C114.486 24.1079 114.424 24.0962 114.367 24.0714C114.31 24.0465 114.259 24.0091 114.218 23.962C114.138 23.8791 114.094 23.7684 114.094 23.6533C114.094 23.5382 114.138 23.4275 114.218 23.3446C116.117 21.5924 118.272 20.1398 120.608 19.0368C120.717 18.994 120.838 18.9957 120.945 19.0413C121.053 19.087 121.138 19.173 121.182 19.2809C121.225 19.3895 121.224 19.5106 121.178 19.618C121.132 19.7255 121.046 19.8107 120.938 19.8553C118.709 20.8971 116.651 22.2722 114.836 23.9333C114.763 24.0228 114.661 24.0838 114.548 24.1056Z" fill="white"/>
<path d="M118.525 110.378C115.976 110.395 113.441 110.007 111.015 109.229C110.902 109.191 110.81 109.11 110.757 109.003C110.705 108.897 110.697 108.774 110.735 108.662C110.773 108.549 110.854 108.457 110.96 108.404C111.067 108.352 111.189 108.344 111.302 108.382C115.684 109.71 120.339 109.864 124.8 108.827C129.283 107.792 133.648 106.295 137.823 104.361C137.931 104.321 138.049 104.322 138.155 104.365C138.261 104.407 138.348 104.488 138.398 104.591C138.422 104.645 138.434 104.703 138.436 104.761C138.437 104.82 138.427 104.878 138.405 104.933C138.384 104.988 138.352 105.038 138.311 105.08C138.271 105.122 138.222 105.156 138.168 105.18C133.935 107.133 129.513 108.649 124.972 109.703C122.85 110.138 120.691 110.364 118.525 110.378Z" fill="white"/>
<path d="M38.1254 112.429H38.0249C37.9682 112.415 37.9148 112.391 37.8679 112.356C37.821 112.321 37.7816 112.278 37.7521 112.228C33.9899 105.637 30.5724 98.7011 27.2124 92.0097C21.0666 79.6463 14.7198 66.8235 6.10426 55.5946C6.05918 55.5264 6.03516 55.4465 6.03516 55.3648C6.03516 55.2831 6.05918 55.2032 6.10426 55.1351C7.32138 52.6895 9.26825 50.6824 11.6757 49.3914C11.7804 49.3362 11.9028 49.3248 12.0159 49.3598C12.129 49.3948 12.2235 49.4733 12.2787 49.578C12.334 49.6828 12.3453 49.8051 12.3103 49.9182C12.2753 50.0313 12.1968 50.1259 12.0921 50.1811C9.91846 51.3452 8.15055 53.1432 7.02325 55.3361C15.5527 66.6369 21.8851 79.3592 28.0021 91.6651C31.2617 98.2129 34.6361 104.976 38.2834 111.423C54.9837 100.893 74.9487 96.8094 94.4424 99.936C103.704 101.53 111.142 104.718 116.541 109.384C116.583 109.425 116.615 109.473 116.638 109.526C116.66 109.579 116.672 109.636 116.672 109.693C116.672 109.751 116.66 109.808 116.638 109.861C116.615 109.914 116.583 109.962 116.541 110.002C116.5 110.044 116.451 110.077 116.397 110.099C116.342 110.122 116.284 110.133 116.225 110.133C116.167 110.133 116.109 110.122 116.054 110.099C116 110.077 115.951 110.044 115.91 110.002C110.625 105.436 103.331 102.334 94.2414 100.754C74.7972 97.5826 54.8655 101.671 38.2403 112.242C38.2215 112.314 38.1815 112.379 38.1254 112.429Z" fill="white"/>
<path d="M42.3366 86.9296C42.2576 86.9278 42.1805 86.9057 42.1126 86.8655C42.0447 86.8253 41.9883 86.7682 41.9489 86.6998C41.8958 86.5962 41.8841 86.4763 41.9161 86.3643C41.9481 86.2524 42.0214 86.1567 42.1212 86.0967C50.0265 81.961 58.8815 79.98 67.7955 80.353C76.6303 80.6807 85.3643 82.3461 93.6996 85.2926C93.7564 85.3088 93.8092 85.3365 93.8548 85.3739C93.9004 85.4114 93.9378 85.4578 93.9648 85.5103C93.9917 85.5628 94.0075 85.6203 94.0113 85.6792C94.0151 85.7381 94.0068 85.7971 93.9868 85.8526C93.9477 85.9623 93.8672 86.0523 93.7625 86.1033C93.6578 86.1543 93.5373 86.1623 93.4268 86.1255C85.1995 83.201 76.5776 81.5357 67.853 81.1859C59.0841 80.8447 50.3807 82.8261 42.6237 86.9296C42.5313 86.9649 42.429 86.9649 42.3366 86.9296Z" fill="white"/>
<path d="M83.9488 74.2626C83.8969 74.2754 83.8427 74.2754 83.7908 74.2626C79.0535 72.4121 74.0508 71.331 68.9721 71.0605C68.9142 71.0587 68.8573 71.0453 68.8048 71.021C68.7522 70.9967 68.7051 70.9621 68.6663 70.9192C68.6274 70.8763 68.5976 70.826 68.5786 70.7714C68.5596 70.7167 68.5518 70.6587 68.5557 70.601C68.5575 70.5431 68.5709 70.4862 68.5952 70.4337C68.6194 70.3812 68.6541 70.334 68.6969 70.2952C68.7398 70.2563 68.7901 70.2265 68.8448 70.2075C68.8995 70.1885 68.9574 70.1807 69.0151 70.1846C74.1874 70.4588 79.2824 71.5593 84.1067 73.4441C84.1615 73.4648 84.2115 73.4961 84.2541 73.5362C84.2967 73.5763 84.331 73.6244 84.355 73.6777C84.379 73.7311 84.3923 73.7886 84.394 73.8471C84.3958 73.9056 84.386 73.9638 84.3652 74.0185C84.3281 74.0961 84.2686 74.1608 84.1944 74.2044C84.1202 74.2479 84.0346 74.2681 83.9488 74.2626Z" fill="white"/>
<path d="M38.0886 76.5333C37.9943 76.538 37.9011 76.5115 37.8233 76.4579C37.7455 76.4044 37.6875 76.3268 37.6581 76.2371C37.6287 76.1473 37.6296 76.0504 37.6607 75.9612C37.6918 75.8721 37.7513 75.7956 37.8301 75.7436C43.8898 71.3496 51.8304 70.3588 58.809 69.7845C58.8716 69.769 58.9368 69.7673 59.0001 69.7796C59.0634 69.7918 59.1233 69.8176 59.1757 69.8552C59.228 69.8929 59.2715 69.9414 59.3033 69.9975C59.335 70.0537 59.3542 70.116 59.3594 70.1803C59.3647 70.2445 59.3559 70.3091 59.3338 70.3697C59.3116 70.4302 59.2765 70.4852 59.231 70.5309C59.1855 70.5765 59.1306 70.6118 59.0702 70.6341C59.0097 70.6565 58.9451 70.6654 58.8808 70.6604C52.0315 71.2348 44.22 72.1968 38.3471 76.4041C38.2771 76.4738 38.1864 76.5192 38.0886 76.5333Z" fill="white"/>
<path d="M31.6272 65.5318C31.5477 65.533 31.4693 65.5122 31.4009 65.4717C31.3325 65.4311 31.2766 65.3724 31.2395 65.302C31.212 65.2502 31.195 65.1935 31.1895 65.1351C31.184 65.0767 31.1901 65.0177 31.2074 64.9617C31.2248 64.9056 31.253 64.8536 31.2906 64.8085C31.3281 64.7634 31.3742 64.7262 31.4262 64.699C47.006 56.5429 68.1859 57.6198 78.1799 63.7512C78.2582 63.8207 78.3094 63.9156 78.3247 64.0191C78.34 64.1226 78.3182 64.2282 78.2634 64.3174C78.2086 64.4065 78.1241 64.4734 78.0248 64.5065C77.9255 64.5395 77.8177 64.5365 77.7204 64.4979C67.9274 58.5101 47.1495 57.4762 31.7708 65.4887C31.7256 65.5108 31.6771 65.5254 31.6272 65.5318Z" fill="white"/>
<path d="M73.267 56.3288C73.2054 56.342 73.1418 56.342 73.0803 56.3288L72.3911 55.9985C69.0417 54.3041 65.5421 52.9244 61.9375 51.8774C61.8252 51.8439 61.7299 51.7687 61.6712 51.6673C61.6125 51.5659 61.5947 51.4458 61.6216 51.3317C61.6543 51.232 61.7213 51.147 61.8106 51.0918C61.9 51.0366 62.0059 51.0148 62.1098 51.0302C65.768 52.0801 69.3167 53.4794 72.707 55.2088L73.3962 55.5246C73.4999 55.5773 73.5799 55.6673 73.6199 55.7766C73.6599 55.8859 73.6569 56.0062 73.6116 56.1134C73.5737 56.1726 73.5231 56.2226 73.4635 56.2599C73.4039 56.2972 73.3368 56.3207 73.267 56.3288Z" fill="white"/>
<path d="M25.7352 55.1368C25.6395 55.1303 25.5484 55.093 25.4756 55.0305C25.4028 54.968 25.3521 54.8837 25.3311 54.79C25.3101 54.6964 25.3199 54.5985 25.3591 54.5109C25.3983 54.4233 25.4648 54.3507 25.5486 54.304C34.6954 49.7664 45.3931 49.8957 54.8271 49.9962C54.8855 49.9962 54.9434 50.0077 54.9974 50.0301C55.0515 50.0524 55.1005 50.0852 55.1419 50.1266C55.1832 50.1679 55.216 50.217 55.2384 50.271C55.2607 50.325 55.2722 50.3829 55.2722 50.4413C55.2651 50.5557 55.2155 50.6633 55.1332 50.743C55.0508 50.8227 54.9416 50.8687 54.8271 50.8721C45.4936 50.7572 34.9108 50.6136 25.9506 55.065C25.886 55.1066 25.8119 55.1313 25.7352 55.1368Z" fill="white"/>
<path d="M75.2031 31.0571C75.0982 31.0581 74.9965 31.0207 74.9171 30.9519C74.8378 30.8832 74.7864 30.7878 74.7724 30.6838C74.0148 25.2918 74.8691 19.7962 77.2278 14.8886C77.2469 14.8273 77.2791 14.7709 77.3221 14.7232C77.3651 14.6755 77.4179 14.6377 77.4769 14.6123C77.5359 14.587 77.5997 14.5747 77.6639 14.5763C77.7281 14.5779 77.7912 14.5934 77.8489 14.6217C77.9065 14.65 77.9573 14.6905 77.9978 14.7403C78.0384 14.7901 78.0677 14.848 78.0837 14.9102C78.0998 14.9724 78.1021 15.0373 78.0907 15.1005C78.0793 15.1637 78.0543 15.2237 78.0175 15.2763C75.7229 20.0448 74.8982 25.3879 75.6483 30.6264C75.6647 30.7424 75.6348 30.8603 75.5649 30.9544C75.495 31.0485 75.3908 31.1112 75.2749 31.1289L75.2031 31.0571Z" fill="white"/>
<path d="M69.2832 29.291C69.1888 29.2913 69.0969 29.2605 69.0216 29.2034C68.9464 29.1464 68.892 29.0661 68.8668 28.9751C67.9048 25.7012 66.7847 22.4273 65.5642 19.2395C65.5434 19.1849 65.5336 19.1266 65.5354 19.0681C65.5371 19.0097 65.5504 18.9521 65.5744 18.8988C65.5984 18.8454 65.6327 18.7974 65.6753 18.7573C65.7179 18.7172 65.7679 18.6859 65.8226 18.6652C65.8763 18.6446 65.9336 18.635 65.991 18.637C66.0485 18.6389 66.1049 18.6523 66.1571 18.6764C66.2093 18.7005 66.2562 18.7347 66.2949 18.7772C66.3336 18.8197 66.3635 18.8695 66.3827 18.9236C67.6176 22.1258 68.7376 25.4284 69.714 28.731C69.7452 28.8433 69.7311 28.9634 69.6747 29.0654C69.6183 29.1675 69.5242 29.2433 69.4125 29.2767L69.2832 29.291Z" fill="white"/>
<path d="M60.5283 31.4012C60.4248 31.3964 60.325 31.3615 60.2411 31.3007C56.5662 28.3506 52.0283 26.6817 47.3177 26.5478C47.2599 26.5478 47.2027 26.5362 47.1495 26.5137C47.0963 26.4911 47.0481 26.4581 47.0079 26.4166C46.9678 26.3751 46.9363 26.3258 46.9156 26.2719C46.8948 26.218 46.885 26.1604 46.887 26.1027C46.8971 25.9894 46.9477 25.8835 47.0294 25.8045C47.1111 25.7254 47.2186 25.6783 47.3321 25.6719C52.2644 25.7933 57.0209 27.5285 60.8729 30.6115C60.9141 30.6516 60.9469 30.6996 60.9693 30.7526C60.9917 30.8057 61.0032 30.8626 61.0032 30.9202C61.0032 30.9777 60.9917 31.0347 60.9693 31.0877C60.9469 31.1408 60.9141 31.1888 60.8729 31.2289C60.8336 31.2833 60.7817 31.3273 60.7217 31.3573C60.6617 31.3873 60.5953 31.4024 60.5283 31.4012Z" fill="white"/>
</svg>
