<svg width="233" height="138" viewBox="0 0 233 138" fill="none" xmlns="http://www.w3.org/2000/svg">
<path d="M230.232 94.0059C229.138 93.9853 228.08 93.6077 227.221 92.9304C226.463 92.3226 225.836 91.5691 225.375 90.7144C224.915 89.8596 224.63 88.9212 224.539 87.9545C224.281 84.6851 225.901 81.5447 227.206 79.0352C227.233 78.9833 227.271 78.9373 227.316 78.8998C227.361 78.8623 227.413 78.8341 227.469 78.8168C227.525 78.7994 227.583 78.7933 227.642 78.7988C227.7 78.8043 227.757 78.8213 227.809 78.8488C227.86 78.8746 227.906 78.9103 227.943 78.9541C227.98 78.9978 228.009 79.0486 228.026 79.1034C228.043 79.1582 228.05 79.216 228.044 79.2732C228.039 79.3305 228.022 79.386 227.995 79.4367C226.747 81.8601 225.127 84.8572 225.414 87.8829C225.504 88.7194 225.758 89.5299 226.161 90.2681C226.565 91.0063 227.11 91.6577 227.766 92.1848C228.192 92.5376 228.689 92.7955 229.223 92.9413C229.757 93.0872 230.316 93.1177 230.863 93.0308C230.918 93.0205 230.976 93.0211 231.031 93.0328C231.086 93.0445 231.139 93.067 231.185 93.0989C231.232 93.1309 231.272 93.1717 231.302 93.2191C231.333 93.2665 231.354 93.3194 231.365 93.375C231.386 93.4889 231.362 93.6067 231.298 93.7031C231.233 93.7995 231.134 93.867 231.021 93.8912C230.761 93.9509 230.498 93.9892 230.232 94.0059Z" fill="white"/>
<path d="M200.411 97.3888C200.331 97.3842 200.254 97.3594 200.186 97.3168C200.118 97.2742 200.062 97.2151 200.024 97.145C199.997 97.0943 199.98 97.0387 199.974 96.9815C199.969 96.9242 199.975 96.8665 199.993 96.8117C200.01 96.7569 200.038 96.7061 200.076 96.6624C200.113 96.6186 200.159 96.5828 200.21 96.5571C207.609 92.757 215.224 89.1147 222.838 85.7449C222.89 85.721 222.946 85.7075 223.003 85.7054C223.06 85.7032 223.117 85.7125 223.17 85.7325C223.224 85.7525 223.272 85.7829 223.314 85.822C223.355 85.861 223.389 85.9079 223.412 85.96C223.461 86.0665 223.466 86.1881 223.425 86.2982C223.385 86.4083 223.303 86.4981 223.197 86.5479C215.597 89.9178 207.997 93.5457 200.612 97.3314C200.553 97.3718 200.482 97.3919 200.411 97.3888Z" fill="white"/>
<path d="M141.198 137.984C141.045 138.004 140.891 138.004 140.739 137.984C131.958 135.765 123.008 134.278 113.981 133.539C96.6274 131.843 79.1838 131.249 61.7553 131.761C57.3529 132.091 55.245 128.893 53.5529 126.355L53.3665 126.097C40.8622 107.34 20.6575 94.9936 1.11233 83.0772L0.854178 82.9195C0.584282 82.7587 0.362679 82.5282 0.21259 82.2523C0.0625004 81.9763 -0.0105142 81.665 0.00122135 81.3511C0.0129569 81.0371 0.109007 80.7322 0.279282 80.4682C0.449557 80.2042 0.687775 79.9909 0.968921 79.8508C5.02639 77.7617 9.26427 76.0435 13.6309 74.7171C13.8568 74.6327 14.0977 74.5955 14.3385 74.6078C14.5794 74.6201 14.8152 74.6816 15.0313 74.7887C15.2474 74.8957 15.4393 75.0459 15.595 75.2301C15.7508 75.4142 15.8672 75.6283 15.9369 75.8591C16.0067 76.09 16.0283 76.3327 16.0006 76.5723C15.9728 76.8119 15.8962 77.0432 15.7755 77.252C15.6548 77.4608 15.4926 77.6426 15.2988 77.7862C15.1051 77.9298 14.8839 78.0322 14.649 78.087C11.5002 79.044 8.41965 80.213 5.42857 81.5859C24.5148 93.2728 43.9022 105.576 56.3062 124.161L56.4782 124.447C58.1416 126.928 59.2745 128.434 61.5688 128.276C79.1741 127.763 96.7942 128.357 114.325 130.054C123.277 130.783 132.158 132.222 140.882 134.356C168.479 115.921 198.745 101.838 230.621 92.5988C231.06 92.499 231.521 92.5709 231.908 92.7999C232.296 93.0289 232.582 93.3976 232.707 93.8304C232.831 94.2632 232.786 94.7273 232.579 95.1276C232.373 95.5278 232.021 95.8339 231.596 95.983C199.814 105.205 169.653 119.296 142.187 137.755C141.887 137.927 141.543 138.007 141.198 137.984Z" fill="white"/>
<path d="M66.3033 129.681C66.2294 129.681 66.1566 129.663 66.0915 129.628C66.0264 129.593 65.971 129.542 65.9305 129.48C63.5971 125.97 60.0723 123.424 56.0074 122.31C55.2913 122.074 54.5286 122.015 53.7847 122.138C53.7257 122.159 53.663 122.167 53.6006 122.162C53.5382 122.157 53.4776 122.139 53.4227 122.109C53.3678 122.079 53.3199 122.038 53.282 121.988C53.2442 121.938 53.2172 121.881 53.203 121.82C53.1888 121.759 53.1876 121.696 53.1995 121.635C53.2114 121.573 53.2361 121.515 53.2721 121.464C53.308 121.413 53.3544 121.37 53.4081 121.337C53.4619 121.305 53.5218 121.285 53.5839 121.278C54.4645 121.123 55.3694 121.182 56.2224 121.45C60.4914 122.604 64.1991 125.262 66.6618 128.935C66.7281 129.032 66.7532 129.152 66.7317 129.267C66.7102 129.383 66.6438 129.485 66.5471 129.552C66.4786 129.616 66.3945 129.66 66.3033 129.681Z" fill="white"/>
<path d="M60.2091 124.004C60.1341 124.025 60.0546 124.025 59.9796 124.004C59.9097 123.96 59.8529 123.899 59.815 123.826C59.7772 123.752 59.7597 123.67 59.7645 123.588C61.3849 104.774 53.2543 86.6201 44.2489 69.8139C39.7775 60.9745 34.3173 52.6712 27.9732 45.0634C27.9275 45.0056 27.8958 44.9379 27.8809 44.8657C27.866 44.7935 27.8681 44.7188 27.8872 44.6476C27.9079 44.5783 27.9447 44.5149 27.9945 44.4626C28.0443 44.4103 28.1058 44.3705 28.174 44.3464C61.6574 33.4195 97.0049 20.4993 128.366 0.079471C128.442 0.0276853 128.532 0 128.624 0C128.716 0 128.806 0.0276853 128.882 0.079471C138.074 7.07729 145.115 17.2872 149.259 29.7485C152.4 39.1697 155.97 53.065 155.282 66.0999C181.481 60.7655 206.532 65.2395 227.784 79.0057C227.853 79.0423 227.911 79.097 227.951 79.164C227.991 79.2309 228.012 79.3076 228.012 79.3857C228.012 79.4638 227.991 79.5404 227.951 79.6074C227.911 79.6743 227.853 79.7291 227.784 79.7657L144.742 122.297C144.679 122.326 144.611 122.341 144.541 122.341C144.472 122.341 144.404 122.326 144.341 122.297C126.84 112.876 106.802 109.251 87.1105 111.944C77.4885 113.278 69.3435 118.196 60.4528 124.004C60.3729 124.025 60.289 124.025 60.2091 124.004ZM29.0774 44.92C35.2684 52.4381 40.6157 60.6129 45.0232 69.2977C53.9569 85.9605 62.0159 103.943 60.711 122.656C69.4152 117.006 77.4598 112.274 86.9958 110.955C106.8 108.265 126.948 111.909 144.556 121.365L226.665 79.2925C205.586 65.8561 180.778 61.5972 154.966 67.0176C154.898 67.0312 154.828 67.0292 154.761 67.0118C154.694 66.9944 154.632 66.9621 154.579 66.9172C154.529 66.8728 154.49 66.8172 154.465 66.755C154.44 66.6927 154.43 66.6255 154.436 66.5587C155.239 53.4809 151.64 39.4279 148.485 29.9493C144.874 18.5086 137.928 8.40719 128.538 0.939867C97.3634 21.1733 62.3314 34.0505 29.0774 44.92Z" fill="white"/>
<path d="M140.67 135.561C140.6 135.561 140.531 135.544 140.469 135.511C140.407 135.479 140.353 135.432 140.312 135.375C139.599 134.226 139.185 132.916 139.11 131.565C139.035 130.215 139.3 128.867 139.882 127.646C140.857 125.335 142.325 123.264 144.184 121.58C144.223 121.537 144.27 121.503 144.323 121.479C144.377 121.456 144.434 121.443 144.492 121.443C144.55 121.443 144.608 121.456 144.661 121.479C144.714 121.503 144.761 121.537 144.8 121.58C144.842 121.62 144.874 121.668 144.897 121.721C144.919 121.774 144.931 121.831 144.931 121.888C144.931 121.946 144.919 122.003 144.897 122.056C144.874 122.109 144.842 122.157 144.8 122.197C143.016 123.783 141.601 125.741 140.656 127.933C140.129 129.015 139.882 130.213 139.94 131.416C139.998 132.619 140.357 133.789 140.986 134.816C141.018 134.863 141.041 134.916 141.053 134.971C141.065 135.027 141.065 135.085 141.055 135.141C141.044 135.197 141.022 135.25 140.991 135.298C140.959 135.345 140.919 135.386 140.871 135.418C140.822 135.486 140.751 135.537 140.67 135.561Z" fill="white"/>
<path d="M57.4255 122.555C57.3389 122.556 57.2543 122.53 57.1827 122.481C57.111 122.433 57.0557 122.363 57.024 122.283C47.2604 98.4343 31.5037 77.5111 11.2801 61.5396C11.216 61.4867 11.1675 61.4174 11.1397 61.3391C11.1119 61.2609 11.1059 61.1765 11.1223 61.0951C11.1428 61.0157 11.1842 60.9431 11.2422 60.8851C11.3002 60.8271 11.3727 60.7857 11.4522 60.7653C19.242 58.8626 26.8516 56.2861 34.195 53.0648C34.2476 53.0413 34.3044 53.0286 34.362 53.0274C34.4196 53.0263 34.4769 53.0367 34.5304 53.0581C34.5839 53.0795 34.6326 53.1114 34.6735 53.152C34.7144 53.1925 34.7467 53.2409 34.7686 53.2942C34.7921 53.3468 34.8049 53.4036 34.806 53.4612C34.8072 53.5188 34.7968 53.5761 34.7754 53.6296C34.754 53.6831 34.722 53.7318 34.6814 53.7727C34.6409 53.8136 34.5925 53.846 34.5392 53.8678C27.4267 56.9954 20.0635 59.5185 12.5276 61.4106C32.5502 77.4066 48.1491 98.2577 57.8414 121.982C57.8841 122.09 57.8824 122.211 57.8368 122.318C57.7912 122.426 57.7053 122.511 57.5976 122.555H57.4255Z" fill="white"/>
<path d="M55.5429 121.981C55.4688 121.984 55.3956 121.964 55.3321 121.926C55.2685 121.888 55.2173 121.833 55.1844 121.766C49.438 112.479 42.8832 103.717 35.5962 95.5818C31.452 91.0934 27.1644 87.0496 21.9734 82.2458C17.2556 77.8578 11.9356 72.8962 5.55435 69.7415C5.47441 69.7035 5.40814 69.6419 5.36452 69.5649C5.32089 69.4879 5.30206 69.3993 5.3106 69.3113C5.32018 69.2231 5.35505 69.1397 5.41104 69.071C5.46702 69.0023 5.54172 68.9513 5.62608 68.9241C9.26918 67.854 12.8542 66.5951 16.3666 65.1527C16.471 65.1258 16.5816 65.1378 16.6778 65.1864C16.7741 65.235 16.8493 65.3169 16.8897 65.4169C16.93 65.5168 16.9327 65.6281 16.8971 65.7299C16.8616 65.8316 16.7902 65.917 16.6964 65.9701C13.513 67.275 10.2291 68.4509 6.91665 69.4547C12.9537 72.6668 18.0586 77.3989 22.5757 81.6005C27.781 86.4186 32.083 90.4768 36.2415 94.9938C43.5727 103.16 50.157 111.966 55.9157 121.307C55.9761 121.405 55.9964 121.522 55.9724 121.634C55.9483 121.747 55.8817 121.845 55.7866 121.91C55.7131 121.955 55.629 121.979 55.5429 121.981Z" fill="white"/>
<path d="M60.2053 124.003C60.1143 124.001 60.0261 123.971 59.9525 123.918C59.879 123.864 59.8236 123.789 59.7939 123.703C59.7642 123.617 59.7616 123.524 59.7864 123.437C59.8113 123.349 59.8624 123.272 59.9328 123.214C88.759 100.023 120.597 80.8486 154.575 66.2134C154.684 66.1658 154.807 66.1633 154.917 66.2063C155.027 66.2493 155.116 66.3344 155.163 66.4428C155.211 66.5512 155.213 66.6741 155.17 66.7843C155.127 66.8946 155.042 66.9832 154.934 67.0307C121 81.6212 89.2046 100.753 60.4203 123.902C60.3604 123.957 60.2854 123.992 60.2053 124.003Z" fill="white"/>
<path d="M63.8523 124.518C63.7677 124.518 63.685 124.493 63.6139 124.447C63.5428 124.402 63.4862 124.337 63.4507 124.26C63.4018 124.153 63.3969 124.032 63.4372 123.922C63.4775 123.811 63.5597 123.722 63.6658 123.672C80.7868 116.177 99.6993 113.753 118.157 116.688C118.266 116.715 118.36 116.782 118.422 116.875C118.484 116.968 118.508 117.082 118.49 117.192C118.472 117.303 118.413 117.402 118.325 117.471C118.236 117.54 118.125 117.573 118.014 117.563C99.7206 114.649 80.9755 117.053 64.01 124.489L63.8523 124.518Z" fill="white"/>
<path d="M141.068 125.938C140.998 125.958 140.923 125.958 140.853 125.938C135.91 123.149 130.6 121.069 125.079 119.758C124.965 119.73 124.867 119.659 124.805 119.56C124.744 119.461 124.723 119.341 124.749 119.227C124.78 119.115 124.851 119.019 124.95 118.958C125.048 118.897 125.166 118.875 125.28 118.897C130.866 120.226 136.234 122.34 141.226 125.178C141.328 125.235 141.404 125.331 141.436 125.444C141.468 125.556 141.454 125.677 141.398 125.78C141.357 125.828 141.307 125.867 141.25 125.895C141.193 125.922 141.131 125.937 141.068 125.938Z" fill="white"/>
<path d="M144.972 125.937C144.898 125.938 144.825 125.919 144.76 125.884C144.695 125.849 144.64 125.798 144.599 125.737C144.568 125.688 144.547 125.633 144.537 125.576C144.528 125.52 144.53 125.461 144.543 125.405C144.556 125.349 144.581 125.296 144.615 125.249C144.649 125.203 144.693 125.164 144.742 125.134C153.117 119.814 184.148 103.94 191.189 100.599C191.296 100.548 191.418 100.541 191.53 100.58C191.641 100.619 191.733 100.7 191.784 100.807C191.835 100.913 191.842 101.036 191.804 101.147C191.765 101.259 191.683 101.351 191.576 101.402C184.535 104.729 153.561 120.574 145.216 125.88C145.141 125.921 145.057 125.94 144.972 125.937Z" fill="white"/>
<path d="M142.878 131.201C142.804 131.201 142.731 131.183 142.666 131.148C142.601 131.113 142.546 131.062 142.505 131C142.445 130.899 142.427 130.778 142.453 130.663C142.48 130.548 142.55 130.448 142.648 130.383C167.757 114.316 194.623 101.176 222.722 91.2214C222.778 91.1922 222.841 91.1754 222.905 91.1724C222.968 91.1693 223.032 91.18 223.091 91.2038C223.15 91.2275 223.204 91.2636 223.248 91.3098C223.292 91.356 223.325 91.4112 223.346 91.4715C223.367 91.5318 223.374 91.5959 223.368 91.6594C223.362 91.7229 223.342 91.7843 223.31 91.8395C223.278 91.8947 223.235 91.9423 223.183 91.9792C223.131 92.016 223.071 92.0413 223.009 92.0532C194.974 101.982 168.17 115.093 143.122 131.129C143.048 131.174 142.964 131.199 142.878 131.201Z" fill="white"/>
<path d="M66.5727 125.881C66.4645 125.891 66.3564 125.86 66.2701 125.794C66.1838 125.728 66.1258 125.632 66.1076 125.524C66.0894 125.417 66.1125 125.307 66.1722 125.216C66.2319 125.125 66.3237 125.061 66.4293 125.035C78.0844 120.94 90.371 118.935 102.723 119.112C102.841 119.112 102.954 119.159 103.038 119.243C103.121 119.326 103.168 119.439 103.168 119.557C103.164 119.674 103.116 119.785 103.034 119.867C102.951 119.95 102.84 119.998 102.723 120.001C90.495 119.821 78.3305 121.797 66.7878 125.838L66.5727 125.881Z" fill="white"/>
<path d="M137.408 127.23C137.347 127.243 137.283 127.243 137.222 127.23C131.223 124.433 124.744 122.812 118.136 122.455C118.078 122.453 118.021 122.44 117.969 122.416C117.916 122.391 117.869 122.357 117.83 122.314C117.791 122.271 117.762 122.221 117.743 122.166C117.724 122.112 117.716 122.054 117.72 121.996C117.719 121.938 117.731 121.88 117.755 121.826C117.778 121.773 117.813 121.725 117.856 121.686C117.9 121.647 117.951 121.617 118.006 121.599C118.062 121.581 118.12 121.574 118.179 121.58C124.903 121.937 131.495 123.588 137.595 126.442C137.647 126.465 137.694 126.498 137.733 126.54C137.772 126.581 137.802 126.63 137.822 126.683C137.842 126.737 137.851 126.794 137.849 126.85C137.847 126.907 137.834 126.963 137.81 127.015C137.771 127.086 137.712 127.144 137.641 127.183C137.57 127.221 137.489 127.237 137.408 127.23Z" fill="white"/>
<path d="M136.67 130.886H136.541C114.705 124.283 91.562 123.263 69.2298 127.917C69.1695 127.94 69.1049 127.949 69.0407 127.945C68.9764 127.94 68.9139 127.921 68.8576 127.89C68.8012 127.859 68.7524 127.815 68.7144 127.763C68.6764 127.711 68.6502 127.652 68.6375 127.588C68.6249 127.525 68.6262 127.46 68.6412 127.397C68.6563 127.335 68.6847 127.276 68.7247 127.225C68.7647 127.175 68.8152 127.134 68.8727 127.105C68.9302 127.075 68.9933 127.059 69.0577 127.057C91.5329 122.369 114.826 123.399 136.799 130.054C136.91 130.087 137.004 130.163 137.061 130.265C137.117 130.367 137.131 130.487 137.1 130.599C137.065 130.684 137.006 130.757 136.929 130.809C136.852 130.86 136.762 130.887 136.67 130.886Z" fill="white"/>
<path d="M148.707 109.348C148.632 109.37 148.552 109.37 148.477 109.348C141.97 105.164 134.746 102.218 127.168 100.658C127.054 100.631 126.954 100.56 126.89 100.462C126.826 100.363 126.803 100.243 126.824 100.128C126.836 100.072 126.859 100.019 126.891 99.9722C126.924 99.9254 126.965 99.8855 127.013 99.8548C127.061 99.8241 127.115 99.8033 127.171 99.7935C127.227 99.7837 127.285 99.7852 127.34 99.7979C135.023 101.381 142.349 104.365 148.951 108.603C149.046 108.667 149.112 108.765 149.136 108.878C149.16 108.99 149.14 109.107 149.08 109.205C149.033 109.256 148.975 109.296 148.91 109.321C148.845 109.346 148.776 109.355 148.707 109.348Z" fill="white"/>
<path d="M108.905 99.4683C108.788 99.4683 108.674 99.4214 108.591 99.3381C108.508 99.2547 108.461 99.1416 108.461 99.0237C108.461 98.9058 108.508 98.7928 108.591 98.7094C108.674 98.626 108.788 98.5792 108.905 98.5792C111.996 98.321 115.102 98.2923 118.198 98.4932C118.3 98.5118 118.393 98.5658 118.459 98.6457C118.526 98.7256 118.563 98.8264 118.563 98.9305C118.563 99.0346 118.526 99.1354 118.459 99.2154C118.393 99.2953 118.3 99.3493 118.198 99.3679C115.145 99.1742 112.083 99.2029 109.035 99.4539L108.905 99.4683Z" fill="white"/>
<path d="M192.136 82.4333C192.07 82.4542 192 82.4542 191.935 82.4333C177.122 74.6755 164.603 72.209 152.543 74.6898C152.427 74.7126 152.307 74.6884 152.209 74.6225C152.111 74.5566 152.043 74.4545 152.02 74.3385C151.997 74.2225 152.021 74.1022 152.087 74.004C152.153 73.9058 152.255 73.8379 152.371 73.8151C164.646 71.3056 177.337 73.8151 192.336 81.6589C192.388 81.6847 192.434 81.7205 192.471 81.7642C192.508 81.808 192.536 81.8587 192.554 81.9136C192.571 81.9684 192.577 82.0261 192.572 82.0833C192.567 82.1406 192.55 82.1962 192.523 82.2469C192.481 82.3103 192.423 82.3611 192.355 82.394C192.287 82.4268 192.211 82.4404 192.136 82.4333Z" fill="white"/>
<path d="M179.845 89.4432C179.779 89.4623 179.71 89.4623 179.644 89.4432C176.88 87.9938 174.036 86.7012 171.126 85.5714C171.019 85.5269 170.933 85.4419 170.887 85.3346C170.841 85.2273 170.84 85.1063 170.882 84.9979C170.903 84.9433 170.934 84.8934 170.975 84.8513C171.015 84.8093 171.063 84.7758 171.117 84.753C171.171 84.7302 171.228 84.7186 171.287 84.7188C171.345 84.7189 171.403 84.731 171.456 84.7541C174.393 85.9009 177.266 87.2077 180.06 88.6688C180.11 88.6959 180.154 88.7326 180.19 88.7769C180.226 88.8212 180.253 88.8721 180.269 88.9268C180.285 88.9815 180.29 89.0389 180.284 89.0955C180.277 89.1522 180.26 89.207 180.232 89.2568C180.191 89.3202 180.133 89.371 180.064 89.4039C179.996 89.4367 179.92 89.4503 179.845 89.4432Z" fill="white"/>
<path d="M164.168 83.119H164.039C162.118 82.5454 160.139 82.0435 158.145 81.6133C158.032 81.586 157.933 81.5151 157.872 81.4157C157.81 81.3164 157.79 81.1968 157.816 81.0828C157.828 81.027 157.85 80.9742 157.883 80.9273C157.915 80.8805 157.957 80.8405 158.005 80.8099C158.053 80.7792 158.106 80.7583 158.163 80.7486C158.219 80.7388 158.276 80.7403 158.332 80.7529C160.339 81.1831 162.347 81.6994 164.297 82.2729C164.393 82.3085 164.473 82.3759 164.525 82.4637C164.577 82.5516 164.597 82.6546 164.582 82.7555C164.567 82.8564 164.517 82.949 164.442 83.0178C164.367 83.0866 164.27 83.1274 164.168 83.1333V83.119Z" fill="white"/>
<path d="M139.55 81.2136C139.463 81.2139 139.378 81.188 139.307 81.1394C139.235 81.0908 139.18 81.0217 139.148 80.9411C139.105 80.8327 139.107 80.7118 139.153 80.6045C139.198 80.4972 139.284 80.4121 139.392 80.3676C142.714 79.3567 146.201 79.0012 149.659 79.3207C149.716 79.3261 149.771 79.3426 149.821 79.3694C149.871 79.3961 149.915 79.4326 149.951 79.4766C149.987 79.5206 150.014 79.5713 150.031 79.6257C150.047 79.6802 150.052 79.7374 150.046 79.7939C150.029 79.9091 149.969 80.0139 149.879 80.088C149.789 80.162 149.675 80.2003 149.559 80.1954C146.247 79.8901 142.907 80.2261 139.722 81.1849L139.55 81.2136Z" fill="white"/>
<path d="M162.765 98.3623C162.68 98.3815 162.592 98.3815 162.507 98.3623C160.027 96.6796 157.39 95.239 154.634 94.0604C154.528 94.0103 154.445 93.9215 154.403 93.8121C154.36 93.7028 154.361 93.5812 154.405 93.4725C154.455 93.3663 154.545 93.2841 154.655 93.2438C154.765 93.2036 154.886 93.2084 154.993 93.2574C157.777 94.4515 160.442 95.9063 162.952 97.6023C162.999 97.634 163.04 97.6749 163.071 97.7225C163.103 97.77 163.124 97.8234 163.135 97.8794C163.146 97.9355 163.145 97.9931 163.133 98.0489C163.121 98.1047 163.099 98.1577 163.066 98.2046C162.991 98.295 162.882 98.3517 162.765 98.3623Z" fill="white"/>
<path d="M147.678 91.4373H147.549C142.358 89.9173 135.632 89.7452 129.696 89.5874C128.147 89.5874 126.641 89.5874 125.222 89.4584C125.164 89.4566 125.107 89.4431 125.054 89.4189C125.002 89.3947 124.955 89.3601 124.916 89.3172C124.877 89.2744 124.848 89.2242 124.829 89.1696C124.81 89.115 124.802 89.0572 124.806 88.9995C124.806 88.9405 124.818 88.8821 124.841 88.8279C124.864 88.7738 124.899 88.725 124.942 88.6847C124.985 88.6443 125.036 88.6133 125.091 88.5934C125.147 88.5736 125.206 88.5654 125.265 88.5693C126.699 88.641 128.132 88.6697 129.724 88.7127C135.704 88.8561 142.501 89.0282 147.792 90.5912C147.904 90.6245 147.998 90.7003 148.054 90.8022C148.111 90.9041 148.125 91.0239 148.094 91.1361C148.066 91.2243 148.01 91.3013 147.935 91.3555C147.86 91.4098 147.77 91.4385 147.678 91.4373Z" fill="white"/>
<path d="M73.2875 102.681C73.1769 102.677 73.0716 102.633 72.992 102.556C72.9124 102.479 72.8644 102.375 72.8573 102.265C71.3086 81.3719 65.2859 64.7091 53.3265 48.2327C53.273 48.1374 53.2564 48.0257 53.28 47.919C53.3036 47.8123 53.3656 47.718 53.4543 47.6541C53.543 47.5902 53.6521 47.5613 53.7608 47.5728C53.8695 47.5843 53.9701 47.6354 54.0435 47.7164C66.0889 64.3219 72.169 81.1281 73.732 102.208C73.7362 102.325 73.6955 102.439 73.6181 102.527C73.5408 102.615 73.4328 102.67 73.3162 102.681H73.2875Z" fill="white"/>
<path d="M77.5967 56.8658C77.5122 56.8654 77.4294 56.8409 77.3583 56.7952C77.2872 56.7495 77.2306 56.6845 77.1952 56.6077C75.0625 52.0798 72.5537 47.7388 69.6955 43.6302C69.6277 43.5348 69.6003 43.4167 69.6191 43.3013C69.6378 43.1858 69.7014 43.0825 69.7959 43.0136C69.894 42.9509 70.0123 42.9278 70.1268 42.9492C70.2413 42.9705 70.3434 43.0345 70.4125 43.1283C73.303 47.2748 75.8359 51.6594 77.9839 56.2349C78.0105 56.2864 78.0265 56.3428 78.0309 56.4007C78.0352 56.4586 78.0277 56.5168 78.0089 56.5717C77.9902 56.6266 77.9605 56.6771 77.9217 56.7203C77.8829 56.7635 77.8357 56.7983 77.7831 56.8228C77.7248 56.8505 77.6612 56.8652 77.5967 56.8658Z" fill="white"/>
<path d="M84.4248 77.5261C84.3228 77.5248 84.2245 77.4884 84.1462 77.4231C84.0678 77.3578 84.0143 77.2677 83.9946 77.1676C83.2391 73.3674 82.2331 69.6214 80.9832 65.9539C80.9502 65.8426 80.962 65.7227 81.0162 65.62C81.0703 65.5173 81.1626 65.4398 81.2731 65.4042C81.3837 65.3686 81.5038 65.3777 81.6077 65.4295C81.7117 65.4813 81.7912 65.5717 81.8293 65.6814C83.084 69.3826 84.0947 73.1621 84.855 76.9956C84.8697 77.0522 84.8723 77.1114 84.8625 77.1692C84.8528 77.2269 84.831 77.282 84.7985 77.3307C84.766 77.3795 84.7236 77.4208 84.674 77.452C84.6244 77.4832 84.5688 77.5035 84.5108 77.5118L84.4248 77.5261Z" fill="white"/>
<path d="M86.0797 91.0787C85.9667 91.0789 85.8577 91.036 85.7751 90.9588C85.6925 90.8815 85.6425 90.7757 85.6352 90.6628C85.5205 87.9382 85.2624 85.185 84.8895 82.4748C84.8767 82.3595 84.908 82.2436 84.9772 82.1505C85.0464 82.0574 85.1483 81.9939 85.2624 81.9729C85.3208 81.9649 85.3803 81.9685 85.4373 81.9837C85.4943 81.9989 85.5477 82.0253 85.5944 82.0613C85.6411 82.0973 85.6802 82.1423 85.7094 82.1936C85.7386 82.2449 85.7572 82.3015 85.7643 82.3601C86.1371 85.0846 86.3952 87.8665 86.5243 90.6198C86.5262 90.6782 86.5166 90.7364 86.496 90.791C86.4754 90.8457 86.4442 90.8958 86.4043 90.9384C86.3643 90.981 86.3163 91.0153 86.2631 91.0394C86.2099 91.0634 86.1524 91.0768 86.0941 91.0787H86.0797Z" fill="white"/>
<path d="M94.2061 53.6381C94.1163 53.6362 94.0291 53.6081 93.9552 53.5571C93.8812 53.5061 93.8239 53.4346 93.7902 53.3513C91.5561 46.8942 88.567 40.7236 84.8852 34.9677C84.8537 34.9179 84.8325 34.8624 84.8227 34.8043C84.8128 34.7462 84.8146 34.6868 84.8279 34.6294C84.8413 34.572 84.8659 34.5179 84.9004 34.4701C84.9348 34.4223 84.9784 34.3819 85.0286 34.3511C85.0773 34.32 85.1317 34.2989 85.1887 34.2892C85.2457 34.2796 85.304 34.2815 85.3602 34.2949C85.4164 34.3083 85.4694 34.3328 85.5159 34.3671C85.5624 34.4014 85.6015 34.4447 85.6309 34.4945C89.3528 40.3065 92.371 46.5403 94.622 53.0645C94.6425 53.1181 94.6521 53.1753 94.6501 53.2327C94.6482 53.29 94.6348 53.3464 94.6108 53.3986C94.5867 53.4507 94.5525 53.4975 94.5101 53.5361C94.4677 53.5748 94.418 53.6046 94.3639 53.6237L94.2061 53.6381Z" fill="white"/>
<path d="M99.0805 82.1735C98.965 82.1736 98.8541 82.1287 98.7712 82.0484C98.6882 81.9681 98.6397 81.8587 98.636 81.7433C98.6178 74.6696 97.7366 67.6245 96.0118 60.7642C95.9854 60.6521 96.0036 60.5342 96.0624 60.4352C96.1213 60.3363 96.2162 60.264 96.3273 60.2336C96.3829 60.2186 96.4408 60.2149 96.4979 60.2227C96.5549 60.2306 96.6098 60.2498 96.6593 60.2792C96.7087 60.3086 96.7518 60.3477 96.7859 60.394C96.82 60.4404 96.8445 60.4931 96.8579 60.5491C98.61 67.4734 99.5057 74.5865 99.525 81.729C99.525 81.8469 99.4782 81.9599 99.3948 82.0433C99.3115 82.1267 99.1984 82.1735 99.0805 82.1735Z" fill="white"/>
<path d="M136.162 34.7241C136.064 34.7243 135.969 34.6921 135.891 34.6324C135.813 34.5728 135.757 34.4891 135.732 34.3944C134.102 27.6298 131.122 21.2645 126.97 15.6809C126.925 15.636 126.89 15.5819 126.868 15.5224C126.846 15.4628 126.837 15.3992 126.841 15.3358C126.845 15.2723 126.863 15.2105 126.894 15.1546C126.924 15.0987 126.966 15.05 127.016 15.0117C127.067 14.9733 127.126 14.9463 127.188 14.9325C127.25 14.9187 127.314 14.9183 127.376 14.9315C127.438 14.9446 127.497 14.971 127.548 15.0087C127.599 15.0465 127.642 15.0948 127.673 15.1503C131.893 20.8301 134.927 27.3018 136.592 34.1792C136.619 34.2913 136.6 34.4093 136.542 34.5082C136.483 34.6072 136.388 34.6795 136.277 34.7098L136.162 34.7241Z" fill="white"/>
<path d="M138.298 63.8334C138.24 63.8316 138.183 63.8181 138.13 63.7939C138.078 63.7696 138.031 63.7351 137.992 63.6922C137.953 63.6494 137.924 63.5992 137.905 63.5446C137.886 63.49 137.878 63.4321 137.882 63.3745C138.327 57.164 138.231 50.9266 137.595 44.7327C137.587 44.6155 137.624 44.4996 137.698 44.4089C137.773 44.3182 137.88 44.2596 137.996 44.2452C138.112 44.2372 138.226 44.2747 138.315 44.3497C138.403 44.4247 138.459 44.5313 138.47 44.6467C139.112 50.8785 139.208 57.1546 138.756 63.4031C138.757 63.4621 138.745 63.5205 138.721 63.5747C138.698 63.6288 138.663 63.6776 138.62 63.718C138.577 63.7583 138.527 63.7893 138.471 63.8092C138.415 63.8291 138.356 63.8373 138.298 63.8334Z" fill="white"/>
<path d="M123.818 69.871C123.701 69.8601 123.593 69.805 123.516 69.717C123.439 69.6291 123.398 69.5148 123.402 69.3978C124.63 53.8515 121.659 38.2607 114.798 24.2562C114.772 24.2046 114.756 24.1482 114.751 24.0903C114.747 24.0324 114.754 23.9743 114.773 23.9193C114.792 23.8644 114.822 23.8139 114.86 23.7707C114.899 23.7276 114.946 23.6927 114.999 23.6682C115.104 23.6183 115.224 23.6113 115.334 23.6488C115.444 23.6864 115.534 23.7654 115.587 23.869C122.482 38.0261 125.453 53.7734 124.191 69.4695C124.182 69.5685 124.141 69.6618 124.074 69.7345C124.006 69.8073 123.916 69.8554 123.818 69.871Z" fill="white"/>
<path d="M104.445 38.8112C104.361 38.8076 104.279 38.7818 104.209 38.7364C104.138 38.6911 104.081 38.6278 104.043 38.553C102.724 35.7633 101.235 33.0575 99.5833 30.4511C99.5221 30.3512 99.5014 30.2317 99.5254 30.1171C99.5494 30.0024 99.6163 29.9013 99.7124 29.8344C99.7622 29.8029 99.8177 29.7817 99.8758 29.7719C99.9339 29.762 99.9933 29.7639 100.051 29.7772C100.108 29.7905 100.162 29.8151 100.21 29.8496C100.258 29.884 100.298 29.9276 100.329 29.9778C101.994 32.6209 103.503 35.3598 104.846 38.1802C104.895 38.2868 104.9 38.4084 104.86 38.5185C104.819 38.6286 104.737 38.7183 104.631 38.7681C104.573 38.7973 104.509 38.812 104.445 38.8112Z" fill="white"/>
<path d="M111.855 77.199C111.797 77.1953 111.74 77.1802 111.687 77.1544C111.635 77.1286 111.588 77.0927 111.549 77.0488C111.511 77.0048 111.481 76.9536 111.462 76.8982C111.443 76.8428 111.436 76.7842 111.44 76.7258C112.131 65.3713 110.335 54.0027 106.177 43.4144C106.156 43.3608 106.147 43.3037 106.149 43.2463C106.151 43.1889 106.164 43.1325 106.188 43.0804C106.212 43.0283 106.246 42.9815 106.289 42.9428C106.331 42.9042 106.381 42.8744 106.435 42.8552C106.487 42.8322 106.544 42.8204 106.601 42.8203C106.659 42.8203 106.715 42.8321 106.768 42.855C106.82 42.8779 106.868 42.9113 106.906 42.9533C106.945 42.9953 106.975 43.0449 106.994 43.0989C111.207 53.8034 113.023 65.3012 112.314 76.7831C112.312 76.8409 112.299 76.8977 112.275 76.9502C112.251 77.0026 112.216 77.0497 112.173 77.0885C112.13 77.1273 112.08 77.1571 112.026 77.1761C111.971 77.1951 111.913 77.2028 111.855 77.199Z" fill="white"/>
<path d="M168.475 41.2766H168.389C168.276 41.2524 168.176 41.1849 168.112 41.0885C168.048 40.9921 168.024 40.8743 168.045 40.7604C169.519 33.0306 169.151 25.062 166.969 17.5013C166.954 17.3952 166.978 17.2871 167.036 17.1971C167.094 17.1071 167.183 17.0412 167.286 17.0115C167.389 16.9818 167.5 16.9904 167.597 17.0356C167.694 17.0808 167.772 17.1596 167.815 17.2575C170.038 24.9533 170.411 33.0651 168.905 40.9325C168.888 41.0325 168.834 41.1226 168.755 41.186C168.676 41.2494 168.576 41.2816 168.475 41.2766Z" fill="white"/>
<path d="M177.194 40.2453H177.022C176.967 40.2252 176.918 40.1938 176.876 40.1532C176.834 40.1125 176.801 40.0636 176.78 40.0096C176.758 39.9555 176.748 39.8974 176.75 39.8393C176.753 39.7811 176.767 39.724 176.793 39.6717L182.428 26.6655C182.479 26.5652 182.566 26.4878 182.672 26.4491C182.777 26.4103 182.894 26.4131 182.997 26.4567C183.101 26.5004 183.184 26.5817 183.23 26.6843C183.276 26.7869 183.282 26.9032 183.246 27.0097L177.596 40.0159C177.558 40.0884 177.499 40.1485 177.428 40.1891C177.357 40.2298 177.276 40.2493 177.194 40.2453Z" fill="white"/>
<path d="M185.593 45.4513C185.517 45.4529 185.443 45.4336 185.377 45.3957C185.311 45.3578 185.257 45.3027 185.22 45.2362C185.19 45.1867 185.17 45.1314 185.161 45.0739C185.152 45.0163 185.156 44.9576 185.17 44.9013C185.185 44.845 185.211 44.7923 185.247 44.7463C185.282 44.7003 185.327 44.6621 185.378 44.6339C189.013 42.5522 193.095 41.372 197.28 41.1924C197.338 41.1885 197.396 41.1963 197.45 41.2153C197.505 41.2342 197.555 41.264 197.598 41.3028C197.641 41.3416 197.675 41.3887 197.7 41.4412C197.724 41.4936 197.737 41.5505 197.739 41.6082C197.743 41.6659 197.735 41.7237 197.716 41.7783C197.697 41.8329 197.667 41.8832 197.629 41.926C197.59 41.9688 197.543 42.0034 197.49 42.0277C197.438 42.0519 197.381 42.0653 197.323 42.0671C193.29 42.2536 189.358 43.3938 185.851 45.3939C185.774 45.4406 185.683 45.4608 185.593 45.4513Z" fill="white"/>
</svg>
