<svg width="219" height="129" viewBox="0 0 219 129" fill="none" xmlns="http://www.w3.org/2000/svg">
<path d="M216.604 87.8734C215.575 87.8542 214.58 87.5011 213.771 86.8681C213.059 86.2999 212.469 85.5955 212.035 84.7965C211.602 83.9975 211.334 83.1203 211.248 82.2167C211.006 79.1604 212.53 76.2248 213.758 73.879C213.783 73.8305 213.818 73.7875 213.861 73.7525C213.903 73.7174 213.952 73.691 214.005 73.6749C214.057 73.6587 214.113 73.6529 214.167 73.6581C214.222 73.6632 214.276 73.6791 214.324 73.7048C214.373 73.7289 214.416 73.7623 214.451 73.8032C214.486 73.8441 214.513 73.8915 214.529 73.9428C214.545 73.994 214.551 74.048 214.546 74.1015C214.541 74.155 214.525 74.207 214.5 74.2543C213.326 76.5197 211.802 79.3213 212.071 82.1497C212.156 82.9316 212.395 83.6893 212.774 84.3794C213.154 85.0694 213.667 85.6783 214.284 86.171C214.685 86.5008 215.153 86.7419 215.655 86.8783C216.158 87.0146 216.684 87.0431 217.198 86.9619C217.25 86.9522 217.304 86.9528 217.356 86.9637C217.408 86.9747 217.457 86.9957 217.501 87.0256C217.545 87.0554 217.582 87.0936 217.611 87.1379C217.64 87.1822 217.66 87.2317 217.67 87.2836C217.69 87.3901 217.668 87.5002 217.607 87.5903C217.547 87.6805 217.453 87.7436 217.346 87.7662C217.102 87.8219 216.854 87.8578 216.604 87.8734Z" fill="white"/>
<path d="M188.549 91.035C188.474 91.0307 188.401 91.0076 188.337 90.9677C188.274 90.9279 188.221 90.8726 188.185 90.8071C188.159 90.7598 188.143 90.7078 188.138 90.6543C188.133 90.6007 188.139 90.5468 188.156 90.4955C188.172 90.4443 188.199 90.3968 188.234 90.356C188.269 90.3151 188.312 90.2816 188.36 90.2575C195.322 86.7053 202.485 83.3006 209.649 80.1505C209.698 80.1281 209.751 80.1156 209.804 80.1136C209.858 80.1116 209.911 80.1202 209.961 80.1389C210.012 80.1576 210.058 80.186 210.097 80.2225C210.136 80.259 210.167 80.3029 210.189 80.3516C210.235 80.4512 210.239 80.5648 210.202 80.6677C210.164 80.7707 210.086 80.8546 209.987 80.9012C202.836 84.0512 195.686 87.4426 188.738 90.9814C188.682 91.0191 188.616 91.0379 188.549 91.035Z" fill="white"/>
<path d="M132.842 128.988C132.698 129.006 132.553 129.006 132.41 128.988C124.149 126.913 115.728 125.523 107.235 124.832C90.909 123.247 74.4978 122.692 58.1006 123.17C53.9588 123.478 51.9756 120.489 50.3837 118.116L50.2083 117.875C38.444 100.342 19.435 88.8006 1.0465 77.6614L0.803628 77.514C0.549704 77.3637 0.341216 77.1482 0.200009 76.8903C0.0588016 76.6323 -0.00989198 76.3413 0.00114907 76.0479C0.0121901 75.7544 0.102556 75.4693 0.262755 75.2226C0.422953 74.9758 0.647073 74.7764 0.911581 74.6454C4.72893 72.6926 8.71602 71.0865 12.8243 69.8466C13.0368 69.7676 13.2634 69.7328 13.49 69.7443C13.7166 69.7558 13.9384 69.8134 14.1418 69.9134C14.3451 70.0135 14.5256 70.1539 14.6721 70.326C14.8187 70.4982 14.9282 70.6983 14.9938 70.9141C15.0594 71.1299 15.0798 71.3568 15.0537 71.5808C15.0276 71.8047 14.9555 72.0209 14.8419 72.2161C14.7284 72.4113 14.5757 72.5812 14.3934 72.7155C14.2112 72.8497 14.0031 72.9455 13.7821 72.9966C10.8196 73.8913 7.92138 74.984 5.10731 76.2673C23.0641 87.1921 41.3041 98.6932 52.974 116.066L53.1359 116.334C54.7009 118.653 55.7666 120.06 57.9252 119.913C74.4886 119.433 91.066 119.988 107.559 121.575C115.982 122.256 124.337 123.601 132.545 125.596C158.508 108.364 186.983 95.1986 216.973 86.5621C217.386 86.4687 217.819 86.536 218.184 86.75C218.549 86.9641 218.818 87.3087 218.935 87.7133C219.052 88.1179 219.01 88.5517 218.815 88.9259C218.621 89.3 218.29 89.5861 217.89 89.7255C187.989 98.3456 159.613 111.518 133.773 128.773C133.49 128.934 133.167 129.009 132.842 128.988Z" fill="white"/>
<path d="M62.3789 121.223C62.3094 121.223 62.2409 121.206 62.1796 121.173C62.1184 121.141 62.0663 121.093 62.0281 121.035C59.8328 117.754 56.5167 115.374 52.6923 114.333C52.0186 114.112 51.301 114.057 50.6011 114.172C50.5456 114.192 50.4866 114.199 50.428 114.195C50.3693 114.19 50.3122 114.173 50.2606 114.145C50.2089 114.117 50.1638 114.079 50.1282 114.032C50.0926 113.986 50.0673 113.932 50.0539 113.875C50.0405 113.818 50.0394 113.759 50.0506 113.702C50.0618 113.644 50.085 113.59 50.1189 113.542C50.1527 113.494 50.1963 113.454 50.2469 113.424C50.2974 113.394 50.3538 113.375 50.4123 113.368C51.2407 113.223 52.0921 113.278 52.8946 113.529C56.9109 114.607 60.3992 117.093 62.7162 120.526C62.7786 120.617 62.8022 120.728 62.782 120.836C62.7618 120.944 62.6993 121.04 62.6083 121.102C62.5438 121.162 62.4647 121.204 62.3789 121.223Z" fill="white"/>
<path d="M56.6469 115.917C56.5763 115.937 56.5015 115.937 56.431 115.917C56.3653 115.876 56.3118 115.818 56.2762 115.75C56.2406 115.682 56.2242 115.605 56.2287 115.528C57.7532 97.9412 50.1037 80.971 41.6312 65.2608C37.4244 56.9979 32.2874 49.2362 26.3187 42.1245C26.2757 42.0704 26.2459 42.0071 26.2319 41.9396C26.2178 41.8722 26.2199 41.8023 26.2378 41.7358C26.2573 41.671 26.2919 41.6118 26.3388 41.5629C26.3857 41.514 26.4435 41.4767 26.5076 41.4542C58.0095 31.2399 91.2652 19.1624 120.77 0.0742881C120.842 0.0258797 120.927 0 121.013 0C121.1 0 121.184 0.0258797 121.256 0.0742881C129.904 6.61573 136.528 16.1598 140.427 27.8084C143.382 36.6152 146.741 49.6042 146.093 61.789C170.742 56.8025 194.311 60.9847 214.305 73.8531C214.37 73.8874 214.424 73.9385 214.462 74.0011C214.5 74.0637 214.52 74.1353 214.52 74.2084C214.52 74.2814 214.5 74.353 214.462 74.4156C214.424 74.4782 214.37 74.5293 214.305 74.5636L136.177 114.322C136.118 114.348 136.054 114.362 135.988 114.362C135.923 114.362 135.859 114.348 135.8 114.322C119.335 105.515 100.483 102.126 81.9563 104.643C72.9037 105.89 65.2407 110.488 56.8762 115.917C56.801 115.936 56.7221 115.936 56.6469 115.917ZM27.3576 41.9904C33.1822 49.0182 38.2131 56.6599 42.3597 64.7782C50.7647 80.3544 58.3468 97.1637 57.1191 114.657C65.3082 109.375 72.8767 104.952 81.8484 103.719C100.481 101.204 119.436 104.611 136.002 113.45L213.252 74.1212C193.42 61.5611 170.081 57.58 145.797 62.6469C145.733 62.6596 145.667 62.6577 145.604 62.6415C145.54 62.6252 145.482 62.595 145.432 62.5531C145.385 62.5115 145.348 62.4596 145.325 62.4014C145.301 62.3432 145.292 62.2804 145.297 62.218C146.053 49.993 142.667 36.8565 139.699 27.9961C136.301 17.3016 129.766 7.85889 120.932 0.878571C91.6025 19.7924 58.6436 31.8298 27.3576 41.9904Z" fill="white"/>
<path d="M132.343 126.717C132.277 126.716 132.212 126.7 132.153 126.67C132.095 126.64 132.044 126.596 132.006 126.543C131.335 125.468 130.946 124.244 130.875 122.981C130.804 121.719 131.054 120.459 131.601 119.318C132.518 117.157 133.899 115.222 135.648 113.647C135.685 113.607 135.73 113.575 135.78 113.553C135.83 113.531 135.884 113.52 135.938 113.52C135.993 113.52 136.047 113.531 136.097 113.553C136.147 113.575 136.192 113.607 136.229 113.647C136.267 113.685 136.298 113.73 136.319 113.779C136.34 113.829 136.351 113.882 136.351 113.936C136.351 113.989 136.34 114.043 136.319 114.092C136.298 114.142 136.267 114.186 136.229 114.224C134.55 115.706 133.219 117.537 132.33 119.586C131.833 120.598 131.601 121.718 131.656 122.842C131.71 123.967 132.048 125.06 132.64 126.02C132.67 126.064 132.692 126.113 132.703 126.165C132.714 126.218 132.715 126.271 132.705 126.324C132.694 126.376 132.674 126.426 132.644 126.471C132.615 126.515 132.577 126.553 132.532 126.583C132.485 126.647 132.419 126.694 132.343 126.717Z" fill="white"/>
<path d="M54.0285 114.56C53.9471 114.56 53.8675 114.536 53.8001 114.491C53.7327 114.445 53.6806 114.381 53.6508 114.305C44.465 92.0121 29.6408 72.4534 10.614 57.5235C10.5537 57.4741 10.508 57.4093 10.4819 57.3361C10.4557 57.263 10.4501 57.1841 10.4655 57.108C10.4848 57.0337 10.5237 56.9659 10.5783 56.9117C10.6329 56.8575 10.7011 56.8188 10.7758 56.7997C18.1047 55.0211 25.264 52.6126 32.1728 49.6014C32.2223 49.5794 32.2757 49.5676 32.3299 49.5665C32.3841 49.5654 32.438 49.5752 32.4884 49.5952C32.5387 49.6152 32.5845 49.645 32.623 49.6829C32.6615 49.7208 32.6919 49.7661 32.7125 49.8159C32.7346 49.8651 32.7466 49.9182 32.7477 49.972C32.7487 50.0259 32.7389 50.0794 32.7188 50.1294C32.6987 50.1794 32.6686 50.2249 32.6304 50.2631C32.5923 50.3014 32.5468 50.3316 32.4966 50.3521C25.8051 53.2757 18.8776 55.6343 11.7877 57.4029C30.6254 72.3557 45.3011 91.8469 54.4198 114.024C54.46 114.125 54.4584 114.238 54.4155 114.339C54.3726 114.439 54.2918 114.518 54.1904 114.56H54.0285Z" fill="white"/>
<path d="M52.2575 114.026C52.1879 114.028 52.119 114.01 52.0592 113.975C51.9994 113.939 51.9512 113.887 51.9203 113.825C46.5139 105.143 40.347 96.9527 33.4913 89.3483C29.5924 85.1527 25.5585 81.3726 20.6747 76.882C16.2361 72.7802 11.2309 68.1423 5.22731 65.1932C5.1521 65.1578 5.08975 65.1001 5.04871 65.0282C5.00766 64.9562 4.98995 64.8734 4.99798 64.7911C5.007 64.7087 5.0398 64.6307 5.09247 64.5665C5.14514 64.5023 5.21543 64.4546 5.29479 64.4292C8.7223 63.4288 12.0951 62.2521 15.3997 60.9038C15.4979 60.8786 15.602 60.8898 15.6925 60.9352C15.7831 60.9806 15.8539 61.0572 15.8918 61.1507C15.9298 61.2441 15.9323 61.3481 15.8988 61.4433C15.8654 61.5384 15.7983 61.6182 15.71 61.6678C12.7149 62.8877 9.62545 63.9868 6.50899 64.9251C12.1888 67.9278 16.9916 72.3513 21.2413 76.2788C26.1386 80.7828 30.186 84.5763 34.0984 88.7987C40.9957 96.4319 47.1904 104.664 52.6083 113.396C52.6651 113.487 52.6843 113.597 52.6616 113.702C52.639 113.807 52.5764 113.899 52.4869 113.959C52.4177 114.001 52.3386 114.024 52.2575 114.026Z" fill="white"/>
<path d="M56.6404 115.915C56.5548 115.913 56.4719 115.886 56.4026 115.836C56.3334 115.786 56.2813 115.716 56.2534 115.635C56.2255 115.555 56.223 115.468 56.2464 115.386C56.2697 115.304 56.3178 115.232 56.3841 115.178C83.5044 93.4996 113.458 75.5753 145.426 61.8945C145.528 61.8501 145.643 61.8477 145.747 61.8879C145.851 61.9281 145.934 62.0077 145.979 62.109C146.024 62.2103 146.026 62.3252 145.986 62.4282C145.945 62.5313 145.865 62.6141 145.763 62.6586C113.837 76.2975 83.9236 94.1818 56.8428 115.821C56.7864 115.872 56.7158 115.905 56.6404 115.915Z" fill="white"/>
<path d="M60.0722 116.397C59.9927 116.397 59.9148 116.374 59.8479 116.331C59.781 116.288 59.7278 116.227 59.6944 116.156C59.6484 116.056 59.6438 115.942 59.6817 115.84C59.7196 115.737 59.7969 115.653 59.8968 115.606C76.0046 108.6 93.7978 106.334 111.163 109.078C111.266 109.103 111.355 109.165 111.413 109.253C111.471 109.34 111.494 109.446 111.477 109.549C111.46 109.652 111.404 109.745 111.321 109.81C111.238 109.874 111.133 109.905 111.028 109.896C93.8179 107.172 76.1821 109.419 60.2206 116.37L60.0722 116.397Z" fill="white"/>
<path d="M132.715 117.722C132.649 117.741 132.579 117.741 132.513 117.722C127.862 115.116 122.867 113.171 117.672 111.945C117.565 111.92 117.473 111.853 117.415 111.76C117.357 111.667 117.338 111.556 117.362 111.449C117.391 111.345 117.458 111.255 117.551 111.197C117.643 111.14 117.754 111.12 117.861 111.141C123.116 112.383 128.167 114.359 132.863 117.012C132.96 117.066 133.031 117.155 133.061 117.26C133.091 117.366 133.078 117.479 133.025 117.575C132.987 117.62 132.939 117.656 132.886 117.682C132.832 117.707 132.774 117.721 132.715 117.722Z" fill="white"/>
<path d="M136.391 117.727C136.322 117.727 136.253 117.71 136.192 117.678C136.131 117.645 136.079 117.597 136.04 117.54C136.011 117.494 135.991 117.443 135.982 117.39C135.973 117.337 135.975 117.282 135.988 117.23C136 117.177 136.023 117.128 136.056 117.084C136.088 117.041 136.129 117.004 136.175 116.977C144.054 112.004 173.249 97.1646 179.873 94.0414C179.973 93.9934 180.089 93.9869 180.194 94.0233C180.299 94.0598 180.385 94.1362 180.433 94.2357C180.481 94.3352 180.488 94.4498 180.451 94.5541C180.415 94.6585 180.338 94.744 180.238 94.792C173.613 97.9019 144.472 112.714 136.621 117.674C136.55 117.712 136.471 117.73 136.391 117.727Z" fill="white"/>
<path d="M134.414 122.641C134.345 122.641 134.276 122.624 134.215 122.591C134.154 122.559 134.102 122.511 134.064 122.453C134.007 122.358 133.99 122.246 134.015 122.138C134.04 122.031 134.106 121.937 134.199 121.877C157.822 106.857 183.098 94.5748 209.533 85.269C209.587 85.2416 209.645 85.226 209.705 85.2231C209.765 85.2203 209.825 85.2303 209.881 85.2525C209.937 85.2746 209.987 85.3084 210.028 85.3516C210.07 85.3948 210.101 85.4464 210.121 85.5027C210.14 85.5591 210.147 85.619 210.142 85.6784C210.136 85.7377 210.117 85.7951 210.087 85.8467C210.057 85.8983 210.016 85.9428 209.967 85.9773C209.918 86.0118 209.862 86.0354 209.803 86.0465C183.427 95.3281 158.21 107.584 134.644 122.574C134.575 122.616 134.496 122.639 134.414 122.641Z" fill="white"/>
<path d="M62.6307 117.669C62.5289 117.679 62.4272 117.65 62.3461 117.588C62.2649 117.526 62.2103 117.436 62.1932 117.336C62.1761 117.236 62.1978 117.133 62.254 117.048C62.3101 116.963 62.3965 116.902 62.4958 116.878C73.4612 113.051 85.0207 111.176 96.6419 111.342C96.7529 111.342 96.8592 111.386 96.9377 111.464C97.0161 111.542 97.0602 111.647 97.0602 111.758C97.0568 111.867 97.0116 111.971 96.9339 112.048C96.8562 112.125 96.7518 112.17 96.6419 112.173C85.1373 112.005 73.6928 113.852 62.8331 117.629L62.6307 117.669Z" fill="white"/>
<path d="M129.278 118.928C129.22 118.94 129.161 118.94 129.103 118.928C123.459 116.314 117.364 114.798 111.146 114.464C111.092 114.463 111.038 114.45 110.989 114.427C110.94 114.405 110.895 114.372 110.859 114.332C110.822 114.292 110.794 114.245 110.776 114.194C110.758 114.143 110.751 114.089 110.755 114.035C110.755 113.981 110.766 113.927 110.788 113.877C110.81 113.827 110.843 113.782 110.883 113.745C110.924 113.709 110.972 113.681 111.024 113.664C111.077 113.647 111.132 113.641 111.187 113.647C117.513 113.98 123.715 115.523 129.454 118.191C129.503 118.212 129.547 118.244 129.583 118.282C129.62 118.321 129.649 118.367 129.668 118.417C129.686 118.467 129.695 118.52 129.693 118.573C129.691 118.626 129.678 118.679 129.656 118.727C129.62 118.793 129.564 118.848 129.497 118.883C129.43 118.919 129.354 118.935 129.278 118.928Z" fill="white"/>
<path d="M128.581 122.35H128.459C107.916 116.178 86.1423 115.224 65.1317 119.575C65.075 119.596 65.0143 119.605 64.9538 119.601C64.8933 119.596 64.8345 119.579 64.7815 119.549C64.7285 119.52 64.6826 119.48 64.6468 119.431C64.6111 119.383 64.5864 119.327 64.5745 119.268C64.5626 119.209 64.5638 119.148 64.578 119.089C64.5921 119.03 64.6189 118.976 64.6565 118.928C64.6941 118.881 64.7416 118.843 64.7957 118.815C64.8498 118.788 64.9092 118.773 64.9698 118.771C86.1149 114.389 108.029 115.352 128.702 121.572C128.807 121.604 128.896 121.674 128.949 121.77C129.001 121.865 129.015 121.977 128.985 122.082C128.953 122.162 128.897 122.23 128.825 122.278C128.753 122.326 128.667 122.351 128.581 122.35Z" fill="white"/>
<path d="M139.907 102.215C139.837 102.235 139.762 102.235 139.692 102.215C133.569 98.3037 126.773 95.5498 119.644 94.0917C119.536 94.066 119.442 94.0003 119.382 93.908C119.322 93.8156 119.3 93.7039 119.32 93.5957C119.331 93.5436 119.353 93.4942 119.383 93.4504C119.414 93.4066 119.453 93.3693 119.498 93.3406C119.543 93.3119 119.593 93.2924 119.646 93.2833C119.699 93.2742 119.753 93.2756 119.806 93.2874C127.034 94.7671 133.926 97.5571 140.137 101.518C140.226 101.578 140.289 101.67 140.311 101.775C140.334 101.88 140.315 101.99 140.258 102.081C140.214 102.129 140.16 102.166 140.099 102.189C140.038 102.212 139.972 102.221 139.907 102.215Z" fill="white"/>
<path d="M102.465 92.9801C102.354 92.9801 102.248 92.9363 102.169 92.8584C102.091 92.7804 102.047 92.6747 102.047 92.5645C102.047 92.4543 102.091 92.3486 102.169 92.2707C102.248 92.1927 102.354 92.149 102.465 92.149C105.373 91.9076 108.295 91.8807 111.207 92.0686C111.304 92.086 111.391 92.1364 111.454 92.2112C111.516 92.2859 111.551 92.3801 111.551 92.4774C111.551 92.5747 111.516 92.6689 111.454 92.7436C111.391 92.8184 111.304 92.8688 111.207 92.8863C108.336 92.7051 105.454 92.732 102.587 92.9667L102.465 92.9801Z" fill="white"/>
<path d="M180.765 77.0524C180.704 77.0719 180.638 77.0719 180.576 77.0524C166.64 69.8005 154.862 67.4949 143.516 69.8139C143.407 69.8352 143.294 69.8126 143.201 69.751C143.109 69.6894 143.045 69.5939 143.024 69.4855C143.002 69.377 143.025 69.2646 143.087 69.1728C143.149 69.0811 143.245 69.0175 143.354 68.9962C154.902 66.6504 166.842 68.9962 180.954 76.3285C181.002 76.3526 181.045 76.3861 181.08 76.4269C181.116 76.4678 181.142 76.5153 181.158 76.5665C181.175 76.6178 181.181 76.6717 181.176 76.7252C181.171 76.7788 181.155 76.8307 181.129 76.8781C181.09 76.9374 181.036 76.9849 180.972 77.0156C180.907 77.0463 180.836 77.059 180.765 77.0524Z" fill="white"/>
<path d="M169.195 83.6077C169.134 83.6256 169.068 83.6256 169.007 83.6077C166.406 82.2529 163.73 81.0445 160.993 79.9885C160.891 79.9468 160.811 79.8674 160.768 79.7671C160.725 79.6668 160.723 79.5537 160.763 79.4523C160.783 79.4013 160.812 79.3547 160.85 79.3154C160.888 79.276 160.934 79.2447 160.984 79.2234C161.035 79.2021 161.089 79.1912 161.144 79.1914C161.199 79.1916 161.253 79.2028 161.303 79.2245C164.067 80.2964 166.769 81.5181 169.398 82.8839C169.445 82.9091 169.487 82.9435 169.52 82.9849C169.554 83.0263 169.579 83.0739 169.594 83.125C169.609 83.1762 169.614 83.2298 169.608 83.2827C169.602 83.3357 169.586 83.3869 169.56 83.4335C169.521 83.4927 169.466 83.5403 169.402 83.571C169.338 83.6017 169.266 83.6144 169.195 83.6077Z" fill="white"/>
<path d="M154.452 77.6944H154.33C152.523 77.1583 150.661 76.6891 148.785 76.287C148.678 76.2615 148.586 76.1951 148.528 76.1023C148.47 76.0094 148.451 75.8976 148.475 75.791C148.486 75.7389 148.508 75.6895 148.538 75.6457C148.569 75.6019 148.608 75.5646 148.653 75.5359C148.698 75.5072 148.749 75.4877 148.802 75.4786C148.854 75.4695 148.909 75.4709 148.961 75.4827C150.85 75.8848 152.738 76.3674 154.573 76.9036C154.663 76.9368 154.739 76.9998 154.788 77.0819C154.836 77.1641 154.855 77.2604 154.841 77.3547C154.827 77.449 154.78 77.5355 154.709 77.5998C154.639 77.6641 154.548 77.7023 154.452 77.7079V77.6944Z" fill="white"/>
<path d="M131.294 75.9187C131.212 75.9189 131.132 75.8947 131.065 75.8493C130.998 75.8038 130.946 75.7393 130.916 75.664C130.876 75.5626 130.877 75.4496 130.92 75.3493C130.963 75.249 131.044 75.1694 131.145 75.1278C134.271 74.1829 137.552 73.8506 140.805 74.1493C140.858 74.1543 140.91 74.1697 140.957 74.1947C141.004 74.2197 141.046 74.2538 141.08 74.2949C141.114 74.3361 141.139 74.3835 141.154 74.4344C141.17 74.4853 141.175 74.5387 141.169 74.5916C141.153 74.6993 141.097 74.7972 141.012 74.8664C140.927 74.9357 140.82 74.9715 140.71 74.9669C137.594 74.6815 134.452 74.9955 131.455 75.8918L131.294 75.9187Z" fill="white"/>
<path d="M153.139 91.9506C153.059 91.9685 152.976 91.9685 152.896 91.9506C150.563 90.3776 148.083 89.0309 145.49 87.9292C145.39 87.8824 145.312 87.7994 145.272 87.6971C145.232 87.5949 145.232 87.4813 145.274 87.3796C145.321 87.2804 145.405 87.2036 145.509 87.1659C145.612 87.1283 145.727 87.1328 145.827 87.1786C148.446 88.2948 150.953 89.6547 153.315 91.2401C153.359 91.2698 153.398 91.308 153.427 91.3524C153.457 91.3969 153.477 91.4468 153.487 91.4992C153.497 91.5516 153.497 91.6054 153.486 91.6576C153.475 91.7098 153.453 91.7593 153.423 91.8032C153.352 91.8877 153.25 91.9407 153.139 91.9506Z" fill="white"/>
<path d="M138.933 85.4748H138.812C133.928 84.0539 127.601 83.893 122.015 83.7456C120.558 83.7456 119.142 83.7456 117.806 83.6249C117.752 83.6233 117.698 83.6107 117.649 83.588C117.6 83.5654 117.555 83.5331 117.519 83.493C117.482 83.453 117.454 83.4061 117.437 83.355C117.419 83.304 117.411 83.2499 117.415 83.196C117.415 83.1408 117.426 83.0863 117.448 83.0356C117.47 82.985 117.502 82.9394 117.543 82.9017C117.583 82.864 117.631 82.835 117.683 82.8164C117.736 82.7978 117.791 82.7902 117.847 82.7939C119.196 82.8609 120.545 82.8877 122.042 82.9279C127.668 83.0619 134.063 83.2228 139.041 84.6839C139.146 84.715 139.235 84.7858 139.288 84.8811C139.341 84.9763 139.354 85.0884 139.325 85.1933C139.299 85.2757 139.246 85.3477 139.176 85.3984C139.105 85.4491 139.02 85.4759 138.933 85.4748Z" fill="white"/>
<path d="M68.9505 95.9812C68.8465 95.9781 68.7473 95.9365 68.6725 95.8646C68.5976 95.7927 68.5525 95.6957 68.5458 95.5925C67.0888 76.062 61.4224 60.4859 50.1708 45.084C50.1204 44.9949 50.1049 44.8905 50.127 44.7908C50.1492 44.691 50.2076 44.6029 50.291 44.5432C50.3745 44.4835 50.4771 44.4564 50.5794 44.4672C50.6816 44.4779 50.7763 44.5257 50.8454 44.6014C62.1779 60.1239 67.8982 75.8341 69.3688 95.5388C69.3727 95.6482 69.3343 95.755 69.2616 95.8372C69.1888 95.9195 69.0872 95.971 68.9775 95.9812H68.9505Z" fill="white"/>
<path d="M73.0071 53.1569C72.9275 53.1565 72.8497 53.1337 72.7828 53.0909C72.7159 53.0482 72.6627 52.9874 72.6293 52.9156C70.6228 48.6831 68.2625 44.6251 65.5734 40.7845C65.5097 40.6954 65.4839 40.5849 65.5015 40.477C65.5192 40.3691 65.579 40.2725 65.6679 40.2081C65.7602 40.1495 65.8715 40.128 65.9792 40.1479C66.087 40.1678 66.183 40.2277 66.248 40.3153C68.9674 44.1914 71.3504 48.2901 73.3713 52.5671C73.3964 52.6153 73.4115 52.668 73.4155 52.7221C73.4196 52.7763 73.4125 52.8306 73.3949 52.882C73.3773 52.9333 73.3494 52.9806 73.3128 53.0209C73.2763 53.0612 73.2319 53.0938 73.1824 53.1167C73.1276 53.1426 73.0678 53.1563 73.0071 53.1569Z" fill="white"/>
<path d="M79.4271 72.4685C79.3312 72.4673 79.2386 72.4333 79.1649 72.3722C79.0912 72.3112 79.0409 72.2269 79.0223 72.1334C78.3115 68.5811 77.3651 65.0793 76.1892 61.651C76.1581 61.547 76.1692 61.4349 76.2202 61.3389C76.2711 61.2429 76.3579 61.1705 76.4619 61.1372C76.5659 61.1039 76.6789 61.1124 76.7767 61.1608C76.8745 61.2093 76.9493 61.2938 76.9852 61.3963C78.1656 64.8562 79.1165 68.3892 79.8318 71.9726C79.8457 72.0256 79.8481 72.0809 79.8389 72.1349C79.8297 72.1888 79.8092 72.2403 79.7787 72.2859C79.7481 72.3314 79.7082 72.3701 79.6615 72.3992C79.6149 72.4284 79.5626 72.4474 79.508 72.4551L79.4271 72.4685Z" fill="white"/>
<path d="M80.9857 85.1408C80.8793 85.141 80.7768 85.1009 80.6991 85.0287C80.6214 84.9565 80.5743 84.8575 80.5674 84.7521C80.4595 82.2052 80.2167 79.6315 79.8659 77.098C79.8539 76.9903 79.8833 76.882 79.9484 76.7949C80.0135 76.7079 80.1094 76.6485 80.2167 76.6289C80.2717 76.6214 80.3276 76.6248 80.3813 76.639C80.4349 76.6532 80.4852 76.6778 80.5291 76.7115C80.5731 76.7452 80.6098 76.7873 80.6373 76.8352C80.6647 76.8832 80.6823 76.936 80.6889 76.9908C81.0397 79.5377 81.2825 82.1382 81.4039 84.7118C81.4057 84.7664 81.3967 84.8208 81.3773 84.8719C81.3579 84.923 81.3286 84.9698 81.291 85.0096C81.2535 85.0495 81.2083 85.0816 81.1582 85.1041C81.1081 85.1266 81.0541 85.1391 80.9992 85.1408H80.9857Z" fill="white"/>
<path d="M88.6309 50.1395C88.5464 50.1377 88.4644 50.1114 88.3948 50.0638C88.3253 50.0161 88.2713 49.9493 88.2396 49.8714C86.1377 43.8354 83.3255 38.0672 79.8616 32.6867C79.832 32.6402 79.812 32.5883 79.8028 32.534C79.7935 32.4797 79.7952 32.4241 79.8077 32.3705C79.8203 32.3169 79.8435 32.2662 79.8759 32.2216C79.9083 32.1769 79.9493 32.1391 79.9965 32.1104C80.0423 32.0812 80.0936 32.0615 80.1472 32.0525C80.2008 32.0435 80.2556 32.0453 80.3085 32.0578C80.3614 32.0703 80.4112 32.0933 80.455 32.1253C80.4987 32.1574 80.5355 32.1979 80.5632 32.2444C84.0648 37.6774 86.9044 43.5046 89.0221 49.6033C89.0414 49.6534 89.0505 49.7069 89.0487 49.7605C89.0468 49.8141 89.0342 49.8669 89.0116 49.9156C88.989 49.9643 88.9568 50.008 88.9169 50.0442C88.877 50.0803 88.8302 50.1082 88.7793 50.1261L88.6309 50.1395Z" fill="white"/>
<path d="M93.2146 76.812C93.106 76.812 93.0016 76.7701 92.9236 76.6951C92.8455 76.62 92.7999 76.5177 92.7964 76.4099C92.7793 69.7974 91.9502 63.2118 90.3275 56.7989C90.3027 56.6942 90.3198 56.5839 90.3752 56.4914C90.4305 56.3989 90.5198 56.3314 90.6243 56.303C90.6766 56.289 90.7312 56.2855 90.7848 56.2928C90.8385 56.3001 90.8901 56.3181 90.9367 56.3456C90.9832 56.3731 91.0237 56.4096 91.0558 56.4529C91.0879 56.4962 91.1109 56.5455 91.1235 56.5979C92.7719 63.0706 93.6147 69.7198 93.6328 76.3964C93.6328 76.5066 93.5888 76.6123 93.5103 76.6903C93.4319 76.7682 93.3255 76.812 93.2146 76.812Z" fill="white"/>
<path d="M128.103 32.46C128.01 32.4602 127.921 32.4301 127.847 32.3743C127.774 32.3185 127.722 32.2403 127.698 32.1518C126.165 25.8284 123.361 19.8782 119.455 14.6588C119.412 14.6167 119.38 14.5662 119.359 14.5105C119.338 14.4549 119.329 14.3954 119.333 14.3361C119.337 14.2768 119.354 14.2191 119.383 14.1668C119.411 14.1145 119.45 14.069 119.498 14.0332C119.546 13.9973 119.601 13.9721 119.659 13.9592C119.718 13.9462 119.778 13.9459 119.837 13.9582C119.895 13.9705 119.95 13.9951 119.999 14.0304C120.047 14.0657 120.087 14.1108 120.116 14.1628C124.087 19.4722 126.94 25.5217 128.507 31.9507C128.532 32.0554 128.515 32.1657 128.46 32.2582C128.404 32.3507 128.315 32.4183 128.21 32.4467L128.103 32.46Z" fill="white"/>
<path d="M130.115 59.6671C130.061 59.6654 130.007 59.6529 129.958 59.6302C129.909 59.6076 129.864 59.5752 129.828 59.5352C129.791 59.4952 129.763 59.4483 129.746 59.3972C129.728 59.3462 129.72 59.2921 129.724 59.2382C130.143 53.4327 130.053 47.6021 129.454 41.8122C129.446 41.7026 129.481 41.5943 129.552 41.5095C129.622 41.4247 129.722 41.3699 129.832 41.3565C129.941 41.349 130.048 41.384 130.131 41.4541C130.215 41.5243 130.267 41.6239 130.277 41.7318C130.881 47.5572 130.972 53.4239 130.547 59.265C130.547 59.3201 130.536 59.3747 130.514 59.4253C130.492 59.4759 130.46 59.5215 130.419 59.5593C130.379 59.597 130.331 59.626 130.278 59.6445C130.226 59.6631 130.171 59.6708 130.115 59.6671Z" fill="white"/>
<path d="M116.492 65.3159C116.382 65.3057 116.281 65.2542 116.208 65.172C116.135 65.0897 116.097 64.983 116.101 64.8735C117.257 50.3411 114.461 35.7672 108.006 22.6759C107.981 22.6278 107.966 22.575 107.962 22.5209C107.958 22.4668 107.965 22.4124 107.983 22.3611C108 22.3097 108.028 22.2625 108.065 22.2222C108.101 22.1818 108.146 22.1492 108.195 22.1263C108.294 22.0797 108.407 22.0732 108.51 22.1082C108.614 22.1433 108.699 22.2171 108.748 22.314C115.235 35.5478 118.03 50.2681 116.843 64.9406C116.835 65.0331 116.796 65.1203 116.733 65.1883C116.669 65.2564 116.584 65.3013 116.492 65.3159Z" fill="white"/>
<path d="M98.2622 36.2798C98.1834 36.2765 98.1069 36.2523 98.0405 36.21C97.9741 36.1676 97.9203 36.1084 97.8845 36.0385C96.6439 33.4308 95.2426 30.9014 93.6887 28.465C93.6311 28.3716 93.6116 28.2599 93.6342 28.1528C93.6567 28.0456 93.7197 27.9511 93.8101 27.8885C93.857 27.8591 93.9092 27.8392 93.9639 27.83C94.0185 27.8209 94.0745 27.8226 94.1284 27.835C94.1824 27.8475 94.2333 27.8705 94.2783 27.9027C94.3232 27.9349 94.3613 27.9756 94.3902 28.0226C95.957 30.4933 97.3761 33.0536 98.64 35.69C98.686 35.7896 98.6906 35.9033 98.6527 36.0062C98.6148 36.1092 98.5375 36.193 98.4376 36.2396C98.3832 36.2669 98.3231 36.2807 98.2622 36.2798Z" fill="white"/>
<path d="M105.236 72.1639C105.181 72.1605 105.128 72.1464 105.078 72.1223C105.029 72.0982 104.985 72.0646 104.948 72.0235C104.912 71.9824 104.884 71.9346 104.866 71.8827C104.849 71.8309 104.842 71.7762 104.845 71.7216C105.496 61.1076 103.806 50.4805 99.8939 40.5827C99.8746 40.5326 99.8656 40.4792 99.8674 40.4255C99.8692 40.3719 99.8818 40.3192 99.9044 40.2705C99.9271 40.2217 99.9593 40.178 99.9992 40.1419C100.039 40.1057 100.086 40.0779 100.137 40.0599C100.186 40.0385 100.239 40.0274 100.293 40.0273C100.347 40.0273 100.401 40.0383 100.45 40.0597C100.499 40.0811 100.544 40.1124 100.58 40.1517C100.617 40.1909 100.645 40.2373 100.663 40.2878C104.627 50.2942 106.335 61.0421 105.668 71.7752C105.666 71.8292 105.654 71.8823 105.631 71.9313C105.608 71.9804 105.576 72.0244 105.535 72.0607C105.495 72.0969 105.448 72.1248 105.396 72.1426C105.345 72.1603 105.291 72.1675 105.236 72.1639Z" fill="white"/>
<path d="M158.507 38.5856H158.426C158.319 38.563 158.226 38.4999 158.165 38.4097C158.105 38.3196 158.082 38.2095 158.102 38.103C159.489 30.8773 159.143 23.4285 157.09 16.3608C157.076 16.2616 157.098 16.1606 157.153 16.0765C157.208 15.9923 157.291 15.9307 157.388 15.903C157.485 15.8752 157.589 15.8832 157.681 15.9255C157.772 15.9677 157.845 16.0414 157.886 16.1329C159.977 23.3268 160.328 30.9096 158.911 38.2639C158.895 38.3573 158.845 38.4416 158.77 38.5009C158.696 38.5601 158.602 38.5903 158.507 38.5856Z" fill="white"/>
<path d="M166.707 37.6211H166.545C166.494 37.6023 166.447 37.5729 166.408 37.535C166.368 37.497 166.337 37.4513 166.317 37.4008C166.297 37.3502 166.287 37.296 166.289 37.2416C166.291 37.1871 166.305 37.1338 166.329 37.085L171.631 24.927C171.679 24.8332 171.761 24.7609 171.86 24.7247C171.96 24.6884 172.069 24.691 172.167 24.7318C172.264 24.7726 172.342 24.8486 172.386 24.9445C172.429 25.0405 172.434 25.1491 172.4 25.2487L167.085 37.4067C167.049 37.4744 166.994 37.5306 166.927 37.5686C166.86 37.6066 166.784 37.6248 166.707 37.6211Z" fill="white"/>
<path d="M174.614 42.486C174.543 42.4874 174.472 42.4695 174.411 42.434C174.349 42.3986 174.298 42.347 174.263 42.2849C174.235 42.2386 174.216 42.187 174.208 42.1331C174.199 42.0793 174.202 42.0245 174.216 41.9719C174.23 41.9192 174.255 41.8699 174.288 41.827C174.322 41.784 174.364 41.7483 174.412 41.7219C177.832 39.7759 181.672 38.6727 185.61 38.5048C185.664 38.5012 185.718 38.5085 185.77 38.5262C185.821 38.5439 185.868 38.5718 185.908 38.6081C185.949 38.6443 185.981 38.6883 186.004 38.7374C186.027 38.7864 186.04 38.8396 186.041 38.8936C186.045 38.9475 186.038 39.0015 186.02 39.0526C186.002 39.1036 185.974 39.1506 185.937 39.1906C185.901 39.2306 185.856 39.263 185.807 39.2856C185.758 39.3083 185.704 39.3208 185.65 39.3225C181.855 39.4969 178.157 40.5627 174.857 42.4323C174.784 42.476 174.699 42.4948 174.614 42.486Z" fill="white"/>
</svg>
