<svg width="40" height="106" viewBox="0 0 40 106" fill="none" xmlns="http://www.w3.org/2000/svg">
<path fill-rule="evenodd" clip-rule="evenodd" d="M6.61304 8.11719C6.38356 8.14897 6.17332 8.26279 6.02115 8.43764C5.86898 8.6125 5.78516 8.83656 5.78516 9.06846C5.78516 9.30036 5.86898 9.52443 6.02115 9.69928C6.17332 9.87413 6.38356 9.98796 6.61304 10.0197H36.8052C37.0347 9.98796 37.245 9.87413 37.3971 9.69928C37.5493 9.52443 37.6331 9.30036 37.6331 9.06846C37.6331 8.83656 37.5493 8.6125 37.3971 8.43764C37.245 8.26279 37.0347 8.14897 36.8052 8.11719H6.61304Z" fill="#7F7B7B"/>
<path fill-rule="evenodd" clip-rule="evenodd" d="M6.61312 5.10938C6.36349 5.10938 6.12408 5.20864 5.94756 5.38534C5.77104 5.56204 5.67188 5.8017 5.67188 6.05159C5.67188 6.30148 5.77104 6.54114 5.94756 6.71784C6.12408 6.89454 6.36349 6.9938 6.61312 6.9938H36.8053C37.0535 6.98916 37.2902 6.8884 37.4658 6.7127C37.6413 6.53699 37.7419 6.30003 37.7466 6.05159C37.7466 5.8017 37.6474 5.56204 37.4709 5.38534C37.2944 5.20864 37.055 5.10938 36.8053 5.10938H6.61312Z" fill="#7F7B7B"/>
<path fill-rule="evenodd" clip-rule="evenodd" d="M37.7481 3.78698C38.2497 3.78698 38.7308 3.58749 39.0856 3.23239C39.4403 2.87729 39.6396 2.39568 39.6396 1.89349C39.6396 1.39131 39.4403 0.909689 39.0856 0.55459C38.7308 0.199492 38.2497 0 37.7481 0H7.55586C6.56463 -2.95713e-08 5.58312 0.195437 4.66734 0.575154C3.75157 0.95487 2.91948 1.51143 2.21858 2.21306C1.51768 2.91468 0.961696 3.74763 0.582371 4.66435C0.203046 5.58106 0.0078125 6.56359 0.0078125 7.55584C0.0078125 8.54809 0.203046 9.53062 0.582371 10.4473C0.961696 11.3641 1.51768 12.197 2.21858 12.8986C2.91948 13.6003 3.75157 14.1568 4.66734 14.5365C5.58312 14.9163 6.56463 15.1117 7.55586 15.1117H37.7481C38.2473 15.1117 38.7261 14.9131 39.0792 14.5598C39.4322 14.2064 39.6305 13.727 39.6305 13.2273C39.6305 12.7275 39.4322 12.2482 39.0792 11.8948C38.7261 11.5414 38.2473 11.3428 37.7481 11.3428H7.55586C7.03827 11.3787 6.51884 11.3077 6.02984 11.1341C5.54085 10.9605 5.09275 10.688 4.71341 10.3337C4.33407 9.97939 4.0316 9.55074 3.82479 9.07441C3.61798 8.59809 3.51126 8.08427 3.51126 7.5649C3.51126 7.04554 3.61798 6.53172 3.82479 6.05539C4.0316 5.57907 4.33407 5.15042 4.71341 4.79609C5.09275 4.44176 5.54085 4.16933 6.02984 3.99573C6.51884 3.82213 7.03827 3.75108 7.55586 3.78698H37.7481Z" fill="#13776C"/>
<path fill-rule="evenodd" clip-rule="evenodd" d="M33.0248 25.8755C33.2215 25.8193 33.3945 25.7004 33.5177 25.537C33.6409 25.3735 33.7075 25.1743 33.7075 24.9696C33.7075 24.7648 33.6409 24.5656 33.5177 24.4021C33.3945 24.2387 33.2215 24.1198 33.0248 24.0636H2.83258C2.6925 24.0235 2.54505 24.0166 2.40183 24.0433C2.2586 24.0699 2.12353 24.1295 2.00722 24.2174C1.89092 24.3052 1.79657 24.4188 1.7316 24.5494C1.66663 24.6799 1.63281 24.8237 1.63281 24.9696C1.63281 25.1154 1.66663 25.2592 1.7316 25.3898C1.79657 25.5203 1.89092 25.6339 2.00722 25.7218C2.12353 25.8096 2.2586 25.8692 2.40183 25.8959C2.54505 25.9226 2.6925 25.9156 2.83258 25.8755H33.0248Z" fill="#7F7B7B"/>
<path fill-rule="evenodd" clip-rule="evenodd" d="M33.0248 28.899C33.2215 28.8427 33.3945 28.7239 33.5177 28.5604C33.6409 28.3969 33.7075 28.1978 33.7075 27.993C33.7075 27.7882 33.6409 27.589 33.5177 27.4256C33.3945 27.2621 33.2215 27.1433 33.0248 27.087H2.83258C2.6925 27.047 2.54505 27.04 2.40183 27.0667C2.2586 27.0934 2.12353 27.153 2.00722 27.2408C1.89092 27.3286 1.79657 27.4423 1.7316 27.5728C1.66663 27.7033 1.63281 27.8472 1.63281 27.993C1.63281 28.1388 1.66663 28.2827 1.7316 28.4132C1.79657 28.5437 1.89092 28.6574 2.00722 28.7452C2.12353 28.833 2.2586 28.8926 2.40183 28.9193C2.54505 28.946 2.6925 28.939 2.83258 28.899H33.0248Z" fill="#7F7B7B"/>
<path fill-rule="evenodd" clip-rule="evenodd" d="M1.89153 30.2237C1.39227 30.2237 0.913452 30.4222 0.560417 30.7756C0.207382 31.129 0.00905235 31.6083 0.00905235 32.1081C0.00905235 32.6079 0.207382 33.0872 0.560417 33.4406C0.913452 33.794 1.39227 33.9925 1.89153 33.9925H32.0837C33.0395 34.0588 33.9345 34.4857 34.5882 35.1869C35.2418 35.8881 35.6053 36.8114 35.6053 37.7705C35.6053 38.7295 35.2418 39.6529 34.5882 40.3541C33.9345 41.0553 33.0395 41.4821 32.0837 41.5484H1.89153C1.38987 41.5484 0.908748 41.7479 0.554016 42.103C0.199284 42.4581 0 42.9397 0 43.4419C0 43.9441 0.199284 44.4257 0.554016 44.7808C0.908748 45.1359 1.38987 45.3354 1.89153 45.3354H32.0837C33.6182 45.3371 35.1167 44.8706 36.3796 43.9981C37.6425 43.1255 38.6098 41.8885 39.1524 40.4517C39.6951 39.0149 39.7874 37.4466 39.4171 35.956C39.0467 34.4653 38.2313 33.1231 37.0796 32.1081C38.2313 31.0932 39.0467 29.7509 39.4171 28.2603C39.7874 26.7696 39.6951 25.2014 39.1524 23.7646C38.6098 22.3278 37.6425 21.0907 36.3796 20.2182C35.1167 19.3456 33.6182 18.8792 32.0837 18.8809H1.89153C1.38987 18.8809 0.908748 19.0804 0.554016 19.4355C0.199284 19.7906 0 20.2722 0 20.7744C0 21.2765 0.199284 21.7582 0.554016 22.1133C0.908748 22.4684 1.38987 22.6678 1.89153 22.6678H32.0837C33.0395 22.7341 33.9345 23.161 34.5882 23.8622C35.2418 24.5634 35.6053 25.4867 35.6053 26.4458C35.6053 27.4048 35.2418 28.3281 34.5882 29.0294C33.9345 29.7306 33.0395 30.1574 32.0837 30.2237H1.89153Z" fill="#13776C"/>
<path fill-rule="evenodd" clip-rule="evenodd" d="M33.0241 37.217C33.2535 37.1852 33.4638 37.0714 33.616 36.8965C33.7681 36.7217 33.8519 36.4976 33.8519 36.2657C33.8519 36.0338 33.7681 35.8098 33.616 35.6349C33.4638 35.4601 33.2535 35.3462 33.0241 35.3145H2.83187C2.58369 35.3191 2.34697 35.4199 2.17145 35.5956C1.99593 35.7713 1.89527 36.0082 1.89062 36.2567C1.89508 36.5069 1.99514 36.7458 2.17021 36.9245C2.34528 37.1031 2.58206 37.2078 2.83187 37.217H33.0241Z" fill="#7F7B7B"/>
<path fill-rule="evenodd" clip-rule="evenodd" d="M33.0234 40.2251C33.1634 40.2652 33.3109 40.2722 33.4541 40.2455C33.5973 40.2188 33.7324 40.1592 33.8487 40.0714C33.965 39.9835 34.0594 39.8699 34.1243 39.7394C34.1893 39.6088 34.2231 39.465 34.2231 39.3192C34.2231 39.1733 34.1893 39.0295 34.1243 38.899C34.0594 38.7684 33.965 38.6548 33.8487 38.567C33.7324 38.4791 33.5973 38.4195 33.4541 38.3929C33.3109 38.3662 33.1634 38.3731 33.0234 38.4132H2.83115C2.63446 38.4694 2.46144 38.5883 2.33825 38.7517C2.21507 38.9152 2.14844 39.1144 2.14844 39.3192C2.14844 39.5239 2.21507 39.7231 2.33825 39.8866C2.46144 40.0501 2.63446 40.1689 2.83115 40.2251H33.0234Z" fill="#7F7B7B"/>
<path fill-rule="evenodd" clip-rule="evenodd" d="M6.61381 57.2969C6.42638 57.3628 6.26404 57.4854 6.14919 57.6477C6.03434 57.81 5.97266 58.004 5.97266 58.2029C5.97266 58.4017 6.03434 58.5957 6.14919 58.758C6.26404 58.9203 6.42638 59.0429 6.61381 59.1088H36.806C36.9934 59.0429 37.1558 58.9203 37.2706 58.758C37.3855 58.5957 37.4472 58.4017 37.4472 58.2029C37.4472 58.004 37.3855 57.81 37.2706 57.6477C37.1558 57.4854 36.9934 57.3628 36.806 57.2969H6.61381Z" fill="#7F7B7B"/>
<path fill-rule="evenodd" clip-rule="evenodd" d="M6.61383 54.214C6.47376 54.1739 6.3263 54.167 6.18308 54.1936C6.03985 54.2203 5.90478 54.2799 5.78848 54.3678C5.67217 54.4556 5.57782 54.5692 5.51285 54.6997C5.44788 54.8303 5.41406 54.9741 5.41406 55.1199C5.41406 55.2658 5.44788 55.4096 5.51285 55.5402C5.57782 55.6707 5.67217 55.7843 5.78848 55.8722C5.90478 55.96 6.03985 56.0196 6.18308 56.0463C6.3263 56.0729 6.47376 56.066 6.61383 56.0259H36.806C37.0027 55.9697 37.1758 55.8508 37.2989 55.6874C37.4221 55.5239 37.4888 55.3247 37.4888 55.1199C37.4888 54.9152 37.4221 54.716 37.2989 54.5525C37.1758 54.3891 37.0027 54.2702 36.806 54.214H6.61383Z" fill="#7F7B7B"/>
<path fill-rule="evenodd" clip-rule="evenodd" d="M37.7481 52.8924C38.2497 52.8924 38.7308 52.693 39.0856 52.3379C39.4403 51.9828 39.6396 51.5011 39.6396 50.999C39.6396 50.4968 39.4403 50.0152 39.0856 49.6601C38.7308 49.305 38.2497 49.1055 37.7481 49.1055H7.55586C5.55399 49.1055 3.63412 49.9015 2.21858 51.3185C0.803048 52.7355 0.0078125 54.6574 0.0078125 56.6613C0.0078125 58.6652 0.803048 60.5871 2.21858 62.0041C3.63412 63.4211 5.55399 64.2172 7.55586 64.2172H32.0825C33.0383 64.2835 33.9333 64.7103 34.5869 65.4115C35.2405 66.1127 35.604 67.036 35.604 67.9951C35.604 68.9541 35.2405 69.8775 34.5869 70.5787C33.9333 71.2799 33.0383 71.7067 32.0825 71.773H1.89029C1.39103 71.773 0.912212 71.9715 0.559177 72.3249C0.206143 72.6783 0.0078125 73.1576 0.0078125 73.6574C0.0078125 74.1572 0.206143 74.6365 0.559177 74.9899C0.912212 75.3433 1.39103 75.5419 1.89029 75.5419H32.0825C33.1036 75.592 34.1242 75.4339 35.0825 75.0772C36.0407 74.7206 36.9166 74.1728 37.657 73.4671C38.3974 72.7614 38.9868 71.9125 39.3896 70.9718C39.7924 70.0312 40.0001 69.0185 40.0001 67.9951C40.0001 66.9717 39.7924 65.959 39.3896 65.0183C38.9868 64.0777 38.3974 63.2288 37.657 62.5231C36.9166 61.8174 36.0407 61.2696 35.0825 60.9129C34.1242 60.5563 33.1036 60.3982 32.0825 60.4483H7.55586C7.03827 60.4842 6.51884 60.4131 6.02984 60.2395C5.54085 60.0659 5.09275 59.7935 4.71341 59.4392C4.33407 59.0849 4.0316 58.6562 3.82479 58.1799C3.61798 57.7036 3.51126 57.1897 3.51126 56.6704C3.51126 56.151 3.61798 55.6372 3.82479 55.1609C4.0316 54.6845 4.33407 54.2559 4.71341 53.9016C5.09275 53.5472 5.54085 53.2748 6.02984 53.1012C6.51884 52.9276 7.03827 52.8565 7.55586 52.8924H37.7481Z" fill="#13776C"/>
<path fill-rule="evenodd" clip-rule="evenodd" d="M33.0234 67.4224C33.1634 67.4625 33.3109 67.4694 33.4541 67.4427C33.5973 67.4161 33.7324 67.3565 33.8487 67.2686C33.965 67.1808 34.0594 67.0672 34.1243 66.9366C34.1893 66.8061 34.2231 66.6623 34.2231 66.5164C34.2231 66.3706 34.1893 66.2268 34.1243 66.0962C34.0594 65.9657 33.965 65.8521 33.8487 65.7642C33.7324 65.6764 33.5973 65.6168 33.4541 65.5901C33.3109 65.5634 33.1634 65.5704 33.0234 65.6105H2.83115C2.63446 65.6667 2.46144 65.7856 2.33825 65.949C2.21507 66.1125 2.14844 66.3117 2.14844 66.5164C2.14844 66.7212 2.21507 66.9204 2.33825 67.0838C2.46144 67.2473 2.63446 67.3662 2.83115 67.4224H33.0234Z" fill="#7F7B7B"/>
<path fill-rule="evenodd" clip-rule="evenodd" d="M33.0234 70.4498C33.1634 70.4898 33.3109 70.4968 33.4541 70.4701C33.5973 70.4434 33.7324 70.3838 33.8487 70.296C33.965 70.2082 34.0594 70.0945 34.1243 69.964C34.1893 69.8335 34.2231 69.6896 34.2231 69.5438C34.2231 69.3979 34.1893 69.2541 34.1243 69.1236C34.0594 68.9931 33.965 68.8794 33.8487 68.7916C33.7324 68.7038 33.5973 68.6442 33.4541 68.6175C33.3109 68.5908 33.1634 68.5977 33.0234 68.6378H2.83115C2.63446 68.694 2.46144 68.8129 2.33825 68.9764C2.21507 69.1398 2.14844 69.339 2.14844 69.5438C2.14844 69.7485 2.21507 69.9477 2.33825 70.1112C2.46144 70.2747 2.63446 70.3935 2.83115 70.4498H33.0234Z" fill="#7F7B7B"/>
<path fill-rule="evenodd" clip-rule="evenodd" d="M1.8918 79.3257C2.18812 79.3183 2.48173 79.3838 2.74684 79.5164C3.01195 79.6491 3.24045 79.845 3.41228 80.0868L17.549 98.9673L19.8116 101.993L22.0742 98.9673L36.2291 80.0868C36.3765 79.8881 36.5615 79.7204 36.7736 79.5933C36.9857 79.4662 37.2208 79.3821 37.4653 79.3459C37.7099 79.3098 37.9592 79.3222 38.1989 79.3824C38.4387 79.4427 38.6643 79.5497 38.8628 79.6972C39.0613 79.8447 39.2288 80.0299 39.3557 80.2423C39.4827 80.4546 39.5667 80.6899 39.6028 80.9347C39.6389 81.1795 39.6266 81.429 39.5664 81.6691C39.5062 81.9091 39.3993 82.1349 39.2519 82.3336L22.8345 104.276C22.4795 104.741 22.0218 105.117 21.4973 105.375C20.9729 105.632 20.3959 105.765 19.8116 105.762C19.2282 105.764 18.6524 105.629 18.1305 105.368C17.6086 105.107 17.1553 104.727 16.8069 104.258L0.389438 82.3336C0.140416 82.0124 0.00653515 81.6167 0.00932245 81.2102C-0.000892265 80.96 0.0408056 80.7104 0.131795 80.4771C0.222784 80.2438 0.361086 80.032 0.53797 79.8549C0.714854 79.6779 0.926486 79.5394 1.1595 79.4483C1.39252 79.3573 1.64186 79.3155 1.8918 79.3257Z" fill="#13776C"/>
<path fill-rule="evenodd" clip-rule="evenodd" d="M5.65471 80.8477L19.0855 98.7498C19.1717 98.866 19.2835 98.9608 19.4122 99.0268C19.5409 99.0928 19.6831 99.1282 19.8277 99.1303C19.9748 99.1282 20.1196 99.093 20.2513 99.0271C20.3829 98.9612 20.498 98.8664 20.5879 98.7498L34.0006 80.8477C34.1195 80.6847 34.1829 80.4878 34.1816 80.286C34.1816 80.0361 34.0825 79.7964 33.9059 79.6197C33.7294 79.443 33.49 79.3438 33.2404 79.3438C33.093 79.3444 32.9477 79.3791 32.8159 79.4451C32.684 79.5111 32.5691 79.6066 32.4801 79.7243L19.8096 96.6298L7.13898 79.7243C7.04998 79.6066 6.9351 79.5111 6.80325 79.4451C6.67141 79.3791 6.52615 79.3444 6.37874 79.3438C6.25514 79.3438 6.13274 79.3681 6.01854 79.4155C5.90435 79.4628 5.80058 79.5322 5.71318 79.6197C5.62578 79.7072 5.55645 79.8111 5.50915 79.9254C5.46184 80.0397 5.4375 80.1622 5.4375 80.286C5.44656 80.4919 5.52286 80.6893 5.65471 80.8477Z" fill="#7F7B7B"/>
<path fill-rule="evenodd" clip-rule="evenodd" d="M9.38504 80.8488L12.4441 84.9438L19.0509 93.7317C19.134 93.8512 19.2451 93.9484 19.3745 94.0147C19.5039 94.0811 19.6476 94.1146 19.793 94.1122C19.9409 94.1144 20.0872 94.081 20.2195 94.0148C20.3518 93.9486 20.4663 93.8515 20.5533 93.7317L27.1601 84.9438L30.2372 80.8488C30.3561 80.6858 30.4195 80.4889 30.4182 80.287C30.4182 80.0372 30.319 79.7975 30.1425 79.6208C29.966 79.4441 29.7266 79.3448 29.477 79.3448C29.3296 79.3455 29.1843 79.3802 29.0525 79.4462C28.9206 79.5122 28.8057 79.6077 28.7167 79.7253L27.0696 81.9178L25.1328 84.4727L21.0963 89.9085L19.8111 91.6117L18.5441 89.9085L14.4895 84.4727L12.5527 81.8816L10.9055 79.6891C10.8165 79.5715 10.7016 79.476 10.5698 79.41C10.4379 79.344 10.2927 79.3093 10.1453 79.3086C9.89564 79.3086 9.65623 79.4079 9.47971 79.5846C9.30319 79.7613 9.20402 80.0009 9.20402 80.2508C9.19467 80.4649 9.25852 80.6758 9.38504 80.8488Z" fill="#7F7B7B"/>
</svg>
