<svg width="318" height="178" viewBox="0 0 318 178" fill="none" xmlns="http://www.w3.org/2000/svg">
<rect x="285.369" y="26.9492" width="11.0562" height="6.91011" rx="3.45506" transform="rotate(36.6728 285.369 26.9492)" fill="#13776C"/>
<rect x="292.279" y="13.8203" width="11.0562" height="6.91011" rx="3.45506" transform="rotate(36.6728 292.279 13.8203)" fill="#13776C"/>
<rect x="265.329" width="11.0562" height="6.91011" rx="3.45506" transform="rotate(36.6728 265.329 0)" fill="#13776C"/>
<rect x="267.402" y="29.0215" width="11.0562" height="6.91011" rx="3.45506" transform="rotate(36.6728 267.402 29.0215)" fill="#13776C"/>
<rect x="308.863" y="42.1504" width="11.0562" height="6.91011" rx="3.45506" transform="rotate(36.6728 308.863 42.1504)" fill="#13776C"/>
<rect x="286.751" y="57.3535" width="11.0562" height="6.91011" rx="3.45506" transform="rotate(36.6728 286.751 57.3535)" fill="#13776C"/>
<rect x="249.436" y="37.3145" width="11.0562" height="6.91011" rx="3.45506" transform="rotate(36.6728 249.436 37.3145)" fill="#13776C"/>
<rect x="217.65" y="35.9316" width="11.0562" height="6.91011" rx="3.45506" transform="rotate(36.6728 217.65 35.9316)" fill="#13776C"/>
<rect x="239.762" y="82.2305" width="11.0562" height="6.91011" rx="3.45506" transform="rotate(36.6728 239.762 82.2305)" fill="#13776C"/>
<rect x="194.846" y="40.0781" width="11.0562" height="6.91011" rx="3.45506" transform="rotate(36.6728 194.846 40.0781)" fill="#13776C"/>
<rect x="174.807" y="13.8203" width="11.0562" height="6.91011" rx="3.45506" transform="rotate(36.6728 174.807 13.8203)" fill="#13776C"/>
<rect x="158.223" y="50.4434" width="11.0562" height="6.91011" rx="3.45506" transform="rotate(36.6728 158.223 50.4434)" fill="#13776C"/>
<rect x="170.661" y="85.6855" width="11.0562" height="6.91011" rx="3.45506" transform="rotate(36.6728 170.661 85.6855)" fill="#13776C"/>
<rect x="189.318" y="113.326" width="11.0562" height="6.91011" rx="3.45506" transform="rotate(36.6728 189.318 113.326)" fill="#13776C"/>
<rect x="173.424" y="138.893" width="11.0562" height="6.91011" rx="3.45506" transform="rotate(36.6728 173.424 138.893)" fill="#13776C"/>
<rect x="160.296" y="114.018" width="11.0562" height="6.91011" rx="3.45506" transform="rotate(36.6728 160.296 114.018)" fill="#13776C"/>
<rect x="135.419" y="87.7598" width="11.0562" height="6.91011" rx="3.45506" transform="rotate(36.6728 135.419 87.7598)" fill="#13776C"/>
<rect x="90.5034" y="46.2969" width="11.0562" height="6.91011" rx="3.45506" transform="rotate(36.6728 90.5034 46.2969)" fill="#13776C"/>
<rect x="91.8855" y="76.7031" width="11.0562" height="6.91011" rx="3.45506" transform="rotate(36.6728 91.8855 76.7031)" fill="#13776C"/>
<rect x="108.47" y="105.725" width="11.0562" height="6.91011" rx="3.45506" transform="rotate(36.6728 108.47 105.725)" fill="#13776C"/>
<rect x="134.037" y="129.219" width="11.0562" height="6.91011" rx="3.45506" transform="rotate(36.6728 134.037 129.219)" fill="#13776C"/>
<rect x="154.767" y="155.477" width="11.0562" height="6.91011" rx="3.45506" transform="rotate(36.6728 154.767 155.477)" fill="#13776C"/>
<rect x="204.127" y="155.477" width="11.0562" height="6.91011" rx="3.45506" transform="rotate(36.6728 204.127 155.477)" fill="#13776C"/>
<rect x="116.762" y="134.057" width="11.0562" height="6.91011" rx="3.45506" transform="rotate(36.6728 116.762 134.057)" fill="#13776C"/>
<rect x="118.144" y="165.842" width="11.0562" height="6.91011" rx="3.45506" transform="rotate(36.6728 118.144 165.842)" fill="#13776C"/>
<rect x="89.8125" y="151.332" width="11.0562" height="6.91011" rx="3.45506" transform="rotate(36.6728 89.8125 151.332)" fill="#13776C"/>
<rect x="72.5371" y="123" width="11.0562" height="6.91011" rx="3.45506" transform="rotate(36.6728 72.5371 123)" fill="#13776C"/>
<rect x="71.8462" y="92.5957" width="11.0562" height="6.91011" rx="3.45506" transform="rotate(36.6728 71.8462 92.5957)" fill="#13776C"/>
<rect x="35.9136" y="102.961" width="11.0562" height="6.91011" rx="3.45506" transform="rotate(36.6728 35.9136 102.961)" fill="#13776C"/>
<rect x="51.8069" y="64.9551" width="11.0562" height="6.91011" rx="3.45506" transform="rotate(36.6728 51.8069 64.9551)" fill="#13776C"/>
<rect x="4.12695" y="100.889" width="11.0562" height="6.91011" rx="3.45506" transform="rotate(36.6728 4.12695 100.889)" fill="#13776C"/>
<rect x="47.6609" y="138.203" width="11.0562" height="6.91011" rx="3.45506" transform="rotate(36.6728 47.6609 138.203)" fill="#13776C"/>
<rect x="51.116" y="159.623" width="11.0562" height="6.91011" rx="3.45506" transform="rotate(36.6728 51.116 159.623)" fill="#13776C"/>
<rect x="216.959" y="129.91" width="11.0562" height="6.91011" rx="3.45506" transform="rotate(36.6728 216.959 129.91)" fill="#13776C"/>
<rect x="245.127" y="129.91" width="11.0562" height="6.91011" rx="3.45506" transform="rotate(36.6728 245.127 129.91)" fill="#13776C"/>
<rect x="196.228" y="70.4824" width="11.0562" height="6.91011" rx="3.45506" transform="rotate(36.6728 196.228 70.4824)" fill="#13776C"/>
<rect x="212.122" y="99.5059" width="11.0562" height="6.91011" rx="3.45506" transform="rotate(36.6728 212.122 99.5059)" fill="#13776C"/>
<rect x="261.183" y="72.5547" width="11.0562" height="6.91011" rx="3.45506" transform="rotate(36.6728 261.183 72.5547)" fill="#13776C"/>
<rect x="263.947" y="94.6699" width="11.0562" height="6.91011" rx="3.45506" transform="rotate(36.6728 263.947 94.6699)" fill="#13776C"/>
</svg>
