<svg width="299" height="306" viewBox="0 0 299 306" fill="none" xmlns="http://www.w3.org/2000/svg">
<g opacity="0.5">
<rect width="11.8764" height="7.42172" rx="3.71086" transform="matrix(0.841452 -0.540331 0.539946 0.841699 169.564 87.0547)" fill="#13776C"/>
<rect width="11.8764" height="7.42172" rx="3.71086" transform="matrix(0.841452 -0.540331 0.539946 0.841699 208.107 56.6875)" fill="#13776C"/>
<rect width="11.8764" height="7.42172" rx="3.71086" transform="matrix(0.841452 -0.540331 0.539946 0.841699 135.296 116.986)" fill="#13776C"/>
<rect width="11.8764" height="7.42172" rx="3.71086" transform="matrix(0.841452 -0.540331 0.539946 0.841699 145.485 146.373)" fill="#13776C"/>
<rect width="11.8764" height="7.42172" rx="3.71086" transform="matrix(0.841452 -0.540331 0.539946 0.841699 121.875 148.424)" fill="#13776C"/>
<rect width="11.8764" height="7.42172" rx="3.71086" transform="matrix(0.841452 -0.540331 0.539946 0.841699 99.0679 110.73)" fill="#13776C"/>
<rect width="11.8764" height="7.42172" rx="3.71086" transform="matrix(0.841452 -0.540331 0.539946 0.841699 176.772 143.711)" fill="#13776C"/>
<rect width="11.8764" height="7.42172" rx="3.71086" transform="matrix(0.841452 -0.540331 0.539946 0.841699 117.408 172.92)" fill="#13776C"/>
<rect width="11.8764" height="7.42172" rx="3.71086" transform="matrix(0.841452 -0.540331 0.539946 0.841699 83.4312 183.133)" fill="#13776C"/>
<rect width="11.8764" height="7.42172" rx="3.71086" transform="matrix(0.841452 -0.540331 0.539946 0.841699 17.2173 178.941)" fill="#13776C"/>
<rect width="11.8764" height="7.42172" rx="3.71086" transform="matrix(0.841452 -0.540331 0.539946 0.841699 44.2173 197.941)" fill="#13776C"/>
<rect width="11.8764" height="7.42172" rx="3.71086" transform="matrix(0.841452 -0.540331 0.539946 0.841699 76.2173 215.941)" fill="#13776C"/>
<rect width="11.8764" height="7.42172" rx="3.71086" transform="matrix(0.841452 -0.540331 0.539946 0.841699 37.2173 233.941)" fill="#13776C"/>
<rect width="11.8764" height="7.42172" rx="3.71086" transform="matrix(0.841452 -0.540331 0.539946 0.841699 113.958 213.666)" fill="#13776C"/>
<rect width="11.8764" height="7.42172" rx="3.71086" transform="matrix(0.841452 -0.540331 0.539946 0.841699 107.316 242.061)" fill="#13776C"/>
<rect width="11.8764" height="7.42172" rx="3.71086" transform="matrix(0.841452 -0.540331 0.539946 0.841699 154.084 214.498)" fill="#13776C"/>
<rect width="11.8764" height="7.42172" rx="3.71086" transform="matrix(0.841452 -0.540331 0.539946 0.841699 188.925 206.199)" fill="#13776C"/>
<rect width="11.8764" height="7.42172" rx="3.71086" transform="matrix(0.841452 -0.540331 0.539946 0.841699 208.602 231.854)" fill="#13776C"/>
<rect width="11.8764" height="7.42172" rx="3.71086" transform="matrix(0.841452 -0.540331 0.539946 0.841699 178.633 235.641)" fill="#13776C"/>
<rect width="11.8764" height="7.42172" rx="3.71086" transform="matrix(0.841452 -0.540331 0.539946 0.841699 142.824 250.715)" fill="#13776C"/>
<rect width="11.8764" height="7.42172" rx="3.71086" transform="matrix(0.841452 -0.540331 0.539946 0.841699 183.968 267.795)" fill="#13776C"/>
<rect width="11.8764" height="7.42172" rx="3.71086" transform="matrix(0.841452 -0.540331 0.539946 0.841699 218.204 256.887)" fill="#13776C"/>
<rect width="11.8764" height="7.42172" rx="3.71086" transform="matrix(0.841452 -0.540331 0.539946 0.841699 216.057 184.684)" fill="#13776C"/>
<rect width="11.8764" height="7.42172" rx="3.71086" transform="matrix(0.841452 -0.540331 0.539946 0.841699 148.485 183.037)" fill="#13776C"/>
<rect width="11.8764" height="7.42172" rx="3.71086" transform="matrix(0.841452 -0.540331 0.539946 0.841699 183.67 178.041)" fill="#13776C"/>
<rect width="11.8764" height="7.42172" rx="3.71086" transform="matrix(0.841452 -0.540331 0.539946 0.841699 175.161 118.514)" fill="#13776C"/>
<rect width="11.8764" height="7.42172" rx="3.71086" transform="matrix(0.841452 -0.540331 0.539946 0.841699 198.429 124.102)" fill="#13776C"/>
</g>
</svg>
