<svg width="720" height="260" viewBox="0 0 720 260" fill="none" xmlns="http://www.w3.org/2000/svg">
<g clip-path="url(#clip0)">
<rect width="720" height="260" fill="white"/>
<g clip-path="url(#clip1)">
<rect width="720" height="260" fill="white"/>
<mask id="mask0" mask-type="alpha" maskUnits="userSpaceOnUse" x="0" y="-1" width="721" height="261">
<rect x="0.000106812" y="-0.000183105" width="720" height="260" fill="#C4C4C4"/>
</mask>
<g mask="url(#mask0)">
<path d="M159.412 167.822L159.649 259.17C159.662 264.288 163.822 268.426 168.94 268.413L531.301 267.473C536.419 267.46 540.557 263.301 540.544 258.183L540.209 128.955C540.195 123.837 536.036 119.699 530.918 119.712L168.556 120.652C163.438 120.665 159.3 124.825 159.314 129.943L159.412 167.822Z" fill="#C4BAA2"/>
<path d="M235.499 35.7627C232.692 36.3897 231.129 39.3949 232.226 42.0528L234.983 48.7318C235.213 49.2888 235.332 49.8853 235.334 50.4879L235.536 128.183C235.542 130.742 237.622 132.811 240.181 132.804L458.355 132.238C460.914 132.232 462.983 130.152 462.977 127.593L462.775 49.9776C462.774 49.3236 462.911 48.6766 463.177 48.0793L466.63 40.3315C467.832 37.634 466.238 34.5153 463.347 33.9101L350.989 10.386C350.342 10.2506 349.674 10.2551 349.029 10.3991L235.499 35.7627Z" fill="#999486"/>
<path d="M235.523 44.872C232.716 45.4989 231.153 48.5041 232.25 51.1621L235.007 57.841C235.237 58.398 235.356 58.9946 235.358 59.5972L235.559 137.292C235.566 139.851 237.646 141.92 240.205 141.913L458.379 141.348C460.938 141.341 463.007 139.261 463.001 136.702L462.799 59.0868C462.798 58.4328 462.934 57.7859 463.201 57.1885L466.654 49.4407C467.856 46.7432 466.262 43.6245 463.371 43.0193L351.013 19.4952C350.366 19.3598 349.698 19.3643 349.053 19.5084L235.523 44.872Z" fill="#C3BAA2"/>
<path d="M365.339 84.5274C365.447 84.1081 366.484 83.4677 366.7 82.4287C366.916 81.3715 367.001 78.9664 367.001 78.9664C367.001 78.9664 368.471 76.7581 368.779 76.2289C369.087 75.6998 369.611 73.8219 370.139 73.8205C370.667 73.8192 373.175 71.1892 373.175 71.1892C373.175 71.1892 373.816 72.5539 373.708 73.1736C373.601 73.8116 373.075 74.8514 373.075 74.8514L374.224 75.2674C374.224 75.2674 374.437 73.3721 374.436 72.7527C374.434 72.1333 373.59 69.8217 373.062 70.0235C372.535 70.2252 371.28 71.1759 371.28 71.1759C371.28 71.1759 370.965 69.0815 370.635 68.3536C370.323 67.6257 369.574 66.6803 369.481 66.0428C369.37 65.4055 369.478 64.7858 369.897 64.7847C370.316 64.7836 372.414 66.0352 372.414 66.0352L372.939 64.7768L370.837 61.8126L370.196 60.5936C370.196 60.5936 367.575 61.6571 366.851 63.4262C366.127 65.2135 366.556 69.2934 365.922 70.461C365.287 71.6104 361.217 75.7202 360.801 76.8144C360.384 77.9086 360.083 81.0612 360.083 81.0612L358.187 80.6471L358.285 76.1468L359.337 74.3587L358.695 72.6842L358.691 71.3178C358.691 71.3178 358.797 70.0605 359.526 69.9492C360.254 69.838 360.169 72.2614 359.842 72.5719C359.533 72.8825 360.482 73.2079 360.482 73.2079C360.482 73.2079 361.006 71.7308 360.896 71.3121C360.785 70.8934 360.889 68.7979 360.16 68.4901C359.43 68.1823 358.262 67.2379 357.84 66.2917C357.419 65.3454 356.579 64.6188 357.106 64.1984C357.633 63.778 358.052 63.5583 358.362 63.9765C358.673 64.3947 359.928 63.3348 359.928 63.3348L358.447 61.4439C358.447 61.4439 358.025 60.1879 357.496 59.8796C356.966 59.5712 356.966 59.4619 356.129 59.8831C355.292 60.3043 353.821 61.8749 353.821 61.8749L352.978 60.201C351.829 59.7849 351.211 60.1691 351.1 59.6229C350.989 59.0584 351.934 58.1086 352.043 57.9079C352.152 57.689 352.146 55.5938 350.471 55.8168C348.795 56.0398 348.998 56.9684 349.419 57.6049C349.839 58.2415 349.843 59.6261 349.843 59.6261C349.843 59.6261 349.114 59.4823 348.278 60.2132C347.442 60.9441 346.713 60.946 346.387 61.8942C346.08 62.8424 345.663 63.6815 345.137 64.5209C344.611 65.3604 343.99 64.6332 343.877 63.4675C343.765 62.32 344.398 60.6605 343.869 60.3339C343.34 60.0074 344.085 59.2767 343.137 59.1698C342.19 59.063 342.916 58.2048 341.881 59.6286C340.828 61.0706 340.103 62.3295 339.793 62.4214C339.484 62.5316 340.216 63.7867 340.526 63.7859C340.836 63.7851 342.422 64.2911 342.205 64.8747C341.988 65.4583 340.735 67.0283 340.227 67.8677C339.7 68.7071 340.451 70.0716 340.451 70.0716C340.451 70.0716 338.883 69.5473 338.465 70.0767C338.048 70.6062 337.212 71.7561 337.215 72.7035C337.217 73.6509 337.948 74.1773 337.948 74.1773C337.948 74.1773 338.054 73.1203 338.471 72.4998C338.889 71.8611 339.615 70.8207 340.144 71.2384C340.674 71.656 340.374 75.5739 340.577 76.3385C340.797 77.1031 342.063 80.6707 341.427 80.9821C340.79 81.2935 339.019 80.041 339.435 78.8921C340.087 77.105 337.021 75.3275 335.231 73.3463C333.44 71.3651 332.909 70.1094 333.012 68.014C333.116 65.9185 333.004 64.771 331.852 63.189C330.7 61.6252 330.282 61.8267 329.335 62.0477C328.388 62.2688 328.389 62.4692 328.281 63.1983C328.174 63.9273 326.81 64.9875 326.501 65.298C326.192 65.6085 325.666 66.5573 326.505 66.5551C327.343 66.5529 329.437 66.3471 329.437 66.3471C329.437 66.3471 329.86 67.6031 329.225 68.9712C328.591 70.3392 327.663 70.7606 327.665 71.5987C327.668 72.4367 327.14 72.8571 327.14 72.8571C327.14 72.8571 325.354 72.4427 325.045 72.9719C324.737 73.501 323.066 75.3819 323.158 75.91C323.269 76.4381 324.217 76.5449 324.217 76.5449C324.217 76.5449 324.849 74.4481 325.468 74.3372C326.105 74.2262 327.363 74.4416 327.873 74.4403C328.402 74.4389 329.441 74.8552 329.971 75.2729C330.5 75.6906 330.395 77.367 331.29 78.312C332.185 79.2571 333.027 80.512 333.027 80.512C333.027 80.512 333.031 82.4067 333.672 83.3342C334.312 84.2799 334.822 84.479 334.733 85.1169C334.625 85.7548 334.008 86.7949 334.008 86.7949L320.382 87.3586L320.394 91.7675L378.697 92.9827L378.68 86.5879L365.58 86.0936C365.543 86.1119 365.231 84.9467 365.339 84.5274ZM338.38 86.2734L335.703 86.6994L335.702 86.2804C336.12 85.9149 335.823 83.9663 335.694 83.3107C335.565 82.6552 336.875 82.1781 337.532 82.4133C338.188 82.6484 338.483 83.9594 338.611 84.3052C338.722 84.6693 338.38 86.2734 338.38 86.2734ZM347.792 69.4878L347.379 71.9302C347.087 71.9309 346.122 71.9334 346.122 71.9334L345.222 69.2576C345.222 69.2576 343.794 66.5831 344.614 66.3988C345.451 66.2145 346.397 65.793 346.451 65.3192C346.504 64.8453 346.818 66.2656 347.349 67.2298C347.879 68.194 347.792 69.4878 347.792 69.4878ZM353.755 71.695C353.519 71.9871 352.626 71.9348 352.626 71.9348C352.626 71.9348 352.25 67.3628 352.613 67.0522C352.977 66.7597 353.429 65.5926 353.92 65.2269C354.411 64.8613 355.013 64.969 355.033 65.7888C355.053 66.645 354.009 71.4028 353.755 71.695ZM364.79 83.7636C364.792 84.3648 363.845 84.4766 363.372 84.8969C362.9 85.3171 363.375 85.8442 363.376 86.2633L363.468 86.6274C363.468 86.6274 362.173 86.3392 361.826 85.8118C361.46 85.3026 361.587 84.8468 362.351 84.6627C363.116 84.4785 363.006 84.2419 363.15 83.4764C363.294 82.7108 363.145 81.5999 363.145 81.5999C363.145 81.5999 363.656 81.8172 364.786 82.1604C365.917 82.5218 364.789 83.1806 364.79 83.7636Z" fill="#999487"/>
<path d="M207.896 142.89L208.224 269.272L493.145 268.533L492.817 142.151L350.187 80.3948L207.896 142.89Z" fill="#E1D8BA"/>
<path d="M220.824 174.903L207.98 174.936L208.225 269.199L221.069 269.166L220.824 174.903Z" fill="#F3EDD8"/>
<path d="M336.861 174.602L324.017 174.636L324.262 268.899L337.106 268.866L336.861 174.602Z" fill="#F3EDD8"/>
<path d="M376.487 174.5L363.643 174.533L363.888 268.796L376.732 268.763L376.487 174.5Z" fill="#F3EDD8"/>
<path d="M492.886 174.198L480.042 174.231L480.287 268.494L493.131 268.461L492.886 174.198Z" fill="#F3EDD8"/>
<path d="M453.346 174.3L440.502 174.334L440.747 268.597L453.591 268.563L453.346 174.3Z" fill="#F3EDD8"/>
<path d="M415.378 174.489L402.534 174.523L402.779 268.786L415.623 268.752L415.378 174.489Z" fill="#F3EDD8"/>
<path d="M300.807 174.695L287.963 174.729L288.208 268.992L301.052 268.958L300.807 174.695Z" fill="#F3EDD8"/>
<path d="M261.887 174.797L249.043 174.83L249.287 269.093L262.132 269.06L261.887 174.797Z" fill="#F3EDD8"/>
<path d="M238.739 142.208L461.498 141.63L349.163 93.0592L238.739 142.208Z" fill="#F3EDD8"/>
<path d="M222.59 174.899L206.157 174.941L206.173 181.045L222.606 181.002L222.59 174.899Z" fill="#999487"/>
<path d="M263.675 174.792L247.242 174.835L247.258 180.938L263.691 180.895L263.675 174.792Z" fill="#999487"/>
<path d="M302.59 174.691L286.157 174.734L286.173 180.837L302.605 180.794L302.59 174.691Z" fill="#999487"/>
<path d="M338.663 174.598L322.23 174.64L322.246 180.743L338.679 180.701L338.663 174.598Z" fill="#999487"/>
<path d="M378.268 174.494L361.835 174.537L361.851 180.64L378.283 180.598L378.268 174.494Z" fill="#999487"/>
<path d="M417.167 174.394L400.734 174.437L400.75 180.54L417.183 180.497L417.167 174.394Z" fill="#999487"/>
<path d="M455.156 174.296L438.723 174.338L438.739 180.441L455.172 180.399L455.156 174.296Z" fill="#999487"/>
<path d="M494.688 174.193L478.256 174.236L478.272 180.339L494.704 180.296L494.688 174.193Z" fill="#474741"/>
<path d="M445.566 115.493C445.566 115.493 417.641 120.313 412.675 164.435C410.533 183.468 408.46 191.961 407.093 195.833C405.726 199.705 404.595 205.72 406.471 205.801C408.346 205.882 452.108 208.03 452.108 208.03L452.232 138.355L445.566 115.493Z" fill="#FF6048"/>
<path d="M444.569 313.506C455.786 316.478 467.642 317.856 479.097 319.289C490.53 320.722 502.079 321.491 513.57 320.529C519.564 320.026 525.461 318.987 531.412 318.093C536.34 317.351 541.253 317.194 546.012 315.478C548.619 314.538 551.123 313.358 553.596 312.087C552.692 302.595 555.03 290.581 552.546 281.409C551.015 275.754 548.762 270.445 546.733 264.995C544.699 259.53 543.328 237.398 542.199 231.646C541.634 228.781 541.112 225.899 540.467 223.051C540.137 221.594 539.903 220.207 538.604 219.455C536.763 218.388 534.068 218.309 532.031 218.046C529.314 217.694 523.098 217.566 520.365 217.535C508.941 217.41 497.46 218.2 486.054 218.809C479.614 219.152 467.955 219.552 461.526 219.987C456.287 220.343 451.053 220.785 445.955 222.149C446.198 220.809 446.441 219.469 446.679 218.123C446.795 217.458 445.857 217.171 445.741 217.841C445.471 219.385 445.191 220.924 444.911 222.457C444.542 222.565 444.167 222.668 443.798 222.787C443.198 222.981 443.458 224.004 444.057 223.81C444.266 223.739 444.48 223.685 444.695 223.615C442.438 235.672 439.757 263.917 435.602 275.469C433.458 281.428 435.505 287.724 435.376 293.817C435.334 295.885 432.709 308.554 433.905 309.242C437.227 311.162 440.837 312.519 444.569 313.506Z" fill="#232C44"/>
<path d="M563.745 207.322C563.653 202.918 563.455 198.525 563.052 194.148C562.39 186.9 560.678 179.671 560.756 172.372C560.816 166.58 561.964 160.865 562.436 155.104C562.909 149.246 562.766 139.607 562.043 133.779C562.043 133.768 562.033 133.757 562.043 133.746C562.021 133.554 561.989 133.355 561.967 133.163C561.814 131.984 561.623 128.534 561.421 127.329C560.218 120.114 549.358 112.271 543.687 109.5C529.336 102.496 514.212 99.6149 497.904 100.306C483.7 100.905 469.332 106.172 456.077 110.938C455.954 110.981 455.837 111.029 455.719 111.078C455.392 111.218 455.05 111.353 454.723 111.493C447.867 114.297 441.39 116.95 441.304 116.983C440.806 117.198 440.352 117.451 439.929 117.736C439.918 117.747 439.908 117.758 439.886 117.758C439.865 117.769 439.854 117.779 439.833 117.79C439.667 117.909 439.523 118.048 439.368 118.177C439.277 122.416 438.094 126.925 437.418 130.726C436.319 136.918 437.844 142.304 438.728 148.432C439.748 155.491 438.647 162.664 437.47 169.633C436.109 177.7 433.997 185.663 433.182 193.82C432.634 199.357 430.174 203.532 430.366 209.083C430.615 216.23 428.652 265.151 429.234 268.606C429.871 272.387 430.366 277.556 435.546 274.762C437.43 273.744 451.677 265.231 452.755 265.882C463.408 272.327 476.508 276.081 488.955 275.84C494.597 275.729 518.899 278.806 524.35 277.323C532.703 275.051 559.841 296.746 562.366 289.163C563.775 284.932 563.537 279.863 563.659 275.469C563.845 268.685 563.748 245.393 563.666 238.604C563.548 228.22 563.96 217.744 563.745 207.322Z" fill="#FF6048"/>
<path d="M539.38 237.51C536.207 235.134 519.527 212.324 507.933 196.22C507.486 195.6 507.045 194.984 506.61 194.38C506.362 194.027 506.115 193.685 505.873 193.348C505.416 192.706 504.964 192.08 504.523 191.476C504.152 190.957 503.802 190.46 503.453 189.973C503.146 189.545 502.851 189.133 502.566 188.738C502.415 188.529 502.264 188.32 502.119 188.117C501.635 187.443 501.178 186.801 500.748 186.202C498.145 182.55 496.526 180.266 496.526 180.266L498.481 159.262C498.481 159.262 501.956 162.398 507.241 167.169C507.918 167.773 508.627 168.409 509.362 169.076C510.807 170.38 512.349 171.775 513.971 173.233C514.594 173.8 515.233 174.377 515.883 174.959C516.431 175.451 516.989 175.964 517.553 176.471C518.208 177.064 518.869 177.663 519.54 178.266C536.684 193.75 558.211 213.247 559.216 214.391C577.257 234.957 552.276 247.159 539.38 237.51Z" fill="#FFB292"/>
<path d="M462.006 127.728C461.876 127.235 461.425 126.899 460.921 126.911L435.889 127.528C435.536 127.534 435.209 127.712 435.012 128.001L434.649 128.527C434.462 128.801 434.404 129.15 434.507 129.471L440.419 148.852L447.605 169.977L448.275 169.777L448.334 169.975L448.832 169.958C449.07 170.761 449.297 171.473 449.297 171.473L471.542 170.617C471.917 170.6 472.265 170.395 472.452 170.068L472.793 169.472C472.937 169.22 472.974 168.925 472.903 168.641L462.006 127.728Z" fill="#24324A"/>
<path d="M471.412 170.226C471.294 170.227 471.187 170.147 471.154 170.029L460.138 128.799L435.251 129.234C435.111 129.239 434.982 129.116 434.977 128.972C434.971 128.827 435.094 128.704 435.238 128.698L460.335 128.263C460.469 128.284 460.566 128.343 460.598 128.461L471.668 169.888C471.706 170.033 471.621 170.178 471.476 170.215C471.46 170.226 471.439 170.226 471.412 170.226Z" fill="#465A7E"/>
<path d="M459.173 137.143L458.466 137.145C457.85 137.146 457.308 136.735 457.145 136.141L455.885 131.574C455.772 131.161 455.856 130.727 456.112 130.384C456.374 130.04 456.765 129.846 457.193 129.845L457.901 129.843C458.517 129.842 459.059 130.253 459.221 130.847L460.482 135.414C460.595 135.827 460.511 136.261 460.254 136.604C459.998 136.948 459.602 137.142 459.173 137.143ZM457.205 130.381C456.943 130.381 456.707 130.5 456.547 130.709C456.392 130.919 456.34 131.181 456.41 131.433L457.67 136C457.768 136.359 458.1 136.61 458.47 136.609L459.177 136.607C459.44 136.606 459.675 136.488 459.836 136.279C459.996 136.069 460.043 135.807 459.973 135.555L458.713 130.988C458.615 130.629 458.282 130.378 457.913 130.379L457.205 130.381Z" fill="#465A7E"/>
<path d="M460.347 128.8C460.294 128.8 460.24 128.784 460.192 128.752C460.074 128.667 460.041 128.5 460.127 128.377L460.997 127.153C461.082 127.035 461.248 127.008 461.372 127.088C461.49 127.173 461.522 127.339 461.437 127.463L460.567 128.687C460.513 128.762 460.428 128.8 460.347 128.8Z" fill="#465A7E"/>
<path d="M453.139 153.099C453.134 153.082 453.123 153.061 453.112 153.045C453.053 152.911 453.56 152.337 453.646 152.186C453.944 151.66 454.109 151.156 454.086 150.54C454.005 148.022 452.404 146.392 450.605 144.864C448.876 143.39 447.951 142.251 446.39 141.666C444.433 140.937 441.654 141.946 439.263 143.527C439.627 143.076 439.984 142.62 440.38 142.196C442.416 139.999 445.144 138.55 447.718 137.086C448.628 136.57 449.843 136.095 450.596 135.343C451.318 134.628 451.791 133.432 450.943 132.604C449.61 131.305 446.828 132.818 445.506 133.309C444.077 133.838 442.642 134.383 441.315 135.147C437.715 137.214 434.048 140.653 431.806 144.147C428.802 148.843 430.721 153.307 432.105 158.158C433.787 164.058 435.538 169.937 437.338 175.799C438.332 179.044 442.67 178.352 445.202 177.435C452.338 174.844 450.007 166.486 447.629 160.641C447.64 160.609 447.645 160.577 447.656 160.545C450.144 161.395 449.885 162.677 452.448 163.302C453.547 163.573 454.633 163.104 454.925 161.946C455.079 161.334 454.895 160.762 454.556 160.227C455.858 158.268 453.958 154.972 453.139 153.099Z" fill="#FFB292"/>
<path d="M452.477 152.214C452.381 152.214 452.29 152.161 452.241 152.075C452.214 152.022 449.291 146.628 446.535 145.874C443.784 145.126 440.2 147.498 440.163 147.52C440.04 147.6 439.874 147.569 439.793 147.446C439.712 147.323 439.744 147.157 439.867 147.076C440.022 146.974 443.697 144.542 446.678 145.36C449.654 146.177 452.588 151.592 452.712 151.822C452.782 151.95 452.734 152.117 452.601 152.187C452.563 152.203 452.52 152.214 452.477 152.214Z" fill="#EC916C" fill-opacity="0.8"/>
<path d="M453.724 159.297C453.638 159.297 453.552 159.254 453.499 159.179C453.456 159.115 449.206 152.745 446.751 152.226C444.354 151.718 442.047 154.403 442.025 154.43C441.929 154.542 441.763 154.559 441.645 154.463C441.532 154.367 441.516 154.2 441.612 154.088C441.713 153.97 444.144 151.134 446.857 151.706C449.521 152.272 453.76 158.621 453.937 158.889C454.018 159.012 453.986 159.178 453.863 159.259C453.826 159.28 453.772 159.296 453.724 159.297Z" fill="#EC916C" fill-opacity="0.8"/>
<path d="M449.495 173.438C449.495 173.438 434.228 216.472 433.823 217.491C429.905 227.345 426.865 238.985 413.78 238.971C411.776 238.971 409.734 238.606 408.006 237.604C386.079 224.886 423.521 187.131 431.305 176.116C432.495 174.43 433.606 172.889 434.514 171.596C436.115 169.346 437.151 167.892 437.151 167.892L449.495 173.438Z" fill="#FFB292"/>
<path d="M504.255 36.9276C502.774 31.8839 500.03 27.8026 496.982 23.8079C496.331 22.9576 494.919 23.8561 495.575 24.7171C497.064 26.6637 498.842 28.2933 500.534 30.0304C496.243 30.1165 493.104 32.7181 492.36 37.2371C491.463 42.721 491.536 47.8701 492.252 53.3551C493.001 59.0812 493.445 64.8777 495.409 70.3488C496.057 72.1475 500.712 77.7188 500.712 77.7188C500.712 77.7188 502.548 71.043 502.49 69.0981C502.436 67.1639 502.297 65.2459 502.737 63.3426C503.018 62.1309 503.69 61.0414 503.982 59.835C504.671 56.9558 502.895 55.8352 502.785 52.8188C502.599 47.3484 505.909 42.5763 504.255 36.9276Z" fill="#723D37"/>
<path d="M509.985 103.296C507.104 102.098 498.7 68.0997 498.7 68.0997C498.7 68.0997 505.091 59.3759 505.323 53.7062C505.439 50.8178 504.013 46.3902 500.54 46.2224C499.431 46.1717 498.558 46.4847 497.868 47.0223C496.159 30.5232 502.165 42.7245 491.616 30.7547C485.79 24.1415 476.348 19.6383 467.805 21.1125C462.669 21.9939 458.047 24.6904 453.644 27.3435C449.936 29.5768 444.338 32.04 442.586 36.3526C442.345 36.3586 439.928 50.618 439.928 50.618C439.928 50.618 443.209 68.115 451.035 83.5909C459.82 100.961 468.151 102.847 472.997 103.424C474.216 106.695 474.596 110.45 474.66 110.509C475.402 113.507 473.091 114.837 474.164 117.61C476.225 122.92 484.804 123.278 489.444 122.939C497.48 122.356 509.464 117.325 510.876 108.304C511.322 108.511 510.569 103.536 509.985 103.296Z" fill="#FFB292"/>
<path d="M455.559 68.2379C455.138 66.9531 453.62 64.2297 452.15 65.6642C451.407 66.3894 451.835 68.0011 452.159 68.8201C452.525 69.7676 453.557 70.9919 454.714 70.8764C455.802 70.7664 455.814 69.2179 455.614 68.4254C455.603 68.3772 455.581 68.3129 455.559 68.2379Z" fill="#232C44"/>
<path d="M476.815 61.7907C476.309 60.5382 474.609 57.9225 473.241 59.4585C472.546 60.2372 473.086 61.8111 473.463 62.6085C473.894 63.529 475.007 64.6781 476.153 64.4822C477.229 64.2973 477.139 62.7544 476.886 61.9781C476.864 61.9245 476.842 61.8603 476.815 61.7907Z" fill="#232C44"/>
<path d="M474.91 103.622C474.309 103.623 473.961 103.549 473.913 103.539C473.768 103.507 473.677 103.362 473.714 103.218C473.745 103.073 473.89 102.981 474.035 103.013C474.083 103.024 478.683 103.966 484.663 97.9971C490.013 92.6626 492.825 86.0647 492.857 86.0004C492.915 85.8663 493.071 85.8015 493.21 85.8601C493.344 85.9187 493.409 86.074 493.356 86.2134C493.329 86.2778 490.469 92.9775 485.05 98.3819C480.422 102.981 476.635 103.617 474.91 103.622Z" fill="#EC916C" fill-opacity="0.8"/>
<path d="M498.748 62.2208C498.614 62.2212 498.502 62.125 498.48 61.9911C498.458 61.8465 498.565 61.7069 498.709 61.6905C498.747 61.685 499.738 61.5217 499.772 60.1928C499.816 58.5692 499.487 57.8788 498.473 57.4581C498.087 57.2984 497.819 57.0312 497.678 56.6618C497.414 55.9767 497.604 54.9527 498.238 53.6116C498.857 52.3133 500.213 50.3647 500.271 50.2842C500.357 50.1661 500.523 50.1335 500.646 50.2189C500.77 50.3043 500.797 50.4704 500.711 50.5938C500.695 50.6153 499.318 52.5853 498.721 53.8407C498.162 55.0263 497.971 55.9377 498.176 56.473C498.268 56.7032 498.429 56.8635 498.676 56.97C500.092 57.5557 500.352 58.6428 500.308 60.2128C500.269 61.6489 499.289 62.1551 498.781 62.2261C498.775 62.2208 498.759 62.2208 498.748 62.2208Z" fill="#EC916C" fill-opacity="0.8"/>
<path d="M467.195 81.5865C466.547 81.5881 465.963 81.4771 465.555 81.1728C464.009 80.0194 462.347 69.4949 462.167 68.3004C462.145 68.1558 462.247 68.0163 462.391 67.9944C462.536 67.9726 462.675 68.0741 462.697 68.2187C463.406 72.8302 464.839 79.969 465.88 80.7432C467.013 81.5869 470.343 80.512 471.531 80.0267C471.665 79.9728 471.826 80.0367 471.88 80.1705C471.934 80.3096 471.87 80.4651 471.731 80.5191C471.592 80.5784 469.114 81.5815 467.195 81.5865Z" fill="#EC916C" fill-opacity="0.8"/>
<path d="M479.58 53.7535C478.877 53.4263 478.103 53.1864 477.722 53.0762C475.371 52.3827 472.749 51.7552 470.33 52.4187C469.093 52.7603 467.127 54.0704 468.32 55.5003C468.822 56.33 469.973 56.3422 471.104 56.1622C473.575 55.9637 475.951 55.8137 478.419 56.1884C480.541 56.5112 481.969 54.8758 479.58 53.7535Z" fill="#723D37"/>
<path d="M444.799 64.8193C445.172 64.1378 445.656 63.4893 445.895 63.1743C447.384 61.2228 449.128 59.1701 451.472 58.2783C452.67 57.8185 455.033 57.7169 454.912 59.5768C454.997 60.5431 454.079 61.2361 453.055 61.754C450.943 63.051 448.939 64.3318 447.167 66.0956C445.652 67.6178 443.536 67.1385 444.799 64.8193Z" fill="#723D37"/>
<path d="M500.986 40.4439C501.124 40.0577 501.23 39.6663 501.288 39.2696C501.683 36.5627 504.472 35.6231 502.923 33.3123C501.783 31.6113 499.255 25.9274 498.163 24.178C496.086 20.8345 494.808 15.7474 490.647 14.6919C487.055 13.7796 481.618 12.3148 479.111 14.7218C475.689 9.27595 471.833 9.96646 465.201 8.69766C456.168 6.96892 443.731 10.9985 439.627 19.5985C438.359 22.2595 436.655 22.1728 434.139 23.0313C431.028 24.0949 429.752 25.6468 427.884 28.438C425.375 32.1524 426.009 37.1554 429.444 39.4024C426.363 43.4505 424.749 46.9805 426.905 51.9367C428.006 53.043 428.562 54.4347 428.572 56.1118C428.306 56.8519 427.997 57.5761 427.65 58.2843C427.31 59.2175 426.9 60.2099 427.02 61.233C427.201 62.7811 427.893 63.0686 428.956 64.0089C430.106 65.0508 430.928 66.04 431.767 67.3238C432.375 68.2653 432.758 68.9876 433.686 69.7086C434.975 70.7019 435.876 71.1872 438.449 71.2127C442.591 71.2609 444.003 70.2445 446.044 66.049C446.401 65.314 446.646 64.5793 446.831 63.8608C446.9 63.598 446.964 63.3514 447.022 63.0994C447.43 61.3408 447.694 59.6737 448.864 58.2186C449.301 57.6762 449.879 57.1657 450.639 56.6869C452.944 55.2449 457.281 56.0427 461.645 50.5659C465.095 46.2275 463 42.1284 466.802 39.1287C470.032 36.5858 477.838 36.3137 477.838 36.3137C478.248 37.5826 478.413 39.0342 479.193 40.1574C480.075 41.4197 481.578 42.4285 482.733 43.4329C484.054 44.5869 485.38 45.7355 486.616 46.9808C487.679 48.0497 489.452 49.5775 489.959 51.0283C490.785 53.3785 491.59 55.7394 492.415 58.0949C492.475 58.2769 492.545 58.4589 492.604 58.641C492.675 58.8444 492.825 59.0101 493.008 59.1168C493.335 59.3089 493.78 59.297 494.004 58.8892C494.329 58.3418 494.585 57.7838 494.782 57.2261C496.292 53.0159 497.842 47.091 497.863 47.0159C497.948 46.6995 498.261 45.5681 498.544 44.9833C499.268 43.524 500.411 42.0207 500.986 40.4439Z" fill="#723D37"/>
<path d="M504.888 167.484C501.603 161.004 499.829 156.77 496.057 150.564C495.89 150.211 495.739 149.852 495.561 149.499C493.967 146.262 492.209 141.91 488.962 139.99C484.975 137.632 480.697 136.689 476.204 135.854C474.516 135.537 471.798 135.04 470.068 135.318C468.825 135.514 467.719 136.835 468.543 138.365C469.475 140.088 478.634 140.954 480.823 142.127C481.714 142.602 482.648 143.339 483.545 144.178C481.037 143.922 478.004 143.865 478.082 147.144C478.112 148.43 478.838 149.505 479.687 150.419C478.182 150.653 477.084 152.826 477.308 154.471C477.527 156.067 478.489 157.383 479.526 158.569C479.112 158.099 477.882 160.776 477.839 161.028C477.57 162.464 477.783 164.189 478.001 165.63C478.361 168.04 479.423 170.54 481.591 171.831C483.303 172.85 485.064 172.106 485.064 172.106C485.064 172.106 489.885 177.811 491.223 179.147C493.023 180.942 497.253 182.174 499.79 182.854C502.154 183.485 503.73 183.594 505.774 182.506C507.62 181.526 509.56 177.738 509.56 177.738C509.56 177.738 506.1 169.871 504.888 167.484Z" fill="#FFB292"/>
<path d="M489.405 149.378C489.266 149.378 489.153 149.271 489.137 149.137C489.137 149.132 489.055 148.468 488.29 147.055C487.531 145.664 484.152 144.515 484.12 144.505C483.981 144.457 483.905 144.307 483.953 144.167C484.001 144.028 484.151 143.953 484.29 144C484.435 144.048 487.905 145.229 488.761 146.802C489.595 148.332 489.672 149.061 489.672 149.093C489.683 149.237 489.577 149.372 489.432 149.383C489.421 149.378 489.411 149.378 489.405 149.378Z" fill="#EC916C" fill-opacity="0.8"/>
<path d="M488.419 155.303C488.333 155.303 488.247 155.261 488.193 155.18C488.188 155.175 487.747 154.496 486.607 153.095C485.521 151.753 480.648 150.715 480.594 150.705C480.45 150.673 480.358 150.534 480.385 150.389C480.416 150.244 480.556 150.153 480.7 150.179C480.909 150.221 485.809 151.264 487.019 152.756C488.175 154.184 488.616 154.858 488.632 154.89C488.713 155.013 488.675 155.179 488.552 155.26C488.52 155.287 488.472 155.303 488.419 155.303Z" fill="#EC916C" fill-opacity="0.8"/>
<path d="M487.193 164.509C487.043 164.509 486.925 164.392 486.925 164.242C486.925 164.226 486.899 162.747 485.787 161.346C484.674 159.945 480.669 159.227 480.632 159.221C480.487 159.195 480.39 159.056 480.417 158.911C480.443 158.766 480.582 158.67 480.727 158.696C480.898 158.728 484.967 159.457 486.209 161.018C487.445 162.569 487.46 164.176 487.46 164.246C487.461 164.39 487.338 164.509 487.193 164.509Z" fill="#EC916C" fill-opacity="0.8"/>
<path d="M484.586 171.453C484.479 171.453 484.382 171.389 484.339 171.287L482.075 165.919C482.015 165.785 482.079 165.624 482.218 165.57C482.352 165.511 482.513 165.575 482.567 165.714L484.831 171.083C484.891 171.216 484.827 171.377 484.688 171.431C484.656 171.447 484.618 171.453 484.586 171.453Z" fill="#EC916C" fill-opacity="0.8"/>
<path d="M538.307 204.387L543.878 183.208L572.283 192.018L565.537 229.243L548.092 217.195L538.307 204.387Z" fill="#FFB292"/>
<path d="M577.316 201.992C575.441 201.96 538.267 186.302 538.267 186.302L550.873 127.763L547.745 119.814L545.41 113.888L543.689 109.509C543.689 109.509 545.748 109.992 548.79 111.602C550.196 112.348 551.817 113.336 553.545 114.628C561.717 120.753 572.21 133.725 573.597 160.33C574.589 179.457 576.15 188.058 577.285 192.01C578.426 195.95 579.192 202.025 577.316 201.992Z" fill="#FF6048"/>
<path d="M553.504 206.497C553.451 206.497 553.397 206.482 553.349 206.449L541.512 197.955C541.394 197.87 541.367 197.704 541.452 197.58C541.537 197.462 541.703 197.43 541.827 197.52L553.664 206.015C553.782 206.1 553.809 206.266 553.724 206.39C553.67 206.459 553.59 206.497 553.504 206.497Z" fill="#EC916C" fill-opacity="0.8"/>
<path d="M476.046 88.7095C478.379 89.0366 481.053 89.6803 479.929 86.2828C479.366 84.5613 476.525 83.9985 474.993 83.8619C473.231 83.7093 470.528 84.3788 469.818 86.2753C469.15 88.0565 471.564 89.2755 472.955 89.5715C473.047 89.5915 475.918 88.6951 476.046 88.7095Z" fill="#F2835E"/>
<path d="M538.137 32.1027C539.275 31.4177 540.486 30.8 541.771 30.2494C543.082 29.7031 544.46 29.2647 545.904 28.9343C547.353 28.5767 548.876 28.3699 550.472 28.314C552.1 28.2352 553.825 28.3387 555.646 28.6245C558.202 29.0254 560.446 29.7256 562.378 30.7252C564.337 31.729 565.937 32.9828 567.177 34.4865C568.422 35.9631 569.284 37.6582 569.764 39.5718C570.275 41.4626 570.36 43.4953 570.019 45.6701C569.69 47.7634 569.123 49.5128 568.318 50.9184C567.512 52.324 566.573 53.5137 565.502 54.4875C564.457 55.4656 563.34 56.2793 562.152 56.9285C560.995 57.5548 559.886 58.1467 558.823 58.7042C557.788 59.266 556.864 59.8312 556.05 60.3999C555.264 60.9729 554.723 61.668 554.428 62.4851L552.391 68.0148L543.746 66.6584L543.879 59.9525C543.877 59.7851 543.875 59.6177 543.874 59.4504C543.899 59.2873 543.925 59.1242 543.951 58.961C544.138 57.7649 544.588 56.7631 545.3 55.9555C546.011 55.148 546.86 54.4455 547.845 53.848C548.834 53.2233 549.885 52.6501 550.998 52.1283C552.114 51.5793 553.169 50.9788 554.163 50.327C555.161 49.6479 556.022 48.8638 556.747 47.9747C557.475 47.0585 557.946 45.9207 558.16 44.5615C558.415 42.9304 558.074 41.5538 557.136 40.4317C556.23 39.2867 554.838 38.567 552.963 38.2727C551.522 38.0466 550.289 38.0063 549.263 38.1518C548.265 38.3015 547.382 38.5113 546.616 38.781C545.881 39.0277 545.231 39.2601 544.668 39.4781C544.104 39.6961 543.564 39.7646 543.048 39.6835C541.879 39.5001 541.088 38.8607 540.675 37.7653L538.137 32.1027ZM538.174 80.8673C538.327 79.8886 538.647 79.0056 539.133 78.2183C539.645 77.4353 540.263 76.7802 540.987 76.2531C541.737 75.7302 542.575 75.3603 543.501 75.1434C544.43 74.8993 545.412 74.8583 546.445 75.0204C547.451 75.1782 548.359 75.5157 549.169 76.0327C549.983 76.5226 550.668 77.1314 551.222 77.859C551.776 78.5867 552.164 79.3996 552.385 80.2977C552.634 81.2002 552.681 82.1408 552.527 83.1194C552.374 84.0981 552.039 84.9925 551.521 85.8027C551.036 86.59 550.418 87.2451 549.667 87.768C548.917 88.2908 548.079 88.6607 547.153 88.8777C546.228 89.0946 545.262 89.1241 544.257 88.9663C543.223 88.8042 542.3 88.4782 541.485 87.9883C540.671 87.4984 539.986 86.8897 539.432 86.162C538.905 85.4387 538.517 84.6258 538.269 83.7233C538.052 82.7979 538.02 81.8459 538.174 80.8673Z" fill="#D7DFED"/>
</g>
</g>
<path d="M720 0L720 260L-2.56701e-05 260L-1.43051e-05 -3.14599e-05L720 0Z" fill="url(#paint0_linear)"/>
</g>
<defs>
<linearGradient id="paint0_linear" x1="-7.1156e-06" y1="161.457" x2="137.213" y2="161.457" gradientUnits="userSpaceOnUse">
<stop stop-color="#E2E2E2" stop-opacity="0.4"/>
<stop offset="1" stop-color="white" stop-opacity="0"/>
</linearGradient>
<clipPath id="clip0">
<rect width="720" height="260" fill="white"/>
</clipPath>
<clipPath id="clip1">
<rect width="720" height="260" fill="white"/>
</clipPath>
</defs>
</svg>
