<svg width="189" height="42" viewBox="0 0 189 42" fill="none" xmlns="http://www.w3.org/2000/svg">
<g clip-path="url(#clip0_291_9671)">
<path fill-rule="evenodd" clip-rule="evenodd" d="M16.3405 7.9176C16.1902 11.5217 16.0205 14.8027 15.8328 17.7627C15.644 20.7216 15.3907 23.3882 15.073 25.7578C14.753 28.1286 14.3301 30.2253 13.8043 32.0456C13.2785 33.8671 12.6023 35.4408 11.7757 36.7689C11.2499 37.6425 10.6574 38.3631 10.0004 38.9318C9.34343 39.4994 8.65706 39.9551 7.94468 40.2977C7.23005 40.6391 6.52559 40.8755 5.8313 41.0091C5.13589 41.1416 4.48797 41.2078 3.88754 41.2078C3.02364 41.2078 2.29996 41.1416 1.71762 41.0091C1.13528 40.8755 0.564247 40.6768 0 40.4107L0.844674 33.6969C1.06969 33.7735 1.29471 33.8294 1.52087 33.8671C1.74589 33.9048 1.97204 33.9242 2.19706 33.9242C2.79749 33.9242 3.39 33.7735 3.97121 33.4674C4.55355 33.1659 5.05108 32.6532 5.46607 31.9314C6.02805 31.0989 6.51654 29.8758 6.9304 28.2622C7.34312 26.6497 7.70949 24.5918 8.02836 22.0874C8.34723 19.5831 8.60165 16.5967 8.78936 13.1251C8.97593 9.65343 9.1071 5.60506 9.18399 0.976562H32.4549V40.8093H24.7353V7.9176H16.3405Z" fill="black"/>
<path fill-rule="evenodd" clip-rule="evenodd" d="M55.5894 23.7976H55.4209L52.9977 27.951L42.9679 40.8121H38.3477V12.3594H45.6727V25.9023L45.3346 29.7725H45.5596L47.8709 25.7321L58.0126 12.3594H62.6329V40.8121H55.309V27.8368L55.5894 23.7976Z" fill="black"/>
<path fill-rule="evenodd" clip-rule="evenodd" d="M82.5168 18.9041V40.8121H74.9668V18.9041H66.9102V12.3594H90.3496V18.9041H82.5168Z" fill="black"/>
<path fill-rule="evenodd" clip-rule="evenodd" d="M106.654 7.12117C105.903 7.12117 105.189 7.14972 104.514 7.20682C103.838 7.26278 103.293 7.33015 102.88 7.40667V20.3237C103.029 20.3614 103.254 20.4003 103.556 20.4368C103.856 20.4756 104.177 20.5042 104.514 20.5225C104.851 20.5419 105.18 20.551 105.5 20.551H106.203C107.219 20.551 108.224 20.4574 109.218 20.2666C110.214 20.0782 111.106 19.7265 111.895 19.2149C112.685 18.7021 113.312 17.9907 113.783 17.0793C114.251 16.1692 114.487 14.9747 114.487 13.4958C114.487 12.243 114.262 11.2095 113.811 10.393C113.361 9.57874 112.767 8.92323 112.036 8.43104C111.304 7.93769 110.466 7.5951 109.529 7.40667C108.59 7.21595 107.63 7.12117 106.654 7.12117ZM100.373 0.663198C102.268 0.4919 104.156 0.40625 106.035 0.40625C107.987 0.40625 109.952 0.568413 111.922 0.890455C113.895 1.2125 115.671 1.85772 117.247 2.82499C118.826 3.79226 120.111 5.13867 121.106 6.86422C122.1 8.59206 122.599 10.8395 122.599 13.6077C122.599 16.1121 122.169 18.2282 121.303 19.9537C120.439 21.6804 119.295 23.0919 117.867 24.1928C116.439 25.2937 114.815 26.0908 112.994 26.583C111.172 27.0775 109.283 27.323 107.333 27.323H106.428C106.014 27.323 105.585 27.3127 105.132 27.2945C104.682 27.2751 104.24 27.2477 103.808 27.21C103.376 27.1723 103.065 27.1335 102.879 27.0958V40.81H95.1602V1.37352C96.7364 1.07089 98.4755 0.833355 100.373 0.663198Z" fill="#FF4C00"/>
<path fill-rule="evenodd" clip-rule="evenodd" d="M137.291 17.3638C135.002 17.4312 133.932 18.0136 132.975 19.1488C132.025 20.2782 131.477 21.8199 131.293 23.7544L141.813 23.8538C141.962 21.8062 141.78 20.2245 141.016 19.1248C140.25 18.0239 138.935 17.3147 137.291 17.3638ZM143.136 40.6696C141.204 41.2966 139.146 41.6095 136.967 41.6095C132.421 41.6095 129.098 40.2722 126.994 37.5965C124.89 34.922 123.84 31.2516 123.84 26.5854C123.84 21.5789 125.023 17.8218 127.388 15.3185C129.755 12.8141 133.079 11.5625 137.361 11.5625C138.788 11.5625 140.179 11.7521 141.532 12.1312C142.884 12.5104 144.085 13.1373 145.138 14.0086C146.19 14.8823 147.035 16.0585 147.673 17.5374C148.312 19.0163 148.632 20.8583 148.632 23.0589C148.632 23.8538 148.584 24.708 148.49 25.6182C148.396 26.5283 148.256 27.4762 148.069 28.464H131.086C131.199 30.8542 131.941 32.6551 133.045 33.8691C134.149 35.0841 135.938 35.6894 138.407 35.6894C139.941 35.6894 141.295 35.3879 142.535 34.9791C144.079 34.4697 145.533 33.7754 145.533 33.7754L147.729 38.3651C146.602 39.2752 145.071 40.0438 143.136 40.6696Z" fill="#FF4C00"/>
<path fill-rule="evenodd" clip-rule="evenodd" d="M172.439 17.8505C172.439 17.8505 170.197 17.3902 168.43 17.3902C163.402 17.3902 160.137 20.2978 160.137 26.7146C160.137 32.7341 162.627 35.7078 167.878 35.7078C169.59 35.7078 172.89 35.2453 172.89 35.2453L173.9 40.3877C172.52 40.8319 169.811 41.5034 166.551 41.5034C156.329 41.5034 152.57 33.9697 152.57 26.3241C152.57 18.6236 156.99 11.7031 167.159 11.7031C169.037 11.7031 171.356 11.9258 173.513 12.4842L172.439 17.8505Z" fill="#FF4C00"/>
<path fill-rule="evenodd" clip-rule="evenodd" d="M184.017 20.4674C181.719 20.4674 179.859 18.5888 179.859 16.2694C179.859 13.95 181.719 12.0703 184.017 12.0703C186.311 12.0703 188.174 13.95 188.174 16.2694C188.174 18.5888 186.311 20.4674 184.017 20.4674Z" fill="#FF4C00"/>
<path fill-rule="evenodd" clip-rule="evenodd" d="M188.174 37.0362C188.174 39.3544 186.311 41.2342 184.017 41.2342C181.719 41.2342 179.859 39.3544 179.859 37.0362C179.859 34.7157 181.719 32.8359 184.017 32.8359C186.311 32.8359 188.174 34.7168 188.174 37.0362Z" fill="#FF4C00"/>
</g>
<defs>
<clipPath id="clip0_291_9671">
<rect width="189" height="42" fill="white"/>
</clipPath>
</defs>
</svg>
