<svg width="200" height="45" viewBox="0 0 200 45" fill="none" xmlns="http://www.w3.org/2000/svg">
<g clip-path="url(#clip0_802_3531)">
<path fill-rule="evenodd" clip-rule="evenodd" d="M17.2916 8.4837C17.1324 12.3453 16.9529 15.8606 16.7543 19.032C16.5545 22.2023 16.2865 25.0593 15.9502 27.5982C15.6116 30.1383 15.1641 32.3848 14.6077 34.3352C14.0513 36.2867 13.3357 37.9728 12.461 39.3958C11.9046 40.3318 11.2776 41.1039 10.5824 41.7132C9.88723 42.3214 9.16091 42.8096 8.40707 43.1766C7.65084 43.5425 6.90538 43.7958 6.17069 43.9389C5.4348 44.0808 4.74917 44.1518 4.11379 44.1518C3.19962 44.1518 2.43382 44.0808 1.81758 43.9389C1.20135 43.7958 0.597086 43.5828 0 43.2978L0.893835 36.1044C1.13195 36.1864 1.37007 36.2464 1.60938 36.2867C1.8475 36.3271 2.08681 36.3479 2.32493 36.3479C2.9603 36.3479 3.58731 36.1864 4.20234 35.8585C4.81857 35.5355 5.34506 34.9861 5.7842 34.2128C6.37889 33.3208 6.89581 32.0104 7.33375 30.2815C7.7705 28.5538 8.15819 26.349 8.49562 23.6657C8.83305 20.9824 9.10228 17.7828 9.30091 14.0631C9.49834 10.3435 9.63714 6.00598 9.71851 1.04688H34.3438V43.7248H26.1749V8.4837H17.2916Z" fill="black"/>
<path fill-rule="evenodd" clip-rule="evenodd" d="M58.8234 25.4935H58.6451L56.0808 29.9436L45.4673 43.7234H40.5781V13.2383H48.3295V27.7485L47.9717 31.8952H48.2098L50.6556 27.5662L61.3876 13.2383H66.2768V43.7234H58.5266V29.8212L58.8234 25.4935Z" fill="black"/>
<path fill-rule="evenodd" clip-rule="evenodd" d="M87.3197 20.2505V43.7234H79.3302V20.2505H70.8047V13.2383H95.6083V20.2505H87.3197Z" fill="black"/>
<path fill-rule="evenodd" clip-rule="evenodd" d="M112.862 7.62815C112.068 7.62815 111.312 7.65874 110.597 7.71992C109.882 7.77987 109.305 7.85206 108.868 7.93404V21.7738C109.026 21.8142 109.264 21.8558 109.584 21.8949C109.901 21.9365 110.241 21.9671 110.597 21.9867C110.954 22.0075 111.302 22.0173 111.641 22.0173H112.385C113.459 22.0173 114.523 21.9169 115.575 21.7126C116.629 21.5107 117.573 21.1338 118.408 20.5857C119.244 20.0363 119.908 19.274 120.405 18.2976C120.901 17.3224 121.151 16.0426 121.151 14.4581C121.151 13.1158 120.913 12.0085 120.435 11.1337C119.959 10.2613 119.331 9.55893 118.557 9.03158C117.783 8.503 116.896 8.13593 115.904 7.93404C114.911 7.72971 113.895 7.62815 112.862 7.62815ZM106.215 0.708896C108.221 0.525361 110.219 0.433594 112.207 0.433594C114.273 0.433594 116.352 0.60734 118.437 0.952385C120.524 1.29743 122.404 1.98874 124.072 3.0251C125.742 4.06146 127.103 5.50404 128.156 7.35285C129.207 9.2041 129.735 11.6121 129.735 14.578C129.735 17.2613 129.28 19.5285 128.364 21.3773C127.45 23.2274 126.239 24.7397 124.727 25.9192C123.216 27.0987 121.498 27.9528 119.571 28.4801C117.643 29.0099 115.644 29.273 113.58 29.273H112.623C112.185 29.273 111.73 29.262 111.252 29.2424C110.776 29.2216 110.308 29.1922 109.851 29.1519C109.393 29.1115 109.064 29.0699 108.867 29.0295V43.7233H100.699V1.46995C102.367 1.14571 104.208 0.891207 106.215 0.708896Z" fill="#FF4C00"/>
<path fill-rule="evenodd" clip-rule="evenodd" d="M145.281 18.5985C142.858 18.6707 141.726 19.2947 140.714 20.5109C139.709 21.7211 139.128 23.3729 138.933 25.4456L150.066 25.552C150.224 23.3582 150.032 21.6635 149.223 20.4853C148.413 19.3057 147.021 18.5459 145.281 18.5985ZM151.466 43.569C149.421 44.2407 147.244 44.576 144.938 44.576C140.128 44.576 136.611 43.1432 134.384 40.2764C132.158 37.4108 131.047 33.4783 131.047 28.4788C131.047 23.1147 132.298 19.0892 134.802 16.4071C137.306 13.7238 140.824 12.3828 145.355 12.3828C146.865 12.3828 148.337 12.5859 149.768 12.9921C151.199 13.3984 152.47 14.0701 153.584 15.0037C154.698 15.9397 155.592 17.2 156.267 18.7845C156.943 20.369 157.282 22.3426 157.282 24.7004C157.282 25.552 157.231 26.4673 157.132 27.4424C157.033 28.4176 156.884 29.4332 156.686 30.4916H138.714C138.834 33.0525 139.619 34.982 140.788 36.2827C141.956 37.5846 143.849 38.233 146.462 38.233C148.085 38.233 149.518 37.91 150.83 37.472C152.464 36.9263 154.003 36.1824 154.003 36.1824L156.327 41.0999C155.134 42.075 153.514 42.8985 151.466 43.569Z" fill="#FF4C00"/>
<path fill-rule="evenodd" clip-rule="evenodd" d="M182.474 19.1294C182.474 19.1294 180.101 18.6363 178.232 18.6363C172.911 18.6363 169.457 21.7515 169.457 28.6267C169.457 35.0761 172.091 38.2623 177.648 38.2623C179.46 38.2623 182.952 37.7667 182.952 37.7667L184.02 43.2764C182.56 43.7524 179.693 44.4719 176.244 44.4719C165.427 44.4719 161.449 36.4 161.449 28.2083C161.449 19.9578 166.127 12.543 176.887 12.543C178.875 12.543 181.328 12.7816 183.611 13.3799L182.474 19.1294Z" fill="#FF4C00"/>
<path fill-rule="evenodd" clip-rule="evenodd" d="M194.728 21.9305C192.296 21.9305 190.328 19.9177 190.328 17.4326C190.328 14.9476 192.296 12.9336 194.728 12.9336C197.156 12.9336 199.126 14.9476 199.126 17.4326C199.126 19.9177 197.156 21.9305 194.728 21.9305Z" fill="#FF4C00"/>
<path fill-rule="evenodd" clip-rule="evenodd" d="M199.126 39.6761C199.126 42.1599 197.156 44.1739 194.728 44.1739C192.296 44.1739 190.328 42.1599 190.328 39.6761C190.328 37.1898 192.296 35.1758 194.728 35.1758C197.156 35.1758 199.126 37.191 199.126 39.6761Z" fill="#FF4C00"/>
</g>
<defs>
<clipPath id="clip0_802_3531">
<rect width="200" height="45" fill="white"/>
</clipPath>
</defs>
</svg>
