<svg width="404" height="227" viewBox="0 0 404 227" fill="none" xmlns="http://www.w3.org/2000/svg">
<path d="M271.99 104.889C272.072 104.983 272.181 105.051 272.302 105.084C272.426 105.116 272.555 105.128 272.683 105.118L273.491 105.043L273.735 105.52L269.037 107.893L268.802 107.41L269.979 106.393L264.638 100.834L264.149 100.324L265.319 107.324L265.477 109.672L264.46 110.192L258.499 103.959L257.937 103.365L259.245 111.656L260.77 111.448L261.014 111.926L257.599 113.65L257.363 113.167L257.902 112.46C257.977 112.357 258.036 112.243 258.079 112.123C258.126 112 258.14 111.867 258.121 111.736L256.798 102.754L256.631 100.412L257.834 99.8075L263.112 105.363L263.953 106.261L262.893 99.6368L262.735 97.289L264.085 96.6655L271.99 104.889Z" fill="#13776C"/>
<path d="M116.77 87.7499L117.51 86.9999C117.582 86.9214 117.631 86.8244 117.65 86.7199C117.665 86.6676 117.668 86.6129 117.659 86.5595C117.65 86.506 117.63 86.455 117.6 86.4099L113.48 79.0599C113.43 78.9597 113.345 78.8815 113.24 78.8399C113.135 78.8152 113.026 78.8152 112.92 78.8399L111.92 79.0899L111.69 78.6699L119.33 74.3799L120.72 76.8499L120.23 77.1199L118.83 75.9999C118.773 75.9455 118.705 75.9045 118.63 75.8799C118.56 75.852 118.481 75.852 118.41 75.8799L115.26 77.6499L117.18 81.0699L119.18 79.9499C119.258 79.9142 119.319 79.8497 119.35 79.7699C119.371 79.7014 119.371 79.6284 119.35 79.5599L119.18 78.1699L119.62 77.9199L121.57 81.3999L121.13 81.6399L120.04 80.7799C119.981 80.7319 119.913 80.6946 119.84 80.6699C119.805 80.6522 119.765 80.6431 119.725 80.6431C119.686 80.6431 119.646 80.6522 119.61 80.6699L117.61 81.7899L119.75 85.6099L123.5 83.5099C123.568 83.4721 123.621 83.412 123.65 83.3399C123.666 83.264 123.666 83.1858 123.65 83.1099L123.24 81.1099L123.73 80.8399L125.23 83.5099L117 88.1699L116.77 87.7499Z" fill="#13776C"/>
<path d="M140.401 98.39L142.401 98.9C142.574 98.9701 142.768 98.9701 142.941 98.9C143.11 98.8308 143.248 98.703 143.331 98.54L150.471 85.39L146.991 83.46C146.869 83.413 146.733 83.413 146.611 83.46C146.49 83.506 146.381 83.5776 146.291 83.67L143.901 85.75L143.111 85.32L145.461 81L160.311 89.07L157.961 93.4L157.171 92.97L157.621 89.83C157.651 89.7051 157.651 89.5749 157.621 89.45C157.604 89.3831 157.572 89.3211 157.527 89.269C157.482 89.2169 157.425 89.1761 157.361 89.15L153.841 87.24L146.701 100.38C146.651 100.462 146.619 100.552 146.605 100.647C146.591 100.741 146.597 100.838 146.621 100.93C146.668 101.105 146.761 101.264 146.891 101.39L148.391 102.77L148.001 103.48L140.001 99.15L140.401 98.39Z" fill="#13776C"/>
<path d="M292.43 75.42L294.43 75.93C294.605 75.991 294.795 75.991 294.97 75.93C295.141 75.8545 295.281 75.7243 295.37 75.56L302.51 62.42L299.05 60.54C298.991 60.4996 298.923 60.4724 298.853 60.4603C298.782 60.4483 298.709 60.4516 298.64 60.47C298.518 60.5146 298.406 60.5825 298.31 60.67L295.92 62.76L295.09 62.33L297.44 58L312.3 66.08L309.96 70.33L309.17 69.9L309.62 66.76C309.64 66.6341 309.64 66.5059 309.62 66.38C309.599 66.3162 309.566 66.2574 309.521 66.2074C309.476 66.1575 309.421 66.1175 309.36 66.09L305.84 64.17L298.69 77.33C298.643 77.4125 298.612 77.5036 298.6 77.598C298.588 77.6924 298.595 77.7883 298.62 77.88C298.659 78.0557 298.75 78.2158 298.88 78.34L300.38 79.72L300 80.43L292 76.11L292.43 75.42Z" fill="#13776C"/>
<path d="M327.5 197.15L327.24 198.15C327.205 198.241 327.205 198.34 327.24 198.43C327.282 198.515 327.348 198.585 327.43 198.63L334.19 202.3L335.19 200.52C335.204 200.487 335.211 200.452 335.211 200.415C335.211 200.379 335.204 200.344 335.19 200.31C335.164 200.247 335.127 200.19 335.08 200.14L334 198.93L334.22 198.53L336.45 199.74L332.3 207.37L330.07 206.17L330.29 205.76L331.91 205.99H332.1C332.169 205.97 332.226 205.923 332.26 205.86L333.26 204.05L326.5 200.37C326.456 200.351 326.408 200.34 326.36 200.34C326.312 200.34 326.264 200.351 326.22 200.37C326.131 200.387 326.05 200.433 325.99 200.5L325.28 201.27L324.91 201.07L327.13 196.98L327.5 197.15Z" fill="#13776C"/>
<path d="M285.34 134.69L285.92 136.29C285.979 136.461 286.087 136.611 286.23 136.72C286.375 136.816 286.547 136.861 286.72 136.85L300.41 135.97C300.595 135.967 300.771 135.891 300.9 135.76C301.023 135.642 301.107 135.488 301.14 135.32L301.5 133.66L302.29 133.61L302.8 141.74L302.02 141.79L301.45 140.19C301.395 140.026 301.29 139.883 301.15 139.78C301.006 139.667 300.823 139.613 300.64 139.63L287 140.5C286.822 140.508 286.651 140.579 286.52 140.7C286.4 140.833 286.317 140.995 286.28 141.17L285.91 142.82L285.13 142.87L284.61 134.74L285.34 134.69Z" fill="#13776C"/>
<path d="M147.001 29.4405C146.247 28.5319 145.683 27.4812 145.341 26.3505C145.056 25.3395 144.991 24.2788 145.151 23.2405C145.343 22.1895 145.748 21.1889 146.341 20.3005C146.992 19.3072 147.799 18.4258 148.731 17.6905C149.631 16.9632 150.645 16.3888 151.731 15.9905C152.737 15.6276 153.804 15.4646 154.871 15.5105C155.935 15.5633 156.975 15.8429 157.921 16.3305C158.958 16.8782 159.865 17.6421 160.581 18.5705C161.377 19.5134 161.963 20.6143 162.301 21.8005C162.571 22.826 162.609 23.8987 162.411 24.9405C162.205 25.9735 161.79 26.9536 161.191 27.8205C160.557 28.7608 159.781 29.5974 158.891 30.3005C158.345 30.7452 157.756 31.1339 157.131 31.4605C156.496 31.791 155.825 32.0492 155.131 32.2305C154.454 32.4204 153.755 32.5213 153.051 32.5305C152.337 32.5388 151.625 32.4376 150.941 32.2305C150.212 32.0019 149.521 31.6648 148.891 31.2305C148.176 30.7308 147.539 30.1276 147.001 29.4405ZM148.131 28.7805C148.537 29.3032 149.091 29.6904 149.721 29.8905C150.371 30.0837 151.057 30.1146 151.721 29.9805C152.5 29.8362 153.252 29.5731 153.951 29.2005C154.771 28.7613 155.548 28.2457 156.271 27.6605C157.096 27.0084 157.857 26.2784 158.541 25.4805C159.118 24.8344 159.584 24.0979 159.921 23.3005C160.209 22.6328 160.329 21.9051 160.271 21.1805C160.205 20.443 159.912 19.7443 159.431 19.1805C159.015 18.6323 158.433 18.2326 157.771 18.0405C157.114 17.8844 156.429 17.8844 155.771 18.0405C155.001 18.2001 154.259 18.4766 153.571 18.8605C152.801 19.2829 152.072 19.775 151.391 20.3305C150.573 20.9752 149.816 21.695 149.131 22.4805C148.555 23.1364 148.08 23.8745 147.721 24.6705C147.42 25.3415 147.289 26.0767 147.341 26.8105C147.396 27.5327 147.672 28.2204 148.131 28.7805Z" fill="#13776C"/>
<path d="M222.939 47.9465C222.185 47.0379 221.62 45.9871 221.279 44.8565C220.989 43.8463 220.924 42.7846 221.089 41.7465C221.268 40.6966 221.663 39.6953 222.249 38.8065C222.906 37.8151 223.716 36.9342 224.649 36.1965C225.546 35.4648 226.561 34.89 227.649 34.4965C228.658 34.1304 229.727 33.964 230.799 34.0065C231.847 34.0673 232.869 34.3503 233.799 34.8365C235.916 36.0198 237.487 37.9823 238.179 40.3065C238.457 41.3305 238.498 42.4043 238.299 43.4465C238.093 44.4795 237.678 45.4595 237.079 46.3265C236.443 47.265 235.667 48.1013 234.779 48.8065C234.233 49.2512 233.643 49.6398 233.019 49.9665C232.384 50.298 231.713 50.5563 231.019 50.7365C230.344 50.9215 229.649 51.0223 228.949 51.0365C228.235 51.0448 227.523 50.9436 226.839 50.7365C226.111 50.5038 225.421 50.167 224.789 49.7365C224.09 49.231 223.468 48.6283 222.939 47.9465ZM224.069 47.2865C224.473 47.8111 225.028 48.1987 225.659 48.3965C226.309 48.5849 226.995 48.6158 227.659 48.4865C228.44 48.343 229.193 48.0763 229.889 47.6965C230.708 47.2641 231.482 46.7516 232.199 46.1665C233.025 45.5117 233.788 44.7819 234.479 43.9865C235.051 43.3334 235.517 42.5943 235.859 41.7965C236.147 41.1324 236.267 40.4079 236.209 39.6865C236.138 38.9503 235.845 38.253 235.369 37.6865C234.95 37.136 234.365 36.736 233.699 36.5465C233.042 36.3886 232.357 36.3886 231.699 36.5465C230.929 36.7133 230.188 36.993 229.499 37.3765C228.73 37.8011 227.997 38.2895 227.309 38.8365C226.496 39.4872 225.743 40.2101 225.059 40.9965C224.479 41.649 224.003 42.3879 223.649 43.1865C223.347 43.8537 223.216 44.5859 223.269 45.3165C223.329 46.0411 223.612 46.7292 224.079 47.2865H224.069Z" fill="#13776C"/>
<path d="M321.137 86.4392C321.312 85.616 321.652 84.837 322.137 84.1492C322.57 83.5422 323.134 83.04 323.787 82.6792C324.454 82.3156 325.19 82.0943 325.947 82.0292C326.788 81.9562 327.636 82.0204 328.457 82.2192C329.26 82.3952 330.028 82.7063 330.727 83.1392C331.373 83.5425 331.936 84.0651 332.387 84.6792C332.821 85.2993 333.118 86.005 333.257 86.7492C333.412 87.5679 333.388 88.4106 333.187 89.2192C333.026 90.0775 332.685 90.8921 332.187 91.6092C331.733 92.2121 331.148 92.7044 330.477 93.0492C329.811 93.3906 329.083 93.5914 328.337 93.6392C327.532 93.6988 326.722 93.6347 325.937 93.4492C324.956 93.2279 324.031 92.8094 323.217 92.2192C322.814 91.9347 322.451 91.5985 322.137 91.2192C321.811 90.8286 321.554 90.3856 321.377 89.9092C321.18 89.4036 321.062 88.8707 321.027 88.3292C320.968 87.6972 321.006 87.0601 321.137 86.4392ZM322.007 86.7792C321.891 87.2331 321.919 87.7118 322.087 88.1492C322.268 88.5936 322.548 88.9905 322.907 89.3092C323.337 89.677 323.819 89.9802 324.337 90.2092C324.939 90.4739 325.565 90.6815 326.207 90.8292C326.936 90.9978 327.679 91.1015 328.427 91.1392C329.043 91.1689 329.66 91.1048 330.257 90.9492C330.756 90.8131 331.216 90.5593 331.597 90.2092C331.967 89.8486 332.222 89.3854 332.327 88.8792C332.452 88.4046 332.417 87.9017 332.227 87.4492C332.033 86.999 331.735 86.6014 331.357 86.2892C330.925 85.9333 330.443 85.6435 329.927 85.4292C329.352 85.1837 328.756 84.9896 328.147 84.8492C327.425 84.678 326.688 84.5742 325.947 84.5392C325.328 84.5021 324.707 84.5628 324.107 84.7192C323.6 84.8398 323.132 85.0876 322.747 85.4392C322.38 85.8039 322.133 86.2711 322.037 86.7792H322.007Z" fill="#13776C"/>
<path d="M236.52 68.9263L238.52 69.4963C238.728 69.561 238.952 69.561 239.16 69.4963C239.361 69.4223 239.531 69.281 239.64 69.0963L248.59 54.8063C248.71 54.6228 248.766 54.4049 248.75 54.1863C248.72 53.9684 248.622 53.7656 248.47 53.6063L247.07 52.0563L247.58 51.2363L255.58 56.2363C256.504 56.8076 257.362 57.4783 258.14 58.2363C258.836 58.9011 259.414 59.6787 259.85 60.5363C260.232 61.3169 260.42 62.1777 260.4 63.0463C260.366 63.9864 260.068 64.898 259.54 65.6763C259.009 66.5524 258.309 67.3139 257.48 67.9163C256.727 68.4569 255.868 68.8318 254.96 69.0163C254.066 69.2012 253.144 69.2012 252.25 69.0163C251.294 68.8201 250.383 68.4506 249.56 67.9263C249.342 67.7822 249.138 67.6182 248.95 67.4363C248.52 67.008 248.141 66.5315 247.82 66.0163C247.666 65.7815 247.525 65.5378 247.4 65.2863L243.5 71.5163C243.372 71.6998 243.322 71.9261 243.36 72.1463C243.394 72.3594 243.495 72.5558 243.65 72.7063L245.25 74.4063L244.74 75.2263L236 69.7463L236.52 68.9263ZM249.69 65.7863C250.061 66.0325 250.48 66.1962 250.92 66.2663C251.298 66.3155 251.682 66.2883 252.05 66.1863C252.403 66.0881 252.739 65.9399 253.05 65.7463C253.36 65.5539 253.651 65.333 253.92 65.0863C254.166 64.8689 254.391 64.6278 254.59 64.3663C254.752 64.1686 254.902 63.9616 255.04 63.7463C255.373 63.2174 255.648 62.6542 255.86 62.0663C256.055 61.5248 256.147 60.9516 256.13 60.3763C256.096 59.8089 255.92 59.259 255.62 58.7763C255.242 58.1985 254.735 57.716 254.14 57.3663L252.82 56.5463L247.91 64.3863C248.007 64.5119 248.117 64.626 248.24 64.7263C248.38 64.857 248.527 64.9805 248.68 65.0963L249.17 65.4663L249.69 65.7863Z" fill="#13776C"/>
<path d="M336.34 140.75L336.84 142.23C336.911 142.451 337.027 142.655 337.182 142.827C337.338 143 337.528 143.137 337.74 143.23L353.58 150.09L357.15 152.14L357.08 154.05L337.08 161.11C336.862 161.186 336.662 161.305 336.49 161.459C336.318 161.614 336.179 161.801 336.08 162.01L335.48 163.44H334.48L334.82 153.91H335.82L336.4 156.69L342.52 154.53L342.77 147.53L336.93 145L336.09 147.66H335.09L335.33 140.77L336.34 140.75ZM344.34 153.88L349.67 152L351.84 151.27L344.54 148.27L344.34 153.88Z" fill="#13776C"/>
<path d="M311.1 121.4H311.88C311.992 121.393 312.102 121.363 312.202 121.311C312.301 121.259 312.389 121.188 312.46 121.1L317.89 114.43L319.36 113L320.27 113.29L320.95 123.82C320.975 124.047 321.082 124.256 321.25 124.41L321.86 124.89L321.76 125.32L317.23 123.87L317.38 123.41L318.79 123.51L318.59 120.28L315.26 119.21L313.26 121.7L314.42 122.46L314.27 122.92L311 121.87L311.1 121.4ZM318.48 119.34L318.29 116.53V115.39L315.76 118.48L318.48 119.34Z" fill="#13776C"/>
<path d="M120.06 21.49H120.66C120.748 21.4855 120.834 21.4617 120.912 21.4202C120.99 21.3787 121.057 21.3206 121.11 21.25L125.31 16.11L126.44 15L127.14 15.22L127.67 23.36C127.673 23.4477 127.697 23.5334 127.74 23.61C127.78 23.6863 127.834 23.7542 127.9 23.81L128.37 24.19L128.26 24.54L124.74 23.42L124.85 23.06L125.94 23.14L125.78 20.65L123.21 19.82L121.74 21.71L122.64 22.3L122.52 22.65L120 21.84L120.06 21.49ZM125.76 19.9L125.62 17.73L125.57 16.85L123.74 19.23L125.76 19.9Z" fill="#13776C"/>
<path d="M308.57 134.05L309.52 135.91C309.62 136.102 309.773 136.261 309.96 136.37C310.147 136.48 310.37 136.512 310.58 136.46L327.14 133.26C327.36 133.228 327.561 133.114 327.7 132.94C327.83 132.769 327.91 132.564 327.93 132.35L328.11 130.27L329.06 130.08L330.96 139.92L330.01 140.1L329.07 138.25C328.97 138.055 328.818 137.893 328.63 137.78C328.435 137.672 328.208 137.637 327.99 137.68L321 139L322.71 147.8L329.71 146.46C329.927 146.42 330.122 146.303 330.26 146.13C330.399 145.963 330.482 145.757 330.5 145.54L330.68 143.46L331.63 143.28L333.53 153.11L332.58 153.29L331.64 151.43C331.547 151.233 331.393 151.071 331.2 150.97C331.005 150.862 330.778 150.827 330.56 150.87L314 154.11C313.892 154.124 313.787 154.159 313.692 154.214C313.598 154.269 313.515 154.342 313.45 154.43C313.319 154.601 313.239 154.806 313.22 155.02L313 157.1L312.05 157.29L310.15 147.45L311.1 147.27L312.05 149.13C312.15 149.322 312.303 149.481 312.49 149.59C312.677 149.699 312.898 149.734 313.11 149.69L320.95 148.17L319.25 139.37L311.41 140.88C311.192 140.918 310.996 141.036 310.86 141.21C310.733 141.386 310.657 141.594 310.64 141.81L310.44 143.88L309.44 144.06L307.54 134.23L308.57 134.05Z" fill="#13776C"/>
<path d="M294.281 100.401L295.351 100.221C295.463 100.207 295.568 100.158 295.651 100.081C295.692 100.044 295.725 99.9993 295.749 99.9496C295.773 99.8998 295.787 99.8458 295.791 99.7906L296.791 91.0906C296.805 90.9791 296.78 90.8661 296.721 90.7706C296.659 90.6744 296.568 90.6007 296.461 90.5606L295.461 90.1406L295.521 89.6406L300.681 90.2506L300.621 90.7506L299.561 90.9206C299.448 90.9416 299.345 90.9936 299.261 91.0706C299.176 91.1493 299.123 91.2558 299.111 91.3706L298.591 95.8106L303.521 91.5506L302.521 90.9706L302.581 90.4706L306.411 90.9306L306.351 91.4206L305.181 91.7506C305.03 91.7915 304.885 91.852 304.751 91.9306C304.597 92.0147 304.453 92.1153 304.321 92.2306L301.001 94.9406L304.271 100.621C304.311 100.709 304.361 100.793 304.421 100.871C304.469 100.947 304.522 101.021 304.581 101.091C304.639 101.159 304.702 101.222 304.771 101.281C304.835 101.33 304.905 101.37 304.981 101.401L305.801 101.761L305.741 102.261L300.621 101.651L300.681 101.161L301.941 100.981L299.261 96.2606L298.521 96.8906L298.141 100.061C298.127 100.178 298.159 100.296 298.231 100.391C298.292 100.481 298.379 100.55 298.481 100.591L299.481 101.011L299.421 101.511L294.271 100.901L294.281 100.401Z" fill="#13776C"/>
<path d="M283.3 130.47C281.989 129.534 280.869 128.356 280 127C279.234 125.747 278.755 124.34 278.6 122.88C278.445 121.369 278.612 119.842 279.09 118.4C279.637 116.736 280.462 115.178 281.53 113.79C282.228 112.847 283.037 111.991 283.94 111.24C284.768 110.543 285.682 109.955 286.66 109.49C287.578 109.043 288.554 108.727 289.56 108.55C290.549 108.365 291.559 108.325 292.56 108.43C293.554 108.531 294.529 108.767 295.46 109.13C296.435 109.514 297.353 110.029 298.19 110.66C298.701 111.047 299.188 111.465 299.65 111.91C300.17 112.4 300.65 112.91 301.19 113.44C301.73 113.97 302.19 114.5 302.57 115.02C302.929 115.453 303.263 115.907 303.57 116.38L300.09 121L299.16 120.31L299.95 117.13C299.984 116.948 299.984 116.762 299.95 116.58C299.917 116.418 299.866 116.261 299.8 116.11C299.48 115.373 299.077 114.676 298.6 114.03C298.109 113.382 297.53 112.807 296.88 112.32C296.182 111.781 295.354 111.436 294.48 111.32C293.575 111.217 292.658 111.337 291.81 111.67C290.781 112.081 289.83 112.666 289 113.4C287.927 114.312 286.967 115.349 286.14 116.49C285.245 117.65 284.502 118.921 283.93 120.27C283.458 121.36 283.206 122.532 283.19 123.72C283.201 124.768 283.469 125.798 283.97 126.72C284.948 128.368 286.436 129.653 288.21 130.38C288.791 130.598 289.395 130.749 290.01 130.83C290.546 130.905 291.09 130.922 291.63 130.88L293.07 130.76L293.66 131.2L292.54 132.71C291.847 132.755 291.152 132.755 290.46 132.71C288.783 132.644 287.128 132.307 285.56 131.71C284.752 131.404 283.991 130.987 283.3 130.47Z" fill="#13776C"/>
<path d="M255.08 33.5501C254.468 34.1612 253.745 34.6499 252.95 34.9901C252.22 35.2966 251.431 35.4367 250.64 35.4001C249.826 35.3514 249.029 35.1371 248.3 34.7701C246.89 34.0437 245.707 32.9436 244.88 31.5901C244.582 31.0912 244.347 30.5571 244.18 30.0001C244.021 29.4743 243.933 28.9293 243.92 28.3801C243.909 27.8477 243.97 27.3163 244.1 26.8001C244.233 26.2758 244.442 25.7737 244.72 25.3101C244.987 24.8234 245.324 24.3787 245.72 23.9901C245.965 23.747 246.226 23.5198 246.5 23.3101C246.81 23.0701 247.12 22.8401 247.45 22.6201C247.78 22.4001 248.09 22.2001 248.4 22.0101C248.71 21.8201 248.98 21.6901 249.21 21.5801L251.4 23.8201L250.96 24.2601L249.33 23.5801C249.238 23.5438 249.14 23.5236 249.04 23.5201H248.77C248.353 23.6286 247.95 23.7864 247.57 23.9901C247.185 24.1953 246.832 24.4546 246.52 24.7601C246.161 25.1132 245.908 25.5602 245.79 26.0501C245.674 26.5264 245.674 27.0237 245.79 27.5001C245.927 28.0828 246.157 28.6399 246.47 29.1501C247.299 30.4628 248.405 31.5788 249.71 32.4201C250.249 32.7606 250.851 32.9885 251.48 33.0901C252.048 33.1827 252.63 33.1276 253.17 32.9301C253.754 32.714 254.283 32.3726 254.72 31.9301C255.012 31.6525 255.264 31.3362 255.47 30.9901C255.63 30.697 255.761 30.3889 255.86 30.0701C255.945 29.7903 255.999 29.5018 256.02 29.2101C256.02 28.9301 256.02 28.6801 256.02 28.4301L256.31 28.1501L257.02 28.8801C256.987 29.2533 256.93 29.624 256.85 29.9901C256.761 30.4161 256.637 30.8342 256.48 31.2401C256.316 31.6747 256.119 32.0959 255.89 32.5001C255.667 32.8835 255.394 33.2364 255.08 33.5501Z" fill="#13776C"/>
<path d="M256.77 71.8565L257.61 73.7765C257.692 73.9811 257.835 74.1556 258.02 74.2765C258.206 74.3876 258.425 74.43 258.64 74.3965L275.35 72.1965C275.569 72.1779 275.774 72.0823 275.93 71.9265C276.083 71.7653 276.178 71.5577 276.2 71.3365L276.5 69.2665L277.5 69.1465L278.71 78.3665C278.923 79.7358 278.97 81.1259 278.85 82.5065C278.768 83.4246 278.517 84.3196 278.11 85.1465C277.801 85.7557 277.326 86.2652 276.74 86.6165C276.203 86.922 275.612 87.119 275 87.1965C274.334 87.3016 273.654 87.271 273 87.1065C272.397 86.9467 271.828 86.679 271.32 86.3165C270.784 85.9228 270.318 85.443 269.94 84.8965C269.504 84.2752 269.145 83.6037 268.87 82.8965C268.942 83.7954 268.895 84.7 268.73 85.5865C268.594 86.3468 268.326 87.0777 267.94 87.7465C267.579 88.3481 267.091 88.8635 266.51 89.2565C265.91 89.6554 265.225 89.9088 264.51 89.9965C263.768 90.1104 263.01 90.0798 262.28 89.9065C261.642 89.752 261.04 89.4734 260.51 89.0865C259.981 88.703 259.522 88.2331 259.15 87.6965C258.752 87.1311 258.417 86.5242 258.15 85.8865C257.871 85.2113 257.644 84.516 257.47 83.8065C257.3 83.0765 257.16 82.3365 257.06 81.6065L255.8 71.9765L256.77 71.8565ZM268.84 78.7265C268.92 79.414 269.095 80.0871 269.36 80.7265C269.563 81.205 269.874 81.6296 270.27 81.9665C270.632 82.269 271.066 82.4724 271.53 82.5565C272.056 82.6424 272.593 82.6424 273.12 82.5565C274.32 82.5147 275.456 82.0008 276.28 81.1265C276.591 80.6727 276.807 80.1602 276.913 79.6203C277.02 79.0805 277.015 78.5245 276.9 77.9865L276.71 76.5165L268.71 77.5165L268.84 78.7265ZM258.84 81.6465C258.901 82.7572 259.38 83.8038 260.18 84.5765C260.646 84.8983 261.173 85.1196 261.73 85.2264C262.286 85.3331 262.858 85.3229 263.41 85.1965C264.134 85.1164 264.842 84.9276 265.51 84.6365C266.023 84.3988 266.467 84.0339 266.8 83.5765C267.126 83.1002 267.328 82.5504 267.39 81.9765C267.488 81.2498 267.488 80.5132 267.39 79.7865L267.14 77.7865L258.53 78.9165L258.84 81.6465Z" fill="#13776C"/>
<path d="M361.181 136.101V137.161C361.188 137.269 361.218 137.375 361.271 137.471C361.323 137.563 361.409 137.631 361.511 137.661L369.511 140.291C369.617 140.331 369.734 140.331 369.841 140.291C369.937 140.247 370.02 140.178 370.081 140.091L370.671 139.221L371.131 139.381L369.851 143.231L363.291 143.411H361.581L368.101 148.531L366.841 152.351L366.381 152.201V151.201C366.389 151.091 366.361 150.982 366.301 150.891C366.241 150.801 366.153 150.734 366.051 150.701L358.001 148.001C357.898 147.96 357.783 147.96 357.681 148.001C357.585 148.046 357.503 148.115 357.441 148.201L356.851 149.071L356.391 148.921L357.961 144.151L358.421 144.301V145.351C358.415 145.46 358.443 145.568 358.501 145.661C358.558 145.753 358.647 145.82 358.751 145.851L366.411 148.381L365.181 147.471L360.131 143.471L358.661 142.111L358.931 141.321L367.261 141.091H368.831L361.201 138.561C361.101 138.52 360.99 138.52 360.891 138.561C360.792 138.606 360.707 138.675 360.641 138.761L360.001 139.611L359.541 139.461L360.721 135.891L361.181 136.101Z" fill="#13776C"/>
<path d="M83.9713 37.37C83.9413 37.4915 83.9413 37.6185 83.9713 37.74C84.0133 37.862 84.074 37.9767 84.1513 38.08L84.6413 38.72L84.3713 39.18L79.8613 36.48L80.1313 36.02L81.6313 36.47L83.4613 28.99L83.6313 28.31L78.3413 33.04L76.4413 34.43L75.4413 33.85L77.5213 25.48L77.7213 24.68L71.4213 30.23L72.4213 31.4L72.1413 31.87L68.8613 29.87L69.1413 29.41L70.0313 29.49C70.154 29.5087 70.2787 29.5087 70.4013 29.49C70.5337 29.4646 70.6576 29.4061 70.7613 29.32L77.6413 23.4L79.5413 22L80.6913 22.69L78.8413 30.14L78.5313 31.32L83.5313 26.91L85.4313 25.51L86.7213 26.28L83.9713 37.37Z" fill="#13776C"/>
<path d="M133.34 130.78L132.34 131.2C132.237 131.237 132.15 131.308 132.09 131.4C132.06 131.445 132.04 131.496 132.029 131.549C132.019 131.602 132.019 131.657 132.03 131.71L133.09 140.07C133.1 140.183 133.154 140.287 133.24 140.36C133.319 140.432 133.416 140.48 133.52 140.5L134.52 140.65L134.59 141.13L125.89 142.24L125.53 139.42L126.08 139.35L127 141C127.042 141.064 127.089 141.124 127.14 141.18C127.171 141.204 127.207 141.221 127.245 141.23C127.283 141.239 127.322 141.239 127.36 141.23L130.95 140.77L130.45 136.88L128.17 137.17C128.088 137.178 128.011 137.214 127.95 137.27C127.909 137.331 127.878 137.398 127.86 137.47L127.5 138.83L127.01 138.89L126.5 134.94L127 134.87L127.69 136.08C127.729 136.146 127.776 136.206 127.83 136.26C127.863 136.284 127.9 136.302 127.94 136.31C127.98 136.319 128.021 136.319 128.06 136.31L130.34 136.02L129.79 131.68L125.53 132.22C125.49 132.223 125.45 132.234 125.414 132.253C125.378 132.272 125.346 132.298 125.32 132.33C125.278 132.393 125.251 132.465 125.24 132.54L124.88 134.54L124.33 134.61L123.94 131.61L133.28 130.42L133.34 130.78Z" fill="#13776C"/>
<path d="M88.8005 136L87.5905 135.73C87.4703 135.69 87.3406 135.69 87.2205 135.73C87.1 135.772 86.9998 135.857 86.9405 135.97L82.1705 144.71C82.1113 144.827 82.0904 144.96 82.1105 145.09C82.1356 145.213 82.1985 145.325 82.2905 145.41L83.1705 146.28L82.9005 146.78L77.9605 144.08C77.4336 143.789 76.9319 143.454 76.4605 143.08C76.092 142.803 75.7565 142.484 75.4605 142.13C75.2292 141.859 75.0434 141.551 74.9105 141.22C74.7973 140.95 74.733 140.662 74.7205 140.37C74.6991 140.1 74.7297 139.829 74.8105 139.57C74.874 139.318 74.9715 139.076 75.1005 138.85C75.3126 138.425 75.6207 138.055 76.0005 137.77C76.6374 137.313 77.4068 137.078 78.1905 137.1C78.5261 137.094 78.8614 137.124 79.1905 137.19L78.6605 131.63C78.6481 131.532 78.6281 131.435 78.6005 131.34C78.5775 131.226 78.5405 131.115 78.4905 131.01C78.4486 130.906 78.3984 130.806 78.3405 130.71C78.2943 130.629 78.2371 130.555 78.1705 130.49L77.2605 129.62L77.5405 129.12L80.1705 130.56C80.3788 130.666 80.5735 130.797 80.7505 130.95C80.8907 131.062 81.0064 131.202 81.0905 131.36C81.1734 131.516 81.2276 131.685 81.2505 131.86C81.2505 132.04 81.3005 132.26 81.3205 132.52L81.6505 137.52L82.5805 138.41L84.6305 134.64C84.6985 134.53 84.7267 134.399 84.7105 134.27C84.6926 134.15 84.6323 134.04 84.5405 133.96L83.5405 132.96L83.8105 132.46L89.1405 135.37L88.8005 136ZM81.0705 138.62C80.7676 138.44 80.4227 138.344 80.0705 138.34C79.7594 138.34 79.4522 138.408 79.1705 138.54C78.8766 138.674 78.6117 138.865 78.3905 139.1C78.1538 139.337 77.9518 139.607 77.7905 139.9C77.3917 140.504 77.2479 141.241 77.3905 141.95C77.4963 142.253 77.6612 142.532 77.8758 142.771C78.0904 143.009 78.3504 143.203 78.6405 143.34L79.6405 143.87L82.1405 139.3C82.0783 139.244 82.0113 139.194 81.9405 139.15L81.6405 138.95L81.3405 138.76L81.0705 138.62Z" fill="#13776C"/>
<path d="M113.691 42.9102L112.051 41.7002C111.907 41.5756 111.721 41.5111 111.531 41.5202C111.348 41.5259 111.172 41.5928 111.031 41.7102L99.4812 51.2202L101.991 54.2202C102.031 54.2793 102.083 54.3294 102.143 54.3672C102.203 54.4051 102.271 54.43 102.341 54.4402C102.471 54.4403 102.6 54.4166 102.721 54.3702L105.721 53.3702L106.291 54.0702L102.491 57.1902L91.7412 44.1902L95.5412 41.0602L96.1212 41.7602L94.5212 44.5002C94.4549 44.608 94.4076 44.7264 94.3812 44.8502C94.3736 44.9177 94.3813 44.986 94.4038 45.0501C94.4263 45.1142 94.463 45.1723 94.5112 45.2202L97.0612 48.3202L108.601 38.8102C108.678 38.7531 108.742 38.6812 108.79 38.5987C108.838 38.5163 108.869 38.4249 108.881 38.3302C108.909 38.1538 108.885 37.9729 108.811 37.8102L107.931 35.9702L108.561 35.4502L114.311 42.4502L113.691 42.9102Z" fill="#13776C"/>
<path d="M46.94 64.51L45.3 63.3C45.1562 63.1754 44.97 63.1109 44.78 63.12C44.5968 63.1257 44.4207 63.1926 44.28 63.31L32.74 72.82L35.25 75.82C35.2898 75.8791 35.3414 75.9291 35.4017 75.967C35.462 76.0049 35.5295 76.0298 35.6 76.04C35.7299 76.0402 35.8587 76.0164 35.98 75.97L38.98 74.97L39.55 75.67L35.75 78.8L25 65.74L28.8 62.61L29.38 63.31L27.78 66.05C27.7137 66.1578 27.6664 66.2762 27.64 66.4C27.6323 66.4675 27.6401 66.5358 27.6626 66.5999C27.6851 66.664 27.7218 66.7221 27.77 66.77L30.32 69.87L41.86 60.36C41.9365 60.3029 42.0008 60.231 42.0489 60.1485C42.097 60.0661 42.128 59.9747 42.14 59.88C42.1682 59.7036 42.1439 59.5227 42.07 59.36L41.19 57.52L41.82 57L47.57 64L46.94 64.51Z" fill="#13776C"/>
<path d="M119.1 127.921L119.72 127.081C119.777 127.006 119.809 126.915 119.81 126.821C119.807 126.725 119.772 126.633 119.71 126.561L114.82 120.621L113.26 121.911C113.23 121.931 113.205 121.958 113.186 121.989C113.167 122.02 113.154 122.055 113.15 122.091C113.136 122.153 113.136 122.218 113.15 122.281L113.69 123.821L113.33 124.121L111.72 122.121L118.43 116.601L120.04 118.551L119.68 118.851L118.27 118.031C118.216 117.992 118.155 117.965 118.09 117.951C118.02 117.948 117.952 117.973 117.9 118.021L116.31 119.331L121.2 125.271C121.228 125.309 121.264 125.341 121.305 125.365C121.347 125.389 121.392 125.405 121.44 125.411C121.528 125.436 121.622 125.436 121.71 125.411L122.66 124.961L122.92 125.281L119.33 128.281L119.1 127.921Z" fill="#13776C"/>
<path d="M138.51 153.75L136.251 152.96C136.046 152.892 135.825 152.892 135.62 152.96C135.412 153.031 135.233 153.168 135.111 153.35L131.561 158.75L130.751 170.7C130.726 170.929 130.726 171.161 130.751 171.39C130.779 171.623 130.869 171.844 131.01 172.03L132.01 173.33L131.48 174.14L123.421 168.83L123.951 168.03L126.581 168.94L127.141 160.75L127.29 158.54L118.09 163.09L119.701 165.23L119.171 166.04L113.521 162.32L114.051 161.51L115.721 161.77C115.942 161.815 116.169 161.815 116.391 161.77C116.622 161.721 116.847 161.644 117.061 161.54L127.701 156.42L131.331 150.9C131.457 150.716 131.514 150.492 131.491 150.27C131.464 150.056 131.37 149.856 131.221 149.7L129.581 147.93L130.12 147.12L139.021 152.98L138.51 153.75Z" fill="#13776C"/>
<path d="M107.88 132.17C108.24 133.296 108.369 134.483 108.26 135.66C108.15 136.706 107.809 137.714 107.26 138.61C106.701 139.518 105.959 140.298 105.08 140.9C104.1 141.572 103.02 142.085 101.88 142.42C100.781 142.763 99.6308 142.915 98.4801 142.87C97.4089 142.84 96.3548 142.596 95.3801 142.15C94.4168 141.7 93.561 141.049 92.8701 140.24C92.1141 139.343 91.5553 138.297 91.2301 137.17C90.8463 135.994 90.7201 134.749 90.8601 133.52C90.9889 132.469 91.3547 131.46 91.9301 130.57C92.5063 129.689 93.2588 128.937 94.1401 128.36C95.6728 127.333 97.4344 126.698 99.2701 126.51C99.9714 126.435 100.679 126.435 101.38 126.51C102.065 126.594 102.737 126.762 103.38 127.01C104.047 127.272 104.671 127.633 105.23 128.08C105.817 128.57 106.329 129.143 106.75 129.78C107.243 130.517 107.624 131.322 107.88 132.17ZM106.59 132.36C106.408 131.723 106.039 131.155 105.53 130.73C105.001 130.314 104.381 130.03 103.72 129.9C102.943 129.745 102.148 129.708 101.36 129.79C100.434 129.888 99.5198 130.076 98.6301 130.35C97.6241 130.649 96.6469 131.037 95.7101 131.51C94.9358 131.901 94.2273 132.411 93.6101 133.02C93.0904 133.532 92.7056 134.164 92.4901 134.86C92.2758 135.554 92.2758 136.297 92.4901 136.99C92.6723 137.654 93.061 138.242 93.6001 138.67C94.1485 139.08 94.7858 139.354 95.4601 139.47C96.2361 139.607 97.0281 139.627 97.8101 139.53C98.6841 139.425 99.5473 139.245 100.39 138.99C101.386 138.696 102.354 138.311 103.28 137.84C104.064 137.45 104.786 136.944 105.42 136.34C105.945 135.828 106.339 135.197 106.57 134.5C106.796 133.806 106.803 133.059 106.59 132.36Z" fill="#13776C"/>
<path d="M35.5698 123.43C35.9346 124.555 36.0639 125.743 35.9498 126.92C35.837 127.965 35.4956 128.972 34.9498 129.87C34.3851 130.773 33.6436 131.552 32.7698 132.16C31.7885 132.836 30.7046 133.35 29.5598 133.68C28.4599 134.022 27.3109 134.177 26.1598 134.14C25.0887 134.102 24.0355 133.854 23.0598 133.41C22.0966 132.96 21.2408 132.309 20.5498 131.5C19.7913 130.607 19.2352 129.559 18.9198 128.43C18.5332 127.258 18.4036 126.017 18.5398 124.79C18.6633 123.722 19.0293 122.696 19.6098 121.79C20.1884 120.908 20.9403 120.153 21.8198 119.57C22.7621 118.94 23.7936 118.455 24.8798 118.13C25.5563 117.932 26.249 117.795 26.9498 117.72C27.6512 117.645 28.3585 117.645 29.0598 117.72C29.7448 117.808 30.4165 117.979 31.0598 118.23C31.7661 118.498 32.4221 118.884 32.9998 119.37C33.5922 119.853 34.1081 120.423 34.5298 121.06C34.9938 121.793 35.3444 122.592 35.5698 123.43ZM34.2798 123.62C34.1047 122.983 33.734 122.416 33.2198 122C32.694 121.583 32.0774 121.295 31.4198 121.16C30.6392 121.009 29.8404 120.976 29.0498 121.06C28.1266 121.149 27.215 121.333 26.3298 121.61C25.3188 121.908 24.3378 122.3 23.3998 122.78C22.6245 123.17 21.9157 123.679 21.2998 124.29C20.7852 124.8 20.404 125.428 20.1898 126.12C19.9756 126.814 19.9756 127.556 20.1898 128.25C20.3668 128.916 20.7565 129.506 21.2998 129.93C21.8481 130.34 22.4854 130.614 23.1598 130.73C23.9354 130.872 24.7281 130.892 25.5098 130.79C26.3838 130.685 27.2471 130.505 28.0898 130.25C29.0928 129.956 30.0668 129.571 30.9998 129.1C31.7795 128.707 32.4972 128.202 33.1298 127.6C33.6582 127.09 34.0531 126.459 34.2798 125.76C34.4993 125.064 34.4993 124.317 34.2798 123.62Z" fill="#13776C"/>
<path d="M173.391 182.791C172.926 183.492 172.32 184.089 171.611 184.541C170.981 184.94 170.271 185.196 169.531 185.291C168.777 185.379 168.014 185.307 167.291 185.081C166.474 184.848 165.7 184.483 165.001 184.001C164.323 183.537 163.728 182.962 163.241 182.301C162.778 181.685 162.439 180.985 162.241 180.241C162.085 179.502 162.085 178.739 162.241 178.001C162.412 177.183 162.753 176.409 163.241 175.731C163.73 175.003 164.367 174.386 165.111 173.921C165.755 173.531 166.48 173.291 167.231 173.221C167.977 173.154 168.73 173.243 169.441 173.481C170.211 173.731 170.939 174.095 171.601 174.561C172.009 174.86 172.391 175.194 172.741 175.561C173.089 175.923 173.398 176.322 173.661 176.751C173.918 177.178 174.123 177.634 174.271 178.111C174.421 178.596 174.492 179.103 174.481 179.611C174.476 180.155 174.385 180.695 174.211 181.211C174.015 181.774 173.739 182.306 173.391 182.791ZM172.721 182.151C173.001 181.775 173.156 181.32 173.161 180.851C173.166 180.371 173.052 179.897 172.831 179.471C172.568 178.966 172.231 178.504 171.831 178.101C171.37 177.626 170.864 177.198 170.321 176.821C169.709 176.389 169.06 176.014 168.381 175.701C167.82 175.441 167.223 175.269 166.611 175.191C166.097 175.131 165.576 175.193 165.091 175.371C164.611 175.583 164.205 175.931 163.921 176.371C163.627 176.763 163.469 177.241 163.471 177.731C163.487 178.217 163.617 178.693 163.851 179.121C164.111 179.617 164.449 180.07 164.851 180.461C165.286 180.911 165.765 181.316 166.281 181.671C166.89 182.091 167.532 182.463 168.201 182.781C168.765 183.043 169.364 183.222 169.981 183.311C170.497 183.384 171.023 183.326 171.511 183.141C172.012 182.952 172.437 182.604 172.721 182.151Z" fill="#13776C"/>
<path d="M76.5802 116.3L74.9302 115C74.7617 114.856 74.5516 114.768 74.3302 114.75C74.114 114.74 73.9012 114.808 73.7302 114.94L60.0802 124.83C59.8944 124.952 59.7592 125.137 59.7002 125.35C59.6301 125.558 59.6301 125.783 59.7002 125.99L60.4202 127.99L59.6402 128.55L54.1302 120.94C53.4847 120.067 52.938 119.124 52.5002 118.13C52.105 117.254 51.8615 116.318 51.7802 115.36C51.7137 114.491 51.8613 113.619 52.2102 112.82C52.5995 111.962 53.2191 111.228 54.0002 110.7C54.822 110.084 55.7612 109.641 56.7602 109.4C57.6575 109.18 58.5915 109.153 59.5002 109.32C60.3967 109.478 61.2512 109.818 62.0102 110.32C62.8226 110.854 63.5308 111.532 64.1002 112.32C64.2457 112.534 64.3697 112.762 64.4702 113C64.5915 113.277 64.695 113.561 64.7802 113.85C64.8688 114.143 64.9422 114.44 65.0002 114.74C65.0002 115.04 65.0902 115.32 65.1102 115.58L71.1102 111.27C71.2969 111.143 71.429 110.95 71.4802 110.73C71.5212 110.519 71.5003 110.3 71.4202 110.1L70.5702 107.92L71.3502 107.36L77.3502 115.69L76.5802 116.3ZM63.2002 114.3C62.9381 113.932 62.5963 113.628 62.2002 113.41C61.8691 113.217 61.5013 113.094 61.1202 113.05C60.7526 112.99 60.3778 112.99 60.0102 113.05C59.6532 113.115 59.3021 113.209 58.9602 113.33C58.6522 113.441 58.3544 113.578 58.0702 113.74C57.8002 113.9 57.5802 114.03 57.4202 114.15C56.916 114.519 56.4504 114.938 56.0302 115.4C55.6419 115.827 55.3427 116.327 55.1502 116.87C54.9661 117.407 54.9214 117.982 55.0202 118.54C55.1483 119.22 55.44 119.859 55.8702 120.4L56.7802 121.66L64.2702 116.23C64.2202 116.083 64.1601 115.939 64.0902 115.8C64.0102 115.627 63.9202 115.457 63.8202 115.29C63.7202 115.11 63.6102 114.94 63.5002 114.77C63.3902 114.6 63.3102 114.43 63.2002 114.27V114.3Z" fill="#13776C"/>
<path d="M95.6914 86.9105L95.7814 85.3505C95.7948 85.1239 95.7598 84.897 95.6788 84.6849C95.5978 84.4729 95.4725 84.2805 95.3114 84.1205L83.2014 71.8205L80.6914 68.6005L81.4714 66.8505L102.631 67.8505C102.864 67.8518 103.095 67.8077 103.311 67.7205C103.521 67.6449 103.712 67.5256 103.871 67.3705L104.971 66.2705L105.851 66.6605L101.961 75.3705L101.081 74.9805L101.581 72.1805L95.1014 71.8905L92.2414 78.3005L96.7514 82.8305L98.5314 80.6805L99.4114 81.0705L96.6014 87.3705L95.6914 86.9105ZM93.2014 71.7405L87.5514 71.4905L85.2714 71.3605L90.9014 76.8905L93.2014 71.7405Z" fill="#13776C"/>
<path d="M82.2006 172.23L81.4606 171.98C81.3549 171.94 81.2413 171.924 81.1286 171.935C81.016 171.945 80.9072 171.981 80.8106 172.04L73.2706 176.18L71.3806 176.96L70.6406 176.35L73.9606 166.35C73.9908 166.239 73.9908 166.122 73.9606 166.01C73.9534 165.899 73.9227 165.79 73.8706 165.69L73.4906 165.02L73.8006 164.65L77.4506 167.65L77.1406 168.02L75.8706 167.4L74.8706 170.47L77.5606 172.71L80.3406 171.16L79.5506 170.01L79.8606 169.64L82.5006 171.84L82.2006 172.23ZM74.5906 171.37L73.7006 174.05L73.3306 175.13L76.7406 173.18L74.5906 171.37Z" fill="#13776C"/>
<path d="M218.92 27.92L218.36 27.72C218.279 27.6856 218.193 27.6679 218.105 27.6679C218.017 27.6679 217.931 27.6856 217.85 27.72L212.03 30.92L210.57 31.52L210 31.05L212.56 23.31C212.58 23.2245 212.58 23.1355 212.56 23.05C212.55 22.9635 212.526 22.8791 212.49 22.8L212.19 22.28L212.43 22L215.25 24.35L215.01 24.63L214.01 24.15L213.22 26.52L215.3 28.25L217.45 27.05L216.84 26.17L217.08 25.89L219.08 27.58L218.92 27.92ZM213.05 27.26L212.36 29.32L212.07 30.16L214.71 28.65L213.05 27.26Z" fill="#13776C"/>
<path d="M165.7 165.08C165.442 165.656 165.152 166.217 164.83 166.76C164.51 167.3 164.17 167.82 163.83 168.31C163.49 168.8 163.09 169.31 162.71 169.74C162.33 170.17 161.93 170.66 161.54 171.1L155.74 168.92L156.17 167.92H159.63H159.88L160.17 167.84C160.266 167.814 160.36 167.781 160.45 167.74C160.524 167.712 160.595 167.675 160.66 167.63C161.065 167.37 161.443 167.072 161.79 166.74C162.144 166.395 162.478 166.032 162.79 165.65C163.091 165.296 163.371 164.925 163.63 164.54C163.84 164.222 164.023 163.887 164.18 163.54C164.419 163.043 164.551 162.501 164.57 161.95C164.593 161.463 164.515 160.976 164.34 160.52C164.168 160.075 163.908 159.669 163.577 159.326C163.245 158.982 162.849 158.708 162.41 158.52C162.069 158.36 161.705 158.255 161.33 158.21C160.994 158.185 160.655 158.219 160.33 158.31C159.977 158.428 159.64 158.593 159.33 158.8C158.948 159.052 158.592 159.344 158.27 159.67C157.96 159.97 157.67 160.28 157.4 160.59L156.61 161.54C156.34 161.85 156.08 162.17 155.81 162.47C155.54 162.77 155.25 163.08 154.95 163.37C154.472 163.831 153.929 164.222 153.34 164.53C152.52 164.943 151.617 165.168 150.698 165.187C149.779 165.206 148.868 165.019 148.03 164.64C147.491 164.386 146.995 164.049 146.56 163.64C146.132 163.246 145.765 162.791 145.47 162.29C145.167 161.776 144.931 161.225 144.77 160.65C144.596 160.048 144.501 159.426 144.49 158.8C144.48 158.129 144.54 157.458 144.67 156.8C144.809 156.111 145.027 155.439 145.32 154.8C145.58 154.22 145.86 153.65 146.17 153.09C146.48 152.53 146.79 152.02 147.11 151.53C147.43 151.04 147.76 150.58 148.11 150.15C148.46 149.72 148.76 149.34 149.11 149L154.32 151.32L153.88 152.32L150.7 152.27C150.526 152.271 150.353 152.305 150.19 152.37C150.035 152.431 149.884 152.505 149.74 152.59C149.436 152.765 149.157 152.98 148.91 153.23C148.638 153.513 148.381 153.81 148.14 154.12C147.91 154.425 147.696 154.742 147.5 155.07C147.32 155.38 147.17 155.65 147.07 155.87C146.867 156.318 146.749 156.799 146.72 157.29C146.696 157.721 146.758 158.153 146.9 158.56C147.039 158.929 147.246 159.268 147.51 159.56C147.771 159.84 148.084 160.067 148.43 160.23C148.787 160.392 149.164 160.506 149.55 160.57C149.914 160.64 150.287 160.64 150.65 160.57C151.037 160.48 151.406 160.324 151.74 160.11C152.154 159.824 152.53 159.488 152.86 159.11C153.14 158.82 153.41 158.53 153.66 158.23L154.43 157.33L155.24 156.42C155.52 156.11 155.83 155.8 156.17 155.47C156.596 155.072 157.061 154.72 157.56 154.42C158.078 154.098 158.641 153.855 159.23 153.7C159.853 153.535 160.498 153.47 161.14 153.51C161.853 153.554 162.552 153.73 163.2 154.03C163.981 154.378 164.682 154.882 165.26 155.51C165.867 156.229 166.292 157.083 166.5 158C166.812 159.026 166.914 160.104 166.8 161.17C166.659 162.526 166.287 163.849 165.7 165.08Z" fill="#13776C"/>
<path d="M113 193.521L112.82 191.441C112.797 191.225 112.714 191.021 112.58 190.851C112.448 190.678 112.254 190.564 112.04 190.531L95.4897 187.291C95.2727 187.238 95.0439 187.271 94.8497 187.381C94.6681 187.489 94.5194 187.644 94.4197 187.831L93.4197 189.701L92.4697 189.521L94.3997 179.691L95.3397 179.871L95.5197 181.941C95.5396 182.16 95.623 182.368 95.7597 182.541C95.8963 182.715 96.0921 182.832 96.3097 182.871L103.31 184.231L105.04 175.431L98.0397 174.071C97.8227 174.017 97.5936 174.05 97.3997 174.161C97.2127 174.27 97.0602 174.429 96.9597 174.621L96.0197 176.481L95.0697 176.301L96.9897 166.471L97.9897 166.651L98.1597 168.741C98.1754 168.955 98.2595 169.158 98.3997 169.321C98.535 169.496 98.7314 169.614 98.9497 169.651L115.5 172.891C115.714 172.939 115.938 172.907 116.13 172.801C116.314 172.692 116.463 172.532 116.56 172.341L117.56 170.481L118.51 170.661L116.59 180.491L115.59 180.301L115.4 178.221C115.381 178.006 115.301 177.801 115.17 177.631C115.038 177.458 114.844 177.344 114.63 177.311L106.79 175.771L105.07 184.571L112.91 186.111C113.125 186.159 113.35 186.124 113.54 186.011C113.722 185.895 113.871 185.733 113.97 185.541L114.97 183.691L115.97 183.881L114.04 193.711L113 193.521Z" fill="#13776C"/>
<path d="M111.811 99L110.751 98.76C110.643 98.7297 110.529 98.7297 110.421 98.76C110.319 98.8051 110.235 98.8824 110.181 98.98L105.971 106.66C105.913 106.759 105.892 106.876 105.911 106.99C105.94 107.098 105.995 107.198 106.071 107.28L106.841 108.04L106.601 108.48L102.041 105.98L102.281 105.54L103.341 105.78C103.446 105.809 103.556 105.809 103.661 105.78C103.717 105.762 103.768 105.734 103.813 105.696C103.858 105.658 103.894 105.612 103.921 105.56L106.071 101.64L99.911 103.72L100.631 104.64L100.391 105.08L97.001 103.23L97.241 102.79L98.451 102.93C98.6073 102.945 98.7647 102.945 98.921 102.93C99.0941 102.905 99.2647 102.865 99.431 102.81L103.571 101.57L102.681 95.07C102.681 94.98 102.681 94.88 102.681 94.79C102.665 94.6983 102.641 94.608 102.611 94.52C102.582 94.4365 102.546 94.3562 102.501 94.28C102.466 94.2058 102.419 94.1382 102.361 94.08L101.731 93.44L101.971 93L106.491 95.48L106.251 95.92L105.021 95.61L105.731 100.99L106.651 100.69L108.191 97.89C108.252 97.7877 108.27 97.6655 108.241 97.55C108.21 97.4456 108.155 97.3498 108.081 97.27L107.331 96.51L107.571 96.07L112.111 98.57L111.811 99Z" fill="#13776C"/>
<path d="M302.79 32.34L301.79 31.34C301.611 31.1564 301.406 31.0013 301.18 30.88C300.973 30.7749 300.759 30.6847 300.54 30.61L292.79 28.09L287.24 35.39C287.116 35.5572 287.012 35.7385 286.93 35.93C286.84 36.107 286.788 36.3014 286.78 36.5V37.87L286 38.14L283.18 30.26L283.95 29.99L285.27 31.99L288.46 27.85L289.62 26.44L282.77 24.44V26.7L282 26.98L280 21.42L280.78 21.14L281.71 22.08C281.892 22.2469 282.093 22.3913 282.31 22.51C282.52 22.6285 282.741 22.7257 282.97 22.8L290.5 25.2L296.17 17.73C296.29 17.5672 296.394 17.393 296.48 17.21C296.564 17.0313 296.612 16.8374 296.62 16.64V15.28L297.39 15L300.22 22.88L299.45 23.16L298.12 21.16L294.79 25.47L293.64 26.87L300.72 28.97V26.77L301.49 26.49L303.49 32.05L302.79 32.34Z" fill="#13776C"/>
<path d="M212.767 78.7399C213.621 80.105 214.202 81.6232 214.477 83.2099C214.72 84.6565 214.638 86.139 214.237 87.5499C213.813 89.019 213.084 90.3821 212.097 91.5499C210.967 92.8918 209.614 94.0285 208.097 94.9099C207.097 95.5276 206.026 96.0212 204.907 96.3799C203.88 96.7116 202.815 96.9132 201.737 96.9799C200.732 97.0401 199.723 96.9662 198.737 96.7599C196.781 96.351 194.977 95.4057 193.527 94.0299C192.754 93.3063 192.081 92.4823 191.527 91.5799C191.237 91.0999 190.947 90.5799 190.637 89.8799C190.327 89.1799 190.057 88.5599 189.797 87.8799C189.537 87.1999 189.297 86.5399 189.097 85.8799C188.925 85.3411 188.782 84.7937 188.667 84.2399L193.667 81.2399L194.267 82.2399L192.337 84.8999C192.232 85.0508 192.157 85.2206 192.117 85.3999C192.089 85.5619 192.072 85.7256 192.067 85.8899C192.093 86.6933 192.207 87.4914 192.407 88.2699C192.636 89.0526 192.973 89.7997 193.407 90.4899C193.853 91.2488 194.491 91.8767 195.257 92.3099C196.057 92.7501 196.954 92.9838 197.867 92.9899C198.978 92.9973 200.083 92.8216 201.137 92.4699C202.471 92.0232 203.746 91.4189 204.937 90.6699C206.202 89.9307 207.368 89.0335 208.407 87.9999C209.26 87.1686 209.94 86.176 210.407 85.0799C210.811 84.0929 210.959 83.0196 210.837 81.9599C210.685 80.8112 210.286 79.7092 209.667 78.7299C209.29 78.0803 208.818 77.4905 208.267 76.9799C207.815 76.5568 207.315 76.1877 206.777 75.8799C206.308 75.6112 205.812 75.3933 205.297 75.2299L203.917 74.7999L203.527 74.1699L205.137 73.1699C205.796 73.3847 206.441 73.6419 207.067 73.9399C207.802 74.2885 208.51 74.6895 209.187 75.1399C209.897 75.6201 210.566 76.1586 211.187 76.7499C211.8 77.3396 212.332 78.0089 212.767 78.7399Z" fill="#13776C"/>
<path d="M65.9997 191.11C66.8021 190.775 67.6601 190.592 68.5297 190.571C69.3197 190.564 70.1016 190.731 70.8197 191.061C71.5573 191.413 72.2143 191.913 72.7497 192.531C73.369 193.242 73.8627 194.053 74.2097 194.93C74.4506 195.516 74.625 196.126 74.7297 196.751C74.8207 197.326 74.8375 197.911 74.7797 198.49C74.6821 199.574 74.2915 200.611 73.6497 201.49C73.3306 201.926 72.9499 202.314 72.5197 202.641C72.0723 202.981 71.5813 203.26 71.0597 203.471C70.7337 203.605 70.3998 203.718 70.0597 203.811C69.6897 203.911 69.3097 204.011 68.9297 204.091C68.5497 204.171 68.1697 204.24 67.8197 204.3C67.4697 204.36 67.1597 204.381 66.9097 204.391L65.7097 201.49L66.2897 201.251L67.5397 202.501C67.6123 202.569 67.6971 202.623 67.7897 202.661C67.8736 202.691 67.9609 202.711 68.0497 202.721C68.4782 202.77 68.9111 202.77 69.3397 202.721C69.7764 202.677 70.2044 202.569 70.6097 202.4C71.0504 202.224 71.4367 201.934 71.7297 201.561C72.0289 201.171 72.2281 200.715 72.3097 200.231C72.4046 199.641 72.4046 199.04 72.3097 198.451C72.1824 197.701 71.9676 196.97 71.6697 196.27C71.3806 195.534 70.9974 194.838 70.5297 194.201C70.1567 193.682 69.6842 193.244 69.1397 192.911C68.6501 192.613 68.092 192.448 67.5197 192.43C66.8946 192.411 66.273 192.531 65.6997 192.781C65.3388 192.931 65.0019 193.133 64.6997 193.381C64.4396 193.586 64.2047 193.82 63.9997 194.08C63.8164 194.309 63.6588 194.557 63.5297 194.821L63.1797 195.52L62.8097 195.671L62.4297 194.731C62.5995 194.386 62.7898 194.052 62.9997 193.731C63.2434 193.377 63.5142 193.042 63.8097 192.731C64.1168 192.387 64.4513 192.07 64.8097 191.781C65.1749 191.505 65.5751 191.28 65.9997 191.11Z" fill="#13776C"/>
<path d="M66.2003 154.39C66.1751 154.552 66.1751 154.718 66.2003 154.88C66.2247 155.05 66.2899 155.211 66.3903 155.35L67.1203 156.3L66.7303 156.89L60.8503 153L61.2403 152.41L63.1703 153.1L65.2803 143.15L65.6703 141.43L56.1803 148.25L57.4103 149.86L57.0203 150.44L52.7803 147.62L53.1703 147.03L54.3703 147.22C54.5356 147.25 54.705 147.25 54.8703 147.22C55.0309 147.186 55.1836 147.121 55.3203 147.03L65.5603 139.91L68.1103 138.46L69.4103 139.33L66.2003 154.39Z" fill="#13776C"/>
<path d="M64.531 53.99C64.5111 54.0789 64.5111 54.1711 64.531 54.26C64.5385 54.3545 64.5732 54.4448 64.631 54.52L65.041 55.06L64.821 55.39L61.531 53.19L61.751 52.87L62.831 53.25L64.011 47.67L64.241 46.67L58.911 50.5L59.601 51.4L59.381 51.73L57.001 50.14L57.211 49.82L57.891 49.92C57.9832 49.94 58.0787 49.94 58.171 49.92C58.2606 49.8999 58.3455 49.8625 58.421 49.81L64.171 45.81L65.601 45L66.331 45.49L64.531 53.99Z" fill="#13776C"/>
<path d="M58.9102 106L58.8402 103.91C58.8475 103.688 58.7806 103.47 58.6502 103.29C58.5174 103.124 58.3352 103.005 58.1302 102.95L41.8102 98.7198C41.6037 98.6433 41.3767 98.6433 41.1702 98.7198C40.9693 98.8107 40.8041 98.9654 40.7002 99.1599L39.6402 101L38.7002 100.75L41.0402 91.7498C41.358 90.4002 41.8382 89.094 42.4702 87.8598C42.8892 87.0376 43.4591 86.3015 44.1502 85.6899C44.659 85.238 45.2875 84.9428 45.9602 84.8398C46.5755 84.7595 47.2006 84.8003 47.8002 84.9598C48.4325 85.1135 49.0275 85.3924 49.5502 85.7798C50.0522 86.1536 50.4796 86.6183 50.8102 87.1498C51.1553 87.7164 51.4084 88.3341 51.5602 88.9799C51.7285 89.7078 51.8124 90.4527 51.8102 91.1999C52.0825 90.3404 52.4657 89.5202 52.9502 88.7599C53.3625 88.1062 53.8873 87.5306 54.5002 87.0598C55.0564 86.637 55.6979 86.3402 56.3802 86.1899C57.0899 86.0474 57.8231 86.0748 58.5202 86.2698C59.2394 86.4462 59.9183 86.7585 60.5202 87.1899C61.0533 87.5734 61.5082 88.0554 61.8602 88.6098C62.2025 89.1612 62.4493 89.7664 62.5902 90.3998C62.7453 91.0725 62.8291 91.7596 62.8402 92.4499C62.8493 93.1827 62.7992 93.9151 62.6902 94.6399C62.5817 95.3811 62.4314 96.1156 62.2402 96.8398L59.8002 106.24L58.9102 106ZM50.2902 95.0999C50.4821 94.4268 50.5764 93.7297 50.5702 93.0298C50.5612 92.5072 50.4312 91.9937 50.1902 91.5298C49.9627 91.1252 49.6401 90.7819 49.2502 90.5298C48.7949 90.2489 48.2991 90.0398 47.7802 89.9099C46.648 89.5066 45.4033 89.5604 44.3102 90.0598C43.8517 90.3642 43.4601 90.7589 43.1592 91.2196C42.8583 91.6804 42.6545 92.1977 42.5602 92.7398L42.1802 94.1798L50.0102 96.1798L50.2902 95.0999ZM60.6702 96.1599C61.0351 95.1044 60.9851 93.9497 60.5302 92.9298C60.2196 92.4563 59.8138 92.0525 59.3386 91.7444C58.8634 91.4362 58.3293 91.2303 57.7702 91.1399C57.0714 90.9422 56.346 90.8545 55.6202 90.8799C55.0506 90.9035 54.4964 91.0722 54.0102 91.3698C53.5347 91.6966 53.1439 92.1319 52.8702 92.6399C52.5235 93.2705 52.258 93.9425 52.0802 94.6399L51.5902 96.5598L59.9902 98.7398L60.6702 96.1599Z" fill="#13776C"/>
<path d="M104.16 152.15L102.66 151.6L107.21 158.04C107.276 158.135 107.371 158.205 107.48 158.24C107.595 158.269 107.716 158.269 107.83 158.24L108.93 157.91L109.23 158.34L105.85 160.73L105.55 160.3L106.23 159.38C106.3 159.283 106.341 159.169 106.35 159.05C106.36 158.936 106.328 158.823 106.26 158.73L101.06 151.37C100.989 151.272 100.887 151.202 100.77 151.17C100.662 151.14 100.548 151.14 100.44 151.17L99.2805 151.56L98.9805 151.14L102 149L110.5 152L111.83 152.49L107.7 146.64C107.636 146.545 107.54 146.474 107.43 146.44C107.316 146.411 107.195 146.411 107.08 146.44L105.98 146.77L105.68 146.34L109.06 143.95L109.37 144.37L108.69 145.3C108.626 145.401 108.582 145.513 108.56 145.63C108.553 145.687 108.558 145.744 108.573 145.799C108.589 145.854 108.615 145.905 108.65 145.95L113.52 152.83L114.52 154.65L113.41 155.43L104.16 152.15Z" fill="#13776C"/>
<path d="M70.961 81.9105L71.351 80.9105C71.3761 80.8053 71.3761 80.6956 71.351 80.5905C71.3315 80.4895 71.2786 80.3979 71.201 80.3305L64.841 74.9105C64.7565 74.8406 64.6506 74.8018 64.541 74.8005C64.434 74.7983 64.3291 74.8297 64.241 74.8905L63.371 75.4705L63.001 75.1605L65.631 72.0705L71.771 74.3605L73.371 74.9805L69.251 67.8005L71.851 64.7305L72.221 65.0405L71.781 66.0405C71.7518 66.1417 71.7518 66.2492 71.781 66.3505C71.8038 66.4605 71.8639 66.5594 71.951 66.6305L78.381 72.0805C78.4596 72.1547 78.5629 72.1975 78.671 72.2005C78.7787 72.1978 78.8832 72.163 78.971 72.1005L79.851 71.5205L80.221 71.8305L76.971 75.6605L76.601 75.3505L77.031 74.3505C77.0653 74.2466 77.0653 74.1344 77.031 74.0305C77.0136 73.9259 76.9606 73.8305 76.881 73.7605L70.691 68.5705L71.491 69.8805L74.681 75.4505L75.531 77.2505L75.001 77.8905L67.181 74.9805L65.721 74.3905L71.851 79.5905C71.9306 79.6632 72.0332 79.7057 72.141 79.7105C72.2504 79.7002 72.3562 79.6661 72.451 79.6105L73.361 79.0705L73.731 79.3805L71.301 82.2405L70.961 81.9105Z" fill="#13776C"/>
<path d="M199.16 180.35L198.74 179.35C198.7 179.252 198.63 179.168 198.54 179.11C198.448 179.051 198.339 179.026 198.23 179.04L189.87 180.11C189.815 180.114 189.761 180.127 189.711 180.152C189.661 180.176 189.617 180.209 189.58 180.25C189.507 180.331 189.462 180.432 189.45 180.54L189.29 181.54L188.81 181.6L187.7 173L190.52 172.64L190.59 173.19L189 174C188.934 174.039 188.874 174.086 188.82 174.14C188.776 174.204 188.758 174.283 188.77 174.36L189.23 177.94L193.12 177.45L192.83 175.17C192.824 175.088 192.789 175.01 192.73 174.95C192.67 174.909 192.602 174.878 192.53 174.86L191.18 174.5L191.11 174.01L195.11 173.5L195.17 174L193.96 174.69C193.895 174.726 193.834 174.769 193.78 174.82C193.764 174.858 193.755 174.899 193.755 174.94C193.755 174.982 193.764 175.023 193.78 175.06L194.07 177.34L198.41 176.79L197.87 172.53C197.868 172.491 197.859 172.451 197.841 172.415C197.824 172.379 197.8 172.347 197.77 172.32C197.705 172.276 197.629 172.249 197.55 172.24L195.55 171.87L195.48 171.32L198.48 170.94L199.67 180.27L199.16 180.35Z" fill="#13776C"/>
<path d="M210 174.92L211.21 173.28C211.333 173.139 211.397 172.957 211.39 172.77C211.386 172.586 211.319 172.41 211.2 172.27L201.69 160.72L198.69 163.22C198.631 163.263 198.582 163.316 198.544 163.378C198.506 163.44 198.481 163.508 198.47 163.58C198.471 163.71 198.494 163.838 198.54 163.96L199.54 166.96L198.84 167.53L195.71 163.73L208.79 153L211.92 156.8L211.22 157.37L208.48 155.78C208.374 155.708 208.255 155.657 208.13 155.63C208.061 155.625 207.992 155.635 207.927 155.657C207.862 155.679 207.802 155.714 207.75 155.76L204.66 158.31L214.17 169.86C214.288 170.011 214.46 170.112 214.65 170.14C214.827 170.165 215.008 170.137 215.17 170.06L217.01 169.19L217.53 169.81L210.53 175.57L210 174.92Z" fill="#13776C"/>
<path d="M210.247 71.96L211.457 70.32C211.577 70.1738 211.641 69.9893 211.637 69.8C211.631 69.6168 211.564 69.4407 211.447 69.3L201.947 57.74L198.947 60.25C198.888 60.2898 198.838 60.3414 198.8 60.4017C198.762 60.462 198.737 60.5295 198.727 60.6C198.727 60.7299 198.75 60.8587 198.797 60.98L199.797 63.98L199.097 64.55L195.967 60.75L209.027 50L212.147 53.8L211.457 54.38L208.717 52.78C208.606 52.7119 208.484 52.6644 208.357 52.64C208.289 52.6331 208.221 52.6411 208.157 52.6636C208.093 52.6861 208.035 52.7224 207.987 52.77L204.897 55.32L214.397 66.87C214.519 67.0154 214.689 67.1114 214.877 67.14C215.057 67.1685 215.241 67.1441 215.407 67.07L217.247 66.2L217.757 66.82L210.757 72.57L210.247 71.96Z" fill="#13776C"/>
<path d="M262.92 52.7804L263.77 53.4004C263.845 53.4581 263.936 53.4897 264.03 53.4904C264.126 53.4876 264.218 53.4523 264.29 53.3904L270.23 48.5004L268.94 46.9404C268.92 46.9105 268.893 46.8852 268.862 46.8663C268.831 46.8474 268.796 46.8351 268.76 46.8304C268.695 46.8115 268.626 46.8115 268.56 46.8304L267.02 47.3604L266.73 47.0104L268.68 45.4004L274.21 52.1104L272.21 53.7204L271.92 53.3604L272.74 51.9504C272.776 51.8962 272.8 51.8347 272.81 51.7704C272.814 51.7363 272.81 51.7018 272.8 51.6691C272.79 51.6365 272.773 51.6062 272.75 51.5804L271.48 50.0504L265.54 54.9404C265.502 54.9687 265.47 55.0046 265.445 55.0459C265.421 55.0872 265.406 55.1329 265.4 55.1804C265.374 55.2685 265.374 55.3622 265.4 55.4504L265.85 56.4004L265.53 56.6604L262.53 53.0704L262.92 52.7804Z" fill="#13776C"/>
<path d="M286 171.001L286.79 168.741C286.858 168.536 286.858 168.315 286.79 168.111C286.728 167.901 286.594 167.72 286.41 167.601L281.01 164.041L269.01 163.241C268.781 163.216 268.55 163.216 268.32 163.241C268.088 163.269 267.867 163.359 267.68 163.501L266.38 164.501L265.57 163.971L270.88 155.911L271.68 156.441L270.77 159.071L278.95 159.631L281.17 159.781L276.62 150.581L274.48 152.191L273.67 151.661L277.39 146.011L278.2 146.541L277.94 148.211C277.896 148.432 277.896 148.66 277.94 148.881C277.99 149.113 278.067 149.337 278.17 149.551L283.29 160.191L288.81 163.821C288.994 163.949 289.218 164.006 289.44 163.981C289.653 163.96 289.852 163.864 290 163.711L291.78 162.071L292.59 162.611L286.73 171.511L286 171.001Z" fill="#13776C"/>
<path d="M174.73 151.09C173.604 151.45 172.417 151.579 171.24 151.47C170.177 151.37 169.151 151.028 168.24 150.47C167.352 149.908 166.589 149.17 166 148.3C165.324 147.322 164.81 146.242 164.48 145.1C164.139 144 163.983 142.851 164.02 141.7C164.057 140.629 164.305 139.575 164.75 138.6C165.2 137.637 165.852 136.781 166.66 136.09C167.555 135.332 168.602 134.773 169.73 134.45C170.902 134.066 172.144 133.94 173.37 134.08C174.422 134.206 175.431 134.572 176.32 135.15C177.202 135.728 177.957 136.48 178.54 137.36C179.17 138.302 179.656 139.334 179.98 140.42C180.183 141.095 180.32 141.788 180.39 142.49C180.465 143.191 180.465 143.899 180.39 144.6C180.305 145.285 180.134 145.958 179.88 146.6C179.624 147.266 179.262 147.887 178.81 148.44C178.321 149.042 177.744 149.568 177.1 150C176.37 150.481 175.571 150.849 174.73 151.09ZM174.54 149.8C175.176 149.62 175.741 149.251 176.16 148.74C176.583 148.214 176.871 147.593 177 146.93C177.152 146.153 177.185 145.357 177.1 144.57C177.011 143.647 176.827 142.735 176.55 141.85C176.254 140.838 175.862 139.857 175.38 138.92C174.994 138.143 174.484 137.433 173.87 136.82C173.349 136.297 172.707 135.912 172 135.7C171.301 135.502 170.559 135.519 169.87 135.75C169.204 135.927 168.614 136.317 168.19 136.86C167.777 137.406 167.502 138.044 167.39 138.72C167.248 139.495 167.228 140.288 167.33 141.07C167.435 141.944 167.616 142.807 167.87 143.65C168.166 144.649 168.551 145.619 169.02 146.55C169.413 147.33 169.918 148.047 170.52 148.68C171.03 149.208 171.662 149.603 172.36 149.83C173.072 150.048 173.834 150.038 174.54 149.8Z" fill="#13776C"/>
<path d="M181.716 96.5191C180.591 96.8838 179.403 97.0131 178.226 96.8991C177.182 96.7863 176.174 96.4448 175.276 95.8991C174.372 95.337 173.592 94.595 172.986 93.7191C172.307 92.74 171.793 91.6554 171.466 90.5091C171.125 89.4093 170.969 88.2601 171.006 87.1091C171.045 86.0379 171.293 84.9848 171.736 84.0091C172.183 83.0437 172.835 82.1872 173.646 81.4991C174.54 80.7405 175.587 80.1844 176.716 79.8691C177.888 79.4824 179.13 79.3528 180.356 79.4891C181.407 79.6216 182.415 79.9871 183.306 80.5591C184.186 81.1404 184.941 81.8918 185.526 82.7691C186.153 83.7118 186.635 84.7433 186.956 85.8291C187.164 86.5031 187.301 87.1968 187.366 87.8991C187.441 88.6004 187.441 89.3077 187.366 90.0091C187.274 90.6931 187.103 91.3642 186.856 92.0091C186.6 92.6755 186.239 93.2967 185.786 93.8491C185.304 94.4414 184.734 94.9573 184.096 95.3791C183.366 95.879 182.564 96.2635 181.716 96.5191ZM181.526 95.2291C182.163 95.0572 182.73 94.69 183.146 94.1791C183.561 93.6488 183.845 93.0289 183.976 92.3691C184.137 91.5897 184.174 90.7899 184.086 89.9991C183.992 89.0767 183.808 88.1657 183.536 87.2791C183.239 86.268 182.847 85.287 182.366 84.3491C181.974 83.5758 181.464 82.8675 180.856 82.2491C180.344 81.7379 179.716 81.3572 179.026 81.1391C178.329 80.9246 177.584 80.9246 176.886 81.1391C176.223 81.3212 175.634 81.71 175.206 82.2491C174.802 82.803 174.532 83.4431 174.416 84.1191C174.275 84.8912 174.254 85.6807 174.356 86.4591C174.452 87.3346 174.633 88.1988 174.896 89.0391C175.187 90.0401 175.572 91.0112 176.046 91.9391C176.432 92.7229 176.938 93.4416 177.546 94.0691C178.053 94.597 178.681 94.9919 179.376 95.2191C180.075 95.4419 180.826 95.4454 181.526 95.2291Z" fill="#13776C"/>
<path d="M227.537 91.2365C226.836 90.7724 226.24 90.166 225.787 89.4565C225.388 88.8266 225.132 88.1165 225.037 87.3765C224.949 86.6234 225.021 85.8601 225.248 85.1365C225.496 84.3275 225.874 83.5642 226.368 82.8765C226.831 82.1986 227.406 81.6036 228.067 81.1165C228.681 80.6552 229.377 80.3157 230.118 80.1165C230.859 79.9612 231.626 79.9612 232.368 80.1165C233.183 80.2857 233.954 80.6266 234.627 81.1165C235.358 81.6058 235.978 82.2428 236.448 82.9865C236.834 83.6329 237.073 84.3569 237.148 85.1065C237.209 85.8531 237.121 86.6045 236.888 87.3165C236.638 88.0865 236.274 88.8146 235.808 89.4765C235.508 89.8849 235.173 90.2663 234.808 90.6165C234.448 90.9648 234.053 91.2733 233.627 91.5365C233.201 91.7942 232.744 91.9991 232.268 92.1465C231.782 92.2959 231.276 92.3668 230.768 92.3565C230.224 92.3481 229.684 92.257 229.168 92.0865C228.585 91.886 228.035 91.5995 227.537 91.2365ZM228.168 90.5665C228.55 90.8417 229.006 90.9951 229.478 91.0065C229.958 91.0116 230.432 90.8983 230.858 90.6765C231.359 90.4139 231.817 90.0768 232.218 89.6765C232.695 89.2182 233.124 88.7122 233.498 88.1665C233.933 87.5575 234.308 86.9078 234.618 86.2265C234.887 85.6697 235.059 85.0712 235.127 84.4565C235.192 83.9427 235.13 83.4209 234.948 82.9365C234.737 82.4565 234.389 82.0494 233.948 81.7665C233.552 81.4716 233.071 81.3136 232.578 81.3165C232.092 81.3306 231.616 81.4573 231.188 81.6865C230.693 81.9502 230.241 82.2874 229.847 82.6865C229.404 83.1247 229.002 83.6035 228.648 84.1165C228.215 84.7184 227.843 85.3615 227.537 86.0365C227.27 86.5987 227.091 87.1993 227.008 87.8165C226.931 88.3318 226.986 88.8581 227.168 89.3465C227.363 89.8543 227.713 90.288 228.168 90.5865V90.5665Z" fill="#13776C"/>
<path d="M188.846 137.529L190.126 135.879C190.271 135.711 190.355 135.5 190.366 135.279C190.38 135.064 190.316 134.851 190.186 134.679L180.296 121.029C180.173 120.845 179.989 120.711 179.776 120.649C179.569 120.579 179.344 120.579 179.136 120.649L177.136 121.369L176.566 120.589L184.176 115.079C185.057 114.439 186.002 113.893 186.996 113.449C187.871 113.051 188.808 112.811 189.766 112.739C190.667 112.656 191.574 112.816 192.393 113.203C193.211 113.59 193.91 114.19 194.416 114.939C195.029 115.764 195.471 116.702 195.716 117.699C195.932 118.597 195.959 119.53 195.796 120.439C195.635 121.335 195.295 122.188 194.796 122.949C194.262 123.762 193.585 124.47 192.796 125.039C192.58 125.187 192.349 125.311 192.106 125.409C191.833 125.529 191.552 125.633 191.266 125.719C190.974 125.808 190.677 125.881 190.376 125.939C190.076 125.989 189.796 126.029 189.536 126.049L193.846 131.999C193.972 132.188 194.166 132.32 194.386 132.369C194.598 132.409 194.816 132.388 195.016 132.309L197.186 131.459L197.756 132.239L189.426 138.239L188.846 137.529ZM190.846 124.149C191.218 123.888 191.526 123.547 191.746 123.149C191.94 122.818 192.063 122.45 192.106 122.069C192.156 121.701 192.156 121.328 192.106 120.959C192.042 120.602 191.948 120.251 191.826 119.909C191.717 119.599 191.576 119.301 191.406 119.019C191.256 118.749 191.116 118.539 191.006 118.369C190.637 117.863 190.215 117.397 189.746 116.979C189.323 116.587 188.822 116.287 188.276 116.099C187.74 115.915 187.165 115.87 186.606 115.969C185.928 116.102 185.291 116.393 184.746 116.819L183.496 117.729L188.916 125.219C189.068 125.171 189.215 125.111 189.356 125.039L189.866 124.769C190.036 124.669 190.216 124.569 190.386 124.449C190.556 124.329 190.716 124.259 190.866 124.149H190.846Z" fill="#13776C"/>
<path d="M178.131 15.04L179.691 15.12C179.918 15.1396 180.147 15.1075 180.36 15.0261C180.573 14.9447 180.765 14.8161 180.921 14.65L193.221 2.55L196.461 0L198.211 0.779999L197.261 21.95C197.252 22.1826 197.293 22.4145 197.381 22.63C197.463 22.8363 197.582 23.026 197.731 23.19L198.831 24.29L198.441 25.17L189.731 21.28L190.121 20.39L192.921 20.9L193.211 14.41L186.801 11.55L182.271 16.07L184.421 17.85L184.031 18.73L177.741 15.92L178.131 15.04ZM193.341 12.55L193.591 6.89999L193.731 4.61L188.191 10.24L193.341 12.55Z" fill="#13776C"/>
<path d="M134.66 125.411L134.92 124.671C134.955 124.564 134.968 124.451 134.958 124.339C134.948 124.227 134.914 124.119 134.86 124.021L130.72 116.481L129.93 114.591L130.55 113.851L140.55 117.171C140.662 117.196 140.778 117.196 140.89 117.171C140.998 117.156 141.103 117.122 141.2 117.071L141.88 116.691L142.25 117.001L139.25 120.651L138.88 120.341L139.5 119.071L136.43 118.071L134.19 120.761L135.74 123.541L136.88 122.751L137.25 123.061L135.05 125.701L134.66 125.411ZM135.52 117.801L132.85 116.911L131.77 116.541L133.72 119.961L135.52 117.801Z" fill="#13776C"/>
<path d="M258.44 166L258.63 165.43C258.667 165.35 258.686 165.263 258.686 165.175C258.686 165.087 258.667 165 258.63 164.92L255.43 159.1L254.82 157.64L255.3 157.07L263.04 159.64C263.126 159.656 263.214 159.656 263.3 159.64C263.384 159.634 263.466 159.61 263.54 159.57L264.07 159.28L264.35 159.51L262 162.36L261.72 162.13L262.19 161.13L259.82 160.35L258.09 162.42L259.29 164.57L260.18 163.96L260.46 164.2L258.76 166.2L258.44 166ZM259.1 160.12L257.03 159.44L256.2 159.15L257.71 161.79L259.1 160.12Z" fill="#13776C"/>
<path d="M246.241 145.48L248.331 145.29C248.546 145.276 248.752 145.196 248.921 145.06C249.093 144.928 249.208 144.735 249.241 144.52L252.481 128C252.534 127.783 252.502 127.554 252.391 127.36C252.282 127.176 252.122 127.027 251.931 126.93L250.071 125.98L250.251 125.03L260.081 126.96L259.901 127.9L257.831 128.08C257.611 128.1 257.403 128.184 257.231 128.32C257.054 128.454 256.936 128.651 256.901 128.87L255.531 135.87L264.341 137.6L265.701 130.6C265.754 130.383 265.722 130.154 265.611 129.96C265.502 129.773 265.342 129.621 265.151 129.52L263.291 128.58L263.471 127.58L273.301 129.5L273.111 130.45L271.031 130.62C270.813 130.634 270.606 130.718 270.441 130.86C270.271 130.999 270.158 131.194 270.121 131.41L266.881 148C266.827 148.214 266.859 148.44 266.971 148.63C267.08 148.815 267.239 148.964 267.431 149.06L269.291 150.06L269.111 151.01L259.281 149L259.461 148.05L261.551 147.86C261.765 147.841 261.97 147.762 262.141 147.63C262.313 147.498 262.428 147.305 262.461 147.09L264.001 139.25L255.191 137.53L253.661 145.36C253.61 145.579 253.646 145.808 253.761 146C253.879 146.18 254.041 146.328 254.231 146.43L256.071 147.43L255.891 148.38L246.061 146.45L246.241 145.48Z" fill="#13776C"/>
<path d="M115.581 54.98L118.181 55.47C118.447 55.5185 118.72 55.4908 118.971 55.39C119.221 55.2815 119.424 55.0861 119.541 54.84L129.131 35.9C129.269 35.6539 129.309 35.3642 129.241 35.09C129.174 34.8304 129.035 34.5947 128.841 34.41L126.901 32.62L127.451 31.54L138.701 37.23L138.151 38.3201L135.581 37.8201C135.311 37.775 135.034 37.8062 134.781 37.91C134.523 38.0146 134.313 38.2104 134.191 38.4601L130.191 46.4601L140.231 51.5L144.231 43.5C144.369 43.2539 144.409 42.9642 144.341 42.69C144.274 42.4304 144.135 42.1947 143.941 42.01L142.001 40.22L142.551 39.14L153.801 44.83L153.251 45.92L150.671 45.42C150.406 45.3563 150.128 45.3845 149.881 45.5C149.623 45.6086 149.413 45.8077 149.291 46.06L139.701 65C139.566 65.2438 139.53 65.5305 139.601 65.8C139.668 66.0568 139.807 66.2891 140.001 66.47L141.931 68.28L141.381 69.36L130.131 63.67L130.681 62.58L133.281 63.0701C133.547 63.1185 133.82 63.0908 134.071 62.9901C134.321 62.8815 134.524 62.6861 134.641 62.44L139.191 53.44L129.111 48.34L124.571 57.34C124.436 57.5838 124.4 57.8705 124.471 58.14C124.55 58.3993 124.694 58.6337 124.891 58.8201L126.801 60.62L126.251 61.7L115.001 56.01L115.581 54.98Z" fill="#13776C"/>
<path d="M209.7 146.11L209.94 145.05C209.97 144.942 209.97 144.828 209.94 144.72C209.895 144.618 209.817 144.534 209.72 144.48L202 140.27C201.9 140.212 201.783 140.191 201.67 140.21C201.561 140.237 201.461 140.292 201.38 140.37L200.62 141.14L200.18 140.9L202.68 136.34L203.12 136.58L202.88 137.64C202.85 137.745 202.85 137.855 202.88 137.96C202.922 138.069 202.999 138.161 203.1 138.22L207.03 140.37L205 134.2L204.08 134.92L203.64 134.68L205.5 131.29L205.94 131.54L205.8 132.75C205.785 132.903 205.785 133.057 205.8 133.21C205.816 133.384 205.853 133.555 205.91 133.72L207.16 137.86L213.66 136.97L213.94 136.92L214.21 136.85C214.293 136.821 214.374 136.785 214.45 136.74C214.524 136.705 214.591 136.658 214.65 136.6L215.28 135.97L215.72 136.21L213.25 140.73L212.81 140.49L213.11 139.26L207.73 139.97L208.04 140.9L210.84 142.43C210.942 142.491 211.064 142.509 211.18 142.48C211.286 142.453 211.382 142.398 211.46 142.32L212.21 141.57L212.65 141.81L210.16 146.36L209.7 146.11Z" fill="#13776C"/>
<path d="M231.811 124.79L232.811 123.79C232.989 123.609 233.141 123.404 233.261 123.18C233.373 122.976 233.463 122.762 233.531 122.54L236.061 114.78L228.761 109.24C228.594 109.112 228.413 109.005 228.221 108.92C228.041 108.838 227.848 108.79 227.651 108.78H226.281L226.001 108.01L233.881 105.18L234.161 105.96L232.161 107.28L236.291 110.47L237.711 111.62L239.711 104.77H237.451L237.171 104L242.731 102L243.011 102.77L242.071 103.71C241.9 103.888 241.755 104.09 241.641 104.31C241.522 104.52 241.425 104.741 241.351 104.97L238.951 112.5L246.421 118.17C246.58 118.292 246.755 118.393 246.941 118.47C247.118 118.559 247.313 118.61 247.511 118.62H248.881L249.161 119.39L241.281 122.22L241.001 121.44L243.001 120.12L238.681 116.79L237.281 115.63L235.191 122.72H237.391L237.671 123.5L232.111 125.5L231.811 124.79Z" fill="#13776C"/>
<path d="M233.05 163.151C231.686 164.007 230.168 164.588 228.58 164.861C227.134 165.104 225.651 165.022 224.24 164.621C222.772 164.195 221.409 163.466 220.24 162.481C218.898 161.351 217.762 159.998 216.88 158.481C216.267 157.479 215.774 156.408 215.41 155.291C215.079 154.263 214.877 153.198 214.81 152.121C214.75 151.115 214.824 150.107 215.03 149.121C215.438 147.162 216.387 145.357 217.77 143.911C218.488 143.135 219.309 142.463 220.21 141.911C220.76 141.583 221.328 141.286 221.91 141.021C222.56 140.721 223.23 140.441 223.91 140.181C224.59 139.921 225.25 139.681 225.91 139.481C226.452 139.308 227.003 139.164 227.56 139.051L230.56 144.051L229.56 144.651L226.9 142.731C226.751 142.624 226.58 142.549 226.4 142.511C226.238 142.483 226.075 142.466 225.91 142.461C225.11 142.486 224.315 142.6 223.54 142.801C222.753 143.026 222.002 143.362 221.31 143.801C220.551 144.247 219.924 144.885 219.49 145.651C219.055 146.453 218.821 147.348 218.81 148.261C218.802 149.37 218.981 150.472 219.34 151.521C219.785 152.857 220.386 154.136 221.13 155.331C221.873 156.594 222.77 157.759 223.8 158.801C224.635 159.654 225.631 160.334 226.73 160.801C227.714 161.205 228.784 161.353 229.84 161.231C230.992 161.078 232.097 160.679 233.08 160.061C233.728 159.681 234.318 159.209 234.83 158.661C235.247 158.206 235.613 157.706 235.92 157.171C236.188 156.7 236.409 156.204 236.58 155.691L237 154.311L237.64 153.921L238.64 155.531C238.428 156.191 238.171 156.836 237.87 157.461C237.529 158.199 237.128 158.908 236.67 159.581C236.194 160.294 235.655 160.963 235.06 161.581C234.463 162.192 233.787 162.72 233.05 163.151Z" fill="#13776C"/>
<path d="M171.271 103.57C171.617 104.366 171.801 105.222 171.811 106.09C171.827 106.88 171.663 107.663 171.331 108.38C170.979 109.12 170.478 109.781 169.861 110.32C169.149 110.936 168.338 111.426 167.461 111.77C166.877 112.014 166.266 112.189 165.641 112.29C165.065 112.379 164.481 112.399 163.901 112.35C163.354 112.295 162.816 112.171 162.301 111.98C161.802 111.791 161.331 111.535 160.901 111.22C160.47 110.895 160.083 110.515 159.751 110.09C159.413 109.639 159.131 109.149 158.911 108.63C158.801 108.35 158.691 108.02 158.581 107.63C158.471 107.24 158.381 106.88 158.301 106.49C158.221 106.1 158.141 105.74 158.091 105.38C158.041 105.02 158.011 104.72 158.001 104.47L160.901 103.28L161.131 103.85L159.891 105.13C159.82 105.201 159.766 105.286 159.731 105.38C159.7 105.461 159.677 105.545 159.661 105.63C159.611 106.062 159.611 106.498 159.661 106.93C159.706 107.363 159.814 107.788 159.981 108.19C160.158 108.631 160.447 109.017 160.821 109.31C161.21 109.609 161.667 109.808 162.151 109.89C162.74 109.995 163.342 109.995 163.931 109.89C165.456 109.614 166.902 109.01 168.171 108.12C168.689 107.744 169.131 107.272 169.471 106.73C169.767 106.236 169.932 105.675 169.951 105.1C169.969 104.475 169.85 103.854 169.601 103.28C169.446 102.922 169.244 102.586 169.001 102.28C168.793 102.019 168.559 101.781 168.301 101.57C168.071 101.389 167.823 101.231 167.561 101.1L166.861 100.76L166.711 100.39L167.651 100C167.994 100.172 168.328 100.362 168.651 100.57C169.005 100.817 169.339 101.091 169.651 101.39C169.991 101.697 170.306 102.031 170.591 102.39C170.872 102.75 171.1 103.147 171.271 103.57Z" fill="#13776C"/>
<path d="M162.598 129.113C162.684 129.249 162.79 129.371 162.914 129.474C163.044 129.586 163.2 129.664 163.367 129.703L164.575 129.974L164.67 130.675L157.678 131.601L157.583 130.9L159.489 130.148L154.488 121.235L153.655 119.677L151.003 131.067L152.989 131.468L153.084 132.169L148.03 132.833L147.934 132.132L148.962 131.485C149.109 131.403 149.238 131.29 149.338 131.155C149.435 131.024 149.509 130.878 149.558 130.723L152.563 118.627L153.526 115.856L155.077 115.654L162.598 129.113Z" fill="#13776C"/>
<path d="M192.4 42.5C192.311 42.4851 192.219 42.4851 192.13 42.5C192.035 42.5075 191.945 42.5422 191.87 42.6L191.33 43.01L191 42.79L193.2 39.5L193.52 39.72L193.14 40.8L198.72 41.98L199.72 42.21L195.86 36.91L194.96 37.6L194.63 37.38L196.22 35L196.55 35.21L196.44 35.89C196.415 35.9817 196.415 36.0784 196.44 36.17C196.455 36.2596 196.489 36.3449 196.54 36.42L200.54 42.17L201.35 43.6L200.86 44.33L192.4 42.5Z" fill="#13776C"/>
<path d="M199.146 119.86L201.246 119.79C201.465 119.795 201.679 119.728 201.856 119.6C202.03 119.475 202.152 119.289 202.196 119.08L206.436 102.74C206.513 102.533 206.513 102.306 206.436 102.1C206.345 101.899 206.191 101.734 205.996 101.63L204.186 100.57L204.436 99.6396L213.436 101.97C214.786 102.288 216.092 102.768 217.326 103.4C218.149 103.819 218.885 104.389 219.496 105.08C219.948 105.588 220.243 106.217 220.346 106.89C220.427 107.505 220.386 108.13 220.226 108.73C220.073 109.362 219.794 109.957 219.406 110.48C219.03 110.979 218.566 111.406 218.036 111.74C217.47 112.085 216.852 112.338 216.206 112.49C215.476 112.663 214.727 112.747 213.976 112.74C214.837 113.008 215.658 113.391 216.416 113.88C217.073 114.292 217.652 114.817 218.126 115.43C218.556 115.991 218.851 116.644 218.988 117.338C219.125 118.031 219.1 118.747 218.916 119.43C218.736 120.147 218.424 120.825 217.996 121.43C217.613 121.963 217.131 122.418 216.576 122.77C216.025 123.112 215.42 123.359 214.786 123.5C214.111 123.66 213.42 123.744 212.726 123.75C211.997 123.758 211.268 123.708 210.546 123.6C209.805 123.491 209.071 123.341 208.346 123.15L198.946 120.71L199.146 119.86ZM210.046 111.24C210.719 111.432 211.416 111.526 212.116 111.52C212.639 111.511 213.152 111.381 213.616 111.14C214.023 110.916 214.367 110.592 214.616 110.2C214.904 109.75 215.117 109.257 215.246 108.74C215.657 107.609 215.607 106.363 215.106 105.27C214.801 104.812 214.406 104.422 213.945 104.121C213.484 103.82 212.968 103.616 212.426 103.52L210.986 103.15L208.986 110.97L210.046 111.24ZM208.986 121.62C210.042 121.985 211.196 121.935 212.216 121.48C212.691 121.172 213.096 120.767 213.403 120.291C213.709 119.815 213.912 119.279 213.996 118.72C214.197 118.021 214.288 117.296 214.266 116.57C214.245 116.001 214.073 115.449 213.766 114.97C213.449 114.487 213.016 114.091 212.506 113.82C211.875 113.476 211.203 113.214 210.506 113.04L208.586 112.54L206.406 120.94L208.986 121.62Z" fill="#13776C"/>
<path d="M159.602 58.5804L161.692 58.5204C161.913 58.5234 162.13 58.4569 162.312 58.3304C162.483 58.1986 162.604 58.0112 162.652 57.8004L166.882 41.5004C166.952 41.2928 166.952 41.068 166.882 40.8604C166.784 40.6608 166.627 40.4965 166.432 40.3904L164.632 39.3404L164.872 38.4004L173.872 40.7404C175.221 41.0554 176.527 41.5322 177.762 42.1604C178.587 42.5794 179.326 43.1492 179.942 43.8404C180.387 44.3562 180.678 44.9869 180.782 45.6604C180.861 46.2719 180.823 46.8928 180.672 47.4904C180.512 48.1223 180.23 48.7167 179.842 49.2404C179.475 49.7448 179.013 50.1728 178.482 50.5004C177.917 50.8499 177.299 51.1033 176.652 51.2504C175.921 51.4235 175.173 51.5075 174.422 51.5004C175.279 51.779 176.098 52.1619 176.862 52.6404C177.515 53.0529 178.091 53.5776 178.562 54.1904C178.983 54.7513 179.28 55.3957 179.432 56.0804C179.573 56.7897 179.549 57.5218 179.362 58.2204C179.182 58.9402 178.866 59.6191 178.432 60.2204C178.052 60.7501 177.573 61.2017 177.022 61.5504C176.467 61.896 175.859 62.1461 175.222 62.2904C174.565 62.4387 173.895 62.5191 173.222 62.5304C172.489 62.5392 171.757 62.489 171.032 62.3804C170.295 62.2713 169.564 62.1245 168.842 61.9404L159.342 59.5004L159.602 58.5804ZM170.492 49.9604C171.168 50.153 171.869 50.2473 172.572 50.2404C173.09 50.233 173.6 50.1064 174.062 49.8704C174.477 49.6307 174.822 49.2858 175.062 48.8704C175.343 48.4151 175.552 47.9193 175.682 47.4004C176.088 46.2728 176.037 45.0315 175.542 43.9404C175.237 43.4816 174.842 43.0893 174.381 42.7868C173.921 42.4844 173.404 42.2781 172.862 42.1804L171.412 41.8104L169.412 49.6304L170.492 49.9604ZM169.442 60.3504C170.498 60.7122 171.653 60.6585 172.672 60.2004C173.142 59.8874 173.543 59.4808 173.849 59.0059C174.156 58.531 174.361 57.9981 174.452 57.4404C174.649 56.7416 174.737 56.0162 174.712 55.2904C174.688 54.7239 174.519 54.173 174.222 53.6904C173.895 53.212 173.46 52.8178 172.952 52.5404C172.321 52.1972 171.649 51.9351 170.952 51.7604L169.032 51.2604L166.852 59.6704L169.442 60.3504Z" fill="#13776C"/>
<path d="M229.602 135.5L230.602 135.89C230.707 135.919 230.817 135.919 230.922 135.89C231.026 135.873 231.122 135.82 231.192 135.74L236.612 129.34C236.688 129.259 236.731 129.152 236.732 129.04C236.734 128.933 236.703 128.828 236.642 128.74L236.052 127.87L236.372 127.5L239.462 130.13L237.172 136.28L236.542 137.87L243.732 133.75L246.802 136.35L246.482 136.72L245.532 136.29C245.433 136.239 245.321 136.221 245.212 136.24C245.106 136.266 245.011 136.325 244.942 136.41L239.492 142.84C239.418 142.919 239.375 143.022 239.372 143.13C239.369 143.239 239.405 143.345 239.472 143.43L240.052 144.31L239.732 144.68L235.912 141.43L236.222 141.06L237.222 141.49C237.318 141.535 237.426 141.553 237.532 141.54C237.639 141.517 237.737 141.461 237.812 141.38L243.022 135.22L241.712 136.02L236.142 139.21L234.342 140.06L233.702 139.53L236.612 131.71L237.192 130.25L231.992 136.38C231.921 136.46 231.882 136.563 231.882 136.67C231.893 136.778 231.924 136.883 231.972 136.98L232.522 137.89L232.212 138.26L229.342 135.83L229.602 135.5Z" fill="#13776C"/>
<path d="M390.25 224.2C390.25 224.2 380.67 212.81 368.39 198.28C353.46 203.57 336.57 195.6 314.39 189.59C288.69 182.59 258.97 168.19 221.23 194C265.45 146.62 323.08 163.21 344.78 170.52C329.23 152.29 315.68 136.64 315.68 137.46C225.68 135.53 201.96 207.46 201.96 207.46C177.42 169.07 142.32 152.37 122.29 147.07C92.47 139.17 74.11 137.43 74.11 137.43L53.24 163.71C70.92 162.31 106.59 162.3 139.64 179.51C98.7 173.1 72.29 208.23 23.93 200.63L7.29004 221.63H202V221.34L390.25 224.2Z" fill="white"/>
<mask id="mask0_545_14201" style="mask-type:luminance" maskUnits="userSpaceOnUse" x="7" y="137" width="384" height="88">
<path d="M390.25 224.2C390.25 224.2 380.67 212.81 368.39 198.28C353.46 203.57 336.57 195.6 314.39 189.59C288.69 182.59 258.97 168.19 221.23 194C265.45 146.62 323.08 163.21 344.78 170.52C329.23 152.29 315.68 136.64 315.68 137.46C225.68 135.53 201.96 207.46 201.96 207.46C177.42 169.07 142.32 152.37 122.29 147.07C92.47 139.17 74.11 137.43 74.11 137.43L53.24 163.71C70.92 162.31 106.59 162.3 139.64 179.51C98.7 173.1 72.29 208.23 23.93 200.63L7.29004 221.63H202V221.34L390.25 224.2Z" fill="white"/>
</mask>
<g mask="url(#mask0_545_14201)">
<path d="M110 191.07C128.06 187.74 153 189.35 174 213.2" stroke="#13776C" stroke-linecap="round" stroke-linejoin="round"/>
<path d="M221.271 207.49C221.271 207.49 250.351 180.11 293.001 194" stroke="#13776C" stroke-linecap="round" stroke-linejoin="round"/>
<path d="M243.15 203.28C243.15 203.28 257.5 193.7 285.06 199.01" stroke="#13776C" stroke-linecap="round" stroke-linejoin="round"/>
<path d="M293 209C293 209 339.4 224.92 377.46 209" stroke="#13776C" stroke-linecap="round" stroke-linejoin="round"/>
<path d="M16.8604 210C16.8604 210 62.5803 219.52 101.45 205" stroke="#13776C" stroke-linecap="round" stroke-linejoin="round"/>
<path d="M102.07 148.29C102.07 148.29 147.81 155.42 177.29 186.73" stroke="#13776C" stroke-linecap="round" stroke-linejoin="round"/>
<path d="M250 158.84C250 158.84 268 146.62 296.13 144.25" stroke="#13776C" stroke-linecap="round" stroke-linejoin="round"/>
</g>
<path d="M390.25 224.2C390.25 224.2 380.67 212.81 368.39 198.28C353.46 203.57 336.57 195.6 314.39 189.59C288.69 182.59 258.97 168.19 221.23 194C265.45 146.62 323.08 163.21 344.78 170.52C329.23 152.29 315.68 136.64 315.68 137.46C225.68 135.53 201.96 207.46 201.96 207.46C177.42 169.07 142.32 152.37 122.29 147.07C92.47 139.17 74.11 137.43 74.11 137.43L53.24 163.71C70.92 162.31 106.59 162.3 139.64 179.51C98.7 173.1 72.29 208.23 23.93 200.63L7.29004 221.63H202V221.34L390.25 224.2Z" stroke="#1A1919" stroke-linecap="round" stroke-linejoin="round"/>
<path d="M202 221.63H0.910156V226.77H202V221.63Z" fill="#1A1919"/>
<path d="M403.09 221.63H202V226.77H403.09V221.63Z" fill="#1A1919"/>
<path d="M202 207.49C196.889 207.493 191.987 209.525 188.374 213.141C184.76 216.756 182.73 221.659 182.73 226.77H221.27C221.27 221.659 219.241 216.756 215.627 213.141C212.013 209.525 207.112 207.493 202 207.49Z" fill="#1A1919"/>
<path d="M139.68 179.54C157.859 187.627 173.954 199.755 186.74 215" stroke="#1A1919" stroke-linecap="round" stroke-linejoin="round"/>
<path d="M221.27 194C221.27 194 212.94 201.92 209.41 209" stroke="#1A1919" stroke-linecap="round" stroke-linejoin="round"/>
</svg>
