<svg width="160" height="67" viewBox="0 0 160 67" fill="none" xmlns="http://www.w3.org/2000/svg">
<g clip-path="url(#clip0_245_10300)">
<path d="M23.7516 38.1015C23.7164 37.384 23.4157 36.7052 22.9081 36.1973C22.4005 35.6893 21.7223 35.3884 21.0053 35.3531C20.1168 35.3531 19.3898 35.9998 18.5821 36.7273C17.4109 37.7782 15.957 39.112 13.1703 39.112C9.09121 39.112 6.02182 36.1211 5.61795 31.9177C6.02182 27.7142 9.09121 24.7638 13.1703 24.7638C15.3512 24.7638 16.7243 25.6529 17.8147 26.3805C18.5821 26.9059 19.2687 27.3505 20.036 27.3505C20.7159 27.3548 21.3697 27.0892 21.8542 26.6119C22.3387 26.1346 22.6144 25.4845 22.6208 24.8042C22.6122 24.4582 22.5439 24.1164 22.4188 23.7937C22.5521 23.4878 22.6209 23.1575 22.6208 22.8237C22.6116 22.4511 22.5283 22.084 22.3757 21.744C22.2232 21.4039 22.0044 21.0977 21.7323 20.8433C19.7937 18.8224 16.6839 17.6099 13.1703 17.6099C11.4318 17.6069 9.71042 17.9523 8.10746 18.6256C6.50451 19.299 5.05246 20.2866 3.83691 21.5304C2.61196 22.7635 1.64245 24.2267 0.984032 25.8358C0.325618 27.445 -0.00873054 29.1684 0.000173262 30.9072C0.000173262 31.271 0.0405501 31.5943 0.0405501 31.9177C0.0405501 32.241 0.000173262 32.5643 0.000173262 32.9281C-0.0108196 36.4505 1.36802 39.8348 3.83691 42.3454C5.0546 43.5835 6.50793 44.5647 8.11101 45.2312C9.7141 45.8976 11.4344 46.2357 13.1703 46.2254C15.0676 46.2281 16.9427 45.8173 18.6653 45.0216C20.388 44.226 21.9169 43.0645 23.1458 41.6178C23.3427 41.4143 23.4976 41.1738 23.6016 40.9103C23.7055 40.6468 23.7565 40.3653 23.7516 40.082C23.7483 39.7311 23.6655 39.3856 23.5093 39.0715C23.6657 38.772 23.7487 38.4395 23.7516 38.1015ZM20.036 26.8251C19.3898 26.8251 18.8244 26.4613 18.0975 25.9763C16.9262 25.2084 15.5127 24.2788 13.1703 24.2788C11.3267 24.2692 9.53532 24.891 8.09366 26.041C8.29867 25.8227 8.52459 25.625 8.76814 25.4509C9.08042 25.2108 9.41919 25.0074 9.7778 24.8446C10.1171 24.6722 10.4679 24.5236 10.8278 24.4C11.1998 24.2867 11.5772 24.1923 11.9587 24.1171C11.4255 24.1998 10.8991 24.3214 10.3836 24.4808L10.0201 24.6021C9.63227 24.7527 9.25455 24.9282 8.88929 25.1275C8.64697 25.2892 8.44503 25.4509 8.20271 25.6125C8.07926 25.6699 7.96919 25.7525 7.87962 25.855C7.75846 25.8955 7.71806 25.9763 7.63729 26.0167C7.71806 25.9359 7.79885 25.8146 7.87962 25.7338C7.89033 25.7338 7.90059 25.7295 7.90817 25.7219C7.91574 25.7144 7.92 25.7041 7.92 25.6934C8.21581 25.3928 8.54048 25.122 8.88929 24.885C9.22877 24.6313 9.59432 24.4145 9.97974 24.2383C10.3707 24.0675 10.7762 23.9322 11.1913 23.8342C11.6139 23.7144 12.0465 23.6333 12.4837 23.5917C11.9533 23.6329 11.4268 23.714 10.9086 23.8342C10.7875 23.8746 10.6663 23.915 10.5048 23.9554C10.1149 24.0683 9.73632 24.2171 9.37394 24.4C9.13649 24.5196 8.90714 24.6546 8.68736 24.8042C8.52581 24.885 8.36426 25.0063 8.20271 25.0871L7.55653 25.6125C7.6527 25.4815 7.76086 25.3597 7.87962 25.2488L7.92 25.2084C8.23293 24.8823 8.58576 24.5972 8.97007 24.3596C9.36385 24.0786 9.78299 23.835 10.222 23.6321C10.6662 23.455 11.1259 23.3197 11.5952 23.2279C12.0395 23.1471 12.5241 23.1067 13.0087 23.0662C12.4793 23.0599 11.9508 23.1142 11.4336 23.2279C11.2958 23.2353 11.1598 23.2625 11.0298 23.3087C10.642 23.3931 10.2632 23.5149 9.89896 23.6725C9.64944 23.7633 9.40654 23.8713 9.172 23.9958L8.5662 24.3596L8.20271 24.6021C9.57666 23.4016 11.3466 22.7536 13.1703 22.7833C15.3512 22.7833 16.7243 23.6725 17.8147 24.4C18.5821 24.9254 19.2687 25.3296 20.036 25.3296C20.424 25.3313 20.8073 25.2449 21.1571 25.0769C21.5069 24.9089 21.814 24.6636 22.0553 24.3596C22.0871 24.5056 22.1007 24.6549 22.0957 24.8042C22.0958 25.073 22.0423 25.3391 21.9383 25.587C21.8343 25.8348 21.6819 26.0594 21.4901 26.2476C21.2983 26.4358 21.0709 26.5838 20.8212 26.683C20.5715 26.7821 20.3046 26.8304 20.036 26.8251ZM13.1703 17.8928C16.1589 17.8928 19.4302 18.782 21.5707 21.0049C22.0693 21.4807 22.3597 22.1345 22.3784 22.8237C22.3615 23.4327 22.1068 24.0108 21.6689 24.4339C21.231 24.8571 20.6447 25.0916 20.036 25.0871C18.2994 25.0871 16.9666 22.5408 13.1703 22.5408C8.40464 22.5408 5.33527 26.34 5.33527 30.9072C5.33527 35.4744 8.40464 39.3545 13.1703 39.3545C17.9359 39.3545 18.9456 35.5956 21.0053 35.5956C21.6572 35.6332 22.2725 35.9093 22.7342 36.3714C23.1959 36.8334 23.4717 37.4492 23.5093 38.1015C23.5008 38.607 23.315 39.0935 22.9842 39.4757C21.7758 40.8992 20.2717 42.0416 18.5767 42.8235C16.8817 43.6053 15.0366 44.0077 13.1703 44.0025C11.4603 43.9994 9.76796 43.6573 8.19083 42.9961C6.6137 42.3349 5.18305 41.3677 3.98148 40.1501C2.77991 38.9326 1.83121 37.489 1.19016 35.9026C0.549101 34.3161 0.228389 32.6184 0.246526 30.9072C0.235876 29.202 0.562308 27.5114 1.20702 25.9329C1.85173 24.3544 2.80198 22.9191 4.00313 21.7095C5.20427 20.4999 6.63257 19.54 8.20584 18.885C9.77911 18.23 11.4663 17.8928 13.1703 17.8928ZM22.7823 41.2945C21.6 42.691 20.1274 43.8124 18.4672 44.5803C16.8069 45.3482 14.9992 45.7442 13.1703 45.7404C9.92 45.7622 6.78923 44.5154 4.44271 42.2645C4.84658 42.6283 5.25044 42.9112 5.65431 43.2345C6.55081 43.818 7.51336 44.2929 8.52176 44.6491C7.54413 44.2575 6.62108 43.7413 5.77547 43.1133C4.9034 42.4892 4.12775 41.7402 3.47342 40.8903C3.39889 40.8425 3.34215 40.7715 3.31189 40.6882C3.97766 41.4428 4.7378 42.1085 5.57353 42.6687C6.39594 43.2451 7.29262 43.7074 8.23907 44.0429C7.31379 43.6639 6.44424 43.1608 5.65431 42.5474C4.86402 41.945 4.14578 41.2533 3.51382 40.4862C4.10912 41.0971 4.75941 41.6518 5.45642 42.1433C6.23393 42.6772 7.07512 43.1117 7.9604 43.4366C7.1046 43.0776 6.30268 42.6015 5.57758 42.022C4.89581 41.4692 4.26092 40.8608 3.6794 40.2032C3.72467 40.2523 3.77793 40.2933 3.83691 40.3245C5.04683 41.5757 6.49782 42.5682 8.10207 43.2421C9.70632 43.916 11.4305 44.2571 13.1703 44.245C15.0676 44.2476 16.9427 43.8369 18.6653 43.0412C20.388 42.2455 21.9169 41.084 23.1458 39.6374C23.1458 39.6321 23.1468 39.6268 23.1489 39.6219C23.1509 39.617 23.1539 39.6126 23.1576 39.6088C23.1614 39.6051 23.1658 39.6021 23.1707 39.6C23.1756 39.598 23.1809 39.597 23.1862 39.597C23.2196 39.7563 23.2332 39.9193 23.2266 40.082C23.2344 40.5274 23.076 40.9597 22.7823 41.2945Z" fill="#403825"/>
<path d="M48.2864 41.5773C48.274 40.8844 47.9934 40.2234 47.5038 39.7334C47.0142 39.2434 46.3537 38.9626 45.6613 38.9501H34.1107V35.838H40.088C40.4286 35.8423 40.7667 35.7784 41.0822 35.6499C41.3978 35.5215 41.6844 35.3311 41.9253 35.09C42.1662 34.849 42.3564 34.5621 42.4848 34.2463C42.6131 33.9305 42.677 33.5922 42.6727 33.2513C42.6816 32.9074 42.6268 32.5648 42.5112 32.2408C42.63 31.9177 42.6848 31.5745 42.6727 31.2304C42.6759 30.5396 42.4059 29.8756 41.9216 29.3834C41.4374 28.8912 40.7782 28.6107 40.088 28.6033H34.1107V25.7013H45.108C45.4529 25.7018 45.7945 25.6342 46.1132 25.5024C46.432 25.3706 46.7216 25.1771 46.9654 24.933C47.2093 24.6889 47.4027 24.3991 47.5344 24.0801C47.6661 23.7612 47.7337 23.4193 47.7332 23.0741C47.7285 22.7409 47.66 22.4115 47.5312 22.1041C47.6598 21.7825 47.7282 21.44 47.7332 21.0937C47.7195 20.405 47.4372 19.7489 46.9467 19.2656C46.4562 18.7822 45.7964 18.51 45.108 18.507H31.3765C31.0129 18.5032 30.6522 18.5715 30.3151 18.7078C29.9779 18.8441 29.671 19.0457 29.412 19.3012C29.1531 19.5566 28.9471 19.8607 28.806 20.1961C28.6649 20.5315 28.5914 20.8915 28.5898 21.2554V43.3637C28.5909 44.103 28.8849 44.8117 29.4072 45.3345C29.9296 45.8573 30.6378 46.1514 31.3765 46.1525H45.6734C46.3637 46.1558 47.0272 45.8855 47.519 45.4009C48.0109 44.9162 48.2911 44.2565 48.2986 43.5658C48.2936 43.2194 48.2252 42.877 48.0966 42.5554C48.2269 42.246 48.2915 41.9129 48.2864 41.5773ZM40.088 35.353H35.2819L34.3934 35.2721L38.3109 35.0296L34.3127 34.7871L37.9071 34.585L34.2319 34.3425L37.5032 34.1L34.1511 33.8575H40.088C40.4861 33.8607 40.8795 33.771 41.237 33.5956C41.5945 33.4202 41.9063 33.164 42.1477 32.8471C42.1831 32.9787 42.1968 33.1152 42.1881 33.2513C42.1902 33.5279 42.1373 33.8021 42.0326 34.0581C41.9278 34.3141 41.7732 34.5466 41.5778 34.7422C41.3823 34.9378 41.1499 35.0925 40.8942 35.1974C40.6384 35.3022 40.3643 35.3551 40.088 35.353ZM45.0959 25.2082H34.5953L40.3707 24.9657L34.4742 24.7232L39.7649 24.4807L34.3934 24.2382L39.1994 23.9957L34.2723 23.7532L35.4031 23.7127H45.0959C45.4986 23.7175 45.8964 23.6243 46.2551 23.4413C46.6139 23.2583 46.9229 22.9908 47.1556 22.6619C47.189 22.7939 47.2026 22.9301 47.196 23.0661C47.2014 23.6268 46.9848 24.1668 46.5936 24.5682C46.2023 24.9696 45.6682 25.1997 45.108 25.2082H45.0959ZM45.6613 45.6594H31.3765C30.9959 45.6521 30.6223 45.5552 30.2861 45.3765C30.3265 45.3765 30.4073 45.4169 30.4476 45.4169C30.5688 45.4573 30.7304 45.4977 30.8515 45.5382H31.6592C31.9291 45.5459 32.1992 45.5324 32.467 45.4977H32.6285C33.0324 45.4977 33.6786 45.4573 34.042 45.4169C33.6786 45.3765 32.992 45.3765 32.6285 45.3361C32.3855 45.3428 32.1423 45.3293 31.9016 45.2957C31.671 45.2864 31.4414 45.2593 31.215 45.2148H31.1746C30.7694 45.1522 30.3832 45.0003 30.0438 44.7702C30.0842 44.7702 30.1245 44.8106 30.1649 44.8106C30.2053 44.8106 30.2861 44.8915 30.3669 44.8915C30.4476 44.8915 30.6496 44.9723 30.7707 45.0127C30.8933 45.0062 31.0161 45.0198 31.1342 45.0532H31.5381C31.7924 45.0195 32.049 45.006 32.3054 45.0127H32.467C32.7093 44.9723 33.517 44.9319 33.7594 44.9319C33.517 44.8915 32.6285 44.8511 32.3862 44.8511C32.1566 44.8578 31.9269 44.8442 31.6996 44.8106C31.4822 44.8037 31.2659 44.7766 31.0534 44.7298C31.0131 44.7298 31.0131 44.6894 30.9727 44.6894C30.602 44.6115 30.2556 44.4451 29.963 44.2044C30.0034 44.2448 30.0438 44.2448 30.0842 44.2852C30.1245 44.3256 30.2053 44.3256 30.2861 44.3661C30.3669 44.4065 30.5688 44.4469 30.69 44.4873C30.8111 44.5277 30.9323 44.5277 31.013 44.5277H31.4169C31.4977 44.5277 32.0227 44.4873 32.1035 44.4873H32.265C32.3862 44.4873 33.3555 44.4469 33.4766 44.4065L32.1439 44.3661C31.942 44.3661 31.6996 44.3256 31.4977 44.3256C31.2767 44.3246 31.0578 44.2835 30.8515 44.2044H30.8111C30.4984 44.1223 30.2085 43.9703 29.963 43.7598C30.3889 44.0202 30.8775 44.1599 31.3765 44.164H45.6734C46.0716 44.1671 46.465 44.0774 46.8225 43.9021C47.18 43.7267 47.4918 43.4704 47.7332 43.1535C47.7829 43.2827 47.8102 43.4194 47.8139 43.5577C47.8113 43.8374 47.7534 44.1138 47.6437 44.371C47.5339 44.6283 47.3744 44.8613 47.1744 45.0566C46.9743 45.2519 46.7376 45.4057 46.478 45.5092C46.2183 45.6126 45.9408 45.6637 45.6613 45.6594ZM45.6613 43.9215H31.3765C31.0451 43.9188 30.7173 43.8509 30.4121 43.7215C30.1069 43.5921 29.8301 43.4038 29.5976 43.1673C29.365 42.9309 29.1814 42.6509 29.057 42.3434C28.9326 42.0359 28.8699 41.7069 28.8726 41.3752V21.2554C28.871 20.9258 28.9346 20.5993 29.0599 20.2945C29.1852 19.9898 29.3695 19.7129 29.6024 19.4799C29.8352 19.2468 30.1119 19.0623 30.4164 18.937C30.7209 18.8116 31.0473 18.7479 31.3765 18.7495H45.108C45.7334 18.7483 46.334 18.9937 46.7799 19.4324C47.2259 19.8711 47.4813 20.4679 47.4908 21.0937C47.4898 21.7258 47.2384 22.3317 46.7917 22.7787C46.3451 23.2257 45.7396 23.4773 45.108 23.4783H33.8805V28.8943H40.1001C40.7213 28.8943 41.3171 29.1412 41.7564 29.5809C42.1957 30.0205 42.4425 30.6167 42.4425 31.2385C42.4457 31.5472 42.3874 31.8535 42.2708 32.1394C42.1542 32.4253 41.9818 32.685 41.7636 32.9033C41.5455 33.1216 41.286 33.2942 41.0003 33.4109C40.7146 33.5275 40.4086 33.5859 40.1001 33.5827H33.8805V39.2007H45.6734C46.3021 39.2111 46.9022 39.4657 47.3468 39.9107C47.7915 40.3556 48.0458 40.9561 48.0562 41.5853C48.0536 41.8965 47.9894 42.2041 47.8674 42.4903C47.7454 42.7765 47.5679 43.0357 47.3452 43.2529C47.1226 43.4701 46.8591 43.641 46.5701 43.7557C46.2811 43.8705 45.9722 43.9268 45.6613 43.9215Z" fill="#403825"/>
<path d="M74.235 38.1015C74.1998 37.384 73.8991 36.7052 73.3915 36.1973C72.8839 35.6893 72.2057 35.3884 71.4887 35.3531C70.6002 35.3531 69.8732 35.9998 69.0655 36.7273C67.8943 37.7782 66.4404 39.112 63.6537 39.112C59.5746 39.112 56.5052 36.1211 56.1014 31.9177C56.5052 27.7142 59.5746 24.7638 63.6537 24.7638C65.8346 24.7638 67.2077 25.6529 68.2982 26.3805C69.0655 26.9059 69.7521 27.3505 70.5194 27.3505C71.1993 27.3548 71.8531 27.0892 72.3376 26.6119C72.8221 26.1346 73.0978 25.4845 73.1042 24.8042C73.0956 24.4582 73.0273 24.1164 72.9022 23.7937C73.0355 23.4878 73.1043 23.1575 73.1042 22.8237C73.095 22.4511 73.0117 22.084 72.8591 21.744C72.7066 21.4039 72.4878 21.0977 72.2157 20.8433C70.2771 18.8224 67.1673 17.6099 63.6537 17.6099C61.9153 17.6069 60.1938 17.9523 58.5909 18.6256C56.9879 19.299 55.5359 20.2866 54.3203 21.5304C53.0954 22.7635 52.1258 24.2267 51.4674 25.8358C50.809 27.445 50.4747 29.1684 50.4836 30.9072C50.4836 31.271 50.524 31.5943 50.524 31.9177C50.524 32.241 50.4836 32.5643 50.4836 32.9281C50.4726 36.4505 51.8514 39.8348 54.3203 42.3454C55.538 43.5835 56.9913 44.5647 58.5944 45.2312C60.1975 45.8976 61.9178 46.2357 63.6537 46.2254C65.551 46.2281 67.4261 45.8173 69.1487 45.0216C70.8714 44.226 72.4003 43.0645 73.6292 41.6178C73.8261 41.4143 73.981 41.1738 74.085 40.9103C74.1889 40.6468 74.2399 40.3653 74.235 40.082C74.2317 39.7311 74.1489 39.3856 73.9927 39.0715C74.1491 38.772 74.2321 38.4395 74.235 38.1015ZM70.5194 26.8251C69.8732 26.8251 69.3078 26.4613 68.5809 25.9763C67.4096 25.2084 65.9961 24.2788 63.6537 24.2788C61.8101 24.2692 60.0187 24.891 58.5771 26.041C58.7821 25.8227 59.008 25.625 59.2515 25.4509C59.5638 25.2108 59.9026 25.0074 60.2612 24.8446C60.6005 24.6722 60.9513 24.5236 61.3112 24.4C61.6832 24.2867 62.0606 24.1923 62.4421 24.1171C61.9089 24.1998 61.3825 24.3214 60.867 24.4808L60.5035 24.6021C60.1157 24.7527 59.7379 24.9282 59.3727 25.1275C59.1304 25.2892 58.9284 25.4509 58.6861 25.6125C58.5627 25.6699 58.4526 25.7525 58.363 25.855C58.2419 25.8955 58.2015 25.9763 58.1207 26.0167C58.2015 25.9359 58.2822 25.8146 58.363 25.7338C58.3737 25.7338 58.384 25.7295 58.3916 25.7219C58.3992 25.7144 58.4034 25.7041 58.4034 25.6934C58.6992 25.3928 59.0239 25.122 59.3727 24.885C59.7122 24.6313 60.0777 24.4145 60.4631 24.2383C60.8541 24.0675 61.2596 23.9322 61.6747 23.8342C62.0973 23.7144 62.5299 23.6333 62.9671 23.5917C62.4367 23.6329 61.9102 23.714 61.392 23.8342C61.2709 23.8746 61.1497 23.915 60.9882 23.9554C60.5983 24.0683 60.2197 24.2171 59.8573 24.4C59.6199 24.5196 59.3905 24.6546 59.1708 24.8042C59.0092 24.885 58.8477 25.0063 58.6861 25.0871L58.0399 25.6125C58.1361 25.4815 58.2443 25.3597 58.363 25.2488L58.4034 25.2084C58.7163 24.8823 59.0691 24.5972 59.4535 24.3596C59.8472 24.0786 60.2664 23.835 60.7054 23.6321C61.1496 23.455 61.6093 23.3197 62.0786 23.2279C62.5228 23.1471 63.0075 23.1067 63.4921 23.0662C62.9627 23.0599 62.4342 23.1142 61.917 23.2279C61.7792 23.2353 61.6432 23.2625 61.5132 23.3087C61.1254 23.3931 60.7466 23.5149 60.3824 23.6725C60.1328 23.7633 59.8899 23.8713 59.6554 23.9958L59.0496 24.3596L58.6861 24.6021C60.0601 23.4016 61.83 22.7536 63.6537 22.7833C65.8346 22.7833 67.2077 23.6725 68.2982 24.4C69.0655 24.9254 69.7521 25.3296 70.5194 25.3296C70.9074 25.3313 71.2907 25.2449 71.6405 25.0769C71.9903 24.9089 72.2974 24.6636 72.5388 24.3596C72.5705 24.5056 72.584 24.6549 72.5791 24.8042C72.5792 25.073 72.5257 25.3391 72.4217 25.587C72.3177 25.8348 72.1653 26.0594 71.9735 26.2476C71.7817 26.4358 71.5543 26.5838 71.3046 26.683C71.0549 26.7821 70.788 26.8304 70.5194 26.8251ZM63.6537 17.8928C66.6423 17.8928 69.9136 18.782 72.0541 21.0049C72.5528 21.4807 72.8431 22.1345 72.8618 22.8237C72.845 23.4327 72.5902 24.0108 72.1523 24.4339C71.7144 24.8571 71.1281 25.0916 70.5194 25.0871C68.7828 25.0871 67.45 22.5408 63.6537 22.5408C58.8881 22.5408 55.8187 26.34 55.8187 30.9072C55.8187 35.4744 58.8881 39.3545 63.6537 39.3545C68.4193 39.3545 69.429 35.5956 71.4887 35.5956C72.1406 35.6332 72.7559 35.9093 73.2175 36.3714C73.6792 36.8334 73.9551 37.4492 73.9927 38.1015C73.9842 38.607 73.7984 39.0935 73.4676 39.4757C72.2592 40.8992 70.7551 42.0416 69.0601 42.8235C67.3651 43.6053 65.52 44.0077 63.6537 44.0025C61.9438 43.9994 60.2514 43.6573 58.6742 42.9961C57.0971 42.3349 55.6665 41.3677 54.4649 40.1501C53.2633 38.9326 52.3146 37.489 51.6736 35.9026C51.0325 34.3161 50.7118 32.6184 50.7299 30.9072C50.7193 29.202 51.0457 27.5114 51.6904 25.9329C52.3351 24.3544 53.2854 22.9191 54.4865 21.7095C55.6877 20.4999 57.116 19.54 58.6892 18.885C60.2625 18.23 61.9497 17.8928 63.6537 17.8928ZM73.2657 41.2945C72.0834 42.691 70.6108 43.8124 68.9506 44.5803C67.2904 45.3482 65.4826 45.7442 63.6537 45.7404C60.4034 45.7622 57.2726 44.5154 54.9261 42.2645C55.33 42.6283 55.7338 42.9112 56.1377 43.2345C57.0342 43.818 57.9968 44.2929 59.0052 44.6491C58.0275 44.2575 57.1045 43.7413 56.2589 43.1133C55.3868 42.4892 54.6112 41.7402 53.9568 40.8903C53.8823 40.8425 53.8255 40.7715 53.7953 40.6882C54.4611 41.4428 55.2212 42.1085 56.0569 42.6687C56.8793 43.2451 57.776 43.7074 58.7225 44.0429C57.7972 43.6639 56.9276 43.1608 56.1377 42.5474C55.3474 41.945 54.6292 41.2533 53.9972 40.4862C54.5925 41.0971 55.2428 41.6518 55.9398 42.1433C56.7173 42.6772 57.5585 43.1117 58.4438 43.4366C57.588 43.0776 56.7861 42.6015 56.061 42.022C55.3792 41.4692 54.7443 40.8608 54.1628 40.2032C54.2081 40.2523 54.2613 40.2933 54.3203 40.3245C55.5302 41.5757 56.9812 42.5682 58.5855 43.2421C60.1897 43.916 61.9139 44.2571 63.6537 44.245C65.551 44.2476 67.4261 43.8369 69.1487 43.0412C70.8714 42.2455 72.4003 41.084 73.6292 39.6374C73.6292 39.6321 73.6302 39.6268 73.6323 39.6219C73.6343 39.617 73.6373 39.6126 73.641 39.6088C73.6448 39.6051 73.6492 39.6021 73.6541 39.6C73.659 39.598 73.6643 39.597 73.6696 39.597C73.703 39.7563 73.7166 39.9193 73.71 40.082C73.7178 40.5274 73.5594 40.9597 73.2657 41.2945Z" fill="#403825"/>
<path d="M101.051 21.1263C101.046 20.4312 100.768 19.766 100.277 19.2745C99.7856 18.7829 99.1209 18.5044 98.4263 18.4991H79.5253C79.1816 18.4958 78.8406 18.5617 78.5228 18.6931C78.2051 18.8244 77.917 19.0185 77.6757 19.2637C77.4345 19.5088 77.2451 19.8001 77.1188 20.1201C76.9925 20.4401 76.9319 20.7823 76.9406 21.1263C76.9295 21.4611 76.9988 21.7937 77.1425 22.0963C77.1021 22.1367 77.1021 22.1771 77.0618 22.2176C76.9792 22.5067 76.9384 22.8061 76.9406 23.1067C76.9448 23.7915 77.2185 24.447 77.7023 24.9311C78.1862 25.4153 78.8411 25.6892 79.5253 25.6935H86.2295V43.6792C86.2258 44.0431 86.294 44.4041 86.4302 44.7415C86.5664 45.0789 86.7679 45.386 87.0231 45.6452C87.2784 45.9044 87.5823 46.1105 87.9174 46.2517C88.2525 46.3929 88.6122 46.4664 88.9758 46.468C89.7146 46.467 90.4228 46.1728 90.9451 45.65C91.4675 45.1272 91.7614 44.4185 91.7625 43.6792V25.7015H98.4182C99.1066 25.6985 99.7665 25.4263 100.257 24.943C100.747 24.4596 101.03 23.8036 101.043 23.1148C101.038 22.7685 100.97 22.426 100.841 22.1044C100.974 21.795 101.045 21.4628 101.051 21.1263ZM86.2295 25.2084H79.5253C79.1999 25.2095 78.8799 25.1259 78.5965 24.9659C78.5561 24.9659 78.5561 24.9659 78.5157 24.9255C78.7584 25.0352 79.0178 25.1035 79.283 25.1276C79.4992 25.1356 79.7157 25.1221 79.9292 25.0872C79.9696 25.0872 80.535 25.0468 80.6158 25.0468C80.6966 25.0468 81.8274 24.9659 81.9082 24.9659C81.8274 24.9659 80.6966 24.8851 80.6158 24.8851C80.3487 24.8401 80.0788 24.8131 79.8081 24.8043C79.7273 24.7639 79.4042 24.7234 79.3234 24.6426C79.283 24.6426 79.2023 24.6022 79.1619 24.6022H79.8081C79.8888 24.6022 80.3331 24.5618 80.4139 24.5618C80.6158 24.5618 81.5043 24.4809 81.6658 24.4809C81.5043 24.4809 80.6158 24.4001 80.4139 24.4001C80.1269 24.3995 79.8414 24.3587 79.5657 24.2788C79.3494 24.2401 79.1433 24.1576 78.9599 24.0363C78.9759 24.0516 78.995 24.0632 79.016 24.0701C79.0369 24.0771 79.0592 24.0794 79.0811 24.0768H80.2523C80.535 24.0363 81.1812 23.9959 81.4235 23.9555C81.1812 23.9555 80.535 23.9151 80.2523 23.9151C79.9256 23.9122 79.6004 23.8715 79.283 23.7938C79.1017 23.7443 78.9258 23.6766 78.758 23.5917C79.0053 23.6745 79.2646 23.7154 79.5253 23.713H86.2295V25.2084ZM91.2375 43.6792C91.238 43.9766 91.1799 44.2712 91.0664 44.546C90.9529 44.8209 90.7864 45.0706 90.5762 45.2809C90.3661 45.4911 90.1166 45.6578 89.842 45.7714C89.5673 45.8849 89.273 45.9431 88.9758 45.9426C88.4437 45.9488 87.9273 45.7621 87.5219 45.4172C87.7259 45.5356 87.9427 45.6305 88.1681 45.7001C88.4202 45.7538 88.6791 45.7674 88.9354 45.7405C88.6883 45.692 88.4452 45.6244 88.2085 45.5384C87.9974 45.4179 87.795 45.2828 87.6027 45.1342C87.488 45.0463 87.3919 44.9364 87.32 44.8109C87.3816 44.8602 87.4495 44.9009 87.5219 44.9322C87.7339 45.0546 87.9667 45.1368 88.2085 45.1747C88.4447 45.2413 88.6903 45.2686 88.9354 45.2555C88.7001 45.2124 88.47 45.1447 88.2489 45.0534C88.046 44.9561 87.8561 44.8339 87.6835 44.6897C87.5428 44.5896 87.42 44.4666 87.32 44.3259C87.4007 44.3663 87.4815 44.4471 87.5623 44.4876C87.7853 44.5734 88.0149 44.641 88.2489 44.6897C88.4718 44.7541 88.7037 44.7814 88.9354 44.7705C88.7147 44.7217 88.4985 44.6541 88.2893 44.5684C88.0879 44.485 87.8979 44.3763 87.7238 44.2451C87.5985 44.1731 87.4886 44.0769 87.4008 43.9621C87.8595 44.2901 88.4122 44.4603 88.9758 44.4472C89.42 44.4529 89.8588 44.349 90.2533 44.1445C90.6478 43.9401 90.9858 43.6414 91.2375 43.275V43.6792ZM98.4263 25.2084H93.0549L92.0452 25.1276L96.0435 24.9255L91.9241 24.683L95.6396 24.4405L91.8433 24.198L95.2358 23.9555L91.7625 23.713H98.4182C98.8156 23.7119 99.2076 23.6203 99.5644 23.4453C99.9213 23.2702 100.234 23.0162 100.478 22.7026C100.513 22.8342 100.527 22.9707 100.518 23.1067C100.521 23.3833 100.468 23.6576 100.363 23.9136C100.258 24.1695 100.103 24.4021 99.908 24.5977C99.7126 24.7933 99.4802 24.948 99.2245 25.0528C98.9687 25.1577 98.6946 25.2106 98.4182 25.2084H98.4263ZM98.4263 23.4705H91.4798V41.6988C91.4766 42.3624 91.2118 42.9979 90.7429 43.4672C90.274 43.9364 89.6389 44.2015 88.9758 44.2046C88.6466 44.2063 88.3202 44.1425 88.0157 44.0172C87.7112 43.8918 87.4345 43.7073 87.2017 43.4743C86.9688 43.2413 86.7845 42.9644 86.6592 42.6596C86.5339 42.3549 86.4703 42.0283 86.4719 41.6988V23.4705H79.5253C78.9041 23.4705 78.3083 23.2235 77.869 22.7839C77.4297 22.3443 77.1829 21.748 77.1829 21.1263C77.1753 20.8145 77.2304 20.5043 77.345 20.2142C77.4595 19.9241 77.6311 19.66 77.8496 19.4376C78.0681 19.2152 78.329 19.0389 78.6169 18.9194C78.9047 18.7998 79.2137 18.7394 79.5253 18.7417H98.4182C99.047 18.7521 99.647 19.0066 100.092 19.4516C100.536 19.8966 100.791 20.4971 100.801 21.1263C100.792 21.752 100.536 22.3488 100.09 22.7876C99.6442 23.2263 99.0436 23.4716 98.4182 23.4705H98.4263Z" fill="#403825"/>
<path d="M126.636 26.5826C126.636 22.6621 124.132 18.4991 117.146 18.4991H107.772C107.41 18.4959 107.052 18.5648 106.717 18.7017C106.382 18.8387 106.078 19.0411 105.823 19.2969C105.567 19.5528 105.365 19.857 105.228 20.1919C105.091 20.5269 105.022 20.8857 105.025 21.2475V43.7196C105.03 43.9374 105.057 44.1541 105.106 44.3663V44.4067C105.122 44.478 105.15 44.5462 105.187 44.6088C105.366 45.1523 105.713 45.625 106.177 45.959C106.642 46.293 107.2 46.4712 107.772 46.468C108.504 46.4691 109.208 46.1812 109.729 45.6667C110.251 45.1522 110.549 44.4526 110.558 43.7196V36.6142H117.146C124.132 36.6142 126.636 32.4917 126.636 28.6116C126.631 28.2734 126.604 27.9359 126.556 27.6011C126.605 27.2638 126.632 26.9235 126.636 26.5826ZM110.078 43.7196C110.076 44.0182 110.014 44.3133 109.897 44.5877C109.779 44.862 109.608 45.1101 109.393 45.3172C109.178 45.5243 108.924 45.6863 108.645 45.7937C108.367 45.9011 108.07 45.9517 107.772 45.9426C107.183 45.9438 106.618 45.7113 106.201 45.2959C106.417 45.4514 106.663 45.5614 106.924 45.6192C107.177 45.6739 107.437 45.6876 107.695 45.6597C107.444 45.6218 107.199 45.554 106.964 45.4576C106.747 45.3466 106.544 45.211 106.358 45.0534C106.244 44.9654 106.147 44.8555 106.076 44.7301C106.116 44.7705 106.201 44.8109 106.237 44.8513C106.472 44.963 106.715 45.0576 106.964 45.1342C107.206 45.1678 107.451 45.1813 107.695 45.1746C107.46 45.1321 107.229 45.0644 107.008 44.9726C106.798 44.8663 106.595 44.7448 106.403 44.6088L106.035 44.2451C106.134 44.2901 106.229 44.3442 106.318 44.4067C106.542 44.4931 106.773 44.5607 107.008 44.6088C107.231 44.6734 107.463 44.7008 107.695 44.6896C107.473 44.6408 107.255 44.5732 107.045 44.4875C106.843 44.4041 106.653 44.2955 106.479 44.1642C106.439 44.1238 106.403 44.1238 106.358 44.0834C106.788 44.3308 107.276 44.4565 107.772 44.4471C108.218 44.4512 108.658 44.351 109.059 44.1546C109.459 43.9581 109.808 43.6708 110.078 43.3154V43.7196ZM117.146 36.1211H111.491L110.926 36.0807L114.924 35.8786L110.845 35.6361L114.52 35.3936L110.724 35.1511L114.117 34.9086L110.643 34.6661L111.047 34.6257H117.146C122.275 34.6257 124.981 32.4027 126.071 29.6543C125.586 33.7365 122.315 36.1211 117.146 36.1211ZM117.146 34.3832H110.32V41.7392C110.317 42.0687 110.248 42.3943 110.117 42.697C109.987 42.9998 109.798 43.2737 109.562 43.503C109.325 43.7323 109.046 43.9123 108.739 44.0327C108.432 44.1532 108.105 44.2116 107.776 44.2046C107.449 44.2078 107.125 44.1466 106.823 44.0243C106.52 43.9021 106.244 43.7213 106.011 43.4923C105.778 43.2634 105.593 42.9906 105.465 42.6898C105.337 42.389 105.27 42.0659 105.268 41.7392V21.2556C105.267 20.9259 105.331 20.5992 105.457 20.2944C105.582 19.9897 105.767 19.7128 106 19.4799C106.233 19.2469 106.51 19.0624 106.815 18.9371C107.12 18.8118 107.446 18.7481 107.776 18.7497H117.146C123.688 18.7497 126.354 22.5086 126.354 26.5907C126.354 30.6729 123.688 34.3832 117.146 34.3832Z" fill="#403825"/>
<path d="M110.32 23.3491V29.7432H117.873C120.336 29.7432 121.306 28.1265 121.306 26.5906C121.306 25.0547 120.336 23.3572 117.873 23.3572L110.32 23.3491ZM117.873 29.4926H110.559V25.5721H117.873C119.569 25.5721 120.538 26.5017 120.902 27.593C120.579 28.6034 119.65 29.4926 117.873 29.4926ZM121.063 26.5825V26.7442C120.498 25.7742 119.448 25.0871 117.873 25.0871H110.938L114.937 24.8446L110.857 24.6021L114.533 24.3596L110.736 24.1171L114.129 23.8746L110.656 23.632L111.221 23.5916H117.885C120.094 23.5916 121.063 25.0871 121.063 26.5825Z" fill="#403825"/>
<path d="M142.262 27.9365H135.675V20.8513C135.674 20.4898 135.6 20.1322 135.459 19.7995C135.317 19.4669 135.111 19.1658 134.852 18.9139C134.593 18.6621 134.286 18.4646 133.949 18.3329C133.613 18.2013 133.254 18.1382 132.892 18.1474C132.17 18.142 131.475 18.4237 130.96 18.9307C130.445 19.4377 130.153 20.1284 130.146 20.8513V41.3146C130.142 41.6766 130.211 42.0357 130.347 42.3709C130.484 42.706 130.686 43.0105 130.942 43.2665C131.198 43.5224 131.502 43.7247 131.837 43.8615C132.172 43.9983 132.531 44.0668 132.892 44.063H142.262C149.229 44.063 151.709 39.8879 151.709 35.9795C151.729 30.0503 146.83 27.9365 142.262 27.9365ZM142.262 43.5821H132.892C132.594 43.5853 132.298 43.5289 132.022 43.4161C131.745 43.3033 131.494 43.1364 131.283 42.9252C131.072 42.714 130.905 42.4627 130.793 42.1862C130.68 41.9096 130.624 41.6133 130.627 41.3146V20.8513C130.634 20.2563 130.877 19.6885 131.301 19.272C131.726 18.8554 132.298 18.624 132.892 18.6283C133.19 18.6197 133.487 18.6707 133.765 18.7784C134.043 18.886 134.296 19.0481 134.511 19.2552C134.725 19.4623 134.896 19.7101 135.014 19.9842C135.131 20.2583 135.192 20.5531 135.194 20.8513V28.4174H142.262C147.876 28.4174 151.232 31.2466 151.232 35.9795C151.232 41.5854 146.596 43.5821 142.262 43.5821Z" fill="#403825"/>
<path d="M160 20.9241V43.6791C160.004 44.0429 159.935 44.404 159.799 44.7414C159.663 45.0788 159.461 45.3859 159.206 45.6451C158.951 45.9043 158.647 46.1104 158.312 46.2516C157.977 46.3928 157.617 46.4663 157.253 46.4679C156.515 46.4668 155.807 46.1726 155.284 45.6499C154.762 45.1271 154.468 44.4184 154.467 43.6791V20.9241C154.468 20.1847 154.762 19.476 155.284 18.9533C155.807 18.4305 156.515 18.1363 157.253 18.1353C157.986 18.1448 158.685 18.443 159.199 18.9651C159.713 19.4872 160.001 20.1911 160 20.9241ZM159.515 20.9241C159.519 20.6258 159.463 20.3298 159.351 20.0534C159.238 19.7771 159.072 19.5261 158.861 19.3151C158.65 19.1042 158.4 18.9376 158.123 18.8252C157.847 18.7128 157.552 18.6569 157.253 18.6607C156.649 18.6585 156.069 18.895 155.638 19.3188C155.206 19.7426 154.96 20.3194 154.951 20.9241V41.6986C154.96 42.3033 155.206 42.8801 155.638 43.3039C156.069 43.7277 156.649 43.9642 157.253 43.962C157.551 43.9625 157.845 43.9044 158.12 43.7908C158.394 43.6772 158.644 43.5105 158.854 43.3003C159.064 43.09 159.231 42.8403 159.344 42.5654C159.458 42.2906 159.516 41.996 159.515 41.6986V20.9241ZM159.515 43.2749C159.26 43.6378 158.921 43.9338 158.528 44.1378C158.134 44.3419 157.697 44.4479 157.253 44.447C156.722 44.4544 156.2 44.2993 155.759 44.0024C155.83 44.0814 155.911 44.1495 156.001 44.2045C156.176 44.3358 156.366 44.4444 156.567 44.5278C156.769 44.6316 156.988 44.6999 157.213 44.7299C156.984 44.7558 156.751 44.7422 156.527 44.6895C156.286 44.6451 156.055 44.5633 155.84 44.447C155.749 44.3993 155.654 44.3587 155.557 44.3258C155.668 44.4446 155.79 44.5529 155.921 44.6491C156.104 44.7993 156.308 44.9219 156.527 45.0129C156.733 45.1403 156.97 45.2101 157.213 45.2149C156.97 45.2419 156.725 45.2282 156.486 45.1745C156.231 45.1158 155.987 45.0205 155.759 44.8916C155.719 44.8512 155.638 44.8108 155.598 44.7703C155.67 44.8958 155.766 45.0057 155.88 45.0937C156.063 45.2558 156.266 45.3918 156.486 45.4979C156.705 45.6308 156.957 45.7008 157.213 45.6999C156.958 45.7484 156.695 45.7346 156.446 45.6595C156.191 45.6009 155.946 45.5056 155.719 45.3766C156.145 45.7452 156.69 45.9463 157.253 45.9425C157.551 45.943 157.845 45.8848 158.12 45.7712C158.394 45.6577 158.644 45.491 158.854 45.2807C159.064 45.0704 159.231 44.8207 159.344 44.5459C159.458 44.271 159.516 43.9765 159.515 43.6791V43.2749Z" fill="#403825"/>
<path d="M154.71 41.6988V20.9243C154.708 20.5894 154.773 20.2576 154.9 19.9479C155.027 19.6383 155.215 19.3569 155.451 19.1202C155.688 18.8834 155.969 18.6959 156.278 18.5685C156.588 18.4411 156.919 18.3764 157.254 18.378C157.586 18.3774 157.915 18.4431 158.222 18.5714C158.529 18.6996 158.807 18.8878 159.04 19.1249C159.273 19.362 159.457 19.6433 159.58 19.9522C159.703 20.2612 159.764 20.5916 159.758 20.9243V41.6988C159.759 42.0283 159.696 42.3549 159.571 42.6597C159.445 42.9644 159.261 43.2413 159.028 43.4743C158.795 43.7073 158.519 43.8919 158.214 44.0172C157.909 44.1426 157.583 44.2063 157.254 44.2047C156.922 44.2074 156.594 44.1447 156.286 44.0202C155.979 43.8957 155.699 43.7118 155.463 43.4791C155.227 43.2464 155.039 42.9695 154.909 42.664C154.78 42.3585 154.712 42.0306 154.71 41.6988Z" fill="#FFCF00"/>
<path d="M34.2799 60.9738C34.2735 60.6486 34.1394 60.339 33.9066 60.112C33.6737 59.8851 33.361 59.7591 33.036 59.7613C32.7146 59.7613 32.4065 59.889 32.1792 60.1164C31.952 60.3438 31.8244 60.6522 31.8244 60.9738C31.8224 61.1112 31.8442 61.248 31.889 61.378C31.8442 61.5079 31.8223 61.6447 31.8244 61.7821C31.82 62.1084 31.9452 62.4231 32.1723 62.6572C32.3994 62.8913 32.71 63.0257 33.036 63.031C33.3662 63.03 33.6826 62.8979 33.9158 62.6638C34.149 62.4297 34.2799 62.1127 34.2799 61.7821C34.2802 61.6437 34.2542 61.5066 34.2031 61.378C34.2508 61.2484 34.2767 61.1118 34.2799 60.9738ZM33.036 61.8993C32.9156 61.8983 32.7965 61.8735 32.6857 61.8264C32.5749 61.7793 32.4744 61.7109 32.39 61.6249C32.3057 61.539 32.239 61.4372 32.194 61.3255C32.1489 61.2138 32.1262 61.0943 32.1273 60.9738C32.1251 60.853 32.147 60.733 32.1917 60.6208C32.2364 60.5086 32.303 60.4064 32.3876 60.3203C32.4722 60.2341 32.5731 60.1657 32.6844 60.119C32.7958 60.0722 32.9152 60.0482 33.036 60.0482C33.1585 60.0472 33.28 60.0703 33.3936 60.1162C33.5072 60.1621 33.6106 60.23 33.698 60.3159C33.7854 60.4019 33.855 60.5042 33.9029 60.6171C33.9507 60.73 33.9759 60.8512 33.977 60.9738C33.9764 61.0965 33.9516 61.218 33.904 61.3311C33.8563 61.4442 33.7867 61.5468 33.6992 61.6328C33.6117 61.7189 33.5081 61.7867 33.3942 61.8325C33.2804 61.8782 33.1586 61.9009 33.036 61.8993ZM33.036 62.7279C32.9692 62.728 32.9028 62.7199 32.8381 62.7036C32.8958 62.7094 32.954 62.7094 33.0117 62.7036V62.6026C32.9111 62.5988 32.8128 62.5711 32.725 62.5218C32.6912 62.5098 32.6597 62.492 32.6321 62.4692C32.6521 62.473 32.6727 62.473 32.6927 62.4692C32.798 62.5049 32.9109 62.5119 33.0198 62.4894V62.3884C32.9393 62.3841 32.8602 62.3663 32.7856 62.3358H32.7573L32.62 62.251L32.729 62.2793C32.8332 62.2976 32.9398 62.2976 33.044 62.2793V62.1944C33.2206 62.1977 33.3958 62.1634 33.558 62.0937C33.7203 62.024 33.8659 61.9206 33.9851 61.7902C33.9829 62.0403 33.8818 62.2794 33.704 62.4552C33.5261 62.6309 33.2859 62.729 33.036 62.7279Z" fill="#1D1D1B"/>
<path d="M127.574 60.9738C127.567 60.6486 127.433 60.339 127.201 60.112C126.968 59.8851 126.655 59.7591 126.33 59.7613C126.009 59.7613 125.7 59.889 125.473 60.1164C125.246 60.3438 125.118 60.6522 125.118 60.9738C125.116 61.1113 125.138 61.248 125.183 61.378C125.138 61.5079 125.116 61.6447 125.118 61.7821C125.114 62.1084 125.239 62.4231 125.466 62.6572C125.693 62.8913 126.004 63.0257 126.33 63.031C126.66 63.03 126.977 62.8979 127.21 62.6638C127.443 62.4297 127.574 62.1127 127.574 61.7821C127.574 61.6437 127.548 61.5066 127.497 61.378C127.545 61.2484 127.571 61.1118 127.574 60.9738ZM126.33 61.8993C126.21 61.8983 126.091 61.8735 125.98 61.8264C125.869 61.7793 125.768 61.7109 125.684 61.6249C125.6 61.539 125.533 61.4372 125.488 61.3255C125.443 61.2138 125.42 61.0943 125.421 60.9738C125.419 60.853 125.441 60.733 125.486 60.6208C125.53 60.5086 125.597 60.4064 125.682 60.3203C125.766 60.2341 125.867 60.1657 125.978 60.119C126.09 60.0722 126.209 60.0482 126.33 60.0482C126.452 60.0472 126.574 60.0703 126.688 60.1162C126.801 60.1621 126.905 60.23 126.992 60.3159C127.079 60.4019 127.149 60.5042 127.197 60.6171C127.245 60.73 127.27 60.8512 127.271 60.9738C127.27 61.0965 127.246 61.218 127.198 61.3311C127.15 61.4442 127.081 61.5468 126.993 61.6328C126.906 61.7189 126.802 61.7867 126.688 61.8325C126.574 61.8782 126.453 61.9009 126.33 61.8993ZM126.33 62.7279C126.263 62.728 126.197 62.7199 126.132 62.7036C126.19 62.7108 126.248 62.7108 126.306 62.7036V62.6026C126.205 62.5988 126.107 62.5711 126.019 62.5218L125.926 62.4733H125.987C126.092 62.509 126.205 62.5159 126.314 62.4935V62.3924C126.233 62.3881 126.154 62.3703 126.08 62.3399H126.051L125.914 62.255L126.023 62.2833C126.127 62.3017 126.234 62.3017 126.338 62.2833V62.1984C126.515 62.2018 126.69 62.1674 126.852 62.0977C127.014 62.0281 127.16 61.9246 127.279 61.7943C127.276 62.0437 127.174 62.2817 126.997 62.4566C126.819 62.6315 126.579 62.729 126.33 62.7279Z" fill="#1D1D1B"/>
<path d="M44.9023 4.59536V4.4256V4.30435L44.8457 4.12247L44.668 4.04972H44.4863L44.244 4.02547L43.9774 4.04569H43.8078H43.622H43.4564L43.307 4.02143H42.9476L42.6891 4.04569H42.4467H42.2771H42.1115L41.9298 4.02547L41.74 4.00122L41.6148 3.87593V3.54855V3.37476V3.21712V2.88166V2.71595V2.56236V2.38453V2.21881V2.04907V1.73381V1.56405V1.30539V1.03458L41.5178 0.87695L41.3321 0.788031L41.1342 0.682954L41.0332 0.505116V0.323233L41.1503 0.13327L41.328 0.0403179H41.5138H41.8652H42.051H42.2125L42.3821 0.0726465L42.5316 0.169644L42.5598 0.375777V0.537445L42.5396 0.707203V0.872916V1.03458V1.21647L42.5154 1.35389V1.5398V1.71764V2.02885V2.20669V2.44515V2.87762V3.03929L42.6002 3.20904L42.782 3.30604H43.1374L43.3191 3.27775H43.4887H43.6624H43.8724L44.0501 3.20095L44.1066 3.02313V2.86549V2.68766V2.28348V2.02885V1.85506V1.6853V1.50747V1.33771V0.828451V0.666783V0.4849V0.307075L44.1793 0.125191L44.349 0.0322266H44.7124H44.9103L45.0315 0.177736V0.383856V0.56574V0.743578V0.93354V1.19221V1.44684V1.62872V1.78231V1.96418V2.50982V2.67958V2.84529V3.04333L45.1284 3.21308L45.3263 3.30604H45.5484L45.6615 3.46368L45.6979 3.73043V3.92038V4.17501V4.33669V4.68832L45.6131 4.86616L45.4556 4.97124H45.298H45.1365L44.9951 4.87424L44.9063 4.70448L44.9023 4.59536Z" fill="#000100"/>
<path d="M49.696 3.73054V3.54866V3.3789V3.22936V3.06769V2.87773L49.7202 2.73626V2.57864V2.24317L49.696 2.07342L49.7162 1.90366V1.742V1.55203V1.41057L49.6919 1.24082L49.7202 1.05489L49.6071 0.893228L49.4254 0.816433L49.2073 0.727515L49.1104 0.545643V0.36376L49.2234 0.177843L49.3931 0.080833H49.7323H49.9221H50.0837H50.2614H50.431L50.6127 0.101049L50.952 0.0727539H51.1176L51.2912 0.0970034H51.6668H51.9132H52.1757H52.3211L52.5271 0.198047L52.6159 0.383964L52.6401 0.565847L52.5473 0.743685L52.3696 0.816433H52.1919H52.0182H51.8647H51.6951H51.2024H50.8591L50.7097 0.889182L50.6491 1.04277V1.21253V1.36612V1.50758L50.7339 1.68945L50.9076 1.75008H51.2347H51.6789H51.9415H52.1151L52.2928 1.84709L52.4059 2.01683V2.20275L52.2928 2.36846L52.0909 2.45738H51.7718H51.582H51.4124H50.8793L50.7137 2.54227L50.6249 2.70393V2.87368V3.04748L50.7299 3.21723L50.8874 3.3021L51.0489 3.3304L51.2185 3.30615H51.5659H51.8405H52.0828H52.2524H52.4342L52.6038 3.39102L52.7169 3.57695V3.75479L52.6078 3.94475L52.4221 4.04175H52.0868H51.9293H51.7476H51.5699L51.4084 4.066H50.7258L50.322 4.0458L50.0675 4.07004L49.8656 4.0175L49.7444 3.90029L49.696 3.73054Z" fill="#000100"/>
<path d="M59.3324 4.00938L58.981 3.77092L58.8356 3.58501L58.7145 3.45971L58.5569 3.25763L58.4358 3.06766L58.351 2.94642L58.1935 2.88175L58.0481 2.97874L57.9511 3.10808L57.8542 3.2657L57.7613 3.41121L57.6482 3.55268L57.5433 3.69009L57.4504 3.83559L57.2807 3.97301L57.0667 4.09022H56.9132H56.7355H56.5942L56.4205 4.01748L56.3963 3.88006L56.4892 3.70625L56.5942 3.58096L56.7436 3.37079L56.9092 3.15254L57.0182 3.01916L57.103 2.8575L57.2242 2.70794L57.309 2.59477L57.4705 2.37653L57.5877 2.09765L57.5311 1.88747L57.4181 1.7541L57.309 1.60051L57.2201 1.46309L57.1353 1.3378L57.0223 1.18825L56.9334 1.04679L56.7274 0.905327L56.4811 0.8245L56.2993 0.723456L56.1943 0.553697V0.359689L56.3155 0.185897L56.4851 0.0646497H56.6588H56.8405H57.0101L57.2363 0.137398L57.4221 0.303111L57.519 0.424359L57.6361 0.549652L57.8421 0.804283L57.9188 0.941701L58.04 1.05892L58.1087 1.20846L58.2702 1.25292L58.4358 1.18421L58.5408 1.04679L58.6216 0.872999L58.7306 0.735581L58.8477 0.606242L58.9568 0.436483L59.0699 0.319282L59.2314 0.153569L59.4455 0.0808078L59.7887 0.0444336H59.9503L60.1078 0.0969782L60.1563 0.246521L60.0755 0.424359L59.9665 0.541573L59.8736 0.67899L59.7645 0.804283L59.6514 0.965951L59.5545 1.06699L59.4535 1.20038L59.3566 1.33375L59.2435 1.48329L59.1547 1.60051L59.0497 1.73793L58.9366 1.85514L58.8881 2.06935L58.9487 2.29164L59.0497 2.40886L59.1547 2.54627L59.3122 2.75645L59.4414 2.94642L59.5787 3.07171L59.7039 3.15658L59.8372 3.23742H60.0593L60.3057 3.294L60.3905 3.42738V3.58905V3.75072L60.3138 3.94473L60.1442 4.04577H59.9907H59.7524H59.5222L59.3324 4.00938Z" fill="#000100"/>
<path d="M65.031 4.08206L64.8776 4.04164L64.6918 4.02143L64.5383 3.96889L64.405 3.88805L64.2354 3.82338L64.1021 3.68597L64.0012 3.55663L63.9285 3.40709L63.9002 3.22117L63.876 2.96654L63.9043 2.71191L63.9729 2.55832L64.0375 2.41687L64.1587 2.29965L64.2798 2.17031L64.4373 2.06119L64.506 1.97227L64.4414 1.83485L64.3 1.70956L64.195 1.60852L64.1223 1.45896L64.0456 1.30134L64.0254 1.05479V0.816326L64.086 0.662738L64.1587 0.505116L64.2597 0.383856L64.397 0.270688L64.5424 0.21411L64.7039 0.117112L64.8655 0.0686008H65.0149L65.1885 0.0322266H65.4511L65.7822 0.0605217L66.1861 0.169644L66.3476 0.23028L66.485 0.327278L66.6304 0.440447L66.7515 0.577865L66.8 0.719328L66.8807 0.8527V1.11946L66.8525 1.37409L66.7919 1.5398L66.699 1.68127L66.6061 1.8106L66.4688 1.91165L66.384 2.06119L66.4688 2.16223L66.6263 2.24711L66.7515 2.3724L66.8767 2.48961L66.9454 2.66341L67.0181 2.82912V3.07163V3.32221L66.9817 3.47983L66.8969 3.63747L66.6788 3.85976L66.5173 3.9406L66.3678 3.99718L66.2063 4.05781L66.0569 4.10227L65.8792 4.13056H65.7257H65.4793H65.1966L65.031 4.08206ZM65.863 3.33434L65.9761 3.24542L66.073 3.11203L66.1295 2.89379L66.0892 2.65533L66.0003 2.53811L65.867 2.46132L65.7257 2.35623L65.5763 2.29156H65.346L65.1159 2.33603L64.9503 2.44919L64.8372 2.58661L64.7887 2.84529L64.8453 3.07566L64.922 3.23734L65.0835 3.32626L65.2289 3.39901H65.4551L65.7176 3.37071L65.863 3.33434ZM65.8913 1.56405L65.9882 1.42259L66.0165 1.17605L65.9599 0.93354L65.8792 0.804201L65.7176 0.731453L65.4511 0.695079L65.2168 0.719328L65.0633 0.800168L64.9624 0.913336L64.9058 1.14371L64.9301 1.38217L65.027 1.53576L65.1724 1.62872L65.342 1.72169H65.5399L65.7822 1.66509L65.8913 1.56405Z" fill="#000100"/>
<path d="M71.6863 4.08206H71.5207L71.3511 4.05377L70.9956 3.94464L70.826 3.79914L70.7412 3.60917L70.7695 3.42326L70.8785 3.28179L71.0482 3.2535L71.3632 3.33838L71.5288 3.40304L71.6984 3.42326H71.9569H72.1951L72.3769 3.39901L72.5182 3.29392L72.6475 3.18883L72.7323 3.04738L72.7727 2.80082L72.7323 2.56236L72.6596 2.4209L72.5465 2.31178L72.389 2.23498H72.1547H71.9043L71.763 2.32795L71.5489 2.41282L71.3228 2.44515H71.137L70.9553 2.25923L70.8705 2.04907V1.87526V1.72169V1.53172V1.37409V1.18413L70.8906 1.03054V0.860792V0.678908L70.9149 0.505116V0.323233L70.9956 0.13327L71.1653 0.0605217H71.6499H71.8074H71.9892L72.1346 0.0322266H72.3082H72.6394H72.7969L72.9746 0.056476H73.1442H73.3058L73.4835 0.15752L73.5844 0.343449V0.533411L73.4592 0.719328L73.2735 0.779952L73.1038 0.804201H72.9625H72.7767H72.599H72.4375H72.0982H71.9205L71.7509 0.897166L71.662 1.03863V1.20434V1.35792V1.5196L71.7428 1.62872H71.864L72.0336 1.55597H72.179H72.6757L72.8211 1.58425L72.9988 1.64085L73.1685 1.72169L73.3138 1.8106L73.4108 1.9076L73.5158 2.0329L73.6127 2.19052L73.6692 2.34815L73.6975 2.51791L73.7379 2.77253V3.05141L73.6692 3.18883L73.6127 3.34646L73.54 3.49196L73.4189 3.62534L73.3179 3.73043L73.1765 3.83148L73.0311 3.92443L72.8777 3.99718L72.7242 4.02547L72.5505 4.06589L72.389 4.09419H71.8599L71.6863 4.08206Z" fill="#000100"/>
<path d="M82.3565 3.73062V3.56894V2.22709V2.04521V1.89162L82.3363 1.73803L82.3686 1.41065V1.23281V1.07115L82.2798 0.89331L82.0859 0.816516L81.8638 0.719518L81.7588 0.517431V0.339593L81.8476 0.169834L82.0415 0.0849609H82.2879H82.6433H82.8775H83.0471H83.3985H83.665H83.9276H84.2749H84.7676H84.9655L85.1634 0.161755L85.2401 0.355763V0.54168L85.1472 0.707393L84.9372 0.812482H84.1537H83.9841L83.6247 0.840765L83.3743 0.905435L83.3016 1.07519V1.26111L83.2773 1.58849L83.3702 1.72995L83.6287 1.81483H83.8791H84.0326L84.2022 1.79058H84.5536L84.6868 1.81079L84.8807 1.90375L85.0059 2.06541V2.2473L84.8928 2.43321L84.7111 2.5383H84.5414H84.3678H84.1981H84.0204H83.8629H83.6933H83.5479L83.3823 2.61105L83.3016 2.78081V2.96268V3.13244V3.30219V3.46387V3.62149V3.78315L83.2289 3.97716L83.0471 4.07821H82.8937H82.7079L82.51 4.04991L82.4009 3.92057L82.3565 3.73062Z" fill="#000100"/>
<path d="M88.495 3.74285L88.5354 3.58522L88.596 3.43163L88.6404 3.27804L88.7898 2.94258L88.8221 2.77282L88.8948 2.65562L88.9514 2.49798L89.0281 2.32015L89.0766 2.17868L89.1614 2.00894L89.2058 1.87555L89.2583 1.69368L89.3754 1.37843L89.4441 1.21676L89.5006 1.08742L89.5531 0.929786L89.6137 0.743869L89.6662 0.610497L89.7389 0.464988L89.7712 0.279071L89.9328 0.141653L90.1307 0.0527344H90.2761H90.4457H90.587H90.7405H90.9384L91.108 0.182061L91.2009 0.35182L91.2453 0.517533L91.314 0.703449L91.3705 0.861083L91.419 1.0268L91.5119 1.18037L91.5684 1.32184L91.625 1.47947L91.6856 1.64922L91.7381 1.81493L91.7946 1.96044L91.8673 2.13018L91.9239 2.28377L91.9562 2.43736L92.049 2.61115L92.1137 2.76879L92.1662 2.92238L92.2187 3.06383L92.2914 3.21741L92.3317 3.3993L92.3802 3.55692L92.4489 3.71051L92.5014 3.90047L92.4368 4.01364L92.2752 4.06214H92.1339H91.9844H91.831L91.6411 3.96514L91.4998 3.7671L91.4473 3.58926L91.3705 3.4195L91.2211 3.24976L91.0111 3.15679H90.8415H89.8237L89.6258 3.26996L89.4845 3.42355L89.4118 3.61754L89.3553 3.75901L89.2018 3.96514L88.9998 4.0581H88.8464L88.6969 4.03789L88.5273 4.00556L88.4385 3.88027L88.495 3.74285ZM90.2438 2.45756H90.4336H90.6113H90.7728L90.898 2.36057L90.9546 2.20698L90.8778 2.04531L90.8374 1.90789L90.7647 1.75026L90.7001 1.56839L90.6395 1.39863L90.583 1.22888L90.5265 1.05105L90.4699 0.901503H90.373L90.3165 1.0672L90.2599 1.22079L90.1468 1.54414L90.0661 1.71793L90.0176 1.87152L89.9489 2.04127L89.9045 2.21507L89.9368 2.38077L90.0741 2.43736L90.2438 2.45756Z" fill="#000100"/>
<path d="M96.4637 3.7185V3.22138V3.06779V2.894L96.4394 2.71616L96.4596 2.56662V2.39686V2.21902V2.0614L96.4354 1.89569V1.73402L96.4596 1.55214V1.38642V1.22476V1.06309L96.3627 0.901421L96.1769 0.800377L95.9871 0.723583L95.874 0.51745V0.351737L95.9588 0.153696L96.1567 0.0405273H96.3062H96.5041H97.1624L97.3683 0.145604L97.5824 0.343658L97.7358 0.569995L97.8489 0.711458L97.9499 0.848876L98.0912 1.07521L98.2286 1.27325L98.3053 1.39047L98.4022 1.54406L98.483 1.67743L98.5436 1.81889L98.6728 1.96439H98.7536L98.8828 1.76635L98.9919 1.55618L99.0646 1.40259L99.1615 1.26113L99.2867 1.05904L99.428 0.844831L99.525 0.707413L99.6098 0.590199L99.6865 0.420452L99.7835 0.278989L99.9571 0.129446L100.155 0.0607311H100.333L100.498 0.0405273L100.66 0.0647768L100.813 0.161775L100.91 0.359816V0.513405L100.947 0.711458V0.881205V1.04287L100.914 1.29346V1.55214V1.72189V1.89569V2.08565V2.23519V2.39686L100.89 2.5747V2.76061L100.918 2.93037V3.10012V3.27392V3.62555V3.77914L100.85 3.98123L100.696 4.07418H100.523H100.361H100.199L100.062 3.96101L99.9612 3.77105V3.43154V3.2618V3.06779V2.81316L99.9935 2.55449V2.38878V2.2069L100.022 2.04523V1.86739V1.67743V1.49959L99.9652 1.4713L99.844 1.61681L99.7592 1.77847L99.6542 1.93611L99.5613 2.0816L99.4563 2.2069L99.3271 2.42111L99.1857 2.66766L99.113 2.79699L99.004 2.96675L98.9151 3.07991L98.7657 3.23755H98.5799L98.4628 3.08396L98.3376 2.95462L98.2528 2.82528L98.172 2.68787L98.0711 2.55045L97.9862 2.38069L97.8732 2.25136L97.8005 2.10585L97.647 1.87952L97.5178 1.66935L97.4208 1.54001L97.3481 1.56021V1.7138L97.3239 1.89569L97.3441 2.04927V2.24732V2.39281V2.56257V2.83337V3.08799V3.27796L97.3199 3.43154V3.6296V3.78722L97.2512 3.97718L97.0654 4.05802H96.9079L96.7545 4.07823L96.5687 4.02568L96.4435 3.89634L96.4637 3.7185Z" fill="#000100"/>
<path d="M105.337 3.71038V3.55679V3.39917V3.21729V2.73632L105.361 2.56657L105.333 2.38469V2.23515V2.06539V1.89564V1.72185L105.353 1.55614V1.3985V1.23279V1.08325L105.26 0.893285L105.083 0.808412L104.865 0.707368L104.768 0.521451V0.351692L104.893 0.153651L105.062 0.0566406H105.244H105.414H105.596H105.793H105.955L106.137 0.0849358L106.266 0.238524L106.29 0.408283V0.5942V0.743742V0.913501V1.17217V1.43892V1.58442V1.76226V1.90777V2.1139L106.266 2.34832V2.62315V2.76866V3.02733V3.29408V3.44362V3.63359V3.78313L106.173 3.96501L105.991 4.08223H105.85L105.664 4.05393H105.474L105.341 3.90034L105.337 3.71038Z" fill="#000100"/>
<path d="M110.692 3.72633V3.55657V3.40703V3.23324L110.672 3.06348V2.89373V2.72397V2.55826V2.40064V2.23088V2.06113V1.89542L110.696 1.71354L110.672 1.54379V1.41041V1.24066V1.04665L110.575 0.901154L110.401 0.800111L110.195 0.674805L110.054 0.517184V0.339346L110.167 0.149383L110.357 0.0483398H110.696H110.979H111.241L111.451 0.076635L111.572 0.205974L111.601 0.387845V0.573762L111.58 0.72735V0.884984L111.605 1.06685V1.22044L111.576 1.38211V1.57207V1.73375L111.596 1.8752L111.576 2.07326V2.23897V2.40064L111.552 2.56635L111.584 2.71994L111.556 2.90181L111.576 3.04732L111.653 3.22919L111.815 3.28578H111.992H112.493H112.667H112.824H113.192L113.361 3.38682L113.462 3.55254L113.495 3.72633L113.378 3.92033L113.188 4.03351H113.018L112.752 4.00521L112.594 4.02541H112.162H111.984H111.819H111.467H111.209H110.946L110.785 3.99712L110.647 3.89608L110.692 3.72633Z" fill="#000100"/>
<path d="M117.804 3.69803V3.34236V3.17261V2.98265L117.828 2.79672L117.776 2.55423L117.711 2.31172L117.606 2.17833L117.541 2.02879L117.457 1.90754L117.36 1.74588L117.267 1.62058L117.202 1.45487L117.109 1.32958L117.032 1.17599L116.94 1.04261L116.786 0.889017L116.556 0.816269L116.358 0.719271L116.221 0.521229V0.339346L116.33 0.153429L116.516 0.0645103H116.883H117.065L117.271 0.149383L117.457 0.302972L117.562 0.45656L117.654 0.618227L117.739 0.759691L117.812 0.909233L117.901 1.06282L117.994 1.22044L118.074 1.37403L118.159 1.5155L118.301 1.5842L118.418 1.52357L118.503 1.37403L118.583 1.23661L118.676 1.06686L118.769 0.909233L118.866 0.76777L118.939 0.614182L119.04 0.45656L119.129 0.302972L119.278 0.149383L119.488 0.0483398H119.819L119.997 0.0887598L120.07 0.214053L120.013 0.39997L119.904 0.529308L119.839 0.678851L119.734 0.832439L119.65 0.977936L119.573 1.13557L119.472 1.28511L119.391 1.43466L119.31 1.58016L119.225 1.73779L119.129 1.87925L119.015 2.03284L118.931 2.19046L118.854 2.33597L118.785 2.57848L118.713 2.79672V3.06348V3.30599V3.46362V3.62933L118.733 3.78695L118.632 3.97692L118.458 4.08201H118.297H118.115L117.925 4.02946L117.816 3.89608L117.804 3.69803Z" fill="#000100"/>
<path d="M34.9787 15.8598C34.7186 15.8483 34.4669 15.7638 34.2526 15.6158C34.0383 15.4678 33.87 15.2624 33.7671 15.0231C33.6116 14.7073 33.5703 14.3474 33.6499 14.0046C33.6865 13.8403 33.7591 13.6861 33.8624 13.5533C33.9658 13.4205 34.0974 13.3123 34.2477 13.2367L40.9882 10.0033C41.1408 9.9304 41.3078 9.89258 41.4769 9.89258C41.646 9.89258 41.8129 9.9304 41.9656 10.0033C42.2845 10.1597 42.5388 10.4227 42.6844 10.7469C42.7692 10.8963 42.8234 11.061 42.8439 11.2315C42.8644 11.402 42.8507 11.5749 42.8037 11.74C42.7567 11.9052 42.6774 12.0593 42.5702 12.1935C42.463 12.3276 42.3303 12.439 42.1796 12.5213L35.4431 15.7547C35.2978 15.823 35.1393 15.8589 34.9787 15.8598ZM41.4728 10.5044C41.3988 10.5046 41.3257 10.5211 41.2588 10.5529L34.5223 13.7863C34.4522 13.8219 34.3913 13.8733 34.3443 13.9364C34.2974 13.9995 34.2657 14.0727 34.2517 14.1501C34.2041 14.3558 34.2298 14.5717 34.3244 14.7604C34.3852 14.9332 34.5102 15.0758 34.6735 15.1586C34.8367 15.2415 35.0256 15.2581 35.2008 15.205L41.9413 11.9716C42.0969 11.8713 42.2067 11.7135 42.2468 11.5326C42.2869 11.3518 42.254 11.1624 42.1554 11.0056C42.0692 10.8127 41.9176 10.6566 41.7273 10.5651C41.6481 10.5259 41.5611 10.5052 41.4728 10.5044Z" fill="#403825"/>
<path d="M135.243 34.5931V39.516H142.844C145.461 39.516 146.665 37.6689 146.665 35.9875C146.665 34.3062 145.497 32.5723 142.844 32.5723H135.247L135.243 34.5931ZM136.532 33.0734H142.844C145.295 33.0734 146.164 34.6336 146.164 35.9875V36.1533C145.586 35.2479 144.504 34.5931 142.844 34.5931H137.028L136.281 34.5527L141.677 34.3062L136.156 34.0596L141.305 33.8131L136.075 33.5665L140.889 33.32L135.99 33.0734H136.532ZM135.724 35.0943H142.844C144.714 35.0943 145.627 35.9956 145.998 37.0222C145.627 38.1297 144.629 39.0431 142.844 39.0431H135.744L135.724 35.0943Z" fill="#403825"/>
<path d="M150.646 40.0698C149.968 43.4285 146.608 45.6151 141.858 45.6151H132.892C132.479 45.6189 132.074 45.5069 131.721 45.2917H131.761C131.802 45.3321 131.883 45.3321 131.923 45.3725C132.054 45.4151 132.19 45.4422 132.327 45.4534C132.459 45.4849 132.595 45.4985 132.731 45.4938H133.175C133.377 45.4938 133.74 45.4534 133.983 45.4534H134.144C134.508 45.413 135.154 45.3725 135.558 45.3321C135.154 45.3321 134.467 45.2917 134.104 45.2917C133.876 45.2593 133.647 45.2457 133.417 45.2513C133.175 45.2109 132.933 45.2109 132.731 45.1705C132.69 45.1705 132.69 45.1705 132.65 45.13C132.248 45.0815 131.861 44.9434 131.519 44.7259C131.541 44.7232 131.563 44.7255 131.584 44.7325C131.605 44.7395 131.624 44.751 131.64 44.7663C131.721 44.8067 131.802 44.8067 131.842 44.8471C131.973 44.8896 132.109 44.9168 132.246 44.928C132.364 44.9613 132.487 44.9749 132.61 44.9684H133.054C133.297 44.9751 133.54 44.9615 133.781 44.928H133.942C134.185 44.928 135.033 44.8875 135.275 44.8471C135.033 44.8471 134.144 44.8067 133.862 44.8067C133.648 44.7731 133.432 44.7596 133.215 44.7663L132.529 44.645H132.488C132.103 44.5758 131.741 44.4088 131.438 44.16C131.479 44.2004 131.519 44.2004 131.559 44.2409C131.6 44.2813 131.681 44.2813 131.761 44.3217C131.905 44.3681 132.055 44.3953 132.206 44.4025C132.31 44.4378 132.419 44.4516 132.529 44.4429C132.647 44.4833 132.774 44.4833 132.892 44.4429H133.74C133.862 44.4025 134.871 44.3621 134.992 44.3621L133.66 44.3217C133.432 44.2881 133.203 44.2746 132.973 44.2813L132.367 44.16C132.327 44.16 132.327 44.16 132.286 44.1196C131.992 44.043 131.717 43.9053 131.479 43.7154C131.905 43.9758 132.393 44.1155 132.892 44.1196L139.479 44.059L139.342 43.8448H132.933C132.603 43.8464 132.277 43.7827 131.973 43.6573C131.668 43.5319 131.391 43.3474 131.158 43.1144C130.926 42.8814 130.741 42.6045 130.616 42.2997C130.491 41.995 130.427 41.6684 130.429 41.3389V22.1123H130.146V43.3113C130.137 43.6288 130.192 43.9449 130.307 44.2409C130.337 44.3842 130.391 44.5212 130.469 44.645C130.521 44.7744 130.588 44.8966 130.671 45.0088L130.873 45.2109C131.131 45.4896 131.443 45.7123 131.79 45.8653C132.138 46.0182 132.513 46.0982 132.892 46.1001H141.858C147.512 46.1001 151.309 43.1496 151.309 38.7037C151.309 38.6309 151.309 38.5541 151.309 38.4814L150.646 40.0698Z" fill="#403825"/>
<path d="M13.1706 44.0023C11.4606 43.9991 9.76826 43.6571 8.19113 42.9959C6.61399 42.3347 5.18335 41.3674 3.98178 40.1499C2.78021 38.9324 1.83151 37.4888 1.19045 35.9023C0.549397 34.3159 0.228685 32.6181 0.246822 30.907C0.236172 29.2017 0.562604 27.5112 1.20731 25.9327C1.85202 24.3542 2.80228 22.9188 4.00342 21.7093C5.20456 20.4997 6.63287 19.5398 8.20614 18.8848C9.77941 18.2297 11.4666 17.8925 13.1706 17.8926C16.1592 17.8926 19.4305 18.7818 21.571 21.0047C22.0696 21.4805 22.36 22.1343 22.3787 22.8235C22.3618 23.4325 22.1071 24.0106 21.6692 24.4337C21.2312 24.8569 20.645 25.0914 20.0363 25.0869C18.2997 25.0869 16.9669 22.5406 13.1706 22.5406C8.40494 22.5406 5.33556 26.3398 5.33556 30.907C5.33556 35.4742 8.40494 39.3542 13.1706 39.3542C17.9362 39.3542 18.9459 35.5954 21.0056 35.5954C21.6574 35.633 22.2728 35.9091 22.7345 36.3711C23.1961 36.8332 23.472 37.449 23.5096 38.1013C23.5011 38.6068 23.3153 39.0933 22.9845 39.4755C21.7761 40.8989 20.272 42.0414 18.577 42.8233C16.882 43.6051 15.0369 44.0074 13.1706 44.0023Z" fill="#FFCF00"/>
<path d="M31.3761 43.9215C31.0447 43.9189 30.7169 43.8509 30.4117 43.7215C30.1065 43.5921 29.8297 43.4038 29.5972 43.1674C29.3646 42.9309 29.181 42.651 29.0566 42.3435C28.9322 42.036 28.8695 41.707 28.8722 41.3752V21.2554C28.8705 20.9259 28.9342 20.5993 29.0595 20.2946C29.1848 19.9898 29.3691 19.7129 29.602 19.4799C29.8348 19.2469 30.1115 19.0624 30.416 18.937C30.7205 18.8117 31.0469 18.7479 31.3761 18.7495H45.1076C45.733 18.7484 46.3336 18.9938 46.7795 19.4325C47.2255 19.8712 47.4809 20.468 47.4904 21.0938C47.4894 21.7259 47.238 22.3318 46.7913 22.7788C46.3447 23.2257 45.7392 23.4773 45.1076 23.4784H33.8801V28.8943H40.0997C40.7209 28.8943 41.3167 29.1413 41.756 29.5809C42.1953 30.0206 42.4421 30.6168 42.4421 31.2385C42.4453 31.5473 42.387 31.8536 42.2704 32.1395C42.1538 32.4253 41.9814 32.685 41.7632 32.9034C41.5451 33.1217 41.2856 33.2943 40.9999 33.4109C40.7142 33.5276 40.4082 33.586 40.0997 33.5827H33.8801V39.2008H45.673C46.3017 39.2112 46.9018 39.4658 47.3464 39.9107C47.7911 40.3557 48.0454 40.9562 48.0558 41.5854C48.0543 41.8962 47.9913 42.2036 47.8705 42.49C47.7497 42.7763 47.5734 43.0359 47.352 43.2538C47.1305 43.4717 46.8681 43.6436 46.5799 43.7596C46.2918 43.8756 45.9836 43.9334 45.673 43.9296L31.3761 43.9215Z" fill="#FFCF00"/>
<path d="M63.654 44.0023C61.944 43.9991 60.2517 43.6571 58.6745 42.9959C57.0974 42.3347 55.6667 41.3674 54.4652 40.1499C53.2636 38.9324 52.3149 37.4888 51.6739 35.9023C51.0328 34.3159 50.7121 32.6181 50.7302 30.907C50.7196 29.2017 51.046 27.5112 51.6907 25.9327C52.3354 24.3542 53.2857 22.9188 54.4868 21.7093C55.688 20.4997 57.1163 19.5398 58.6895 18.8848C60.2628 18.2297 61.95 17.8925 63.654 17.8926C66.6426 17.8926 69.9139 18.7818 72.0544 21.0047C72.553 21.4805 72.8434 22.1343 72.8621 22.8235C72.8452 23.4325 72.5905 24.0106 72.1526 24.4337C71.7146 24.8569 71.1284 25.0914 70.5197 25.0869C68.7831 25.0869 67.4503 22.5406 63.654 22.5406C58.8883 22.5406 55.8189 26.3398 55.8189 30.907C55.8189 35.4742 58.8883 39.3542 63.654 39.3542C68.4196 39.3542 69.4293 35.5954 71.489 35.5954C72.1408 35.633 72.7561 35.9091 73.2178 36.3711C73.6795 36.8332 73.9554 37.449 73.993 38.1013C73.9845 38.6068 73.7987 39.0933 73.4679 39.4755C72.2595 40.8989 70.7554 42.0414 69.0604 42.8233C67.3654 43.6051 65.5203 44.0074 63.654 44.0023Z" fill="#FFCF00"/>
<path d="M91.4802 23.4706V41.6989C91.477 42.3625 91.2122 42.998 90.7433 43.4673C90.2744 43.9365 89.6393 44.2016 88.9762 44.2048C88.6469 44.2064 88.3206 44.1426 88.0161 44.0173C87.7116 43.8919 87.4349 43.7074 87.2021 43.4744C86.9692 43.2414 86.7848 42.9645 86.6596 42.6597C86.5343 42.355 86.4706 42.0284 86.4722 41.6989V23.4706H79.5257C78.9045 23.4706 78.3087 23.2236 77.8694 22.784C77.4301 22.3444 77.1833 21.7481 77.1833 21.1264C77.1757 20.8146 77.2308 20.5044 77.3453 20.2143C77.4599 19.9242 77.6315 19.6601 77.85 19.4377C78.0685 19.2153 78.3294 19.0391 78.6173 18.9195C78.9051 18.7999 79.2141 18.7395 79.5257 18.7418H98.4186C99.0473 18.7522 99.6474 19.0067 100.092 19.4517C100.537 19.8967 100.791 20.4972 100.801 21.1264C100.792 21.7521 100.537 22.349 100.091 22.7877C99.6446 23.2264 99.044 23.4717 98.4186 23.4706H91.4802Z" fill="#FFCF00"/>
<path d="M110.32 34.383V41.739C110.316 42.0686 110.247 42.3941 110.117 42.6969C109.987 42.9996 109.798 43.2736 109.562 43.5028C109.325 43.7321 109.045 43.9121 108.739 44.0326C108.432 44.153 108.105 44.2114 107.776 44.2045C107.449 44.2077 107.125 44.1464 106.822 44.0242C106.519 43.9019 106.244 43.7212 106.011 43.4922C105.778 43.2632 105.592 42.9905 105.465 42.6896C105.337 42.3888 105.27 42.0658 105.268 41.739V21.2554C105.267 20.9257 105.331 20.599 105.456 20.2943C105.582 19.9895 105.767 19.7126 106 19.4797C106.233 19.2467 106.51 19.0623 106.815 18.937C107.12 18.8116 107.446 18.7479 107.776 18.7495H117.145C123.688 18.7495 126.353 22.5084 126.353 26.5905C126.353 30.6727 123.688 34.3911 117.145 34.3911L110.32 34.383ZM110.32 23.349V29.7431H117.872C120.336 29.7431 121.305 28.1264 121.305 26.5905C121.305 25.0547 120.336 23.3571 117.872 23.3571L110.32 23.349Z" fill="#FFCF00"/>
<path d="M142.299 28.2032C148.845 28.2032 151.511 31.9257 151.511 36.0038C151.511 40.0819 148.845 43.8488 142.299 43.8488H132.929C132.6 43.8504 132.273 43.7867 131.969 43.6613C131.664 43.536 131.387 43.3514 131.155 43.1184C130.922 42.8854 130.737 42.6085 130.612 42.3038C130.487 41.999 130.423 41.6724 130.425 41.3429V20.8513C130.427 20.5249 130.494 20.2021 130.622 19.9016C130.749 19.601 130.934 19.3285 131.167 19.0995C131.399 18.8706 131.674 18.6897 131.977 18.5673C132.279 18.4448 132.603 18.3831 132.929 18.3858C133.258 18.3788 133.585 18.4373 133.892 18.5577C134.199 18.6781 134.478 18.8582 134.715 19.0875C134.951 19.3167 135.14 19.5906 135.27 19.8934C135.401 20.1961 135.47 20.5217 135.473 20.8513V28.2073L142.299 28.2032ZM143.025 39.2412C145.489 39.2412 146.458 37.5033 146.458 36.0078C146.458 34.5124 145.489 32.8553 143.025 32.8553H135.473V39.2453L143.025 39.2412Z" fill="#FFCF00"/>
<path d="M42.3288 64.4415C42.2027 64.4294 42.0773 64.4105 41.9532 64.3849C41.8105 64.364 41.669 64.3357 41.5292 64.3C41.4344 64.2741 41.3424 64.2389 41.2545 64.1949C41.1448 64.1278 41.0395 64.0535 40.9395 63.9726C40.8516 63.9171 40.7692 63.8535 40.6932 63.7827C40.5964 63.7153 40.5046 63.641 40.4185 63.5604C40.3499 63.4634 40.2812 63.3704 40.2206 63.2653C40.1542 63.1588 40.0949 63.0481 40.0429 62.9339C39.9945 62.8167 39.9945 62.6752 39.95 62.5297C39.9059 62.3975 39.8708 62.2625 39.845 62.1255C39.8087 61.9841 39.7602 61.8184 39.736 61.6648C39.7118 61.5112 39.6552 61.3819 39.6431 61.2161C39.631 61.0504 39.6674 60.8645 39.6674 60.6746C39.6674 60.4846 39.6916 60.2502 39.7037 60.0723C39.7158 59.8945 39.6673 59.7571 39.7037 59.5914C39.74 59.4257 39.7845 59.2842 39.8087 59.1306C39.8213 58.9841 39.8415 58.8384 39.8693 58.6941C39.912 58.5569 39.9619 58.422 40.0187 58.2899C40.0672 58.1727 40.0793 58.0797 40.1277 57.9706C40.1762 57.8615 40.3014 57.7605 40.362 57.6675C40.405 57.5728 40.4564 57.4822 40.5155 57.3967C40.5841 57.3118 40.6689 57.231 40.7376 57.1582C40.803 57.086 40.8746 57.0198 40.9516 56.9602C41.0324 56.8996 41.1616 56.8753 41.2465 56.8187C41.3149 56.7632 41.3894 56.7158 41.4686 56.6773C41.5615 56.6288 41.6342 56.5479 41.7271 56.5116C41.82 56.4752 41.9169 56.4631 42.0098 56.4307C42.1101 56.3958 42.2127 56.3674 42.3167 56.3458L42.6802 56.2529C42.8579 56.2165 43.0477 56.2044 43.2012 56.168C43.3547 56.1316 43.5081 56.0993 43.6373 56.0629C43.7666 56.0265 43.8352 55.9578 43.9402 55.9215C44.0453 55.8851 44.1906 55.9215 44.2835 55.873C44.3764 55.8245 44.4612 55.78 44.542 55.7436C44.6073 55.7322 44.671 55.7133 44.7318 55.687C44.8005 55.6507 44.8611 55.6022 44.9176 55.5698C44.9964 55.6482 45.0606 55.7399 45.1074 55.8406C45.1514 55.9498 45.1826 56.0637 45.2003 56.1801C45.2 56.2949 45.1932 56.4096 45.1801 56.5237C45.1438 56.5479 45.0832 56.5237 45.0388 56.5601C44.9943 56.5964 44.9418 56.6045 44.8732 56.6288C44.8045 56.653 44.7318 56.6773 44.6349 56.7015C44.538 56.7258 44.4734 56.7581 44.3562 56.7945C44.2391 56.8308 44.1058 56.8511 43.9524 56.8874C43.7989 56.9238 43.5889 56.9481 43.4112 56.9844C43.2335 57.0208 43.0477 57.0774 42.8337 57.1016C42.7147 57.1251 42.5973 57.1561 42.4823 57.1946C42.3652 57.231 42.2481 57.2189 42.139 57.2552C42.03 57.2916 41.9977 57.3724 41.9048 57.4169C41.8032 57.4705 41.7047 57.5299 41.61 57.5947C41.5116 57.6561 41.4172 57.7236 41.3272 57.7968C41.2599 57.8596 41.2002 57.9301 41.1495 58.007C41.093 58.104 41.0566 58.2212 41.0082 58.3263C40.9274 58.4338 40.8571 58.5489 40.7982 58.6698C40.7525 58.8016 40.7174 58.9367 40.6932 59.074C40.6552 59.2169 40.6309 59.3631 40.6205 59.5105C40.6205 59.6722 40.6205 59.85 40.6205 60.0279C40.6808 59.9249 40.7482 59.8263 40.8224 59.7328C40.8733 59.6459 40.9314 59.5634 40.9961 59.4863C41.0759 59.3864 41.1623 59.2919 41.2545 59.2034C41.3492 59.1418 41.4476 59.0865 41.5494 59.0376C41.6523 58.976 41.7588 58.9207 41.8684 58.8719C41.9553 58.8256 42.0458 58.7864 42.139 58.7547C42.2561 58.7305 42.4581 58.7062 42.5994 58.6941C42.7336 58.6801 42.8684 58.6734 43.0033 58.6739C43.1567 58.6739 43.3223 58.6739 43.4637 58.6739C43.6004 58.6817 43.7359 58.7047 43.8676 58.7426C44.0048 58.7818 44.1397 58.8291 44.2714 58.8841C44.3728 58.9198 44.4713 58.963 44.5662 59.0134C44.6744 59.0667 44.7772 59.1304 44.8732 59.2034C44.9469 59.2887 45.0144 59.3792 45.0751 59.4742C45.1438 59.555 45.2246 59.5914 45.2851 59.6843C45.3468 59.7956 45.4021 59.9103 45.4507 60.0279C45.5026 60.1156 45.5497 60.206 45.5921 60.2987C45.6302 60.4316 45.6612 60.5666 45.685 60.7028C45.7031 60.8126 45.7152 60.9232 45.7213 61.0343C45.7213 61.1636 45.7576 61.3172 45.7576 61.4384C45.7576 61.5597 45.7778 61.7092 45.7576 61.8426C45.7444 61.9783 45.7242 62.1132 45.6971 62.2468C45.6452 62.3754 45.5858 62.5009 45.5194 62.6227C45.4846 62.7458 45.4372 62.865 45.378 62.9783C45.336 63.0993 45.2846 63.2169 45.2246 63.33C45.1456 63.4231 45.0591 63.5096 44.9661 63.5887C44.907 63.6812 44.8408 63.769 44.7682 63.8514C44.6713 63.9322 44.5662 64.0009 44.4612 64.0737C44.3306 64.1347 44.1956 64.186 44.0574 64.2272C43.9421 64.2754 43.8233 64.3145 43.702 64.3445C43.5707 64.3885 43.4354 64.4196 43.2981 64.4374C43.135 64.4616 42.9703 64.4737 42.8054 64.4738C42.6115 64.5021 42.4702 64.4536 42.3288 64.4415ZM43.1042 63.6048C43.2203 63.5909 43.3351 63.5679 43.4475 63.5361C43.5421 63.5079 43.6329 63.4686 43.7181 63.4189C43.8092 63.3625 43.8956 63.299 43.9766 63.2289C44.0667 63.1545 44.1456 63.0673 44.2108 62.9703C44.2714 62.8773 44.2593 62.7682 44.3078 62.6631C44.3562 62.558 44.3885 62.4287 44.4249 62.3115C44.4601 62.1785 44.4871 62.0435 44.5057 61.9073C44.5057 61.7658 44.5662 61.6244 44.5662 61.4708C44.5707 61.306 44.5626 61.1412 44.542 60.9777C44.5143 60.8545 44.4792 60.733 44.437 60.6139C44.4015 60.4967 44.3583 60.3819 44.3078 60.2704C44.2493 60.167 44.1773 60.0718 44.0937 59.9875C44 59.9056 43.897 59.8351 43.7868 59.7773C43.686 59.7038 43.576 59.644 43.4596 59.5994C43.3368 59.5595 43.2113 59.5284 43.0841 59.5065C42.9586 59.4861 42.8314 59.478 42.7044 59.4822C42.5701 59.4689 42.4348 59.4689 42.3005 59.4822C42.1555 59.5065 42.0134 59.5458 41.8765 59.5994C41.7602 59.6503 41.6493 59.7126 41.5453 59.7854C41.4483 59.8616 41.3615 59.9498 41.2868 60.0481C41.2052 60.1376 41.1347 60.2367 41.0768 60.3431C41.0248 60.4401 40.9816 60.5416 40.9476 60.6463C40.8939 60.7757 40.8572 60.9116 40.8386 61.0504C40.8113 61.1751 40.8004 61.3028 40.8062 61.4304C40.8124 61.5839 40.8313 61.7367 40.8628 61.8871C40.8827 62.0234 40.911 62.1584 40.9476 62.2912C40.9695 62.4067 41.0005 62.5203 41.0405 62.6308C41.0762 62.7244 41.1194 62.8149 41.1697 62.9015C41.2548 62.9973 41.3496 63.084 41.4524 63.1602C41.5234 63.2368 41.6067 63.301 41.6988 63.3502C41.7789 63.4044 41.8658 63.4479 41.9573 63.4795C42.0624 63.5382 42.1734 63.5857 42.2884 63.621C42.4227 63.6342 42.558 63.6342 42.6923 63.621C42.8245 63.6272 42.9569 63.6218 43.0881 63.6048H43.1042Z" fill="#000100"/>
<path d="M51.4003 66.8219L51.5417 66.539L51.6588 66.2359L51.8567 65.8923L51.9294 65.6094L52.0587 65.2901L52.2727 64.9749L52.4019 64.6677L52.5069 64.3484L52.3656 64.017L52.2121 63.7583L52.1314 63.4188L51.9779 63.0995L51.8486 62.7923L51.7275 62.4973L51.5538 62.2265L51.4125 61.8748L51.3155 61.5919L51.1055 61.2969L51.045 60.9776L50.9036 60.6381L50.7299 60.3188L50.5643 60.0359L50.4795 59.7408L50.318 59.4336L50.1968 59.0941L49.793 59.0699H49.5103L49.1347 59.0456C49.1212 58.9641 49.1131 58.8817 49.1104 58.7991C49.1063 58.7081 49.1144 58.617 49.1347 58.5283C49.1225 58.4384 49.1225 58.3473 49.1347 58.2575C49.2275 58.2575 49.3124 58.2575 49.4053 58.2575C49.4913 58.2514 49.5777 58.2514 49.6637 58.2575C49.7566 58.2575 49.898 58.209 49.9949 58.209C50.0918 58.209 50.217 58.2332 50.322 58.2332C50.4089 58.2391 50.4953 58.2513 50.5805 58.2696C50.6895 58.2696 50.8309 58.2696 50.9601 58.2696L51.053 58.5525L51.2186 58.8678L51.3842 59.1184L51.4528 59.3973L51.6306 59.6923L51.7477 60.0116L51.8769 60.2703L51.994 60.5774L52.091 60.8604L52.2323 61.1312L52.2889 61.4262L52.4181 61.7576L52.5271 62.0163L52.6564 62.2871L52.7614 62.6064L52.8906 62.8651L53.032 63.1723H53.0683L53.2097 62.8772L53.2541 62.5579L53.3631 62.3114L53.5045 61.9678L53.5732 61.7213L53.7145 61.3777L53.8316 61.0948L53.9407 60.824L54.0457 60.4845L54.1507 60.2016L54.292 59.8459L54.4697 59.5508L54.5869 59.2356L54.6434 58.9163L54.8332 58.597L54.9261 58.2696C55.0339 58.237 55.145 58.2167 55.2573 58.209H55.54C55.645 58.209 55.7621 58.2575 55.859 58.2696L55.964 58.4111L55.8712 58.7506L55.6935 59.0456L55.5642 59.3771L55.4108 59.7408L55.3502 60.048L55.1886 60.4117L55.0473 60.7432L54.8938 61.0382L54.8332 61.3656L54.6555 61.6849L54.5061 62.0406L54.3728 62.3679L54.292 62.6751L54.1628 63.051L54.0578 63.3339L53.8801 63.7017L53.7266 64.0291L53.6459 64.312L53.4682 64.6313L53.3389 64.9506L53.1733 65.3265L53.032 65.6337L52.9633 65.953L52.7977 66.248L52.6806 66.6239L52.5271 66.9189C52.4302 66.9432 52.3494 66.9877 52.2646 66.9998C52.1597 67.0056 52.0545 67.0056 51.9496 66.9998C51.8693 66.99 51.7897 66.9751 51.7113 66.9553C51.6287 66.9531 51.5464 66.945 51.465 66.9311L51.4003 66.8219Z" fill="#000100"/>
<path d="M60.0227 64.4418C59.941 64.4222 59.8612 64.3951 59.7844 64.361C59.7051 64.3514 59.6267 64.3352 59.5502 64.3125C59.544 64.2142 59.544 64.1157 59.5502 64.0174C59.5502 63.9366 59.4815 63.8679 59.4936 63.7709C59.515 63.679 59.5419 63.5886 59.5744 63.5001C59.6614 63.5376 59.7521 63.5661 59.845 63.5849C59.9585 63.6025 60.0735 63.6092 60.1883 63.6051C60.2983 63.6117 60.4087 63.6008 60.5154 63.5728C60.6137 63.5157 60.7023 63.4434 60.7779 63.3586C60.8747 63.2884 60.9616 63.2054 61.0364 63.1121C61.1063 63.004 61.1645 62.8889 61.2101 62.7685C61.2604 62.6109 61.3009 62.4502 61.3312 62.2875C61.3514 62.1905 61.3756 62.1218 61.3878 62.0289C61.3999 61.9359 61.4605 61.8147 61.4726 61.7096C61.4847 61.6045 61.4241 61.5075 61.4362 61.4024C61.4423 61.288 61.4423 61.1733 61.4362 61.0588C61.4362 60.9538 61.517 60.8487 61.517 60.7436V60.4C61.5148 60.2973 61.5067 60.1947 61.4928 60.0929C61.4928 59.9878 61.4483 59.8706 61.4362 59.7655C61.4241 59.6604 61.4685 59.527 61.4605 59.4219C61.4344 59.3099 61.4142 59.1966 61.3999 59.0824L61.105 59.0461L60.8345 59.0824L60.5154 59.0582H60.2691C60.2448 58.9652 60.2004 58.8803 60.1883 58.7995C60.1848 58.7168 60.1916 58.634 60.2085 58.553C60.2237 58.4577 60.2439 58.3632 60.2691 58.27H60.6245L60.9072 58.2256H61.2706L61.5533 58.2498L61.9289 58.2256L62.2843 58.2579H62.5792H62.8821H63.2859H63.5444H63.92C64.0614 58.2579 64.1906 58.2337 64.3239 58.2579C64.4431 58.266 64.5617 58.2809 64.6793 58.3024C64.7838 58.3321 64.8864 58.3685 64.9862 58.4115C65.1107 58.4495 65.2322 58.4968 65.3497 58.553C65.4288 58.5886 65.5002 58.6394 65.5597 58.7025C65.6397 58.7986 65.7114 58.9013 65.7738 59.0097C65.8289 59.1151 65.8722 59.2262 65.903 59.3411C65.9366 59.4738 65.9596 59.6089 65.9717 59.7453C66.0057 59.9117 66.026 60.0807 66.0322 60.2505L65.9959 60.5819L66.0686 60.9255V61.9844L66.0322 62.3522L65.9959 62.6675L66.0443 62.9989L65.9959 63.3748L66.0322 63.7426L66.0686 64.0578L66.0322 64.4135C65.9305 64.4278 65.828 64.4359 65.7253 64.4377C65.6604 64.4544 65.5942 64.4652 65.5274 64.4701C65.4305 64.4701 65.277 64.4701 65.1841 64.4701C65.1051 64.4648 65.0267 64.4526 64.9499 64.4337L64.9741 64.0538L64.8974 63.6941L64.9216 63.3384V62.9868L64.9458 62.6432L64.8974 62.2795L64.9337 61.8753L64.9579 61.5802L64.8974 61.2124L64.9337 60.8851V60.5415V60.1656C64.9355 59.9952 64.9233 59.8248 64.8974 59.6564C64.8672 59.5399 64.8105 59.432 64.7318 59.3411C64.673 59.2447 64.5929 59.1631 64.4975 59.1026C64.3909 59.062 64.2797 59.0349 64.1664 59.0218C64.0043 58.987 63.8394 58.9667 63.6736 58.9612L63.3546 58.9369L63.0113 58.9854L62.6842 58.9612H62.3166C62.3166 59.0824 62.2965 59.2118 62.3166 59.329C62.3368 59.4462 62.3368 59.5513 62.3368 59.6685C62.3368 59.7857 62.3368 59.8948 62.3368 60.012C62.3368 60.1292 62.3368 60.2343 62.3368 60.3515C62.3368 60.4688 62.3853 60.6223 62.3853 60.7315C62.3853 60.8406 62.3853 60.9538 62.3853 61.0588C62.3713 61.1544 62.3511 61.2489 62.3247 61.3418C62.3247 61.4509 62.3732 61.5439 62.3611 61.6489C62.349 61.754 62.2803 61.8955 62.2682 61.9925C62.2561 62.0895 62.244 62.1905 62.2318 62.2875C62.2197 62.3845 62.2318 62.4735 62.2318 62.5705C62.204 62.7136 62.1689 62.8552 62.1268 62.9948C62.0784 63.1242 61.9976 63.205 61.9491 63.3222C61.9159 63.4268 61.8768 63.5293 61.832 63.6294C61.7714 63.7224 61.6422 63.8517 61.5735 63.9366C61.495 64.012 61.4083 64.0784 61.3151 64.1346C61.224 64.1855 61.1295 64.2301 61.0324 64.268C60.9217 64.3173 60.8068 64.3565 60.6891 64.3852C60.5772 64.4065 60.4637 64.4174 60.3498 64.4175C60.2413 64.432 60.1321 64.4401 60.0227 64.4418Z" fill="#000100"/>
<path d="M73.427 64.4656C73.2857 64.4656 73.1201 64.3969 72.9908 64.3726C72.8551 64.3551 72.7203 64.3308 72.587 64.2999C72.4699 64.2676 72.385 64.1706 72.2679 64.1261C72.1464 64.0857 72.0288 64.0343 71.9166 63.9725C71.8184 63.9214 71.7274 63.8575 71.646 63.7825C71.545 63.6996 71.4505 63.6091 71.3633 63.5118C71.2784 63.4188 71.2784 63.3339 71.2098 63.2288C71.1275 63.1204 71.0519 63.007 70.9836 62.8893C70.9271 62.7802 70.915 62.6872 70.8665 62.57C70.818 62.4528 70.7251 62.2871 70.6888 62.1659C70.6546 62.0333 70.6316 61.8981 70.6201 61.7617C70.6201 61.6243 70.6201 61.4707 70.6201 61.3171C70.6201 61.1635 70.5959 61.0099 70.6201 60.8684C70.6411 60.7305 70.6763 60.595 70.7251 60.4643C70.7503 60.3359 70.7827 60.2091 70.8221 60.0844C70.8765 59.9463 70.9386 59.8114 71.0079 59.6802C71.0684 59.5751 71.0806 59.47 71.1492 59.3609C71.2179 59.2518 71.3511 59.1992 71.4319 59.1022C71.4975 59.0075 71.569 58.9171 71.646 58.8314C71.7306 58.7617 71.8211 58.6995 71.9166 58.6455C72.0216 58.5727 72.1629 58.504 72.2679 58.4434C72.3839 58.4035 72.5027 58.3724 72.6233 58.3504C72.7331 58.3023 72.8465 58.2632 72.9626 58.2332C73.0958 58.2019 73.2306 58.1776 73.3664 58.1605C73.5078 58.1605 73.6734 58.1362 73.8268 58.1362C73.9803 58.1362 74.0853 58.1362 74.2307 58.1362C74.3761 58.1362 74.5619 58.1847 74.6911 58.209C74.8042 58.2495 74.9148 58.2967 75.0223 58.3504C75.1358 58.3812 75.2456 58.4246 75.3494 58.4798C75.4602 58.5261 75.5669 58.5815 75.6685 58.6455C75.7761 58.7165 75.8786 58.7948 75.9754 58.8799C76.0631 58.9475 76.1455 59.0219 76.2218 59.1022C76.3095 59.2 76.3917 59.3025 76.4681 59.4094C76.5408 59.5145 76.6458 59.5751 76.7064 59.6923C76.767 59.8095 76.7993 59.951 76.8478 60.0965C76.8962 60.242 76.9164 60.3107 76.9528 60.44C76.9891 60.5694 77.0214 60.7351 77.0335 60.8765C77.0457 61.018 77.0335 61.1716 77.0335 61.313C77.0335 61.4545 77.0335 61.596 77.0093 61.7374C76.9891 61.8861 76.954 62.0324 76.9043 62.1739C76.868 62.3033 76.9043 62.4447 76.868 62.5781C76.8025 62.6966 76.7282 62.8101 76.6458 62.9176C76.6061 63.0194 76.5589 63.118 76.5045 63.2127C76.4425 63.3281 76.3724 63.4388 76.2945 63.5441C76.2097 63.637 76.0925 63.6613 75.9996 63.7421C75.9062 63.835 75.8078 63.9227 75.7048 64.0048C75.5998 64.0736 75.5029 64.0736 75.3979 64.1342C75.285 64.2064 75.1661 64.2686 75.0425 64.3201C74.9097 64.3597 74.7749 64.3921 74.6386 64.4171C74.5054 64.4428 74.3703 64.4576 74.2347 64.4616C74.0934 64.4616 73.9884 64.4858 73.8309 64.4858C73.6734 64.4858 73.5684 64.4777 73.427 64.4656ZM74.1782 63.6047C74.3029 63.5833 74.4258 63.5522 74.5457 63.5118C74.6672 63.4814 74.785 63.438 74.8971 63.3824C74.9976 63.33 75.0889 63.2618 75.1677 63.1803C75.2582 63.1012 75.3419 63.0147 75.4181 62.9217C75.4815 62.8175 75.5356 62.708 75.5796 62.5943C75.6451 62.4654 75.6965 62.3299 75.7331 62.1901C75.7698 62.0573 75.7981 61.9223 75.8179 61.7859C75.8491 61.6355 75.868 61.4827 75.8744 61.3292C75.8625 61.1726 75.8382 61.0172 75.8018 60.8644C75.8006 60.7294 75.7925 60.5945 75.7775 60.4602C75.7425 60.3333 75.6951 60.2101 75.6362 60.0924C75.5706 59.9662 75.4963 59.8447 75.414 59.7287C75.3358 59.6335 75.2478 59.5469 75.1515 59.47C75.0864 59.397 75.0117 59.3331 74.9294 59.28C74.8124 59.2261 74.6907 59.1828 74.5659 59.1507C74.4577 59.109 74.3472 59.0739 74.2347 59.0456C74.0906 59.0215 73.9447 59.0093 73.7986 59.0092C73.6769 59.0048 73.5551 59.0129 73.4351 59.0335C73.3059 59.0577 73.1403 59.082 73.0312 59.1143C72.9308 59.1583 72.836 59.2139 72.7485 59.28C72.6299 59.3278 72.5185 59.3917 72.4173 59.47C72.3396 59.5678 72.2681 59.6703 72.2033 59.7772C72.1291 59.8768 72.0629 59.9823 72.0054 60.0924C71.9392 60.1928 71.8837 60.2998 71.8398 60.4117C71.8147 60.5599 71.8025 60.7101 71.8035 60.8604C71.774 61.0165 71.7551 61.1745 71.7469 61.3333C71.7348 61.4893 71.7348 61.6461 71.7469 61.8021C71.7891 61.9401 71.8403 62.0751 71.9004 62.2063C71.9211 62.3364 71.9563 62.4639 72.0054 62.5862C72.0629 62.6964 72.1291 62.8018 72.2033 62.9014C72.2615 62.9882 72.3293 63.0682 72.4052 63.1399C72.4896 63.2223 72.5847 63.293 72.6879 63.3501C72.8096 63.4166 72.935 63.476 73.0635 63.5279C73.1674 63.5574 73.2746 63.5737 73.3826 63.5764C73.5223 63.606 73.6641 63.6249 73.8066 63.633C73.9338 63.6373 74.0611 63.6278 74.1863 63.6047H74.1782Z" fill="#000100"/>
<path d="M86.3229 64.3848C86.2076 64.3662 86.0967 64.3264 85.9958 64.2676C85.8989 64.2069 85.7373 64.1584 85.6767 64.0655C85.6202 63.9718 85.5843 63.867 85.5717 63.7583C85.5359 63.6088 85.5196 63.4553 85.5233 63.3016L85.5596 62.9702V62.6064L85.499 62.2992L85.5354 61.9557C85.491 61.9799 85.4061 62.0406 85.3375 62.0729C85.2688 62.1052 85.2163 62.1456 85.1355 62.182L84.9134 62.2629C84.8165 62.2992 84.6751 62.3114 84.5701 62.3437C84.4618 62.3796 84.3512 62.4079 84.239 62.4286C84.1159 62.4708 83.9905 62.5059 83.8634 62.5337C83.7341 62.5337 83.617 62.5337 83.4878 62.5337C83.3585 62.5337 83.193 62.4973 83.0637 62.4852C82.9598 62.4852 82.8564 62.4702 82.7568 62.4407C82.6433 62.392 82.5327 62.3366 82.4256 62.275C82.3283 62.2376 82.2371 62.1858 82.155 62.1214C82.0675 62.058 81.9851 61.9877 81.9087 61.9112C81.8221 61.8199 81.7437 61.7212 81.6744 61.6162C81.6338 61.4968 81.6054 61.3735 81.5896 61.2484C81.5464 61.1264 81.5153 61.0005 81.4967 60.8725C81.4631 60.721 81.4428 60.5668 81.4361 60.4117V60.1046L81.4725 59.7651V59.4336L81.4361 59.1063H81.109L80.7051 59.082L80.4144 59.0456C80.4086 58.9595 80.4086 58.8731 80.4144 58.787C80.4022 58.7052 80.4022 58.6221 80.4144 58.5404C80.4085 58.4462 80.4085 58.3517 80.4144 58.2575L80.7173 58.2332C80.8263 58.2332 81 58.2332 81.1211 58.2332C81.2423 58.2332 81.3069 58.209 81.4159 58.209C81.525 58.209 81.5775 58.2575 81.6865 58.2575C81.7956 58.2575 81.945 58.209 82.05 58.2211C82.1592 58.2449 82.2698 58.2611 82.3812 58.2696L82.5225 58.3868L82.5548 58.7142L82.4862 59.0214V59.3164V59.6721L82.5104 59.9874V60.2703C82.4982 60.4047 82.4982 60.54 82.5104 60.6745C82.5323 60.7992 82.5633 60.9221 82.6033 61.0423C82.6485 61.1548 82.7127 61.2587 82.7931 61.3494C82.8647 61.4309 82.9477 61.5017 83.0395 61.5596C83.1323 61.6202 83.2369 61.6601 83.3464 61.6768C83.4949 61.698 83.6449 61.7061 83.7947 61.7011C83.9291 61.7129 84.0642 61.7129 84.1986 61.7011C84.3138 61.6733 84.4271 61.6382 84.5378 61.596C84.655 61.5596 84.764 61.5111 84.869 61.4788C84.974 61.4464 85.0669 61.4424 85.1517 61.406C85.2413 61.3608 85.3277 61.3095 85.4102 61.2524C85.4708 61.2201 85.4829 61.2524 85.5152 61.208V60.9008L85.5637 60.5694V59.8984L85.5273 59.6034L85.5637 59.2639L85.495 58.9325V58.5889L85.5192 58.2858C85.645 58.2669 85.7718 58.2547 85.8989 58.2494C86.016 58.2494 86.0968 58.2737 86.2139 58.2737C86.331 58.2737 86.4522 58.2737 86.5693 58.2737L86.6743 58.3909L86.6985 58.698L86.6137 59.0254L86.6379 59.3568V59.664V59.9793L86.6177 60.2622V60.5572L86.642 60.9129L86.5976 61.1958V61.5111L86.642 61.8789L86.5854 62.1739V62.469V62.8206L86.6218 63.1278C86.6134 63.2036 86.6205 63.2803 86.6428 63.3533C86.665 63.4263 86.7018 63.4939 86.751 63.5522C86.8318 63.6209 86.9247 63.6209 87.0782 63.6209C87.1688 63.6239 87.2595 63.6171 87.3487 63.6007L87.7284 63.5037C87.7527 63.6091 87.7716 63.7156 87.7849 63.823C87.7829 63.9177 87.7748 64.0122 87.7607 64.1059C87.7579 64.1929 87.7471 64.2795 87.7284 64.3646C87.6072 64.3888 87.4901 64.4373 87.3972 64.4454C87.2996 64.4628 87.2012 64.4749 87.1024 64.4818C86.9961 64.4875 86.8896 64.4875 86.7833 64.4818C86.6268 64.4663 86.4724 64.4338 86.3229 64.3848Z" fill="#000100"/>
<path d="M97.6304 64.4094C97.5098 64.3829 97.3949 64.335 97.2912 64.268C97.1942 64.2073 97.065 64.171 96.9964 64.078C96.9215 63.9847 96.869 63.8755 96.8429 63.7587C96.8091 63.6049 96.7955 63.4472 96.8025 63.2899L96.7662 62.9827V62.6755L96.8267 62.332L96.754 62.0046L96.7904 61.6853H96.4269L96.1321 61.7095L95.8373 61.6732H95.4334H94.8437L94.4924 61.6489H94.137L93.7614 61.6732H93.4666L93.4302 62.0288V62.332L93.4787 62.6634L93.4423 63.0393L93.4666 63.3343L93.4302 63.6779L93.5029 64.0295L93.4666 64.3609C93.3499 64.375 93.2327 64.3831 93.1152 64.3852C93.0092 64.3973 92.9021 64.3973 92.7961 64.3852C92.7013 64.3892 92.6063 64.381 92.5134 64.3609L92.4084 64.2558L92.4407 63.9002L92.4084 63.593V63.2899L92.3842 62.8857L92.4084 62.5421L92.4407 62.1986L92.3842 61.847L92.4407 61.5398V61.1356V60.8284V60.4243L92.473 60.105L92.4044 59.7614L92.473 59.4219L92.4407 59.0582L92.1661 59.0218H91.8632L91.6613 58.9975H91.3665C91.3422 58.9046 91.3665 58.8318 91.3665 58.751C91.3416 58.6698 91.3294 58.5853 91.3301 58.5004C91.331 58.4023 91.3432 58.3047 91.3665 58.2094C91.4836 58.2094 91.6249 58.2094 91.742 58.2094C91.8592 58.2094 91.9319 58.1488 92.0369 58.1488H92.3438C92.4488 58.1488 92.6144 58.173 92.7234 58.173C92.81 58.1758 92.8963 58.1839 92.9819 58.1973C93.099 58.1973 93.2404 58.1973 93.3858 58.1973L93.515 58.3145L93.5514 58.6216V58.9369L93.515 59.2926L93.4787 59.5997L93.5029 59.9271L93.5514 60.2101V60.5415L93.515 60.8365L93.8664 60.8123H94.2097L94.4924 60.8486L94.7993 60.8244L95.2032 60.8001L95.5101 60.8486H95.8413L96.1927 60.8001L96.4754 60.8244H96.851V60.4687V60.1413L96.8267 59.8342L96.8752 59.527V59.1511V58.8682L96.8267 58.5125L96.8631 58.1851L97.17 58.1488C97.2871 58.1488 97.4164 58.1245 97.5335 58.1245C97.6506 58.1245 97.796 58.173 97.9131 58.1851L98.0181 58.2902L97.9697 58.6095L98.0181 58.949L97.9495 59.232L98.006 59.5634L97.9495 59.8908V60.1737L97.9131 60.493L97.9495 60.8365V61.1518L97.901 61.459L97.9253 61.7419V62.0612L97.9576 62.4007V62.7321L97.9253 63.0393C97.917 63.1087 97.9256 63.179 97.9502 63.2445C97.9748 63.3099 98.0147 63.3684 98.0666 63.4152C98.1076 63.4562 98.157 63.4879 98.2114 63.5081C98.2657 63.5283 98.3238 63.5366 98.3816 63.5324C98.4683 63.5349 98.5549 63.5281 98.6401 63.5122C98.7491 63.4879 98.9026 63.4515 99.0197 63.4152C99.0555 63.5078 99.0866 63.6022 99.1126 63.6981C99.1248 63.8042 99.1248 63.9113 99.1126 64.0174C99.0912 64.1052 99.0643 64.1916 99.0318 64.276C98.9343 64.2934 98.8359 64.3055 98.737 64.3124C98.6281 64.3451 98.5176 64.3721 98.4059 64.3933C98.3009 64.3991 98.1958 64.3991 98.0908 64.3933C97.9383 64.4141 97.784 64.4196 97.6304 64.4094Z" fill="#000100"/>
<path d="M104.735 64.4782C104.596 64.453 104.461 64.4138 104.331 64.3609C104.214 64.3246 104.072 64.3124 103.967 64.268C103.864 64.2178 103.764 64.1611 103.668 64.0982C103.583 64.0442 103.505 63.9804 103.434 63.9083C103.36 63.8244 103.3 63.7288 103.256 63.6254C103.181 63.5283 103.114 63.4256 103.055 63.3182C103.009 63.2087 102.974 63.095 102.95 62.9787C102.929 62.8573 102.92 62.734 102.925 62.6109C102.913 62.4764 102.913 62.3411 102.925 62.2067C102.945 62.0969 102.978 61.9898 103.022 61.8874C103.084 61.7886 103.154 61.6952 103.232 61.6085C103.297 61.5039 103.376 61.4087 103.466 61.3256C103.551 61.2551 103.642 61.1915 103.737 61.1356C103.835 61.0804 103.938 61.0331 104.044 60.9942C104.159 60.946 104.278 60.9068 104.399 60.877C104.499 60.841 104.602 60.8126 104.706 60.7921L105.187 60.7598C105.328 60.7598 105.433 60.7355 105.591 60.7355H105.97C106.075 60.7294 106.181 60.7294 106.285 60.7355C106.39 60.7355 106.439 60.78 106.544 60.7921C106.648 60.8101 106.75 60.8344 106.851 60.8648C106.948 60.8891 107.121 60.9093 107.231 60.9335C107.34 60.9578 107.392 61.0063 107.501 61.0265L107.521 60.7678L107.501 60.4526C107.499 60.3165 107.483 60.181 107.453 60.0484C107.443 59.9287 107.418 59.8107 107.38 59.6968C107.316 59.5949 107.237 59.5035 107.146 59.426C107.077 59.3411 107.029 59.2239 106.936 59.1673C106.834 59.1212 106.727 59.0886 106.617 59.0703C106.5 59.038 106.334 58.9531 106.213 58.9288C106.078 58.9191 105.943 58.9191 105.809 58.9288C105.704 58.9288 105.55 58.9288 105.429 58.9288C105.328 58.9309 105.227 58.939 105.126 58.9531C105.005 58.9773 104.937 59.0258 104.819 59.0501C104.703 59.064 104.589 59.087 104.476 59.1188C104.371 59.1552 104.242 59.1875 104.137 59.236L103.769 59.4017C103.664 59.4624 103.596 59.5189 103.499 59.5796C103.406 59.4968 103.331 59.3965 103.277 59.2845C103.221 59.1998 103.188 59.1025 103.18 59.0016C103.165 58.8835 103.165 58.764 103.18 58.6459C103.289 58.5893 103.394 58.5651 103.511 58.5166C103.628 58.4681 103.769 58.4236 103.887 58.3872C104.004 58.3509 104.076 58.2822 104.193 58.2579L104.537 58.1892C104.654 58.165 104.783 58.1528 104.9 58.1407C105.017 58.1286 105.102 58.165 105.219 58.1407C105.336 58.1165 105.49 58.0801 105.623 58.0801C105.756 58.0801 105.825 58.0801 105.942 58.0801C106.059 58.0801 106.201 58.0801 106.346 58.0801C106.491 58.0801 106.653 58.0801 106.782 58.1043C106.911 58.1286 107.016 58.1528 107.134 58.1852C107.243 58.2339 107.35 58.2892 107.453 58.3509C107.558 58.3994 107.687 58.4115 107.784 58.4681C107.881 58.5247 107.901 58.6217 107.97 58.6944C108.063 58.7748 108.147 58.8657 108.22 58.9652C108.281 59.0427 108.335 59.1251 108.382 59.2118C108.427 59.3272 108.464 59.4461 108.491 59.5674C108.511 59.6968 108.547 59.8261 108.559 59.9716C108.571 60.1171 108.583 60.2869 108.583 60.4405V60.7355L108.62 61.1033L108.559 61.4064L108.62 61.7379V62.045L108.571 62.3401V62.6675L108.596 63.011C108.596 63.1127 108.629 63.2116 108.688 63.2939C108.728 63.3741 108.796 63.4373 108.878 63.4718C108.953 63.5009 109.033 63.512 109.113 63.5041C109.189 63.4984 109.264 63.4876 109.339 63.4718C109.419 63.4718 109.468 63.4718 109.549 63.4718C109.644 63.4578 109.739 63.4375 109.831 63.4111C109.849 63.5087 109.861 63.6072 109.868 63.7062C109.866 63.7969 109.858 63.8874 109.844 63.977C109.85 64.0631 109.85 64.1495 109.844 64.2357C109.784 64.2654 109.72 64.2859 109.654 64.2963C109.573 64.2963 109.456 64.2963 109.363 64.2963C109.27 64.2963 109.113 64.365 109.02 64.365C108.934 64.3713 108.847 64.3713 108.761 64.365C108.594 64.3685 108.428 64.3536 108.264 64.3205C108.148 64.298 108.037 64.2542 107.937 64.1912C107.84 64.1184 107.832 64.0134 107.772 63.9083C107.699 63.7973 107.65 63.6718 107.63 63.5405L107.594 63.3061L107.618 63.1161C107.576 63.197 107.524 63.2729 107.465 63.3424C107.418 63.4262 107.362 63.5048 107.299 63.5769C107.22 63.6739 107.134 63.7645 107.041 63.8476C106.96 63.9204 106.855 63.9285 106.758 63.9891C106.661 64.0683 106.559 64.1399 106.451 64.2033C106.334 64.2478 106.253 64.2599 106.124 64.2963C105.982 64.3455 105.836 64.3807 105.688 64.4014C105.522 64.4135 105.356 64.4135 105.191 64.4014C105.005 64.4782 104.88 64.5024 104.735 64.4782ZM105.865 63.69C106.002 63.6499 106.137 63.6027 106.269 63.5486C106.374 63.5031 106.477 63.4518 106.576 63.395C106.687 63.3545 106.794 63.303 106.895 63.2414C106.983 63.1494 107.057 63.0461 107.117 62.9342C107.19 62.8413 107.295 62.7806 107.356 62.6634C107.398 62.5484 107.433 62.431 107.461 62.3118C107.492 62.1685 107.504 62.0217 107.497 61.8753V61.7581C107.424 61.7338 107.376 61.7096 107.295 61.6853L106.964 61.5924C106.871 61.5681 106.79 61.5317 106.681 61.5075C106.601 61.4829 106.518 61.464 106.435 61.4509L106.059 61.4024C105.945 61.3963 105.83 61.3963 105.716 61.4024C105.546 61.4094 105.378 61.4297 105.211 61.463C105.073 61.4774 104.938 61.5087 104.807 61.556C104.692 61.595 104.581 61.6465 104.476 61.7096C104.395 61.7624 104.324 61.8295 104.266 61.9076C104.194 61.9956 104.138 62.0955 104.101 62.2027C104.053 62.3201 104.025 62.4442 104.016 62.5705C104.026 62.6965 104.059 62.8197 104.113 62.9342C104.147 63.0393 104.203 63.1359 104.278 63.2171C104.338 63.3074 104.413 63.3867 104.5 63.4516C104.572 63.5003 104.651 63.5371 104.735 63.5607C104.865 63.6155 105 63.6588 105.138 63.69C105.261 63.7022 105.384 63.7022 105.506 63.69C105.625 63.7032 105.746 63.7046 105.865 63.6941V63.69Z" fill="#000100"/>
<path d="M113.664 64.4414C113.56 64.4196 113.458 64.3926 113.357 64.3605C113.337 64.2676 113.288 64.1827 113.276 64.0897C113.272 63.9948 113.281 63.8997 113.301 63.8068C113.311 63.699 113.33 63.5922 113.357 63.4875C113.466 63.5196 113.576 63.5439 113.688 63.5603C113.799 63.5662 113.909 63.5662 114.019 63.5603C114.157 63.5552 114.293 63.5307 114.423 63.4875C114.514 63.4695 114.601 63.4382 114.682 63.3946C114.791 63.3377 114.894 63.27 114.989 63.1925C115.07 63.1116 115.082 62.9944 115.142 62.8772C115.207 62.7471 115.261 62.6119 115.304 62.4731C115.361 62.3415 115.409 62.2065 115.449 62.0689C115.312 62.0559 115.177 62.0289 115.045 61.988C114.908 61.969 114.773 61.9378 114.641 61.8951C114.551 61.8528 114.468 61.7969 114.395 61.7294C114.296 61.6526 114.202 61.5702 114.112 61.4828C114.032 61.4038 113.962 61.3157 113.902 61.2201C113.834 61.1362 113.774 61.0455 113.725 60.9493C113.669 60.8199 113.63 60.6842 113.608 60.5451C113.582 60.4256 113.57 60.3036 113.571 60.1814C113.579 60.0653 113.598 59.9503 113.628 59.8378C113.637 59.7278 113.653 59.6185 113.676 59.5105C113.714 59.3866 113.766 59.2673 113.83 59.1548C113.89 59.0618 113.983 59.0133 114.052 58.9325C114.12 58.8517 114.137 58.7668 114.229 58.694C114.326 58.6192 114.429 58.553 114.536 58.496C114.638 58.4505 114.745 58.4192 114.856 58.403C114.987 58.3461 115.121 58.2988 115.259 58.2616C115.394 58.2505 115.529 58.2505 115.663 58.2616H115.958L116.362 58.2373L116.705 58.2696H116.996H117.364H117.622L117.941 58.2373L118.28 58.2696H118.66H118.906L119.31 58.302L119.617 58.2575L119.936 58.2818C119.956 58.3626 119.993 58.4556 120.005 58.5404V58.7991C120.005 58.8921 119.948 58.985 119.936 59.0699H119.629L119.262 59.1184H118.91L118.874 59.47L118.947 59.8338L118.874 60.1652V61.9315L118.935 62.275L118.91 62.6307V63.0349V63.3865L118.886 63.73L118.947 64.0453L118.922 64.4131C118.832 64.4189 118.742 64.4189 118.652 64.4131C118.572 64.439 118.489 64.4579 118.405 64.4697C118.309 64.4697 118.264 64.4454 118.167 64.4373C118.066 64.4319 117.964 64.4198 117.864 64.401L117.804 64.0978V63.7462L117.872 63.4148V63.0591L117.852 62.7317V62.077L117.557 62.1012H117.275L116.931 62.077L116.661 62.0568L116.366 62.077C116.342 62.2305 116.342 62.3599 116.309 62.4811C116.276 62.6178 116.235 62.7527 116.188 62.8853C116.134 63.0102 116.072 63.1316 116.002 63.2491C115.934 63.3486 115.858 63.4431 115.776 63.532C115.716 63.6343 115.65 63.7328 115.578 63.827C115.497 63.8988 115.41 63.9649 115.32 64.0251C115.232 64.0898 115.137 64.1453 115.037 64.1908C114.942 64.2382 114.844 64.2774 114.742 64.308C114.631 64.3438 114.516 64.3682 114.399 64.3808C114.283 64.4015 114.166 64.4164 114.048 64.4252C113.902 64.4293 113.765 64.4535 113.664 64.4414ZM116.245 61.3777H116.879L117.162 61.3535H117.481H117.832L117.868 61.014L117.832 60.6947L117.868 60.3309V59.6519L117.8 59.3326L117.832 58.9769H117.493L117.246 59.0012L116.891 58.9567H116.56H115.974C115.855 58.9557 115.736 58.9679 115.619 58.9931C115.493 59.0233 115.372 59.0666 115.255 59.1224C115.149 59.1674 115.05 59.2273 114.96 59.3003C114.897 59.3626 114.849 59.4386 114.819 59.5226C114.76 59.5999 114.716 59.6877 114.69 59.7813C114.657 59.9056 114.637 60.0328 114.629 60.1612C114.63 60.2889 114.65 60.4157 114.69 60.5371C114.713 60.658 114.757 60.7741 114.819 60.8806C114.895 60.9806 114.986 61.068 115.09 61.1393C115.218 61.1997 115.354 61.2432 115.494 61.2686C115.631 61.3121 115.774 61.3352 115.918 61.3373L116.245 61.3777Z" fill="#000100"/>
<path d="M34.3771 13.5116L41.1176 10.2782C41.3689 10.1863 41.6463 10.1971 41.8896 10.3083C42.133 10.4195 42.3229 10.6221 42.4181 10.8723C42.4849 10.9861 42.5286 11.112 42.5467 11.2427C42.5648 11.3734 42.557 11.5065 42.5236 11.6341C42.4902 11.7618 42.4319 11.8816 42.3521 11.9867C42.2723 12.0918 42.1726 12.1801 42.0586 12.2465L35.3221 15.4799C35.1999 15.5259 35.0698 15.5474 34.9392 15.543C34.8087 15.5387 34.6803 15.5086 34.5614 15.4546C34.4425 15.4005 34.3354 15.3235 34.2463 15.228C34.1571 15.1325 34.0877 15.0203 34.0419 14.8979C33.9042 14.6692 33.8622 14.3954 33.9249 14.1358C33.9877 13.8763 34.1501 13.652 34.3771 13.5116Z" fill="#FFCF00"/>
</g>
<defs>
<clipPath id="clip0_245_10300">
<rect width="160" height="67" fill="white"/>
</clipPath>
</defs>
</svg>
