<svg width="30" height="30" viewBox="0 0 30 30" fill="none" xmlns="http://www.w3.org/2000/svg">
<path d="M15 30C23.2843 30 30 23.2843 30 15C30 6.71573 23.2843 0 15 0C6.71573 0 0 6.71573 0 15C0 23.2843 6.71573 30 15 30Z" fill="url(#paint0_linear_553_7603)"/>
<path fill-rule="evenodd" clip-rule="evenodd" d="M6.79173 14.839C11.1645 12.9338 14.0804 11.6778 15.5394 11.071C19.7051 9.33837 20.5706 9.03739 21.1348 9.02745C21.2589 9.02526 21.5363 9.05602 21.7161 9.20184C21.8678 9.32498 21.9096 9.49132 21.9296 9.60806C21.9495 9.72481 21.9744 9.99076 21.9546 10.1986C21.7289 12.5704 20.7521 18.3263 20.2552 20.9828C20.0449 22.1069 19.6309 22.4838 19.2301 22.5207C18.359 22.6008 17.6976 21.945 16.8539 21.3919C15.5337 20.5265 14.7879 19.9878 13.5064 19.1433C12.0254 18.1674 12.9855 17.631 13.8295 16.7544C14.0503 16.525 17.8883 13.034 17.9626 12.7174C17.9719 12.6777 17.9805 12.5301 17.8928 12.4522C17.8051 12.3742 17.6757 12.4009 17.5822 12.4221C17.4498 12.4521 15.3408 13.8461 11.2552 16.604C10.6565 17.0151 10.1143 17.2154 9.62847 17.2049C9.09289 17.1933 8.06266 16.9021 7.29678 16.6531C6.35741 16.3478 5.61081 16.1863 5.67582 15.6677C5.70968 15.3976 6.08165 15.1214 6.79173 14.839Z" fill="white"/>
<defs>
<linearGradient id="paint0_linear_553_7603" x1="15" y1="0" x2="15" y2="29.7775" gradientUnits="userSpaceOnUse">
<stop stop-color="#2AABEE"/>
<stop offset="1" stop-color="#229ED9"/>
</linearGradient>
</defs>
</svg>
