<svg width="43" height="30" viewBox="0 0 43 30" fill="none" xmlns="http://www.w3.org/2000/svg">
<path d="M42.1045 4.69676C41.8589 3.78934 41.3785 2.96202 40.7114 2.29747C40.0443 1.63291 39.2138 1.1544 38.3028 0.909733C34.9472 6.72549e-07 21.5 0 21.5 0C21.5 0 8.04923 3.36274e-07 4.70069 0.895628C3.78776 1.14086 2.95576 1.62128 2.2884 2.28856C1.62104 2.95583 1.14186 3.78642 0.899076 4.69676C-2.36299e-06 8.03597 0 15.0071 0 15.0071C0 15.0071 -2.36299e-06 21.9781 0.899076 25.3173C1.14403 26.2251 1.62418 27.0527 2.29139 27.7174C2.9586 28.3821 3.78946 28.8604 4.70069 29.1044C8.05277 30 21.5 30 21.5 30C21.5 30 34.9508 30 38.3028 29.1044C39.2138 28.8597 40.0443 28.3812 40.7114 27.7166C41.3785 27.0521 41.8589 26.2248 42.1045 25.3173C43 21.9781 43 15.0071 43 15.0071C43 15.0071 42.9894 8.03597 42.1045 4.69676Z" fill="#E70000"/>
<path d="M17.1992 21.4311L28.374 15.0066L17.1992 8.58203V21.4311Z" fill="white"/>
</svg>
